<?xml version="1.0" encoding="UTF-8"?>
<svg width="99px" height="75px" viewBox="0 0 99 75" version="1.1" xmlns="http://www.w3.org/2000/svg" xmlns:xlink="http://www.w3.org/1999/xlink">
    <!-- Generator: Sketch 58 (84663) - https://sketch.com -->
    <title>开发套件</title>
    <desc>Created with Sketch.</desc>
    <g id="idux-首页" stroke="none" stroke-width="1" fill="none" fill-rule="evenodd">
        <g id="idux-home" transform="translate(-911.000000, -1194.000000)" fill-rule="nonzero">
            <g id="编组-23" transform="translate(760.000000, 1124.000000)">
                <g id="开发套件" transform="translate(151.000000, 70.000000)">
                    <path d="M81,42 L9,42 C7.2,42 6,43.2 6,45 L6,69 L3,69 C1.2,69 2.55795385e-14,67.8 2.55795385e-14,66 L2.55795385e-14,3 C2.55795385e-14,1.2 1.2,1.70530257e-14 3,1.70530257e-14 L78,1.70530257e-14 C79.8,1.70530257e-14 81,1.2 81,3 L81,42 Z" id="路径" fill="#DDE5FF"></path>
                    <path d="M15,48 L96,48 C97.8,48 99,49.2 99,51 L99,72 C99,73.8 97.8,75 96,75 L15,75 C13.2,75 12,73.8 12,72 L12,51 C12,49.2 13.2,48 15,48 Z M30,57 L30,66 L39,66 L39,57 L30,57 Z M51,57 L51,66 L60,66 L60,57 L51,57 Z M72,57 L72,66 L81,66 L81,57 L72,57 Z" id="形状" fill="#6B8BF2"></path>
                </g>
            </g>
        </g>
    </g>
</svg>