<?xml version="1.0" encoding="UTF-8"?>
<svg width="92px" height="92px" viewBox="0 0 92 92" version="1.1" xmlns="http://www.w3.org/2000/svg" xmlns:xlink="http://www.w3.org/1999/xlink">
    <!-- Generator: Sketch 58 (84663) - https://sketch.com -->
    <title>高级组件</title>
    <desc>Created with Sketch.</desc>
    <g id="idux-首页" stroke="none" stroke-width="1" fill="none" fill-rule="evenodd">
        <g id="idux-home" transform="translate(-1354.000000, -1186.000000)" fill-rule="nonzero">
            <g id="编组-24" transform="translate(1200.000000, 1124.000000)">
                <g id="高级组件" transform="translate(154.000000, 62.000000)">
                    <path d="M82.8,1.86771233e-14 L9.2,1.86771233e-14 C4.27142857,1.86771233e-14 1.86771233e-14,4.27142857 1.86771233e-14,9.2 L1.86771233e-14,82.8 C1.86771233e-14,87.7285714 4.27142857,92 9.2,92 L82.8,92 C87.7285714,92 92,87.7285714 92,82.8 L92,9.2 C92,4.27142857 87.7285714,1.86771233e-14 82.8,1.86771233e-14 Z M85.4285714,81.1571429 C85.4285714,83.4571429 83.4571429,85.4285714 81.1571429,85.4285714 L10.8428571,85.4285714 C8.54285714,85.4285714 6.57142857,83.4571429 6.57142857,81.1571429 L6.57142857,10.8428571 C6.57142857,8.54285714 8.54285714,6.57142857 10.8428571,6.57142857 L80.8285714,6.57142857 C83.4571429,6.57142857 85.4285714,8.54285714 85.4285714,10.8428571 L85.4285714,81.1571429 Z" id="形状" fill="#DDE5FF"></path>
                    <path d="M75.5714286,75.5714286 L69,75.5714286 L69,72.2857143 L75.5714286,72.2857143 L75.5714286,65.7142857 L65.7142857,65.7142857 L65.7142857,62.4285714 L78.8571429,62.4285714 L78.8571429,75.5714286 L75.5714286,75.5714286 L75.5714286,75.5714286 Z M16.4285714,75.5714286 L13.1428571,75.5714286 L13.1428571,62.4285714 L23,62.4285714 L23,65.7142857 L16.4285714,65.7142857 L16.4285714,72.2857143 L26.2857143,72.2857143 L26.2857143,75.5714286 L16.4285714,75.5714286 L16.4285714,75.5714286 Z M52.5714286,62.4285714 L62.4285714,62.4285714 L62.4285714,65.7142857 L52.5714286,65.7142857 L52.5714286,62.4285714 Z M39.4285714,62.4285714 L49.2857143,62.4285714 L49.2857143,65.7142857 L39.4285714,65.7142857 L39.4285714,62.4285714 L39.4285714,62.4285714 Z M26.2857143,62.4285714 L36.1428571,62.4285714 L36.1428571,65.7142857 L26.2857143,65.7142857 L26.2857143,62.4285714 Z M29.5714286,72.2857143 L39.4285714,72.2857143 L39.4285714,75.5714286 L29.5714286,75.5714286 L29.5714286,72.2857143 Z M42.7142857,72.2857143 L52.5714286,72.2857143 L52.5714286,75.5714286 L42.7142857,75.5714286 L42.7142857,72.2857143 L42.7142857,72.2857143 Z M55.8571429,72.2857143 L65.7142857,72.2857143 L65.7142857,75.5714286 L55.8571429,75.5714286 L55.8571429,72.2857143 Z" id="形状" fill="#C5D2FE"></path>
                    <path d="M78.8571429,39.4285714 L78.8571429,52.5714286 L13.1428571,52.5714286 L13.1428571,39.4285714 L78.8571429,39.4285714 Z M78.8571429,16.4285714 L78.8571429,29.5714286 L13.1428571,29.5714286 L13.1428571,16.4285714 L78.8571429,16.4285714 Z" id="形状结合" fill="#6B8BF2"></path>
                </g>
            </g>
        </g>
    </g>
</svg>