<?xml version="1.0" encoding="UTF-8"?>
<svg width="95px" height="95px" viewBox="0 0 95 95" version="1.1" xmlns="http://www.w3.org/2000/svg" xmlns:xlink="http://www.w3.org/1999/xlink">
    <!-- Generator: Sketch 58 (84663) - https://sketch.com -->
    <title>基础组件</title>
    <desc>Created with Sketch.</desc>
    <g id="idux-首页" stroke="none" stroke-width="1" fill="none" fill-rule="evenodd">
        <g id="idux-home" transform="translate(-473.000000, -1184.000000)" fill-rule="nonzero">
            <g id="编组-22" transform="translate(320.000000, 1124.000000)">
                <g id="基础组件" transform="translate(153.000000, 60.000000)">
                    <path d="M16.7647059,11.1764706 L78.2352941,11.1764706 C81.3088235,11.1764706 83.8235294,13.6911765 83.8235294,16.7647059 L83.8235294,78.2352941 C83.8235294,81.3088235 81.3088235,83.8235294 78.2352941,83.8235294 L16.7647059,83.8235294 C13.6911765,83.8235294 11.1764706,81.3088235 11.1764706,78.2352941 L11.1764706,16.7647059 C11.1764706,13.6911765 13.6911765,11.1764706 16.7647059,11.1764706 Z" id="路径" fill="#DDE5FF"></path>
                    <path d="M3.07352941,44.1470588 C3.07352941,44.9852941 3.91176471,45.5441176 4.47058824,45.5441176 C5.02941176,45.5441176 5.86764706,44.7058824 5.86764706,44.1470588 L5.86764706,41.0735294 C5.86764706,40.2352941 5.02941176,39.6764706 4.47058824,39.6764706 C3.91176471,39.6764706 3.07352941,40.5147059 3.07352941,41.0735294 L3.07352941,44.1470588 L3.07352941,44.1470588 Z M3.07352941,34.3676471 C3.07352941,35.2058824 3.91176471,35.7647059 4.47058824,35.7647059 C5.02941176,35.7647059 5.86764706,34.9264706 5.86764706,34.3676471 L5.86764706,31.2941176 C5.86764706,30.4558824 5.02941176,29.8970588 4.47058824,29.8970588 C3.91176471,29.8970588 3.07352941,30.7352941 3.07352941,31.2941176 L3.07352941,34.3676471 L3.07352941,34.3676471 Z M3.07352941,53.9264706 C3.07352941,54.7647059 3.91176471,55.3235294 4.47058824,55.3235294 C5.02941176,55.3235294 5.86764706,54.4852941 5.86764706,53.9264706 L5.86764706,50.8529412 C5.86764706,50.0147059 5.02941176,49.4558824 4.47058824,49.4558824 C3.91176471,49.4558824 3.07352941,50.2941176 3.07352941,50.8529412 L3.07352941,53.9264706 L3.07352941,53.9264706 Z M4.47058824,25.9852941 C5.30882353,25.9852941 5.86764706,25.1470588 5.86764706,24.5882353 L5.86764706,21.2352941 C5.86764706,20.3970588 5.02941176,19.8382353 4.47058824,19.8382353 C3.91176471,19.8382353 3.07352941,20.6764706 3.07352941,21.5147059 L3.07352941,24.5882353 C3.07352941,25.4264706 3.63235294,25.9852941 4.47058824,25.9852941 L4.47058824,25.9852941 Z M3.07352941,63.7058824 C3.07352941,64.5441176 3.91176471,65.1029412 4.47058824,65.1029412 C5.02941176,65.1029412 5.86764706,64.2647059 5.86764706,63.7058824 L5.86764706,60.6323529 C5.86764706,59.7941176 5.02941176,59.2352941 4.47058824,59.2352941 C3.91176471,59.2352941 3.07352941,60.0735294 3.07352941,60.6323529 L3.07352941,63.7058824 L3.07352941,63.7058824 Z M3.07352941,73.4852941 C3.07352941,74.3235294 3.63235294,74.8823529 4.47058824,74.8823529 C5.30882353,74.8823529 5.86764706,74.0441176 5.86764706,73.4852941 L5.86764706,70.4117647 C5.86764706,69.5735294 5.02941176,69.0147059 4.47058824,69.0147059 C3.91176471,69.0147059 3.07352941,69.8529412 3.07352941,70.4117647 L3.07352941,73.4852941 L3.07352941,73.4852941 Z M88.8529412,44.1470588 C88.8529412,44.9852941 89.6911765,45.5441176 90.25,45.5441176 C90.8088235,45.5441176 91.6470588,44.7058824 91.6470588,44.1470588 L91.6470588,41.0735294 C91.6470588,40.2352941 90.8088235,39.6764706 90.25,39.6764706 C89.6911765,39.6764706 88.8529412,40.5147059 88.8529412,41.0735294 L88.8529412,44.1470588 Z M88.8529412,34.3676471 C88.8529412,35.2058824 89.6911765,35.7647059 90.25,35.7647059 C90.8088235,35.7647059 91.6470588,34.9264706 91.6470588,34.3676471 L91.6470588,31.2941176 C91.6470588,30.4558824 90.8088235,29.8970588 90.25,29.8970588 C89.6911765,29.8970588 88.8529412,30.7352941 88.8529412,31.2941176 L88.8529412,34.3676471 Z M88.8529412,53.9264706 C88.8529412,54.7647059 89.6911765,55.3235294 90.25,55.3235294 C90.8088235,55.3235294 91.6470588,54.4852941 91.6470588,53.9264706 L91.6470588,50.8529412 C91.6470588,50.0147059 90.8088235,49.4558824 90.25,49.4558824 C89.6911765,49.4558824 88.8529412,50.2941176 88.8529412,50.8529412 L88.8529412,53.9264706 Z M90.25,25.9852941 C91.0882353,25.9852941 91.6470588,25.1470588 91.6470588,24.5882353 L91.6470588,21.2352941 C91.6470588,20.3970588 90.8088235,19.8382353 90.25,19.8382353 C89.4117647,19.8382353 88.8529412,20.6764706 88.8529412,21.2352941 L88.8529412,24.3088235 C88.8529412,25.4264706 89.4117647,25.9852941 90.25,25.9852941 L90.25,25.9852941 Z M88.8529412,63.7058824 C88.8529412,64.5441176 89.6911765,65.1029412 90.25,65.1029412 C90.8088235,65.1029412 91.6470588,64.2647059 91.6470588,63.7058824 L91.6470588,60.6323529 C91.6470588,59.7941176 90.8088235,59.2352941 90.25,59.2352941 C89.6911765,59.2352941 88.8529412,60.0735294 88.8529412,60.6323529 L88.8529412,63.7058824 Z M88.8529412,73.4852941 C88.8529412,74.3235294 89.6911765,74.8823529 90.25,74.8823529 C90.8088235,74.8823529 91.6470588,74.0441176 91.6470588,73.4852941 L91.6470588,70.4117647 C91.6470588,69.5735294 90.8088235,69.0147059 90.25,69.0147059 C89.6911765,69.0147059 88.8529412,69.8529412 88.8529412,70.4117647 L88.8529412,73.4852941 Z M44.1470588,88.8529412 L41.0735294,88.8529412 C40.2352941,88.8529412 39.6764706,89.6911765 39.6764706,90.25 C39.6764706,90.8088235 40.5147059,91.6470588 41.0735294,91.6470588 L44.1470588,91.6470588 C44.9852941,91.6470588 45.5441176,90.8088235 45.5441176,90.25 C45.5441176,89.6911765 44.9852941,88.8529412 44.1470588,88.8529412 Z M34.3676471,88.8529412 L31.2941176,88.8529412 C30.4558824,88.8529412 29.8970588,89.6911765 29.8970588,90.25 C29.8970588,90.8088235 30.7352941,91.6470588 31.2941176,91.6470588 L34.3676471,91.6470588 C35.2058824,91.6470588 35.7647059,90.8088235 35.7647059,90.25 C35.7647059,89.6911765 35.2058824,88.8529412 34.3676471,88.8529412 Z M53.9264706,88.8529412 L50.8529412,88.8529412 C50.0147059,88.8529412 49.4558824,89.6911765 49.4558824,90.25 C49.4558824,90.8088235 50.2941176,91.6470588 50.8529412,91.6470588 L53.9264706,91.6470588 C54.7647059,91.6470588 55.3235294,90.8088235 55.3235294,90.25 C55.3235294,89.6911765 54.7647059,88.8529412 53.9264706,88.8529412 Z M24.3088235,88.8529412 L21.2352941,88.8529412 C20.3970588,88.8529412 19.8382353,89.6911765 19.8382353,90.25 C19.8382353,90.8088235 20.6764706,91.6470588 21.2352941,91.6470588 L24.3088235,91.6470588 C25.1470588,91.6470588 25.7058824,90.8088235 25.7058824,90.25 C25.7058824,89.6911765 25.4264706,88.8529412 24.3088235,88.8529412 Z M14.8088235,87.7352941 L10.0588235,87.7352941 L10.0588235,86.3382353 C10.0588235,85.5 9.22058824,84.6617647 8.38235294,84.6617647 L6.14705882,84.6617647 L6.14705882,79.6323529 C6.14705882,78.7941176 5.30882353,77.9558824 4.75,77.9558824 C4.19117647,77.9558824 3.35294118,78.7941176 3.35294118,79.6323529 L3.35294118,84.6617647 L1.67647059,84.6617647 C0.838235294,84.6617647 5.32907052e-15,85.5 5.32907052e-15,86.3382353 L5.32907052e-15,93.0441176 C5.32907052e-15,94.1617647 0.838235294,95 1.67647059,95 L8.38235294,95 C9.22058824,95 10.0588235,94.1617647 10.0588235,93.3235294 L10.0588235,91.9264706 L14.5294118,91.9264706 C15.3676471,91.6470588 16.2058824,90.8088235 16.2058824,89.9705882 C16.2058824,89.1323529 14.8088235,87.7352941 14.8088235,87.7352941 L14.8088235,87.7352941 Z M63.7058824,88.8529412 L60.6323529,88.8529412 C59.7941176,88.8529412 59.2352941,89.6911765 59.2352941,90.25 C59.2352941,90.8088235 60.0735294,91.6470588 60.6323529,91.6470588 L63.7058824,91.6470588 C64.5441176,91.6470588 65.1029412,90.8088235 65.1029412,90.25 C65.1029412,89.6911765 64.5441176,88.8529412 63.7058824,88.8529412 Z M73.4852941,88.8529412 L70.4117647,88.8529412 C69.5735294,88.8529412 69.0147059,89.6911765 69.0147059,90.25 C69.0147059,90.8088235 69.8529412,91.6470588 70.4117647,91.6470588 L73.4852941,91.6470588 C74.3235294,91.6470588 74.8823529,90.8088235 74.8823529,90.25 C74.8823529,89.6911765 74.3235294,88.8529412 73.4852941,88.8529412 Z M41.0735294,6.14705882 L44.1470588,6.14705882 C44.9852941,6.14705882 45.5441176,5.30882353 45.5441176,4.75 C45.5441176,4.19117647 44.7058824,3.35294118 44.1470588,3.35294118 L41.0735294,3.35294118 C40.2352941,3.35294118 39.6764706,4.19117647 39.6764706,4.75 C39.6764706,5.30882353 40.2352941,6.14705882 41.0735294,6.14705882 Z M31.2941176,6.14705882 L34.3676471,6.14705882 C35.2058824,6.14705882 35.7647059,5.30882353 35.7647059,4.75 C35.7647059,4.19117647 34.9264706,3.35294118 34.3676471,3.35294118 L31.2941176,3.35294118 C30.4558824,3.35294118 29.8970588,4.19117647 29.8970588,4.75 C29.8970588,5.30882353 30.4558824,6.14705882 31.2941176,6.14705882 Z M50.8529412,6.14705882 L53.9264706,6.14705882 C54.7647059,6.14705882 55.3235294,5.30882353 55.3235294,4.75 C55.3235294,4.19117647 54.4852941,3.35294118 53.9264706,3.35294118 L50.8529412,3.35294118 C50.0147059,3.35294118 49.4558824,4.19117647 49.4558824,4.75 C49.4558824,5.30882353 50.0147059,6.14705882 50.8529412,6.14705882 Z M21.5147059,6.14705882 L24.5882353,6.14705882 C25.4264706,6.14705882 25.9852941,5.30882353 25.9852941,4.75 C25.9852941,4.19117647 25.4264706,3.07352941 24.5882353,3.07352941 L21.5147059,3.07352941 C20.6764706,3.07352941 20.1176471,3.91176471 20.1176471,4.75 C20.1176471,5.58823529 20.3970588,6.14705882 21.5147059,6.14705882 Z M14.5294118,3.07352941 L10.0588235,3.07352941 L10.0588235,1.67647059 C10.0588235,0.838235294 9.22058824,0 8.38235294,0 L1.67647059,0 C0.838235294,0 0,0.838235294 0,1.67647059 L0,8.38235294 C0,9.22058824 0.838235294,10.0588235 1.67647059,10.0588235 L3.07352941,10.0588235 L3.07352941,14.5294118 C3.35294118,15.3676471 4.19117647,16.2058824 5.02941176,16.2058824 C5.86764706,16.2058824 7.26470588,14.5294118 7.26470588,14.5294118 L7.26470588,10.0588235 L8.38235294,10.0588235 C9.22058824,10.0588235 10.0588235,9.22058824 10.0588235,8.38235294 L10.0588235,6.14705882 L14.5294118,6.14705882 C15.3676471,6.14705882 15.9264706,5.30882353 15.9264706,4.75 C16.2058824,3.63235294 15.6470588,3.07352941 14.5294118,3.07352941 L14.5294118,3.07352941 Z M60.6323529,6.14705882 L63.7058824,6.14705882 C64.5441176,6.14705882 65.1029412,5.30882353 65.1029412,4.75 C65.1029412,4.19117647 64.2647059,3.35294118 63.7058824,3.35294118 L60.6323529,3.35294118 C59.7941176,3.35294118 59.2352941,4.19117647 59.2352941,4.75 C59.2352941,5.30882353 59.7941176,6.14705882 60.6323529,6.14705882 Z M70.4117647,6.14705882 L73.4852941,6.14705882 C74.3235294,6.14705882 74.8823529,5.58823529 74.8823529,4.75 C74.8823529,3.91176471 74.0441176,3.35294118 73.4852941,3.35294118 L70.4117647,3.35294118 C69.5735294,3.35294118 69.0147059,4.19117647 69.0147059,4.75 C69.0147059,5.30882353 69.5735294,6.14705882 70.4117647,6.14705882 Z M93.3235294,0 L86.6176471,0 C85.7794118,0 84.9411765,0.838235294 84.9411765,1.67647059 L84.9411765,3.07352941 L80.4705882,3.07352941 C79.6323529,3.35294118 78.7941176,4.19117647 78.7941176,5.02941176 C78.7941176,5.86764706 80.4705882,7.26470588 80.4705882,7.26470588 L84.9411765,7.26470588 L84.9411765,8.38235294 C84.9411765,9.22058824 85.7794118,10.0588235 86.6176471,10.0588235 L89.1323529,10.0588235 L89.1323529,15.0882353 C89.1323529,15.9264706 89.9705882,16.7647059 90.5294118,16.7647059 C91.0882353,16.7647059 91.9264706,15.9264706 91.9264706,15.0882353 L91.9264706,10.0588235 L93.3235294,10.0588235 C94.1617647,10.0588235 95,9.5 95,8.38235294 L95,1.67647059 C95,0.838235294 94.1617647,0 93.3235294,0 L93.3235294,0 Z M93.3235294,84.6617647 L91.9264706,84.6617647 L91.9264706,80.1911765 C91.6470588,79.3529412 90.8088235,78.5147059 89.9705882,78.5147059 C89.1323529,78.5147059 87.7352941,80.1911765 87.7352941,80.1911765 L87.7352941,84.6617647 L86.3382353,84.6617647 C85.5,84.6617647 84.6617647,85.5 84.6617647,86.3382353 L84.6617647,88.8529412 L80.1911765,88.8529412 C79.3529412,88.8529412 78.7941176,89.6911765 78.7941176,90.25 C78.7941176,90.8088235 79.6323529,91.6470588 80.1911765,91.6470588 L84.6617647,91.6470588 L84.6617647,93.0441176 C84.6617647,93.8823529 85.5,94.7205882 86.3382353,94.7205882 L93.0441176,94.7205882 C93.8823529,94.7205882 94.7205882,93.8823529 94.7205882,93.0441176 L94.7205882,86.6176471 C95,85.5 94.1617647,84.6617647 93.3235294,84.6617647 L93.3235294,84.6617647 Z" id="形状" fill="#C5D2FE"></path>
                    <path d="M47.2205882,16.4852941 C48.3382353,16.4852941 49.1764706,17.0441176 49.4558824,17.8823529 L49.4558824,17.8823529 L70.1323529,68.1764706 L71.5294118,68.1764706 C73.2058824,68.1764706 74.3235294,69.5735294 73.2058824,71.25 C72.9264706,72.0882353 72.0882353,72.6470588 71.25,72.6470588 L71.25,72.6470588 L57.2794118,72.6470588 C56.1617647,72.6470588 55.3235294,71.8088235 55.0441176,70.6911765 C55.0441176,69.2941176 55.8823529,68.4558824 57,68.1764706 L57,68.1764706 L53.0882353,58.1176471 L34.6470588,58.1176471 L30.4558824,68.1764706 C31.8529412,68.4558824 32.6911765,69.5735294 32.4117647,70.6911765 C32.4117647,71.8088235 31.2941176,72.6470588 30.1764706,72.6470588 L30.1764706,72.6470588 L23.4705882,72.6470588 C21.7941176,72.6470588 20.6764706,70.9705882 21.2352941,69.5735294 C21.5147059,68.7352941 22.3529412,68.1764706 23.1911765,68.1764706 L23.1911765,68.1764706 L24.8676471,68.1764706 L44.9852941,17.8823529 C45.5441176,17.0441176 46.3823529,16.4852941 47.2205882,16.4852941 Z M43.5882353,34.9264706 L36.0441176,53.3676471 L51.1323529,53.3676471 L43.5882353,34.9264706 Z" id="形状结合" fill="#6B8BF2"></path>
                </g>
            </g>
        </g>
    </g>
</svg>