<svg viewBox="0 0 1024 1024" focusable="false"><path d="M308.288 285.248a15.64 15.64 0 0 1 11.264 4.8L344 314.496a15.68 15.68 0 0 1 0 22.528L151.552 529.536 344 721.984a15.68 15.68 0 0 1 2.56 19.264l-2.56 3.2-24.448 24.512a15.68 15.68 0 0 1-22.528 0L68.8 540.8a15.68 15.68 0 0 1 0-22.592l228.16-228.16a15.68 15.68 0 0 1 11.264-4.8zm407.424 0c4.288 0 8.32 1.664 11.264 4.736L955.2 518.208a15.68 15.68 0 0 1 2.56 19.2l-2.56 3.392-228.224 228.16a15.68 15.68 0 0 1-22.528 0L680 744.512a15.68 15.68 0 0 1 0-22.528l192.448-192.512L680 337.024a15.68 15.68 0 0 1 0-22.528l24.448-24.512a15.68 15.68 0 0 1 11.264-4.8z"/></svg>