<?xml version="1.0" encoding="UTF-8"?>
<svg width="1920px" height="814px" viewBox="0 0 1920 814" version="1.1" xmlns="http://www.w3.org/2000/svg" xmlns:xlink="http://www.w3.org/1999/xlink">
    <!-- Generator: Sketch 58 (84663) - https://sketch.com -->
    <title>插画</title>
    <desc>Created with Sketch.</desc>
    <defs>
        <linearGradient x1="50%" y1="0.409100507%" x2="50%" y2="100%" id="linearGradient-1">
            <stop stop-color="#FDFDFF" offset="0%"></stop>
            <stop stop-color="#DEE5FE" offset="100%"></stop>
        </linearGradient>
        <rect id="path-2" x="0" y="0" width="1920" height="814"></rect>
        <rect id="path-4" x="0" y="0" width="668.4" height="462" rx="24"></rect>
        <linearGradient x1="100%" y1="50%" x2="0%" y2="50%" id="linearGradient-6">
            <stop stop-color="#E0E7FE" offset="0%"></stop>
            <stop stop-color="#D2DDFF" offset="100%"></stop>
        </linearGradient>
        <rect id="path-7" x="261.6" y="97.2" width="283.2" height="340.8" rx="4.8"></rect>
        <filter x="-12.7%" y="-10.6%" width="125.4%" height="121.1%" filterUnits="objectBoundingBox" id="filter-8">
            <feOffset dx="0" dy="0" in="SourceAlpha" result="shadowOffsetOuter1"></feOffset>
            <feGaussianBlur stdDeviation="12" in="shadowOffsetOuter1" result="shadowBlurOuter1"></feGaussianBlur>
            <feColorMatrix values="0 0 0 0 0.776470588   0 0 0 0 0.82745098   0 0 0 0 0.996078431  0 0 0 0.25 0" type="matrix" in="shadowBlurOuter1"></feColorMatrix>
        </filter>
        <linearGradient x1="100%" y1="50%" x2="0%" y2="50%" id="linearGradient-9">
            <stop stop-color="#D2DCFF" offset="0%"></stop>
            <stop stop-color="#BECDFC" offset="100%"></stop>
        </linearGradient>
        <linearGradient x1="50%" y1="0%" x2="50%" y2="100%" id="linearGradient-10">
            <stop stop-color="#E8EDFF" offset="0%"></stop>
            <stop stop-color="#DEE5FF" offset="100%"></stop>
        </linearGradient>
        <linearGradient x1="50%" y1="0%" x2="50%" y2="100%" id="linearGradient-11">
            <stop stop-color="#CFD9FD" offset="0%"></stop>
            <stop stop-color="#FBFBFF" offset="100%"></stop>
        </linearGradient>
        <linearGradient x1="54.0830351%" y1="-1.74211552%" x2="24.6008736%" y2="95.4538845%" id="linearGradient-12">
            <stop stop-color="#C5EDB1" offset="0%"></stop>
            <stop stop-color="#65D62C" offset="100%"></stop>
        </linearGradient>
        <linearGradient x1="50%" y1="0%" x2="50%" y2="100%" id="linearGradient-13">
            <stop stop-color="#7897FB" offset="0%"></stop>
            <stop stop-color="#DAE3FF" stop-opacity="0.636035839" offset="100%"></stop>
        </linearGradient>
        <linearGradient x1="50%" y1="0%" x2="50%" y2="100%" id="linearGradient-14">
            <stop stop-color="#7897FB" offset="0%"></stop>
            <stop stop-color="#DAE3FF" stop-opacity="0.636035839" offset="100%"></stop>
        </linearGradient>
        <linearGradient x1="50%" y1="0%" x2="50%" y2="100%" id="linearGradient-15">
            <stop stop-color="#65D62C" offset="0%"></stop>
            <stop stop-color="#C8EEB5" stop-opacity="0" offset="100%"></stop>
        </linearGradient>
        <linearGradient x1="0%" y1="50%" x2="100%" y2="50%" id="linearGradient-16">
            <stop stop-color="#7897FB" offset="0%"></stop>
            <stop stop-color="#CAD7FF" offset="31.4241976%"></stop>
            <stop stop-color="#D8F1D1" offset="67.4329603%"></stop>
            <stop stop-color="#E4F3E2" offset="100%"></stop>
        </linearGradient>
        <linearGradient x1="0%" y1="50%" x2="99.6779983%" y2="50%" id="linearGradient-17">
            <stop stop-color="#9DB4FF" offset="0%"></stop>
            <stop stop-color="#D9E3FF" offset="100%"></stop>
        </linearGradient>
        <linearGradient x1="0%" y1="50%" x2="100%" y2="50%" id="linearGradient-18">
            <stop stop-color="#D8F1D2" offset="0%"></stop>
            <stop stop-color="#E4F3E2" offset="46.5609164%"></stop>
            <stop stop-color="#F0F9EF" offset="100%"></stop>
        </linearGradient>
        <linearGradient x1="100%" y1="0%" x2="0%" y2="0%" id="linearGradient-19">
            <stop stop-color="#D8EECE" stop-opacity="0" offset="0%"></stop>
            <stop stop-color="#A9E18D" offset="100%"></stop>
        </linearGradient>
        <circle id="path-20" cx="62" cy="49" r="6"></circle>
        <filter x="-66.7%" y="-66.7%" width="233.3%" height="233.3%" filterUnits="objectBoundingBox" id="filter-21">
            <feMorphology radius="0.5" operator="dilate" in="SourceAlpha" result="shadowSpreadOuter1"></feMorphology>
            <feOffset dx="0" dy="0" in="shadowSpreadOuter1" result="shadowOffsetOuter1"></feOffset>
            <feGaussianBlur stdDeviation="2.5" in="shadowOffsetOuter1" result="shadowBlurOuter1"></feGaussianBlur>
            <feComposite in="shadowBlurOuter1" in2="SourceAlpha" operator="out" result="shadowBlurOuter1"></feComposite>
            <feColorMatrix values="0 0 0 0 0.335937619   0 0 0 0 0.679829031   0 0 0 0 0.63876737  0 0 0 0.575611888 0" type="matrix" in="shadowBlurOuter1"></feColorMatrix>
        </filter>
        <linearGradient x1="50%" y1="3.64971678%" x2="50%" y2="100%" id="linearGradient-22">
            <stop stop-color="#A7BBF9" offset="0%"></stop>
            <stop stop-color="#D3DEFD" offset="100%"></stop>
        </linearGradient>
        <linearGradient x1="50%" y1="0%" x2="50%" y2="100%" id="linearGradient-23">
            <stop stop-color="#C4D2FF" offset="0%"></stop>
            <stop stop-color="#E2EAFF" offset="100%"></stop>
        </linearGradient>
    </defs>
    <g id="idux-首页" stroke="none" stroke-width="1" fill="none" fill-rule="evenodd">
        <g id="idux-home" transform="translate(0.000000, -60.000000)">
            <g id="插画" transform="translate(0.000000, 60.000000)">
                <mask id="mask-3" fill="white">
                    <use xlink:href="#path-2"></use>
                </mask>
                <use id="蒙版" fill="url(#linearGradient-1)" transform="translate(960.000000, 407.000000) scale(1, -1) translate(-960.000000, -407.000000) " xlink:href="#path-2"></use>
                <g id="编组-14" opacity="0.634300595" mask="url(#mask-3)" stroke-width="2">
                    <g transform="translate(-100.000000, -112.000000)" id="椭圆形">
                        <circle stroke="#C9D4F8" cx="263" cy="263" r="262"></circle>
                        <circle stroke="#BBCBFF" transform="translate(263.000000, 263.000000) rotate(-360.000000) translate(-263.000000, -263.000000) " cx="263" cy="263" r="114"></circle>
                        <circle stroke="#BBCBFF" transform="translate(263.000000, 263.000000) rotate(-360.000000) translate(-263.000000, -263.000000) " cx="263" cy="263" r="68"></circle>
                        <circle stroke="#BBCBFF" transform="translate(263.000000, 263.000000) rotate(-360.000000) translate(-263.000000, -263.000000) " cx="263" cy="263" r="189"></circle>
                    </g>
                </g>
                <circle id="椭圆形" fill="#CCD6F8" opacity="0.559547061" mask="url(#mask-3)" cx="-0.5" cy="233.5" r="177.5"></circle>
                <circle id="椭圆形备份-3" fill="#E4EAFE" opacity="0.144438244" mask="url(#mask-3)" cx="1904.5" cy="420.5" r="248.5"></circle>
                <g id="编组-6" opacity="0.419480097" mask="url(#mask-3)">
                    <g transform="translate(1149.000000, 334.000000)">
                        <g id="网页" stroke="none" stroke-width="1" fill-rule="evenodd">
                            <mask id="mask-5" fill="white">
                                <use xlink:href="#path-4"></use>
                            </mask>
                            <use id="蒙版" fill="#FBFBFF" xlink:href="#path-4"></use>
                            <rect id="矩形" fill="url(#linearGradient-6)" mask="url(#mask-5)" x="0" y="0" width="668.4" height="73.2"></rect>
                            <rect id="矩形" fill="#F1F4FF" mask="url(#mask-5)" x="24" y="97.2" width="213.6" height="134.4" rx="4.8"></rect>
                            <g id="矩形备份-11" mask="url(#mask-5)">
                                <use fill="black" fill-opacity="1" filter="url(#filter-8)" xlink:href="#path-7"></use>
                                <use fill="#FFFFFF" fill-rule="evenodd" xlink:href="#path-7"></use>
                            </g>
                            <rect id="矩形备份-5" fill="#F1F4FF" mask="url(#mask-5)" x="24" y="255.6" width="213.6" height="182.4" rx="4.8"></rect>
                            <rect id="矩形" fill="#C6EBB3" mask="url(#mask-5)" x="62.4" y="121.2" width="50.4" height="14.4" rx="7.2"></rect>
                            <rect id="矩形备份-7" fill="#C5D2FD" mask="url(#mask-5)" x="62.4" y="159.6" width="50.4" height="14.4" rx="7.2"></rect>
                            <rect id="矩形备份-8" fill="#C5D2FD" mask="url(#mask-5)" x="62.4" y="294" width="102" height="14.4" rx="7.2"></rect>
                            <rect id="矩形备份-9" fill="#C5D2FD" mask="url(#mask-5)" x="62.4" y="339.6" width="86.4" height="14.4" rx="7.2"></rect>
                            <rect id="矩形备份-10" fill="#C5D2FD" mask="url(#mask-5)" x="62.4" y="385.2" width="136.8" height="14.4" rx="7.2"></rect>
                            <rect id="矩形备份-6" fill="#7897FB" mask="url(#mask-5)" x="148.8" y="121.2" width="50.4" height="14.4" rx="7.2"></rect>
                            <rect id="矩形备份-4" fill="url(#linearGradient-9)" mask="url(#mask-5)" x="0" y="0" width="668.4" height="37.2"></rect>
                            <circle id="椭圆形" stroke="#869FF2" stroke-width="2.4" mask="url(#mask-5)" cx="31.8" cy="18.6" r="6.6"></circle>
                            <circle id="椭圆形备份" stroke="#8FA7F6" stroke-width="2.4" mask="url(#mask-5)" cx="59.4" cy="18.6" r="6.6"></circle>
                            <circle id="椭圆形备份-2" stroke="#95ACF6" stroke-width="2.4" mask="url(#mask-5)" cx="87" cy="18.6" r="6.6"></circle>
                            <g id="网格" mask="url(#mask-5)" stroke="#6C8EFC" stroke-width="2.4">
                                <g transform="translate(294.000000, 184.800000)">
                                    <rect id="矩形" fill="none" x="8.4" y="9.6" width="198" height="198"></rect>
                                    <rect id="矩形" fill="#FFFFFF" fill-rule="evenodd" x="0" y="0" width="18" height="18"></rect>
                                    <rect id="矩形备份-2" fill="#FFFFFF" fill-rule="evenodd" x="198" y="0" width="18" height="18"></rect>
                                    <rect id="矩形备份-3" fill="#FFFFFF" fill-rule="evenodd" x="198" y="198" width="18" height="18"></rect>
                                    <rect id="矩形备份" fill="#FFFFFF" fill-rule="evenodd" x="0" y="198" width="18" height="18"></rect>
                                </g>
                            </g>
                            <g id="钻石" mask="url(#mask-5)">
                                <g transform="translate(314.400000, 228.000000)">
                                    <polygon id="多边形" fill="#B0C2FF" points="39.9143225 -1.62404708e-13 131.828781 -1.62404708e-13 172.852483 41.5672538 86.4262415 146.197945 -1.25105345e-14 41.5672538"></polygon>
                                    <polygon id="路径-2" fill="#CCD7FF" points="39.9143225 5.68434189e-14 -7.81597009e-14 41.5672538 25.2865689 38.6054051"></polygon>
                                    <polygon id="路径-3" fill="#9BAFF5" points="2.48689958e-14 41.5672538 52.0728067 104.567416 25.2865689 38.6054051"></polygon>
                                    <polygon id="路径-3备份" fill="#B4C3FC" transform="translate(147.211763, 71.125200) scale(-1, 1) translate(-147.211763, -71.125200) " points="121.571044 41.5672538 172.852483 103.644994 147.125123 38.6054051"></polygon>
                                    <polygon id="路径-4" fill="#DBE3FF" points="39.9143225 -5.68434189e-14 25.2865689 38.6054051 86.2600114 37.7731737"></polygon>
                                    <polygon id="路径-4备份" fill="#DBE3FF" transform="translate(116.822289, 19.302703) scale(-1, 1) translate(-116.822289, -19.302703) " points="101.888612 -5.68434189e-14 86.3461746 38.6054051 147.298404 37.7731737"></polygon>
                                    <polygon id="路径-5" fill="#CBD6FF" points="25.2865689 38.6054051 52.0728067 104.567416 86.2600114 37.7731737"></polygon>
                                    <polygon id="路径-5备份" fill="#CBD6FF" transform="translate(116.763469, 70.709084) scale(-1, 1) translate(-116.763469, -70.709084) " points="86.3461746 38.6054051 111.955893 103.644994 147.180762 37.7731737"></polygon>
                                    <polygon id="路径-6" fill="#E9EDFF" points="39.9143225 5.68434189e-14 131.755966 5.68434189e-14 86.2600114 37.7731737"></polygon>
                                    <polygon id="路径-7" fill="#CCD7FF" points="131.755966 -4.61852778e-14 147.298404 38.6054051 172.852483 41.5672538"></polygon>
                                </g>
                            </g>
                            <text id=".Sketch" mask="url(#mask-5)" font-family="DINAlternate-Bold, DIN Alternate" font-size="16.8" font-weight="bold" fill="#CBD6FF">
                                <tspan x="294" y="150.4">.Sketch</tspan>
                            </text>
                            <polygon id="矩形" fill="url(#linearGradient-10)" mask="url(#mask-5)" transform="translate(569.119806, 374.630875) rotate(-37.000000) translate(-569.119806, -374.630875) " points="569.105258 350.012082 590.134353 382.412082 583.063241 399.249668 555.741643 399.249668 548.105258 382.412082"></polygon>
                            <circle id="椭圆形" fill="#ACBCF5" mask="url(#mask-5)" cx="573.6" cy="379.2" r="3.6"></circle>
                            <polygon id="矩形" fill="url(#linearGradient-11)" mask="url(#mask-5)" transform="translate(599.799487, 414.643246) rotate(-37.000000) translate(-599.799487, -414.643246) " points="582.399487 388.843246 617.199487 388.843246 617.199487 440.443246 582.399487 440.443246"></polygon>
                        </g>
                        <path d="M668.4,89.26439 C722.196555,94.1232843 752.90991,107.168488 760.540063,128.4 C771.985293,160.247269 737.563296,184.8 684.116831,202.8 C630.670367,220.8 561.56293,222.126048 540.301403,269.567254 C532.755214,287.632362 533.779868,313.433468 544.8,338.068203 C549.009722,347.478744 558.609722,361.189343 573.6,379.2" id="路径-8" stroke="url(#linearGradient-12)" stroke-width="2.4"></path>
                    </g>
                </g>
                <g id="编组-7" opacity="0.464797247" mask="url(#mask-3)">
                    <g transform="translate(1731.000000, -18.000000)">
                        <path d="M97.7535835,2.27373675e-13 L2.84217094e-14,44.6099791 L2.84217094e-14,125.814249 C2.84217094e-14,167.78412 32.5845278,210.384833 97.7535835,253.616388 C102.032595,250.495106 194.28016,195.344407 195.668015,126.808194 C195.668015,122.701614 195.668015,95.3022088 195.668015,44.6099791 L97.7535835,2.27373675e-13 Z" id="路径-9" fill="#8BA5F9"></path>
                        <path d="M97.7535835,2.84217094e-14 L-2.84217094e-14,44.6099791 L-2.84217094e-14,125.814249 C-2.84217094e-14,167.78412 32.5845278,210.384833 97.7535835,253.616388 C97.8071923,250.554677 97.8071923,166.015881 97.7535835,2.84217094e-14 Z" id="路径-9" fill="#ABBFFF"></path>
                        <path d="M97.7708745,27.6081939 L24.2340076,60.9058593 L24.2340076,124.430647 C25.7378603,157.67441 50.2711937,190.745955 97.8340076,223.64528 C101.193045,221.203552 168.740875,179.007813 171.433986,125.208194 C171.433986,121.995683 171.433986,100.561571 171.433986,60.9058593 L97.7708745,27.6081939 Z" id="路径-9" fill="#BECEFF"></path>
                        <circle id="椭圆形" fill="#C2EAAD" cx="97.8047079" cy="116.774497" r="46.4"></circle>
                        <polygon id="路径-10" fill="#DEF8F4" points="85.2820148 110.338102 75.0159873 120.629332 92.5582333 138.764499 120.504457 110.338102 109.718463 99.962643 92.5582333 116.774497"></polygon>
                    </g>
                </g>
                <g id="编组-8" opacity="0.264787946" mask="url(#mask-3)">
                    <g transform="translate(630.000000, 505.000000)">
                        <rect id="矩形" stroke="#C5D2FD" stroke-width="2" fill="#E7EDFF" fill-rule="evenodd" x="5" y="6.74798119" width="241" height="134"></rect>
                        <rect id="矩形" stroke="none" fill="#C5D2FD" fill-rule="evenodd" x="0" y="0.747981185" width="9" height="9"></rect>
                        <rect id="矩形备份-13" stroke="none" fill="#C5D2FD" fill-rule="evenodd" x="241" y="1.74798119" width="9" height="9"></rect>
                        <rect id="矩形备份-12" stroke="none" fill="#C5D2FD" fill-rule="evenodd" x="0" y="135.747981" width="9" height="9"></rect>
                        <rect id="矩形备份-14" stroke="none" fill="#C5D2FD" fill-rule="evenodd" x="241" y="135.747981" width="9" height="9"></rect>
                        <path d="M4,141.747981 L245,5.74798119" id="路径-11" stroke="#C5D2FD" stroke-width="2" fill="none"></path>
                        <path d="M4,141.747981 L245,5.74798119" id="路径-11" stroke="#C5D2FD" stroke-width="2" fill="none" transform="translate(124.500000, 73.747981) scale(-1, 1) translate(-124.500000, -73.747981) "></path>
                    </g>
                </g>
                <g id="编组-8备份" opacity="0.264787946" mask="url(#mask-3)">
                    <g transform="translate(928.000000, 505.000000)">
                        <rect id="矩形" stroke="#C5D2FD" stroke-width="2" fill="#E7EDFF" fill-rule="evenodd" x="5" y="6.74798119" width="156" height="134"></rect>
                        <rect id="矩形" stroke="none" fill="#C5D2FD" fill-rule="evenodd" x="0" y="0.747981185" width="9" height="9"></rect>
                        <rect id="矩形备份-13" stroke="none" fill="#C5D2FD" fill-rule="evenodd" x="157" y="1.74798119" width="9" height="9"></rect>
                        <rect id="矩形备份-12" stroke="none" fill="#C5D2FD" fill-rule="evenodd" x="0" y="135.747981" width="9" height="9"></rect>
                        <rect id="矩形备份-14" stroke="none" fill="#C5D2FD" fill-rule="evenodd" x="157" y="135.747981" width="9" height="9"></rect>
                        <path d="M4,141.747981 L163,5.74798119" id="路径-11" stroke="#C5D2FD" stroke-width="2" fill="none"></path>
                        <path d="M4,141.747981 L163,5.74798119" id="路径-11" stroke="#C5D2FD" stroke-width="2" fill="none" transform="translate(83.500000, 73.747981) scale(-1, 1) translate(-83.500000, -73.747981) "></path>
                    </g>
                </g>
                <g id="编组-11" opacity="0.150506882" mask="url(#mask-3)">
                    <g transform="translate(478.000000, 56.000000)">
                        <path d="M164.876042,35.9851694 L256.325209,282.385169 L199.036042,282.385169 L178.041875,221.317734 L77.6968753,221.317734 L56.3468753,282.385169 L0.125208589,282.385169 L92.2860419,35.9851694 L164.876042,35.9851694 Z M130.714067,83.6225027 L126.447453,83.6225027 L93.7367471,177.254503 L162.71367,177.254503 L130.714067,83.6225027 Z" id="形状结合" fill="#BDCBFA" fill-rule="nonzero"></path>
                        <g id="编组-10" stroke-width="1" fill="none" fill-rule="evenodd" transform="translate(309.285899, 0.479062)">
                            <path d="M6.5625,36.762963 L205.078125,36.762963" id="直线" stroke="#7897FB" stroke-width="2.8" stroke-linecap="square"></path>
                            <polygon id="三角形" fill="#7897FB" transform="translate(4.921875, 36.762963) rotate(-90.000000) translate(-4.921875, -36.762963) " points="4.921875 31.841088 11.558912 41.684838 -1.71516204 41.684838"></polygon>
                            <polygon id="三角形备份" fill="#7897FB" transform="translate(205.078125, 36.762963) scale(-1, 1) rotate(-90.000000) translate(-205.078125, -36.762963) " points="205.078125 31.841088 211.715162 41.684838 198.441088 41.684838"></polygon>
                            <text id="3px" font-family="Alibaba-PuHuiTi-R, Alibaba PuHuiTi" font-size="16.8" font-weight="normal" fill="#1556EA">
                                <tspan x="88.59375" y="18.8037037">3px</tspan>
                            </text>
                        </g>
                        <g id="编组-9" stroke-width="1" fill="none" fill-rule="evenodd" transform="translate(310.564023, 74.592422)">
                            <rect id="矩形" stroke="#7897FB" stroke-width="2.8" x="6.32755906" y="6.32755906" width="195.944882" height="195.944882"></rect>
                            <rect id="矩形" fill="#7897FB" x="0" y="0" width="11.4976378" height="11.4976378"></rect>
                            <rect id="矩形备份-16" fill="#7897FB" x="197.102362" y="0" width="11.4976378" height="11.4976378"></rect>
                            <rect id="矩形备份-15" fill="#7897FB" x="0" y="197.102362" width="11.4976378" height="11.4976378"></rect>
                            <rect id="矩形备份-17" fill="#7897FB" x="197.102362" y="197.102362" width="11.4976378" height="11.4976378"></rect>
                            <path d="M106.271024,36.1354331 C117.440213,36.1354331 126.843544,37.0798724 134.481299,38.9687795 C142.119054,40.8576866 148.278441,43.6088796 152.959646,47.2224409 C157.64085,50.8360023 161.007982,55.3118237 163.061142,60.6500394 C165.114302,65.988255 166.140866,72.1887048 166.140866,79.2515748 L166.140866,171.396929 L134.111732,171.396929 L130.662441,155.875118 C127.870144,160.802702 122.860509,165.032148 115.633386,168.563583 C108.406263,172.095018 99.29037,173.860709 88.2854331,173.860709 C73.3384292,173.860709 62.0051567,170.53464 54.2852756,163.882402 C46.5653945,157.230164 42.7055118,147.005581 42.7055118,133.208346 C42.7055118,117.768584 47.3455835,106.928063 56.6258661,100.686457 C65.9061488,94.4448507 79.4978632,91.3240945 97.4014173,91.3240945 L130.416063,91.3240945 L130.416063,87.8748031 C130.416063,83.9327362 130.0465,80.5656045 129.307362,77.7733071 C128.568225,74.9810097 127.131034,72.7225677 124.995748,70.9979134 C122.860462,69.2732591 119.986081,68.0003191 116.37252,67.1790551 C112.758958,66.3577912 107.995699,65.9471654 102.082598,65.9471654 C97.3192675,65.9471654 92.5560081,66.1524783 87.7926772,66.5631102 C83.0293463,66.9737422 78.348212,67.5896809 73.7491339,68.4109449 L73.7491339,38.1064567 C78.8409703,37.4494455 84.3433563,36.9566929 90.2564567,36.628189 C96.1695571,36.2996834 101.507693,36.1354331 106.271024,36.1354331 Z M130.416063,115.469134 L102.821732,115.469134 C93.9520816,115.469134 87.5873815,116.536761 83.7274409,118.672047 C79.8675004,120.807334 77.9375591,125.242092 77.9375591,131.976457 C77.9375591,137.232546 79.4568746,140.969241 82.4955512,143.186654 C85.5342278,145.404066 90.5028002,146.512756 97.4014173,146.512756 C105.614057,146.512756 112.594696,145.075566 118.343543,142.201142 C124.092391,139.326718 128.116524,135.590023 130.416063,130.990945 L130.416063,130.990945 L130.416063,115.469134 Z" id="形状结合" fill="#BDCDFF" fill-rule="nonzero"></path>
                        </g>
                    </g>
                </g>
                <g id="编组-12" opacity="0.173897879" mask="url(#mask-3)">
                    <g transform="translate(378.000000, 502.000000)">
                        <rect id="矩形" fill="#7897FB" fill-rule="evenodd" x="0" y="0" width="181" height="59" rx="10"></rect>
                        <text id="Button" fill="none" font-family="Alibaba-PuHuiTi-R, Alibaba PuHuiTi" font-size="18" font-weight="normal">
                            <tspan x="62.213" y="36" fill="#FFFFFF">Button</tspan>
                        </text>
                    </g>
                </g>
                <g id="编组-12备份" opacity="0.173897879" mask="url(#mask-3)">
                    <g transform="translate(378.000000, 591.000000)">
                        <rect id="矩形" stroke="#7897FB" stroke-width="2" x="0" y="0" width="181" height="59" rx="10"></rect>
                        <text id="Button" stroke="none" font-family="Alibaba-PuHuiTi-R, Alibaba PuHuiTi" font-size="18" font-weight="normal">
                            <tspan x="62.213" y="36" fill="#7897FB">Button</tspan>
                        </text>
                    </g>
                </g>
                <path id="路径-12" d="M1752,110.210271 L1759.62158,123.759739 L1757.87842,124.740261 L1753,116.067 L1753,449 L1751,449 L1751,116.067 L1746.12158,124.740261 L1744.37842,123.759739 L1752,110.210271 Z" fill="url(#linearGradient-13)" fill-rule="nonzero"></path>
                <path id="路径-12备份" d="M342,432.210271 L349.621576,445.759739 L347.878424,446.740261 L342.999,438.065 L343,870 L341,870 L340.999,438.067 L336.121576,446.740261 L334.378424,445.759739 L342,432.210271 Z" fill="url(#linearGradient-14)" fill-rule="nonzero"></path>
                <path id="路径-12备份-2" d="M465,-114.789729 L472.621576,-101.240261 L470.878424,-100.259739 L466,-108.931 L466,224 L464,224 L464,-108.934 L459.121576,-100.259739 L457.378424,-101.240261 L465,-114.789729 Z" fill="url(#linearGradient-15)" fill-rule="nonzero" opacity="0.570335751"></path>
                <g id="编组-13" opacity="0.453246" mask="url(#mask-3)">
                    <g transform="translate(80.000000, 458.000000)">
                        <rect id="矩形" fill="#7897FB" x="0" y="0" width="30" height="30" rx="4"></rect>
                        <rect id="矩形备份-21" fill="#A5BBFF" x="0" y="60" width="30" height="30" rx="4"></rect>
                        <rect id="矩形备份-25" fill="#B6EA9C" x="0" y="120" width="30" height="30" rx="4"></rect>
                        <rect id="矩形备份-18" fill="#A5BBFF" x="60" y="0" width="30" height="30" rx="4"></rect>
                        <rect id="矩形备份-22" fill="#A5BBFF" x="60" y="60" width="30" height="30" rx="4"></rect>
                        <rect id="矩形备份-26" fill="#CAD7FF" x="60" y="120" width="30" height="30" rx="4"></rect>
                        <rect id="矩形备份-19" fill="#CAD7FF" x="120" y="0" width="30" height="30" rx="4"></rect>
                        <rect id="矩形备份-23" fill="#CFEEBF" x="120" y="60" width="30" height="30" rx="4"></rect>
                        <rect id="矩形备份-27" fill="#CFEEBF" x="120" y="120" width="30" height="30" rx="4"></rect>
                        <rect id="矩形备份-20" fill="#CAD7FF" x="180" y="0" width="30" height="30" rx="4"></rect>
                        <rect id="矩形备份-24" fill="#CAD7FF" x="180" y="60" width="30" height="30" rx="4"></rect>
                        <rect id="矩形备份-28" fill="#CFEEBF" x="180" y="120" width="30" height="30" rx="4"></rect>
                    </g>
                </g>
                <g id="编组-18" opacity="0.296118" mask="url(#mask-3)">
                    <g transform="translate(81.000000, 657.000000)">
                        <rect id="矩形" fill="url(#linearGradient-16)" fill-rule="evenodd" x="28" y="3" width="181" height="16"></rect>
                        <rect id="矩形备份-30" fill="url(#linearGradient-17)" fill-rule="evenodd" opacity="0.807617188" x="28" y="36" width="181" height="16"></rect>
                        <rect id="矩形备份-31" fill="url(#linearGradient-18)" fill-rule="evenodd" opacity="0.769228981" x="28" y="72" width="181" height="16"></rect>
                        <text id="H" fill="none" font-family="Alibaba-PuHuiTi-R, Alibaba PuHuiTi" font-size="16" font-weight="normal">
                            <tspan x="0.336" y="17" fill="#7897FB">H</tspan>
                        </text>
                        <text id="S" fill="none" font-family="Alibaba-PuHuiTi-R, Alibaba PuHuiTi" font-size="16" font-weight="normal">
                            <tspan x="1.472" y="50" fill="#7897FB">S</tspan>
                        </text>
                        <text id="B" fill="none" font-family="Alibaba-PuHuiTi-R, Alibaba PuHuiTi" font-size="16" font-weight="normal">
                            <tspan x="1.04" y="86" fill="#7897FB">B</tspan>
                        </text>
                    </g>
                </g>
                <g id="编组-6备份" opacity="0.465866815" mask="url(#mask-3)" stroke="#7897FB" stroke-width="2">
                    <g transform="translate(1401.000000, 56.000000)">
                        <rect id="矩形" fill="none" x="5" y="6" width="176" height="134"></rect>
                        <rect id="矩形" fill="#E1E7FE" fill-rule="evenodd" x="0" y="0" width="11" height="11"></rect>
                        <rect id="矩形备份-2" fill="#E1E7FE" fill-rule="evenodd" x="175" y="0" width="11" height="11"></rect>
                        <rect id="矩形备份-3" fill="#E1E7FE" fill-rule="evenodd" x="175" y="134" width="11" height="11"></rect>
                        <rect id="矩形备份" fill="#E1E7FE" fill-rule="evenodd" x="0" y="134" width="11" height="11"></rect>
                    </g>
                </g>
                <rect id="矩形" fill="#B0C2FD" opacity="0.197357" mask="url(#mask-3)" x="1520" y="153" width="104" height="67"></rect>
                <g id="编组-16" opacity="0.334472656" mask="url(#mask-3)">
                    <g transform="translate(425.000000, 311.000000)">
                        <rect id="矩形" fill="#7897FB" x="0" y="0" width="80" height="40" rx="20"></rect>
                        <circle id="椭圆形" fill="#EDF2FF" cx="60" cy="20" r="19"></circle>
                    </g>
                </g>
                <g id="编组-16备份" opacity="0.334472656" mask="url(#mask-3)">
                    <g transform="translate(425.000000, 371.000000)">
                        <rect id="矩形" fill="#97E172" x="0" y="0" width="80" height="40" rx="20"></rect>
                        <circle id="椭圆形" fill="#EDFDFA" cx="60" cy="20" r="19"></circle>
                    </g>
                </g>
                <g id="编组-17" opacity="0.215680804" mask="url(#mask-3)">
                    <g transform="translate(378.000000, 689.000000)">
                        <rect id="矩形" fill="#CDD8FE" fill-rule="evenodd" x="0" y="0" width="500" height="28"></rect>
                        <rect id="矩形备份-29" fill="url(#linearGradient-19)" fill-rule="evenodd" x="0" y="46" width="500" height="6" rx="3"></rect>
                        <g id="椭圆形" fill="none">
                            <use fill="black" fill-opacity="1" filter="url(#filter-21)" xlink:href="#path-20"></use>
                            <use stroke="#7AE047" stroke-width="1" fill="#97E073" fill-rule="evenodd" xlink:href="#path-20"></use>
                        </g>
                        <rect id="矩形" fill="#B6C5FC" fill-rule="evenodd" x="0" y="0" width="333" height="28"></rect>
                        <rect id="矩形" fill="#94ADFF" fill-rule="evenodd" x="0" y="0" width="166" height="28"></rect>
                    </g>
                </g>
                <g id="编组-19" opacity="0.184377" mask="url(#mask-3)">
                    <g transform="translate(1034.000000, -14.000000)" id="形状结合">
                        <path d="M136.92,0 C212.538828,0 273.84,61.3011721 273.84,136.92 C273.84,212.538828 212.538828,273.84 136.92,273.84 C61.3011721,273.84 0,212.538828 0,136.92 C0,61.3011721 61.3011721,0 136.92,0 Z M136.92,46.2 C86.8167275,46.2 46.2,86.8167275 46.2,136.92 C46.2,187.023273 86.8167275,227.64 136.92,227.64 C187.023273,227.64 227.64,187.023273 227.64,136.92 C227.64,86.8167275 187.023273,46.2 136.92,46.2 Z" fill="#A0E57D"></path>
                        <path d="M138.6,0.013 L136.92,0 C212.538828,0 273.84,61.3011721 273.84,136.92 C273.84,212.538828 212.538828,273.84 136.92,273.84 C61.3011721,273.84 0,212.538828 0,136.92 C0,101.660849 13.3276197,69.5145306 35.2199617,45.243942 L69.7886733,75.898536 C55.1332134,92.0119156 46.2,113.422726 46.2,136.92 C46.2,187.023273 86.8167275,227.64 136.92,227.64 C187.023273,227.64 227.64,187.023273 227.64,136.92 C227.64,87.3781256 187.928379,47.1113972 138.600577,46.2152543 L138.6,0.013 Z" fill="url(#linearGradient-22)"></path>
                        <path d="M137.76,0.007 L136.92,0 C212.538828,0 273.84,61.3011721 273.84,136.92 C273.84,212.258263 212.992869,273.384918 137.7611,273.837471 L137.76,227.633 L138.420221,227.627846 C187.831545,226.826717 227.64,186.52224 227.64,136.92 C227.64,87.0973058 187.476906,46.6552048 137.760837,46.2038158 L137.76,0.007 Z" fill="#B3C4FC"></path>
                        <path d="M273.84,136.92 C273.84,212.258263 212.992869,273.384918 137.7611,273.837471 L137.76,227.633 L138.420221,227.627846 C187.831545,226.826717 227.64,186.52224 227.64,136.92 C227.64,127.407925 226.17606,118.237772 223.461195,109.622554 L267.532462,95.7190535 C271.630306,108.722238 273.84,122.563068 273.84,136.92 Z" fill="url(#linearGradient-23)"></path>
                    </g>
                </g>
                <g id="编组-21" mask="url(#mask-3)">
                    <g transform="translate(822.000000, 509.000000)"></g>
                </g>
            </g>
        </g>
    </g>
</svg>