<svg viewBox="0 0 1024 1024" focusable="false"><g fill-rule="evenodd"><path d="M512 256c174.964 0 317.131 140.418 319.957 314.708L832 576v320h51.2c6.97 0 12.634 5.563 12.8 12.493V947.2c0 6.97-5.563 12.634-12.493 12.8H140.8c-6.967 0-12.634-5.563-12.8-12.493V908.8c0-6.97 5.566-12.634 12.493-12.796l.307-.004H192V576c0-176.73 143.27-320 320-320Zm0 64c-137.1 0-249.03 107.774-255.686 243.223L256 576v320h512V576c0-137.1-107.774-249.03-243.223-255.686L512 320Z"/><path d="m504.12 384.161.308-.01c4.101-.154 7.441 3.063 7.568 7.135l.004.24v48.887c0 4.173-3.213 7.429-7.343 7.79l-.33.023c-63.261 3.74-114.162 53.424-119.807 116.154l-.157 1.905-.018.323-.049 1.332c-.161 4.39-3.626 7.924-7.985 8.056l-.253.004h-47.953c-4.505 0-8.113-3.633-7.932-8.134l.046-1.112c4.687-98.854 84.133-178.135 183.056-182.56l.845-.033ZM178.355 197.103l72.544 72.544c4.999 4.999 5.05 12.916.05 17.915l-27.39 27.39c-4.998 5-12.916 4.949-17.915-.05L133.1 242.358c-4.999-5-5.05-12.917-.05-17.915l27.39-27.39c4.998-5 12.916-4.949 17.915.05ZM863.558 197.05l27.392 27.39c4.999 4.999 4.948 12.916-.05 17.915l-72.545 72.544c-4.998 4.999-12.915 5.05-17.913.05l-27.392-27.39c-4.999-4.998-4.948-12.916.05-17.915l72.545-72.544c4.998-4.999 12.915-5.05 17.913-.05ZM531.368 64C538.438 64 544 69.634 544 76.703v102.594c0 7.07-5.563 12.703-12.632 12.703h-38.736c-7.07 0-12.632-5.634-12.632-12.703V76.703C480 69.634 485.563 64 492.632 64h38.736Z"/></g></svg>