<svg viewBox="0 0 1024 1024" focusable="false"><path fill-rule="evenodd" d="M531.368 192h-38.736c-7.07 0-12.632-5.634-12.632-12.703V76.703C480 69.634 485.563 64 492.632 64h38.736C538.438 64 544 69.634 544 76.703v102.594c0 7.07-5.563 12.703-12.632 12.703Zm269.074 122.95-27.392-27.391c-4.999-4.998-4.948-12.916.05-17.915l72.545-72.544c4.998-4.999 12.915-5.05 17.913-.05l27.392 27.39c4.999 4.999 4.948 12.916-.05 17.915l-72.545 72.544c-4.998 4.999-12.915 5.05-17.913.05Zm-549.493-27.388-27.39 27.39c-4.998 5-12.916 4.949-17.915-.05L133.1 242.358c-4.999-5-5.05-12.917-.05-17.915l27.39-27.39c4.998-5 12.916-4.949 17.915.05l72.544 72.544c4.999 4.999 5.05 12.916.05 17.915ZM832 896V576c0-176.73-143.27-320-320-320S192 399.27 192 576v320h-51.2c-7.07 0-12.8 5.728-12.8 12.8v38.4c0 7.072 5.73 12.8 12.8 12.8h742.4c7.072 0 12.8-5.728 12.8-12.8v-38.4c0-7.072-5.728-12.8-12.8-12.8H832Zm-64 0V576c0-137.1-107.774-249.03-243.223-255.686L512 320c-137.1 0-249.03 107.774-255.686 243.223L256 576v320h512ZM320.219 566.754c-.016.337-.031.712-.046 1.112-.181 4.5 3.427 8.134 7.932 8.134h47.953c4.478 0 8.074-3.585 8.238-8.06l.049-1.332.018-.323c4.775-63.626 56.064-114.28 119.963-118.06l.077-.004c4.251-.247 7.597-3.55 7.597-7.808v-48.887c0-4.185-3.39-7.532-7.572-7.375-.417.013-.806.028-1.153.044-98.923 4.424-178.369 83.705-183.056 182.559Z"/></svg>