<svg viewBox="64 64 896 896" focusable="false"><path d="M819.2 512c7.04 0 12.8 5.76 12.8 12.8V640h115.2c7.04 0 12.8 5.76 12.8 12.8v294.4a12.8 12.8 0 0 1-12.8 12.8H652.8a12.8 12.8 0 0 1-12.8-12.8V652.8c0-7.04 5.76-12.8 12.8-12.8H768v-64H256v64h115.2c7.04 0 12.8 5.76 12.8 12.8v294.4a12.8 12.8 0 0 1-12.8 12.8H76.8A12.8 12.8 0 0 1 64 947.2V652.8c0-7.04 5.76-12.8 12.8-12.8H192V524.8c0-7.04 5.76-12.8 12.8-12.8H480V384H364.8a12.8 12.8 0 0 1-12.8-12.8V76.8c0-7.04 5.76-12.8 12.8-12.8h294.4c7.04 0 12.8 5.76 12.8 12.8v294.4a12.8 12.8 0 0 1-12.8 12.8H544v128h275.2zM320 704H128v192h192V704zm576 0H704v192h192V704zM608 128H416v192h192V128z"/></svg>