<svg viewBox="0 0 1024 1024" focusable="false"><path fill-rule="evenodd" d="M771.208 564.021c4-3.998 9.987-4.798 14.78-2.398l3.322 2.4 162.876 162.91c3.997 3.998 4.797 9.983 2.398 14.777l-2.398 3.322-162.875 162.92c-3.998 4-9.985 4.8-14.78 2.402l-3.322-2.4-27.157-27.148c-4-4-4.8-9.986-2.401-14.78l2.399-3.323 94.673-94.7H588.8c-5.891 0-10.853-3.979-12.343-9.397l-.457-3.402v-38.4c0-5.891 3.98-10.853 9.397-12.343l3.403-.457h249.962l-94.711-94.73c-3.999-4-4.798-9.987-2.398-14.78l2.4-3.323 27.155-27.15ZM883.2 256c5.893 0 10.853 3.978 12.343 9.394l.457 3.403V499.2c0 5.891-3.978 10.853-9.396 12.343L883.2 512h-38.4c-5.893 0-10.853-3.98-12.343-9.397L832 499.2V320H256v448h243.2c5.891 0 10.853 3.98 12.343 9.397L512 780.8v38.4c0 5.891-3.98 10.853-9.397 12.343L499.2 832H204.797c-5.891 0-10.85-3.977-12.34-9.394l-.457-3.403V268.8c0-5.891 3.98-10.853 9.397-12.343L204.8 256h678.4Zm-128-128c5.893 0 10.853 3.98 12.343 9.397L768 140.8v38.4c0 5.891-3.978 10.853-9.396 12.343L755.2 192H128v499.2c0 5.891-3.98 10.853-9.397 12.343L115.2 704H76.8c-5.891 0-10.853-3.98-12.343-9.397L64 691.2V140.8c0-5.891 3.98-10.853 9.397-12.343L76.8 128h678.4Zm0 256c7.07 0 12.8 5.73 12.8 12.8v38.4c0 7.07-5.73 12.8-12.8 12.8H332.8c-7.07 0-12.8-5.73-12.8-12.8v-38.4c0-7.07 5.73-12.8 12.8-12.8h422.4Z"/></svg>