<svg viewBox="64 64 896 896" focusable="false"><path d="M490.24 67.904 152.32 256.64a44.8 44.8 0 0 0-22.912 39.04v432.832a44.8 44.8 0 0 0 22.848 39.04l337.856 189.632a44.8 44.8 0 0 0 43.712.128l341.184-189.696a44.8 44.8 0 0 0 23.04-39.168v-432.64a44.8 44.8 0 0 0-23.104-39.232l-341.248-188.8a44.8 44.8 0 0 0-43.52.128zM512 128.96l321.92 178.048v410.176L512 896.128l-318.592-178.88V306.944L512.064 128.96z"/><path d="m768.96 319.36 19.2 33.28a12.8 12.8 0 0 1-4.672 17.472l-239.552 138.24L544 819.2a12.8 12.8 0 0 1-12.8 12.8h-38.4a12.8 12.8 0 0 1-12.8-12.8V508.288L240.448 370.112a12.8 12.8 0 0 1-4.672-17.472l19.2-33.28a12.8 12.8 0 0 1 17.472-4.672l230.848 133.248h17.28l230.848-133.248a12.8 12.8 0 0 1 17.472 4.672z"/></svg>