<svg viewBox="64 64 896 896" focusable="false"><path d="m527.744 65.088 5.952 2.752 341.248 188.736a44.8 44.8 0 0 1 22.592 32.32l.512 6.848v106.432a352.64 352.64 0 0 0-64-42.752l-.064-52.416-321.92-178.048-318.656 177.984v410.304l151.552 85.12c17.344 43.52 43.136 82.816 75.392 115.776L152.32 767.552a44.8 44.8 0 0 1-22.336-32.192l-.512-6.848V295.68a44.8 44.8 0 0 1 17.28-35.328l5.696-3.84L490.24 67.84a44.8 44.8 0 0 1 37.568-2.816zm-255.232 249.6 164.672 95.04c-16.256 14.592-31.232 30.72-44.544 48.128l-152.128-87.744a12.8 12.8 0 0 1-4.672-17.472l19.2-33.28a12.8 12.8 0 0 1 17.472-4.672z"/><path d="M672 384a288 288 0 1 1 0 576 288 288 0 0 1 0-576zm0 64a224 224 0 1 0 0 448 224 224 0 0 0 0-448z"/><path d="M652.8 512h38.4c7.04 0 12.8 5.76 12.8 12.8v294.4a12.8 12.8 0 0 1-12.8 12.8h-38.4a12.8 12.8 0 0 1-12.8-12.8V524.8c0-7.04 5.76-12.8 12.8-12.8z"/><path d="M833.984 652.48v38.4a12.8 12.8 0 0 1-12.8 12.8H524.8a12.8 12.8 0 0 1-12.8-12.8v-38.4c0-7.04 5.76-12.8 12.8-12.8h296.384c7.04 0 12.8 5.76 12.8 12.8z"/></svg>