<svg viewBox="0 0 1024 1024" focusable="false"><g fill-rule="evenodd"><path d="M873.51 258.33a44.796 44.796 0 0 1 23.117 39.203v78.988c0 10.868-12.653 17.095-21.497 10.78a351.95 351.95 0 0 0-35.661-22.37c-4.199-2.294-6.9-6.674-6.9-11.456v-44.693L510.65 130.734 191.991 308.718v410.303l147.687 82.925c2.553 1.433 4.545 3.737 5.665 6.444a351.982 351.982 0 0 0 20.027 40.736c7.367 12.82-11.326 34.279-24.22 27.04L150.87 769.344A44.8 44.8 0 0 1 128 730.278V297.497a44.799 44.799 0 0 1 22.953-39.112L488.769 69.688a44.8 44.8 0 0 1 43.531-.09L873.51 258.33Z"/><path d="m271.105 316.459 149.372 86.24c7.544 4.355 8.57 14.874 2.382 21.004a351.995 351.995 0 0 0-24.64 27.09c-4.07 4.972-11.205 6.487-16.77 3.274l-142.344-82.183a12.797 12.797 0 0 1-4.685-17.485l19.2-33.255a12.803 12.803 0 0 1 17.485-4.685ZM670.586 385.773c159.059 0 288 128.943 288 288 0 159.059-128.941 288-288 288-159.058 0-288-128.941-288-288 0-159.057 128.942-288 288-288Zm0 64c-123.712 0-224 100.288-224 224s100.288 224 224 224 224-100.288 224-224-100.288-224-224-224Z"/><path d="M702.586 705.485v115.488c0 7.072-5.731 12.8-12.8 12.8h-38.4c-7.07 0-12.8-5.728-12.8-12.8V705.485h-115.2c-7.07 0-12.8-5.731-12.8-12.8v-38.4c0-7.07 5.73-12.8 12.8-12.8h115.2V526.572c0-7.069 5.73-12.8 12.8-12.8h38.4c7.069 0 12.8 5.731 12.8 12.8v114.911H819.77c7.072 0 12.8 5.731 12.8 12.8v38.4c0 7.07-5.728 12.8-12.8 12.8H702.586Z"/></g></svg>