<svg viewBox="0 0 1024 1024" focusable="false"><path fill-rule="evenodd" d="M896 499.253c0 7.07-5.728 12.8-12.8 12.8h-38.4c-7.072 0-12.8-5.73-12.8-12.8v-179.26H652.8c-7.07 0-12.8-5.73-12.8-12.8V127.74l-448-.003v768.32h179.2c7.07 0 12.8 5.734 12.8 12.8v38.4c0 7.071-5.73 12.8-12.8 12.8H140.8c-7.07 0-12.8-5.729-12.8-12.8V76.8c0-7.07 5.732-12.8 12.801-12.8l557.412.056a12.8 12.8 0 0 1 9.047 3.746l184.99 184.876c2.4 2.4 3.75 5.657 3.75 9.053v237.522Zm-90.746-243.03L703.744 154.77 704 255.993l101.254.23ZM256 499.252v-38.4c0-7.069 5.73-12.8 12.8-12.8h294.4c7.07 0 12.8 5.731 12.8 12.8v38.4c0 7.07-5.73 12.8-12.8 12.8H268.8c-7.07 0-12.8-5.73-12.8-12.8Zm384 199.31c-38.356-13.56-64-49.826-64-90.51 0-53.019 42.98-96 96-96s96 42.981 96 96c0 40.684-25.644 76.95-64 90.51v69.493h179.2c7.072 0 12.8 5.728 12.8 12.8v166.4c0 7.066-5.728 12.8-12.8 12.8H460.8c-7.07 0-12.8-5.734-12.8-12.8v-166.4c0-7.072 5.73-12.8 12.8-12.8H640v-69.493Zm32-58.51c17.673 0 32-14.326 32-32 0-17.673-14.327-32-32-32-17.673 0-32 14.327-32 32 0 17.674 14.327 32 32 32Zm32 192.003H512v64h320v-64H704ZM256 627.253v-38.4c0-7.069 5.73-12.8 12.8-12.8h230.4c7.07 0 12.8 5.731 12.8 12.8v38.4c0 7.07-5.73 12.8-12.8 12.8H268.8c-7.07 0-12.8-5.73-12.8-12.8Zm0 128.003v-38.4c0-7.072 5.73-12.8 12.8-12.8h102.4c7.07 0 12.8 5.728 12.8 12.8v38.4c0 7.066-5.73 12.8-12.8 12.8H268.8c-7.07 0-12.8-5.734-12.8-12.8Z"/></svg>