<svg viewBox="64 64 896 896" focusable="false"><path d="M703.488 64 896 256.384v255.552h-64V320H652.8a12.8 12.8 0 0 1-12.352-9.408L640 307.2V123.52l-448 4.16V896h192v64H140.8a12.8 12.8 0 0 1-12.352-9.408L128 947.2V76.8l.448-3.456a12.8 12.8 0 0 1 8.96-8.96L140.8 64h562.688zm.256 90.688L704 256l101.184.192-101.44-101.44z"/><path d="M672 512a96 96 0 1 1 0 192 96 96 0 0 1 0-192zm0 64a32 32 0 1 0 0 64 32 32 0 0 0 0-64z"/><path d="M640 640h64v192h-64z"/><path d="M883.2 768c7.04 0 12.8 5.76 12.8 12.8v166.4a12.8 12.8 0 0 1-12.8 12.8H460.8a12.8 12.8 0 0 1-12.8-12.8V780.8c0-7.04 5.76-12.8 12.8-12.8h422.4zM832 832H512v64h320v-64zM268.8 448h294.4q12.8 0 12.8 12.8v38.4q0 12.8-12.8 12.8H268.8q-12.8 0-12.8-12.8v-38.4q0-12.8 12.8-12.8zm0 128h230.4q12.8 0 12.8 12.8v38.4q0 12.8-12.8 12.8H268.8q-12.8 0-12.8-12.8v-38.4q0-12.8 12.8-12.8zm0 128h102.4q12.8 0 12.8 12.8v38.4q0 12.8-12.8 12.8H268.8q-12.8 0-12.8-12.8v-38.4q0-12.8 12.8-12.8z"/></svg>