<svg viewBox="0 0 1024 1024" focusable="false"><path d="M115.2 128c7.04 0 12.8 5.76 12.8 12.8V832h819.2c7.04 0 12.8 5.76 12.8 12.8v38.4a12.8 12.8 0 0 1-12.8 12.8H76.8A12.8 12.8 0 0 1 64 883.2V140.8c0-7.04 5.76-12.8 12.8-12.8h38.4z"/><path d="M268.8 320h38.4q12.8 0 12.8 12.8v422.4q0 12.8-12.8 12.8h-38.4q-12.8 0-12.8-12.8V332.8q0-12.8 12.8-12.8Zm192-128h38.4q12.8 0 12.8 12.8v550.4q0 12.8-12.8 12.8h-38.4q-12.8 0-12.8-12.8V204.8q0-12.8 12.8-12.8Zm192 128h38.4q12.8 0 12.8 12.8v422.4q0 12.8-12.8 12.8h-38.4q-12.8 0-12.8-12.8V332.8q0-12.8 12.8-12.8Zm192 0h38.4q12.8 0 12.8 12.8v422.4q0 12.8-12.8 12.8h-38.4q-12.8 0-12.8-12.8V332.8q0-12.8 12.8-12.8Z"/></svg>