<svg viewBox="64 64 896 896" focusable="false"><path d="M320 140.8v166.4a12.8 12.8 0 0 1-12.8 12.8H140.8a12.8 12.8 0 0 1-12.8-12.8V140.8c0-7.04 5.76-12.8 12.8-12.8h166.4c7.04 0 12.8 5.76 12.8 12.8zM243.2 192h-38.4a12.8 12.8 0 0 0-12.8 12.8v38.4c0 7.04 5.76 12.8 12.8 12.8h38.4a12.8 12.8 0 0 0 12.8-12.8v-38.4a12.8 12.8 0 0 0-12.8-12.8zM320 716.8v166.4a12.8 12.8 0 0 1-12.8 12.8H140.8a12.8 12.8 0 0 1-12.8-12.8V716.8c0-7.04 5.76-12.8 12.8-12.8h166.4c7.04 0 12.8 5.76 12.8 12.8zM243.2 768h-38.4a12.8 12.8 0 0 0-12.8 12.8v38.4c0 7.04 5.76 12.8 12.8 12.8h38.4a12.8 12.8 0 0 0 12.8-12.8v-38.4a12.8 12.8 0 0 0-12.8-12.8zM320 428.8v166.4a12.8 12.8 0 0 1-12.8 12.8H140.8a12.8 12.8 0 0 1-12.8-12.8V428.8c0-7.04 5.76-12.8 12.8-12.8h166.4c7.04 0 12.8 5.76 12.8 12.8zM243.2 480h-38.4a12.8 12.8 0 0 0-12.8 12.8v38.4c0 7.04 5.76 12.8 12.8 12.8h38.4a12.8 12.8 0 0 0 12.8-12.8v-38.4a12.8 12.8 0 0 0-12.8-12.8zm153.6-352h486.4q12.8 0 12.8 12.8v38.4q0 12.8-12.8 12.8H396.8q-12.8 0-12.8-12.8v-38.4q0-12.8 12.8-12.8Zm0 576h486.4q12.8 0 12.8 12.8v38.4q0 12.8-12.8 12.8H396.8q-12.8 0-12.8-12.8v-38.4q0-12.8 12.8-12.8Zm0-288h486.4q12.8 0 12.8 12.8v38.4q0 12.8-12.8 12.8H396.8q-12.8 0-12.8-12.8v-38.4q0-12.8 12.8-12.8Zm0 128h486.4q12.8 0 12.8 12.8v38.4q0 12.8-12.8 12.8H396.8q-12.8 0-12.8-12.8v-38.4q0-12.8 12.8-12.8Zm0-288h486.4q12.8 0 12.8 12.8v38.4q0 12.8-12.8 12.8H396.8q-12.8 0-12.8-12.8v-38.4q0-12.8 12.8-12.8Zm0 576h486.4q12.8 0 12.8 12.8v38.4q0 12.8-12.8 12.8H396.8q-12.8 0-12.8-12.8v-38.4q0-12.8 12.8-12.8Z"/></svg>