<svg viewBox="0 0 1024 1024" focusable="false"><path d="M172.672 63.872H320v64H192V896h640V127.936H706.24V64H851.2a44.8 44.8 0 0 1 44.416 38.72l.384 6.08v806.4a44.8 44.8 0 0 1-38.72 44.416l-6.08.384H172.8a44.8 44.8 0 0 1-44.416-38.72L128 915.2V108.672c0-24.576 19.776-44.544 44.672-44.8z"/><path d="M711.616 381.824a12.8 12.8 0 0 1 .32 18.112L565.76 551.04l153.216 148.032a12.8 12.8 0 0 1 .32 18.112l-26.688 27.648a12.8 12.8 0 0 1-18.048.32L521.408 597.12 374.656 749.056a12.8 12.8 0 0 1-18.112.32l-27.584-26.624a12.8 12.8 0 0 1-.32-18.112l146.688-152L324.8 407.36a12.8 12.8 0 0 1-.32-18.112l26.688-27.648a12.8 12.8 0 0 1 18.112-.32l150.528 145.28 146.048-151.168a12.8 12.8 0 0 1 18.112-.32l27.648 26.688zm-81.92-317.888H396.8a12.8 12.8 0 0 0-12.8 12.8V243.2c0 7.04 5.76 12.8 12.8 12.8h232.896a12.8 12.8 0 0 0 12.8-12.8V76.736a12.8 12.8 0 0 0-12.8-12.8zm-51.264 76.736v38.464a12.8 12.8 0 0 1-12.8 12.8H460.8a12.8 12.8 0 0 1-12.8-12.8v-38.464c0-7.04 5.76-12.8 12.8-12.8h104.832c7.04 0 12.8 5.76 12.8 12.8z"/></svg>