<svg viewBox="0 0 1024 1024" focusable="false"><path fill-rule="evenodd" d="M384 243.27V76.8c0-7.07 5.73-12.8 12.8-12.8h232.868c7.07 0 12.8 5.73 12.8 12.8v166.47c0 7.07-5.73 12.8-12.8 12.8H396.8c-7.07 0-12.8-5.73-12.8-12.8ZM140.8 64.07h166.4c7.07 0 12.8 5.731 12.8 12.8v38.4c0 7.07-5.73 12.8-12.8 12.8H192v768h640v-768H716.8c-7.07 0-12.8-5.73-12.8-12.8v-38.4c0-7.069 5.73-12.8 12.8-12.8h166.4c7.072 0 12.8 5.731 12.8 12.8v870.4c0 7.072-5.728 12.8-12.8 12.8H140.8c-7.07 0-12.8-5.728-12.8-12.8V76.87c0-7.069 5.73-12.8 12.8-12.8ZM448 192.01h130.432v-64.065H448v64.065Zm-73.334 557.212L521.376 597.3l153.228 147.974c5.086 4.908 13.189 4.768 18.1-.32l26.675-27.623c4.91-5.081 4.769-13.19-.317-18.098l-153.228-147.97 146.087-151.278c4.91-5.085 4.769-13.188-.317-18.099l-27.622-26.674c-5.085-4.911-13.188-4.77-18.1.315L519.797 506.804 369.274 361.446c-5.085-4.91-13.188-4.769-18.099.316L324.5 389.385c-4.91 5.085-4.77 13.188.316 18.1l150.522 145.357-146.71 151.92c-4.91 5.088-4.769 13.19.317 18.099l27.622 26.675c5.085 4.915 13.189 4.774 18.1-.314Z"/></svg>