<svg viewBox="0 0 1024 1024" focusable="false"><g fill-rule="evenodd"><path d="m145.842 71.449 422.4 181.028A12.8 12.8 0 0 1 576 264.242v247.56h307.2c7.072 0 12.8 5.73 12.8 12.8v422.4c0 7.071-5.728 12.8-12.8 12.8H140.8c-7.07 0-12.8-5.729-12.8-12.8V83.213c0-9.19 9.396-15.385 17.842-11.765Zm46.162 98.889-.004.228v718.835a6.408 6.408 0 0 0 6.17 6.4H505.6a6.401 6.401 0 0 0 6.396-6.17l.004-.23V302.224a6.4 6.4 0 0 0-3.646-5.778l-.233-.105-307.2-131.657c-4.152-1.78-8.765 1.186-8.917 5.654ZM825.6 575.802H576v320h249.6a6.403 6.403 0 0 0 6.396-6.171l.004-.23V582.202a6.401 6.401 0 0 0-6.17-6.396l-.23-.004Z"/><path d="M441.6 639.802a6.4 6.4 0 0 1 6.396 6.17l.004.23v51.2a6.4 6.4 0 0 1-6.17 6.396l-.23.004H262.4a6.4 6.4 0 0 1-6.396-6.17l-.004-.23v-51.2a6.4 6.4 0 0 1 6.17-6.396l.23-.004h179.2ZM441.6 511.802a6.4 6.4 0 0 1 6.396 6.17l.004.23v51.2a6.4 6.4 0 0 1-6.17 6.396l-.23.004H262.4a6.4 6.4 0 0 1-6.396-6.17l-.004-.23v-51.2a6.4 6.4 0 0 1 6.17-6.396l.23-.004h179.2ZM441.6 383.802a6.4 6.4 0 0 1 6.396 6.17l.004.23v51.2a6.4 6.4 0 0 1-6.17 6.396l-.23.004H262.4a6.4 6.4 0 0 1-6.396-6.17l-.004-.23v-51.2a6.4 6.4 0 0 1 6.17-6.396l.23-.004h179.2Z"/></g></svg>