<svg viewBox="0 0 1024 1024" focusable="false"><path fill-rule="evenodd" d="M128 947.001V83.214c0-9.19 9.396-15.385 17.842-11.765l422.4 181.028A12.8 12.8 0 0 1 576 264.242v247.56h307.2c7.072 0 12.8 5.73 12.8 12.8v422.4c0 7.071-5.728 12.8-12.8 12.8H140.8c-7.07 0-12.8-5.729-12.8-12.8Zm64-57.6V170.566c0-4.594 4.698-7.692 8.921-5.882l307.2 131.657a6.4 6.4 0 0 1 3.879 5.883V889.4a6.4 6.4 0 0 1-6.4 6.4H198.4a6.401 6.401 0 0 1-6.4-6.4Zm64-499.199v51.2a6.4 6.4 0 0 0 6.4 6.4h179.2a6.4 6.4 0 0 0 6.4-6.4v-51.2a6.4 6.4 0 0 0-6.4-6.4H262.4a6.4 6.4 0 0 0-6.4 6.4Zm0 128v51.2a6.4 6.4 0 0 0 6.4 6.4h179.2a6.4 6.4 0 0 0 6.4-6.4v-51.2a6.4 6.4 0 0 0-6.4-6.4H262.4a6.4 6.4 0 0 0-6.4 6.4Zm320 377.6v-320h249.6a6.4 6.4 0 0 1 6.4 6.4v307.2c0 3.532-2.867 6.4-6.4 6.4H576Zm-320-249.6v51.2a6.4 6.4 0 0 0 6.4 6.4h179.2a6.4 6.4 0 0 0 6.4-6.4v-51.2a6.4 6.4 0 0 0-6.4-6.4H262.4a6.4 6.4 0 0 0-6.4 6.4Z"/></svg>