<svg viewBox="0 0 1024 1024" focusable="false"><path fill-rule="evenodd" d="M755.222 320H269.086c-7.18 0-12.99-5.883-12.679-13.056.17-3.928.368-7.175.594-9.74C268.535 166.496 378.298 64 512.001 64c137.1 0 249.026 107.774 255.692 243.223.163 7.005-5.47 12.777-12.471 12.777Zm-62.167-64-3.706-9.737c-27.577-66.262-91.205-113.579-166.043-117.935L511.999 128c-79.15 0-147.114 47.894-176.493 116.282L330.88 256h362.176ZM192 436.876c-70.85-25.302-122.47-91.078-127.014-169.484-.178-6.173 4.777-11.275 10.954-11.275h41.21c6.398 0 11.454 5.05 12.013 11.423l.007.076c5.534 62.103 55.463 111.433 117.83 116.034l9.524.35h511.83c67.22-.225 122.222-52.311 127.092-118.339.198-5.326 4.57-9.544 9.9-9.544h43.022c6.284 0 11.462 5.077 11.097 11.353v.076c-4.614 78.507-56.422 144.328-127.462 169.492v138.333h115.2c7.065 0 12.8 5.731 12.8 12.8v38.4c0 7.07-5.735 12.8-12.8 12.8h-115.2V640c0 46.81-10.055 91.277-28.115 131.347 85.235 16.128 150.534 88.621 155.667 177.261.179 6.176-4.775 11.277-10.95 11.277h-42.49c-5.683 0-10.189-4.493-10.63-10.157l-.007-.07c-4.96-62.701-55.142-112.672-117.933-117.306l-9.523-.352C709.642 909.722 616.692 960 512 960c-104.693 0-197.643-50.278-256.024-128h-.224c-67.418 0-122.651 52.166-127.533 118.336a9.909 9.909 0 0 1-9.901 9.549H74.57c-5.886 0-10.73-4.749-10.412-10.63l.004-.071c4.89-88.98 70.4-161.805 155.932-177.875C202.044 731.245 192 686.794 192 640v-.63H76.8c-7.07 0-12.8-5.73-12.8-12.8v-38.4c0-7.068 5.73-12.8 12.8-12.8H192V436.877ZM256 448v192c0 130.547 97.718 238.272 224 254.022V588.8c0-7.07 5.73-12.8 12.8-12.8h38.4c7.069 0 12.8 5.73 12.8 12.8v305.222c122.138-15.232 217.558-116.505 223.69-241.245l.313-12.777V448H256Z"/></svg>