<svg viewBox="0 0 1024 1024" focusable="false"><path d="M832 384v256a320 320 0 0 1-640 0V384h640zm-64 64H256v192a256 256 0 0 0 243.2 255.68l12.8.32a256 256 0 0 0 255.68-243.2L768 640V448zM512 64a256 256 0 0 1 255.68 243.2L768 320H256A256 256 0 0 1 512 64zm0 64a192 192 0 0 0-176.512 116.288L330.88 256h362.176l-3.712-9.728A192.192 192.192 0 0 0 523.328 128.32L512 128z"/><path d="M129.152 267.584c5.568 62.08 55.488 111.488 117.824 116.096l9.664.32H768a127.872 127.872 0 0 0 127.488-118.4 9.92 9.92 0 0 1 9.92-9.472h43.328a10.816 10.816 0 0 1 10.816 11.392 191.936 191.936 0 0 1-180.288 180.16l-11.328.32h-511.36A191.872 191.872 0 0 1 64.96 267.392a10.944 10.944 0 0 1 11.008-11.264h40.64c6.528 0 11.968 4.992 12.544 11.52zm766.336 682.048A127.936 127.936 0 0 0 777.536 832.32L768 832h-26.496v-64H768a191.872 191.872 0 0 1 191.552 180.608 10.944 10.944 0 0 1-10.944 11.264H906.56a11.072 11.072 0 0 1-11.072-10.24zm-831.36-.448A191.936 191.936 0 0 1 244.48 768.32l11.264-.32h14.72v64h-14.72a127.872 127.872 0 0 0-127.552 118.4 9.92 9.92 0 0 1-9.856 9.472H74.24a10.112 10.112 0 0 1-10.176-10.688zM960 588.16v38.4a12.8 12.8 0 0 1-12.8 12.8H780.8a12.8 12.8 0 0 1-12.8-12.8v-38.4c0-7.04 5.76-12.8 12.8-12.8h166.4c7.04 0 12.8 5.76 12.8 12.8zm-704-12.8v64H76.8a12.8 12.8 0 0 1-12.8-12.8v-38.4c0-7.04 5.76-12.8 12.8-12.8H256zm224 .64h64v320h-64z"/></svg>