<svg viewBox="64 64 896 896" focusable="false"><path d="M512 64a320 320 0 0 1 192.064 576L704 691.2a12.8 12.8 0 0 1-12.8 12.8H332.8a12.8 12.8 0 0 1-12.8-12.8V640A320 320 0 0 1 512 64zm0 64a256 256 0 0 0-165.248 451.52l11.648 9.28L384 608l-.064 31.936h256.128v-32l25.6-19.2A256 256 0 0 0 512 128zM396.8 896h230.4q12.8 0 12.8 12.8v38.4q0 12.8-12.8 12.8H396.8q-12.8 0-12.8-12.8v-38.4q0-12.8 12.8-12.8z"/><path d="M691.2 640c7.04 0 12.8 5.76 12.8 12.8v166.4a12.8 12.8 0 0 1-12.8 12.8H332.8a12.8 12.8 0 0 1-12.8-12.8V652.8c0-7.04 5.76-12.8 12.8-12.8h358.4zM640 704H384v64h256v-64zM458.752 211.648l13.184 37.568a11.392 11.392 0 0 1-6.208 14.208 160.64 160.64 0 0 0-85.12 86.272 11.776 11.776 0 0 1-14.72 7.04l-38.976-12.8A11.264 11.264 0 0 1 320 329.024 224.64 224.64 0 0 1 441.6 204.16l.576-.192a12.8 12.8 0 0 1 16.64 7.68z"/></svg>