<svg viewBox="0 0 1024 1024" focusable="false"><path fill-rule="evenodd" d="m320 819.2-.012-179.186C242.27 581.633 192 488.687 192 384c0-176.73 143.27-320 320-320s320 143.27 320 320c0 104.658-50.243 197.58-127.923 255.965L704 819.2c0 7.072-5.73 12.8-12.8 12.8H332.8c-7.07 0-12.8-5.728-12.8-12.8Zm320.113-204.853L640.064 640H383.936l.035-25.556a12.8 12.8 0 0 0-5.112-10.252l-20.432-15.348-11.706-9.334C289.724 531.309 256 460.51 256 384c0-141.385 114.615-256 256-256s256 114.615 256 256c0 81.588-38.348 156.682-102.376 204.805l-20.402 15.334a12.8 12.8 0 0 0-5.11 10.208Zm-320.18-285.19c20.31-51.983 59.387-94.49 108.977-119.191l13.176-6.018c6.738-2.605 14.296.88 16.691 7.696l13.315 37.898c1.955 5.565-.892 11.538-6.315 13.856-38.505 16.5-69.19 47.616-85.12 86.274-2.204 5.948-8.722 9.083-14.745 7.093L327.21 343.98c-6.202-2.05-9.65-8.736-7.278-14.821ZM384 768v-64h256v64H384Zm0 140.8v38.4c0 7.072 5.73 12.8 12.8 12.8h230.4c7.07 0 12.8-5.728 12.8-12.8v-38.4c0-7.072-5.73-12.8-12.8-12.8H396.8c-7.07 0-12.8 5.728-12.8 12.8Z"/></svg>