<svg viewBox="0 0 1024 1024" focusable="false"><g fill-rule="evenodd"><path d="M512 64c176.73 0 320 143.27 320 320 0 104.658-50.243 197.58-127.923 255.965L704 819.2c0 7.072-5.73 12.8-12.8 12.8H332.8c-7.07 0-12.8-5.728-12.8-12.8l-.012-179.186C242.27 581.633 192 488.687 192 384c0-176.73 143.27-320 320-320Zm128 640H384v64h256v-64ZM512 128c-141.385 0-256 114.615-256 256 0 75.744 33.052 145.892 89.018 194.057l1.703 1.453 11.706 9.334 20.432 15.348a12.8 12.8 0 0 1 5.107 9.886l.005.366-.035 25.556h256.128l.049-25.653a12.8 12.8 0 0 1 4.821-9.985l.288-.223 20.402-15.334C729.652 540.682 768 465.588 768 384c0-141.385-114.615-256-256-256Z"/><path d="M319.933 329.158c20.31-51.984 59.387-94.492 108.977-119.192l13.176-6.018c6.738-2.605 14.296.88 16.691 7.696l13.315 37.898c1.955 5.565-.892 11.538-6.315 13.856-38.505 16.5-69.19 47.616-85.12 86.274-2.204 5.948-8.722 9.083-14.745 7.093L327.21 343.98c-6.202-2.05-9.65-8.736-7.278-14.821ZM384 908.8v38.4c0 7.072 5.73 12.8 12.8 12.8h230.4c7.07 0 12.8-5.728 12.8-12.8v-38.4c0-7.072-5.73-12.8-12.8-12.8H396.8c-7.07 0-12.8 5.728-12.8 12.8Z"/></g></svg>