<svg viewBox="64 64 896 896" focusable="false"><path d="M128 256h768v64H128zm128 192h128v64H256z"/><path d="M332.8 64h38.4c7.04 0 12.8 5.76 12.8 12.8V320h-64V76.8c0-7.04 5.76-12.8 12.8-12.8zm320 0h38.4c7.04 0 12.8 5.76 12.8 12.8V320h-64V76.8c0-7.04 5.76-12.8 12.8-12.8zM256 640h128v64H256zm192-192h128v64H448zm0 192h128v64H448zm192-192h128v64H640zm0 192h128v64H640z"/><path d="M960 140.8v742.4a12.8 12.8 0 0 1-12.8 12.8H76.8A12.8 12.8 0 0 1 64 883.2V140.8c0-7.04 5.76-12.8 12.8-12.8h870.4c7.04 0 12.8 5.76 12.8 12.8zM896 192H128v640h768V192z"/></svg>