<svg viewBox="0 0 1024 1024" focusable="false"><g fill-rule="evenodd"><path d="M696.089 128c4.849 0 9.28 2.74 11.45 7.076L768 256h179.2c7.072 0 12.8 5.73 12.8 12.8v614.4c0 7.072-5.728 12.8-12.8 12.8H76.8c-7.07 0-12.8-5.728-12.8-12.8V268.8c0-7.07 5.73-12.8 12.8-12.8H128v-51.2c0-7.07 5.73-12.8 12.8-12.8h38.4c7.07 0 12.8 5.73 12.8 12.8V256h63.936l60.526-120.924A12.8 12.8 0 0 1 327.911 128h368.178Zm-31.705 64H359.488l-64.017 128H128v512h768V320H728.448l-64.064-128Z"/><path d="M512 352c123.712 0 224 100.288 224 224S635.712 800 512 800 288 699.712 288 576s100.288-224 224-224Zm0 64c-88.365 0-160 71.635-160 160s71.635 160 160 160 160-71.635 160-160-71.635-160-160-160Z"/><path d="M499.101 480.859c-42.7 5.734-76.508 39.542-82.242 82.242-.94 7.007 4.872 12.899 11.941 12.899h38.4c7.07 0 12.608-6.196 15.412-12.685a32.119 32.119 0 0 1 16.703-16.703C505.805 543.808 512 538.27 512 531.2v-38.4c0-7.07-5.892-12.882-12.899-11.941Z"/></g></svg>