<svg viewBox="0 0 1024 1024" focusable="false"><path d="M696.064 128a12.8 12.8 0 0 1 11.52 7.04L768 256h179.2c7.04 0 12.8 5.76 12.8 12.8v614.4a12.8 12.8 0 0 1-12.8 12.8H76.8A12.8 12.8 0 0 1 64 883.2V268.8c0-7.04 5.76-12.8 12.8-12.8h179.136l60.544-120.96a12.8 12.8 0 0 1 11.456-7.04h368.128zm-31.68 64H359.488l-64 128H128v512h768V320H728.448l-64.064-128z"/><path d="M512 352a224 224 0 1 0 0 448 224 224 0 0 0 0-448zm0 64a160 160 0 1 1 0 320 160 160 0 0 1 0-320z"/><path d="M512 480a32 32 0 0 1 5.76 63.488L512 544a32 32 0 0 0-31.488 26.24L480 576a32 32 0 0 1-64 0 96 96 0 0 1 96-96zM140.8 192h38.4q12.8 0 12.8 12.8v102.4q0 12.8-12.8 12.8h-38.4q-12.8 0-12.8-12.8V204.8q0-12.8 12.8-12.8Z"/></svg>