<svg viewBox="64 64 896 896" focusable="false"><path d="M480 140.8v326.4a12.8 12.8 0 0 1-12.8 12.8H140.8a12.8 12.8 0 0 1-12.8-12.8V140.8c0-7.04 5.76-12.8 12.8-12.8h326.4c7.04 0 12.8 5.76 12.8 12.8zM416 192H192v224h224V192zm64 364.8v326.4a12.8 12.8 0 0 1-12.8 12.8H140.8a12.8 12.8 0 0 1-12.8-12.8V556.8c0-7.04 5.76-12.8 12.8-12.8h326.4c7.04 0 12.8 5.76 12.8 12.8zM416 608H192v224h224V608zm480-467.2v326.4a12.8 12.8 0 0 1-12.8 12.8H556.8a12.8 12.8 0 0 1-12.8-12.8V140.8c0-7.04 5.76-12.8 12.8-12.8h326.4c7.04 0 12.8 5.76 12.8 12.8zM832 192H608v224h224V192zm64 364.8v326.4a12.8 12.8 0 0 1-12.8 12.8H556.8a12.8 12.8 0 0 1-12.8-12.8V556.8c0-7.04 5.76-12.8 12.8-12.8h326.4c7.04 0 12.8 5.76 12.8 12.8zM832 608H608v224h224V608z"/></svg>