<svg xmlns="http://www.w3.org/2000/svg" viewBox="0 0 1024 1024"><path d="M512 85.333C276.395 85.333 85.333 276.395 85.333 512c0 235.605 191.062 426.667 426.667 426.667 235.605 0 426.667-191.062 426.667-426.667 0-235.605-191.062-426.667-426.667-426.667zM0 512C0 229.205 229.205 0 512 0c282.795 0 512 229.205 512 512 0 282.795-229.205 512-512 512C229.205 1024 0 794.795 0 512zm464.187 85.541l235.326-235.325c23.327-23.327 61.148-23.327 84.475 0 23.328 23.328 23.328 61.149 0 84.476L506.425 724.255c-23.327 23.327-61.148 23.327-84.475 0L265.066 567.372c-23.327-23.328-23.327-61.149 0-84.476 23.328-23.327 61.149-23.327 84.476 0L464.187 597.54z"/></svg>