<svg viewBox="0 0 1024 1024" focusable="false"><path fill-rule="evenodd" d="M512 64c247.445 0 448 200.555 448 448S759.445 960 512 960 64 759.445 64 512 264.555 64 512 64Zm0 64c-212.045 0-384 171.955-384 384s171.955 384 384 384 384-171.955 384-384-171.955-384-384-384Zm220.149 223.365 27.152 27.153c5 4.998 5 13.103 0 18.102L460.384 695.537c-4.999 4.999-13.103 4.999-18.102 0L279.365 532.62c-4.999-5-4.999-13.104 0-18.102l27.153-27.153c3.999-4 9.985-4.8 14.78-2.4l3.321 2.4 117.662 117.662c4.998 4.998 13.103 4.998 18.102 0l253.664-253.662c4.998-4.999 13.103-4.999 18.102 0Z"/></svg>