<svg viewBox="0 0 1024 1024" focusable="false"><path fill-rule="evenodd" d="M960 512c0 247.424-200.576 448-448 448-247.423 0-448-200.576-448-448C64 264.577 264.577 64 512 64c247.424 0 448 200.577 448 448Zm-64 0c0 212.077-171.923 384-384 384S128 724.077 128 512s171.923-384 384-384 384 171.923 384 384Zm-98.618-115.18L453.734 740.473c-4.999 4.998-12.935 4.934-17.934-.064L227.404 532.013c-4.999-4.999-5.064-12.93-.066-17.93l27.391-27.39c4.999-4.999 12.944-4.92 17.942.08l172.084 172.114 307.239-307.19c4.998-4.997 13.004-5.135 18.003-.137l27.392 27.39c4.998 5 4.998 12.87-.007 17.87Z"/></svg>