<svg viewBox="0 0 1024 1024" focusable="false"><path d="M243.2 320c7.04 0 12.8 5.76 12.8 12.8V896h512V332.8c0-7.04 5.76-12.8 12.8-12.8h38.4c7.04 0 12.8 5.76 12.8 12.8v614.08a12.8 12.8 0 0 1-12.8 12.8H204.8a12.8 12.8 0 0 1-12.8-12.8V332.8c0-7.04 5.76-12.8 12.8-12.8h38.4zm512-256c7.04 0 12.8 5.76 12.8 12.8V192h179.2c7.04 0 12.8 5.76 12.8 12.8v38.4a12.8 12.8 0 0 1-12.8 12.8H76.8A12.8 12.8 0 0 1 64 243.2v-38.4c0-7.04 5.76-12.8 12.8-12.8H256V76.8c0-7.04 5.76-12.8 12.8-12.8h486.4zm-50.752 64h-383.68l-.128 64h383.68v-64z"/></svg>