<svg viewBox="0 0 1024 1024" focusable="false"><path fill-rule="evenodd" d="M947.2 320H640V76.8c0-7.07-5.73-12.8-12.8-12.8H460.8c-7.07 0-12.8 5.73-12.8 12.8V320H140.8c-7.07 0-12.8 5.73-12.8 12.8v166.4c0 7.07 5.73 12.8 12.8 12.8H240L131.976 944.096c-2.02 8.077 4.09 15.904 12.418 15.904h799.21c8.332 0 14.438-7.827 12.422-15.904L848 512h99.2c7.072 0 12.8-5.73 12.8-12.8V332.8c0-7.07-5.728-12.8-12.8-12.8M576 128v192h-64V128h64ZM192 384h704v64H192v-64Zm589.946 128H305.98l-96 384h117.726l58.477-219.857c1.817-6.832 8.828-10.896 15.66-9.08l37.11 9.87c6.831 1.818 10.897 8.83 9.08 15.66L393.93 896h484.015l-96-384Z"/></svg>