<svg viewBox="64 64 896 896"><path d="M960 332.8v166.4a12.8 12.8 0 0 1-12.8 12.8H140.8a12.8 12.8 0 0 1-12.8-12.8V332.8c0-7.04 5.76-12.8 12.8-12.8h806.4c7.04 0 12.8 5.76 12.8 12.8zM896 384H192v64h704v-64z"/><path d="M627.2 64c7.04 0 12.8 5.76 12.8 12.8v294.4a12.8 12.8 0 0 1-12.8 12.8H460.8a12.8 12.8 0 0 1-12.8-12.8V76.8c0-7.04 5.76-12.8 12.8-12.8h166.4zM576 128h-64v192h64V128zm256 320 124.032 496.064A12.8 12.8 0 0 1 943.616 960H144.384a12.8 12.8 0 0 1-12.416-15.936L256 448h576zm-50.048 64H305.984l-96 384h667.968l-96-384z"/><path d="m389.504 663.744 61.824 16.512-68.096 256-61.824-16.512z"/></svg>