<svg viewBox="0 0 1024 1024" focusable="false"><path fill-rule="evenodd" d="M627.2 64c6.967 0 12.634 5.566 12.796 12.493l.004.307V320h307.2c6.97 0 12.634 5.566 12.8 12.493V499.2c0 6.967-5.563 12.634-12.493 12.796l-.307.004H848l108.026 432.096c1.993 7.985-3.952 15.726-12.14 15.904H144.394c-8.233 0-14.298-7.65-12.484-15.629l.066-.275L240 512h-99.2c-6.967 0-12.634-5.566-12.8-12.493V332.8c0-6.967 5.566-12.634 12.493-12.796l.307-.004H448V76.8c0-6.967 5.566-12.634 12.493-12.8H627.2Zm154.746 448H305.98l-96 384h117.726l58.477-219.857c1.817-6.832 8.828-10.896 15.66-9.08l37.11 9.87c6.831 1.818 10.897 8.83 9.08 15.66L393.93 896h484.015l-96-384ZM896 384H192v64h704v-64ZM576 128h-64v192h64V128Z"/></svg>