<svg viewBox="64 64 896 896" focusable="false"><path d="M512 64a448 448 0 1 1 0 896 448 448 0 0 1 0-896zm0 64a384 384 0 1 0 0 768 384 384 0 0 0 0-768zm195.2 215.232a12.8 12.8 0 0 1 0 18.112L557.632 510.848l149.44 149.44a12.8 12.8 0 0 1 0 18.112l-27.2 27.136a12.8 12.8 0 0 1-18.048 0L512.384 556.16 362.944 705.6a12.8 12.8 0 0 1-18.048 0l-27.2-27.136a12.8 12.8 0 0 1 0-18.112L467.2 510.848l-147.264-147.2a12.8 12.8 0 0 1 0-18.112l27.136-27.136a12.8 12.8 0 0 1 18.112 0l147.264 147.2 149.568-149.504a12.8 12.8 0 0 1 18.048 0l27.2 27.136z"/></svg>