<svg viewBox="0 0 1024 1024" focusable="false"><path d="M480 128a288 288 0 0 1 286.976 263.808A256 256 0 0 1 716.8 895.68L704 896h-64v-64h62.4l11.264-.256a192 192 0 0 0 48.512-374.784l-10.88-3.072-44.288-11.2-3.84-45.568A224 224 0 0 0 480 192c-119.616 0-217.28 93.696-223.68 210.24L256 414.4l.96 40.192-32.896 19.008a192 192 0 0 0 84.608 358.08L320 832h64v64h-64a256 256 0 0 1-128-477.76V416a288 288 0 0 1 288-288z"/><path d="M390.272 705.92a10.88 10.88 0 0 1 6.144-1.92H480V524.8c0-7.04 5.76-12.8 12.8-12.8h38.4c7.04 0 12.8 5.76 12.8 12.8V704h84.48a10.88 10.88 0 0 1 9.088 17.088l-116.096 170.56a10.88 10.88 0 0 1-18.112 0l-116.032-170.56a10.88 10.88 0 0 1 2.88-15.168z"/></svg>