<svg viewBox="0 0 1024 1024" focusable="false"><path fill-rule="evenodd" d="M192.056 418.216C115.506 462.472 64 545.221 64 640c0 86.761 43.16 163.443 109.182 209.74 8.071 5.665 18.818-.32 18.818-10.182v-50.726c0-3.642-1.61-7.13-4.25-9.638C150.945 744.21 128 694.784 128 640c0-69.39 37.066-132.255 96.088-166.377l26.32-15.217a12.8 12.8 0 0 0 6.39-11.402l-.818-32.608.333-12.136C262.712 285.714 360.413 192 480 192c116.704 0 213.627 89.637 223.22 205.137l3.026 36.446a12.803 12.803 0 0 0 9.626 11.35l35.456 8.957 10.867 3.09C840.851 481.875 896 555.44 896 640c0 54.66-22.906 104.152-59.744 139.194-2.637 2.508-4.256 6.003-4.256 9.644v50.72c0 9.863 10.746 15.847 18.816 10.183C916.838 803.443 960 726.76 960 640c0-119.662-82.1-220.148-192.998-248.16C754.726 244.086 630.92 128 480 128c-159.058 0-288 128.942-288 288l.056 2.216ZM256 883.2V588.8c0-7.07 5.73-12.8 12.8-12.8h486.4c7.072 0 12.8 5.73 12.8 12.8v294.4c0 7.072-5.728 12.8-12.8 12.8H268.8c-7.07 0-12.8-5.728-12.8-12.8ZM320 640v192h384V640H320Zm192 76.8v38.4c0 7.07 5.73 12.8 12.8 12.8h102.4c7.07 0 12.8-5.73 12.8-12.8v-38.4c0-7.07-5.73-12.8-12.8-12.8H524.8c-7.07 0-12.8 5.73-12.8 12.8Z"/></svg>