<svg viewBox="64 64 896 896" focusable="false"><path d="M480 128a288 288 0 0 1 286.976 263.808A256 256 0 0 1 716.8 895.68L704 896h-64v-64h62.4l11.264-.256a192 192 0 0 0 48.512-374.784l-10.88-3.072-44.288-11.2-3.84-45.568A224 224 0 0 0 480 192c-119.616 0-217.28 93.696-223.68 210.24L256 414.4l.96 40.192-32.896 19.008a192 192 0 0 0 84.608 358.08L320 832h64v64h-64a256 256 0 0 1-128-477.76V416a288 288 0 0 1 288-288z"/><path d="M634.688 702.528a10.88 10.88 0 0 1-6.144 1.92l-83.52-.064v179.2a12.8 12.8 0 0 1-12.8 12.8h-38.4a12.8 12.8 0 0 1-12.8-12.8v-179.2h-84.608a10.88 10.88 0 0 1-9.024-17.024L503.424 516.8a10.88 10.88 0 0 1 18.112 0l116.096 170.56a10.88 10.88 0 0 1-2.944 15.168z"/></svg>