<svg viewBox="0 0 1024 1024" focusable="false"><path fill-rule="evenodd" d="M64 640c0-94.779 51.506-177.528 128.056-221.784L192 416c0-159.058 128.942-288 288-288 150.921 0 274.726 116.087 287.002 263.84C877.9 419.851 960 520.337 960 640c0 137.1-107.776 249.03-243.226 255.686L704 896H320C178.615 896 64 781.382 64 640Zm687.328-186.11-35.456-8.956a12.803 12.803 0 0 1-9.626-11.351l-3.026-36.446C693.627 281.637 596.704 192 480 192c-119.588 0-217.288 93.714-223.687 210.26l-.333 12.136.818 32.608a12.8 12.8 0 0 1-6.39 11.402l-26.32 15.217C165.066 507.745 128 570.609 128 640c0 102.252 79.93 185.837 180.719 191.674L320 832l382.431.02 11.201-.257C815.514 826.758 896 742.461 896 640c0-84.559-55.149-158.125-133.805-183.02l-10.867-3.09Z"/></svg>