<svg viewBox="64 64 896 896" focusable="false"><path d="M480 128a288 288 0 0 1 286.976 263.808 256 256 0 0 1 65.088 469.888V783.04a192.064 192.064 0 0 0-69.888-326.08l-10.88-3.072-44.288-11.2-3.84-45.568A224 224 0 0 0 480 192c-119.616 0-217.28 93.696-223.68 210.24L256 414.4l.96 40.192-32.896 19.008a191.872 191.872 0 0 0-32 309.504L192 861.76A255.872 255.872 0 0 1 64 640c0-94.72 51.52-177.536 128-221.76V416a288 288 0 0 1 288-288z"/><path d="M755.2 576c7.04 0 12.8 5.76 12.8 12.8v294.4a12.8 12.8 0 0 1-12.8 12.8H268.8a12.8 12.8 0 0 1-12.8-12.8V588.8c0-7.04 5.76-12.8 12.8-12.8h486.4zM704 640H320v192h384V640z"/><path d="M524.8 704h102.4q12.8 0 12.8 12.8v38.4q0 12.8-12.8 12.8H524.8q-12.8 0-12.8-12.8v-38.4q0-12.8 12.8-12.8z"/></svg>