<svg viewBox="0 0 1024 1024" focusable="false"><path fill-rule="evenodd" d="M64 640c0-94.779 51.506-177.528 128.056-221.784L192 416c0-159.058 128.942-288 288-288 150.921 0 274.726 116.087 287.002 263.84C877.9 419.851 960 520.337 960 640c0 113.47-73.824 209.696-176.064 243.27-7.949 2.612-15.936-3.481-15.936-11.846v-41.28c0-5.42 3.494-10.24 8.518-12.294C846.746 789.197 896 720.156 896 640c0-84.559-55.149-158.125-133.805-183.02l-10.867-3.09-35.456-8.956a12.803 12.803 0 0 1-9.626-11.351l-3.026-36.446C693.627 281.637 596.704 192 480 192c-119.588 0-217.288 93.714-223.687 210.26l-.333 12.136.818 32.608a12.8 12.8 0 0 1-6.39 11.402l-26.32 15.217C165.066 507.745 128 570.609 128 640c0 80.385 49.4 149.229 119.496 177.837 5.023 2.054 8.504 6.867 8.504 12.288v41.299c0 8.365-7.99 14.458-15.937 11.846C137.825 849.696 64 753.47 64 640Zm603.969 175.974A192.018 192.018 0 0 0 704 704c0-106.038-85.962-192-192-192-35.204 0-69.63 9.677-99.57 27.836-6.751 4.095-7.33 13.271-1.746 18.855l28.453 28.453c4.151 4.152 10.475 4.935 15.729 2.315A128 128 0 0 1 512 576c70.692 0 128 57.308 128 128 0 8.24-.796 16.46-2.376 24.547h-28.33c-11.496 0-17.164 13.978-8.914 21.985l66.635 64.668c.047.051.127.032.151-.032l.803.806ZM430.378 670.46l-29.264-30.399.157-.271-11.211-11.212-33.734-35.042a.648.648 0 0 0-1.077.232l-.265-.266a192.002 192.002 0 0 0-34.587 98.156l-.17.48h.14a191.574 191.574 0 0 0-.367 11.863c0 106.042 85.962 192 192 192 34.515 0 68.294-9.3 97.834-26.797 6.837-4.045 7.525-13.331 1.906-18.95l-28.567-28.563c-4.103-4.11-10.452-4.858-15.681-2.343A128.054 128.054 0 0 1 512 832c-70.692 0-128-57.306-128-128 0-3.961.184-7.92.551-11.864h36.605c11.287 0 17.05-13.546 9.222-21.677Z"/></svg>