<svg viewBox="0 0 1024 1024" focusable="false"><path d="M480 128a288 288 0 0 1 286.976 263.808 256 256 0 0 1 1.088 496.128v-66.88a192.192 192.192 0 0 0-5.888-364.096l-10.88-3.072-44.288-11.2-3.84-45.568A224 224 0 0 0 480 192c-119.616 0-217.28 93.696-223.68 210.24L256 414.4l.96 40.192-32.896 19.008A192.064 192.064 0 0 0 256 821.12V888a256.128 256.128 0 0 1-64-469.76V416a288 288 0 0 1 288-288z"/><path d="m355.584 592.768 32.832 34.112 12.8 12.8-.192.32 29.376 30.464a12.8 12.8 0 0 1-9.216 21.696l-36.608-.064a128 128 0 0 0 191.68 122.688l46.208 46.272A192 192 0 0 1 320 704l.384-11.904h-.128l.128-.64.064-1.024c2.56-35.968 14.912-69.12 34.56-96.896l.192.192.384-.96zM512 512a192 192 0 0 1 156.032 304l-.896-.896v.192l-66.816-64.768a12.8 12.8 0 0 1 8.96-21.952h28.288a128 128 0 0 0-191.424-134.4l-46.208-46.08A191.104 191.104 0 0 1 512 512z"/></svg>