<svg viewBox="0 0 1024 1024" focusable="false"><path d="M755.2 64c7.04 0 12.8 5.76 12.8 12.8v294.4a12.8 12.8 0 0 1-12.8 12.8H268.8a12.8 12.8 0 0 1-12.8-12.8V76.8c0-7.04 5.76-12.8 12.8-12.8h486.4zM704 128H320v192h384V128z"/><path d="M524.8 192h102.4q12.8 0 12.8 12.8v38.4q0 12.8-12.8 12.8H524.8q-12.8 0-12.8-12.8v-38.4q0-12.8 12.8-12.8ZM307.2 704c7.04 0 12.8 5.76 12.8 12.8v230.4a12.8 12.8 0 0 1-12.8 12.8H76.8A12.8 12.8 0 0 1 64 947.2V716.8c0-7.04 5.76-12.8 12.8-12.8h230.4zM256 768H128v128h128V768zm371.2-64c7.04 0 12.8 5.76 12.8 12.8v230.4a12.8 12.8 0 0 1-12.8 12.8H396.8a12.8 12.8 0 0 1-12.8-12.8V716.8c0-7.04 5.76-12.8 12.8-12.8h230.4zM576 768H448v128h128V768zm371.2-64c7.04 0 12.8 5.76 12.8 12.8v230.4a12.8 12.8 0 0 1-12.8 12.8H716.8a12.8 12.8 0 0 1-12.8-12.8V716.8c0-7.04 5.76-12.8 12.8-12.8h230.4zM896 768H768v128h128V768z"/><path d="M480 384h64v384h-64zM140.8 512h38.4q12.8 0 12.8 12.8v230.4q0 12.8-12.8 12.8h-38.4q-12.8 0-12.8-12.8V524.8q0-12.8 12.8-12.8Zm704 0h38.4q12.8 0 12.8 12.8v230.4q0 12.8-12.8 12.8h-38.4q-12.8 0-12.8-12.8V524.8q0-12.8 12.8-12.8Z"/><path d="M140.8 512h742.4q12.8 0 12.8 12.8v38.4q0 12.8-12.8 12.8H140.8q-12.8 0-12.8-12.8v-38.4q0-12.8 12.8-12.8Z"/></svg>