<svg viewBox="0 0 1024 1024" focusable="false"><path fill-rule="evenodd" d="M140.8 896h742.4c7.072 0 12.8-5.728 12.8-12.8V140.8c0-7.07-5.728-12.8-12.8-12.8H140.8c-7.07 0-12.8 5.73-12.8 12.8v742.4c0 7.072 5.73 12.8 12.8 12.8Zm51.2-64V192h640v640H192Zm220.739-320.046-152.99 152.968a12.8 12.8 0 0 0-3.749 9.052v54.36c0 11.404 13.786 17.115 21.85 9.053L494.24 521.05c5-4.998 5-13.104.001-18.103l-216.39-216.393c-8.063-8.063-21.851-2.352-21.851 9.051v54.293a12.8 12.8 0 0 0 3.748 9.05l152.99 153.006ZM448 755.2v-38.4c0-7.07 5.73-12.8 12.8-12.8h230.4c7.07 0 12.8 5.73 12.8 12.8v38.4c0 7.07-5.73 12.8-12.8 12.8H460.8c-7.07 0-12.8-5.73-12.8-12.8Z"/></svg>