<svg viewBox="0 0 1024 1024" focusable="false"><path fill-rule="evenodd" d="M192 256v-51.2c0-7.07-5.73-12.8-12.8-12.8h-38.4c-7.07 0-12.8 5.73-12.8 12.8v614.4c0 7.07 5.73 12.8 12.8 12.8h166.4c7.07 0 12.8-5.73 12.8-12.8v-38.4c0-7.07-5.73-12.8-12.8-12.8H192V576h115.2c7.07 0 12.8-5.73 12.8-12.8v-38.4c0-7.07-5.73-12.8-12.8-12.8H192V320h115.2c7.07 0 12.8-5.73 12.8-12.8v-38.4c0-7.07-5.73-12.8-12.8-12.8H192Zm704 51.2v-38.4c0-7.07-5.728-12.8-12.8-12.8H396.8c-7.07 0-12.8 5.73-12.8 12.8v38.4c0 7.07 5.73 12.8 12.8 12.8h486.4c7.072 0 12.8-5.73 12.8-12.8Zm0 256v-38.4c0-7.07-5.728-12.8-12.8-12.8H396.8c-7.07 0-12.8 5.73-12.8 12.8v38.4c0 7.07 5.73 12.8 12.8 12.8h486.4c7.072 0 12.8-5.73 12.8-12.8Zm0 256v-38.4c0-7.07-5.728-12.8-12.8-12.8H396.8c-7.07 0-12.8 5.73-12.8 12.8v38.4c0 7.07 5.73 12.8 12.8 12.8h486.4c7.072 0 12.8-5.73 12.8-12.8Z"/></svg>