<svg viewBox="64 64 896 896" focusable="false"><path d="M883.2 192c7.04 0 12.8 5.76 12.8 12.8V448h-64V256H128v512l256-.064V832H76.8A12.8 12.8 0 0 1 64 819.2V192h819.2z"/><path d="m621.248 256-192-192H128a64 64 0 0 0-64 64v128h557.248zM402.752 128l64 64H128v-64h274.752zM651.52 343.232l79.552 161.28a12.8 12.8 0 0 0 9.6 7.04l177.984 25.856a12.8 12.8 0 0 1 7.104 21.76L796.992 684.8a12.8 12.8 0 0 0-3.712 11.328l30.4 177.28a12.8 12.8 0 0 1-18.56 13.44L645.952 803.2a12.8 12.8 0 0 0-11.904 0L474.88 886.848a12.8 12.8 0 0 1-18.56-13.504l30.4-177.28a12.8 12.8 0 0 0-3.712-11.328L354.24 559.232a12.8 12.8 0 0 1 7.04-21.824l177.984-25.856a12.8 12.8 0 0 0 9.664-7.04l79.616-161.28a12.8 12.8 0 0 1 22.912 0zm40 225.792L640 464.64l-51.52 104.448-115.264 16.768 83.392 81.28-19.776 114.752L640 727.68l103.104 54.144-19.712-114.752 83.328-81.28-115.2-16.768z"/></svg>