<svg viewBox="0 0 1024 1024" focusable="false"><path fill-rule="evenodd" d="M512 896c-59.066 0-116.58-9.798-170.06-28.595l-231.968 67.117c-8.64 2.502-17.096-4.455-16.308-13.415l20.448-232.595-3.58-5.775c-27.356-47.229-43.162-99.031-46.05-152.76L64 512c0-213.372 201.65-384 448-384 246.349 0 448 170.628 448 384S758.349 896 512 896ZM173.796 663.518l5.983 9.238-15.811 179.468 180.48-52.128 9.948 3.744C403.486 822.31 456.893 832 512 832c213.152 0 384-144.564 384-320S725.152 192 512 192c-213.151 0-384 144.564-384 320 0 53.576 15.837 105.258 45.796 151.518ZM320.844 480c-26.51 0-48 21.49-48 48s21.49 48 48 48 48-21.49 48-48-21.49-48-48-48Zm192 0c-26.51 0-48 21.49-48 48s21.49 48 48 48 48-21.49 48-48-21.49-48-48-48Zm192 0c-26.51 0-48 21.49-48 48s21.49 48 48 48 48-21.49 48-48-21.49-48-48-48Z"/></svg>