<svg viewBox="0 0 1024 1024" focusable="false"><path d="M320.832 480q48 0 48 48t-48 48q-48 0-48-48t48-48Zm192 0q48 0 48 48t-48 48q-48 0-48-48t48-48Zm192 0q48 0 48 48t-48 48q-48 0-48-48t48-48Z"/><path d="M512 128C265.6 128 64 298.624 64 512l.512 17.92c2.88 53.76 18.688 105.6 46.08 152.832l3.52 5.76-20.48 232.576a12.8 12.8 0 0 0 16.32 13.44l232.256-67.2-10.368-3.584C388.16 884.928 449.28 896 512 896c246.4 0 448-170.624 448-384S758.4 128 512 128zm0 64c213.12 0 384 144.576 384 320S725.12 832 512 832a447.552 447.552 0 0 1-157.632-28.16l-9.92-3.776-180.48 52.16 15.808-179.456-5.952-9.28A276.992 276.992 0 0 1 128 512c0-175.424 170.88-320 384-320z"/></svg>