<svg viewBox="0 0 1024 1024" focusable="false"><path fill-rule="evenodd" d="M896 140.8v742.4c0 7.07-5.73 12.8-12.8 12.8H140.8c-7.07 0-12.8-5.73-12.8-12.8V140.8c0-7.07 5.73-12.8 12.8-12.8h742.4c7.07 0 12.8 5.73 12.8 12.8ZM832 192H192v640h640V192Zm-448.19 76.8.192 248.69 4.735 1.818a95.912 95.912 0 0 1 16.597 8.87l7.568 5.613 3.568 3.078 3.412 3.249a95.933 95.933 0 0 1 6.327 6.98l5.612 7.567a95.974 95.974 0 0 1 15.717 43.925l.346 4.7L448 608a95.99 95.99 0 0 1-16.18 53.334l-5.61 7.568-3.078 3.568-3.25 3.412a95.987 95.987 0 0 1-6.98 6.327l-7.567 5.612a96.097 96.097 0 0 1-8.08 4.843l-4.21 2.119-9.043 3.726L384 755.04c0 7.054-5.706 12.778-12.76 12.8l-38.24.12c-5.891.021-10.865-3.943-12.372-9.355l-.465-3.405-.163-56.69-4.738-1.818a95.911 95.911 0 0 1-16.597-8.871l-7.567-5.612-3.568-3.077-3.412-3.25a96.003 96.003 0 0 1-6.327-6.98l-5.612-7.567a96.05 96.05 0 0 1-12.045-25.467 95.962 95.962 0 0 1-3.672-37.278 95.964 95.964 0 0 1 10.874-35.844 95.927 95.927 0 0 1 4.843-8.08l5.612-7.568 3.078-3.568 3.249-3.412a95.95 95.95 0 0 1 6.98-6.327l7.567-5.612a95.927 95.927 0 0 1 8.08-4.843l4.21-2.119L320 517.49V268.96c0-7.054 5.706-12.778 12.76-12.8l38.21-.12c7.069-.022 12.818 5.69 12.84 12.76Zm320.03-.003.16 56.694 4.737 1.817a95.912 95.912 0 0 1 16.597 8.87l7.568 5.613 3.568 3.078 3.412 3.249a95.933 95.933 0 0 1 6.327 6.98l5.612 7.567a95.974 95.974 0 0 1 15.717 43.925 95.99 95.99 0 0 1-6.846 46.147 95.878 95.878 0 0 1-8.871 16.597l-5.612 7.568-3.077 3.568-3.25 3.412a95.987 95.987 0 0 1-6.98 6.327l-7.567 5.612a96.097 96.097 0 0 1-8.08 4.843l-4.21 2.119-9.044 3.726L704 755.04c0 7.054-5.706 12.778-12.76 12.8l-38.21.12c-5.89.018-10.865-3.946-12.372-9.359l-.468-3.431-.19-248.66-4.738-1.818a95.911 95.911 0 0 1-16.597-8.871l-7.567-5.612-3.568-3.077-3.412-3.25a96.003 96.003 0 0 1-6.327-6.98l-5.612-7.567a96.05 96.05 0 0 1-12.045-25.467 95.962 95.962 0 0 1-3.672-18.458l-.346-4.7L576 416a95.951 95.951 0 0 1 4.134-27.868 95.948 95.948 0 0 1 12.045-25.467l5.612-7.567 3.078-3.568 3.249-3.412a95.95 95.95 0 0 1 6.98-6.327l7.567-5.612a95.927 95.927 0 0 1 8.08-4.843l4.21-2.119 4.307-1.91A96.002 96.002 0 0 1 640 325.49v-56.53c0-7.054 5.706-12.778 12.76-12.8l38.24-.12c7.07-.025 12.818 5.688 12.84 12.757ZM352 576a31.92 31.92 0 0 0-6.243.615 31.941 31.941 0 0 0-16.384 8.758 31.941 31.941 0 0 0-8.758 16.384A31.917 31.917 0 0 0 320 608c0 2.101.205 4.182.615 6.243a31.92 31.92 0 0 0 4.778 11.535 31.867 31.867 0 0 0 3.98 4.85 31.941 31.941 0 0 0 16.384 8.758 31.989 31.989 0 0 0 12.486-.001 31.92 31.92 0 0 0 11.535-4.778 31.867 31.867 0 0 0 4.85-3.98 31.867 31.867 0 0 0 3.979-4.85 31.92 31.92 0 0 0 2.957-5.531 31.893 31.893 0 0 0 1.821-6.003c.41-2.06.615-4.142.615-6.243s-.205-4.182-.615-6.243a31.941 31.941 0 0 0-8.758-16.384 31.867 31.867 0 0 0-4.85-3.98 31.92 31.92 0 0 0-5.531-2.957 31.893 31.893 0 0 0-6.003-1.821A31.917 31.917 0 0 0 352 576Zm320-192a31.92 31.92 0 0 0-6.243.615 31.941 31.941 0 0 0-16.384 8.758 31.941 31.941 0 0 0-8.758 16.384A31.917 31.917 0 0 0 640 416c0 2.101.205 4.182.615 6.243a31.92 31.92 0 0 0 4.778 11.535 31.867 31.867 0 0 0 3.98 4.85 31.941 31.941 0 0 0 16.384 8.758 31.989 31.989 0 0 0 12.486-.001 31.92 31.92 0 0 0 11.535-4.778 31.867 31.867 0 0 0 4.85-3.98 31.867 31.867 0 0 0 3.979-4.85 31.92 31.92 0 0 0 2.957-5.531 31.893 31.893 0 0 0 1.821-6.003c.41-2.06.615-4.142.615-6.243s-.205-4.182-.615-6.243a31.941 31.941 0 0 0-8.758-16.384 31.867 31.867 0 0 0-4.85-3.98 31.92 31.92 0 0 0-5.531-2.957 31.893 31.893 0 0 0-6.003-1.821A31.917 31.917 0 0 0 672 384Z"/></svg>