<svg viewBox="64 64 896 896" focusable="false"><path d="M896 140.8v742.4a12.8 12.8 0 0 1-12.8 12.8H140.8a12.8 12.8 0 0 1-12.8-12.8V140.8c0-7.04 5.76-12.8 12.8-12.8h742.4c7.04 0 12.8 5.76 12.8 12.8zM832 192H192v640h640V192z"/><path d="M332.8 256h38.4q12.8 0 12.8 12.8v486.4q0 12.8-12.8 12.8h-38.4q-12.8 0-12.8-12.8V268.8q0-12.8 12.8-12.8Zm320 0h38.4q12.8 0 12.8 12.8v486.4q0 12.8-12.8 12.8h-38.4q-12.8 0-12.8-12.8V268.8q0-12.8 12.8-12.8Z"/><path d="M352 512a96 96 0 1 1 0 192 96 96 0 0 1 0-192zm320-192a96 96 0 1 1 0 192 96 96 0 0 1 0-192z"/><path d="M352 512a96 96 0 1 1 0 192 96 96 0 0 1 0-192zm0 64a32 32 0 1 0 0 64 32 32 0 0 0 0-64zm320-256a96 96 0 1 1 0 192 96 96 0 0 1 0-192zm0 64a32 32 0 1 0 0 64 32 32 0 0 0 0-64z"/></svg>