<svg viewBox="0 0 1024 1024" focusable="false"><g fill-rule="evenodd"><path d="M512 64c247.424 0 448 200.577 448 448 0 247.424-200.576 448-448 448-247.423 0-448-200.576-448-448C64 264.577 264.577 64 512 64Zm0 64c-212.077 0-384 171.923-384 384s171.923 384 384 384 384-171.923 384-384-171.923-384-384-384Z"/><path d="M300.8 466.61c0-111.439 87.225-202.506 197.127-208.654l11.86-.331h18.606c101.388 0 184.266 79.256 190.058 179.222.173 6.125-4.467 11.157-10.592 11.157h-40.455c-7.07 0-12.572-5.918-13.288-12.95-6.17-60.625-55.19-108.575-116.291-113.082l-9.432-.347h-18.607c-76.736 0-139.55 59.615-144.65 135.06l-.335 9.926v92.736c0 76.737 59.616 139.55 135.059 144.652l9.926.334h16.657c67.652 0 123.078-52.35 127.977-118.777a9.894 9.894 0 0 1 9.906-9.552h41.812c7.072 0 12.678 5.805 12.21 12.859-6.367 96.493-83.903 173.543-180.605 179.143l-11.3.327h-16.657c-111.44 0-202.507-87.225-208.654-197.127l-.331-11.859v-92.736Z"/></g></svg>