<svg viewBox="64 64 896 896" focusable="false"><path d="M883.2 64c7.04 0 12.8 5.76 12.8 12.8v742.4a12.8 12.8 0 0 1-12.8 12.8H768v-64h64V128H384v64h-64V76.8c0-7.04 5.76-12.8 12.8-12.8h550.4z"/><path d="M691.2 256c7.04 0 12.8 5.76 12.8 12.8v678.4a12.8 12.8 0 0 1-12.8 12.8H140.8a12.8 12.8 0 0 1-12.8-12.8V268.8c0-7.04 5.76-12.8 12.8-12.8h550.4zM640 320H192v576h448V320z"/><path d="M268.8 448h294.4q12.8 0 12.8 12.8v38.4q0 12.8-12.8 12.8H268.8q-12.8 0-12.8-12.8v-38.4q0-12.8 12.8-12.8Zm0 192h294.4q12.8 0 12.8 12.8v38.4q0 12.8-12.8 12.8H268.8q-12.8 0-12.8-12.8v-38.4q0-12.8 12.8-12.8Z"/></svg>