<svg viewBox="0 0 1024 1024" focusable="false"><path fill-rule="evenodd" d="M332.8 192h38.4c7.07 0 12.8-5.73 12.8-12.8V128h448v640h-51.2c-7.072 0-12.8 5.728-12.8 12.8v38.4c0 7.072 5.728 12.8 12.8 12.8h102.4c7.072 0 12.8-5.728 12.8-12.8V76.8c0-7.07-5.728-12.8-12.8-12.8H332.8c-7.07 0-12.8 5.73-12.8 12.8v102.4c0 7.07 5.73 12.8 12.8 12.8ZM128 947.2V268.8c0-7.07 5.73-12.8 12.8-12.8h550.4c7.07 0 12.8 5.73 12.8 12.8v678.4c0 7.072-5.73 12.8-12.8 12.8H140.8c-7.07 0-12.8-5.728-12.8-12.8ZM192 320v576h448V320H192Zm64 140.8v38.4c0 7.07 5.73 12.8 12.8 12.8h294.4c7.07 0 12.8-5.73 12.8-12.8v-38.4c0-7.07-5.73-12.8-12.8-12.8H268.8c-7.07 0-12.8 5.73-12.8 12.8Zm0 192v38.4c0 7.07 5.73 12.8 12.8 12.8h294.4c7.07 0 12.8-5.73 12.8-12.8v-38.4c0-7.07-5.73-12.8-12.8-12.8H268.8c-7.07 0-12.8 5.73-12.8 12.8Z"/></svg>