<svg viewBox="64 64 896 896" focusable="false"><path d="M512 64a448 448 0 1 1 0 896 448 448 0 0 1 0-896zm0 64a384 384 0 1 0 0 768 384 384 0 0 0 0-768z"/><path d="M528.384 257.6a190.4 190.4 0 0 1 190.08 179.2l.256 11.2h-64a126.4 126.4 0 0 0-116.992-126.08l-9.408-.32h-18.56c-76.8 0-139.584 59.648-144.64 135.04l-.384 9.984v92.736c0 76.736 59.584 139.52 135.04 144.64l9.92.32h16.64a128.32 128.32 0 0 0 128-118.72l.384-9.6h64c0 102.4-80.064 186.176-181.056 192l-11.264.32h-16.64A209.024 209.024 0 0 1 301.12 571.2l-.32-11.84v-92.8a209.024 209.024 0 0 1 197.12-208.64l11.84-.32h18.624z"/></svg>