<svg viewBox="0 0 1024 1024" focusable="false"><g fill-rule="evenodd"><path d="M947.2 192c6.97 0 12.634 5.566 12.796 12.493l.004.307v614.4c0 6.967-5.563 12.634-12.493 12.796l-.307.004H76.8c-6.967 0-12.634-5.566-12.796-12.493L64 819.2V204.8c0-6.967 5.566-12.634 12.493-12.796L76.8 192h870.4ZM896 384H128v384h768V384Zm0-128H128v64h768v-64Z"/><path d="M819.2 640H652.8c-7.07 0-12.8 5.73-12.8 12.8v38.4c0 7.07 5.73 12.8 12.8 12.8h166.4c7.072 0 12.8-5.73 12.8-12.8v-38.4c0-7.07-5.728-12.8-12.8-12.8Z"/></g></svg>