<svg viewBox="0 0 1024 1024" focusable="false"><path d="M499.2 640c7.07 0 12.8 5.73 12.8 12.8v166.4c0 7.07-5.73 12.8-12.8 12.8H332.8c-7.07 0-12.8-5.73-12.8-12.8V768H76.8c-7.07 0-12.8-5.73-12.8-12.8v-38.4c0-7.07 5.73-12.8 12.8-12.8H320v-51.2c0-7.07 5.73-12.8 12.8-12.8h166.4Zm448 64c7.07 0 12.8 5.73 12.8 12.8v38.4c0 7.07-5.73 12.8-12.8 12.8H588.8c-7.07 0-12.8-5.73-12.8-12.8v-38.4c0-7.07 5.73-12.8 12.8-12.8h358.4ZM448 704h-64v64h64v-64Zm371.2-320c7.07 0 12.8 5.73 12.8 12.8V448h115.2c7.07 0 12.8 5.73 12.8 12.8v38.4c0 7.07-5.73 12.8-12.8 12.8H832v51.2c0 7.07-5.73 12.8-12.8 12.8H652.8c-7.07 0-12.8-5.73-12.8-12.8V396.8c0-7.07 5.73-12.8 12.8-12.8h166.4Zm-256 64c7.07 0 12.8 5.73 12.8 12.8v38.4c0 7.07-5.73 12.8-12.8 12.8H76.8c-7.07 0-12.8-5.73-12.8-12.8v-38.4c0-7.07 5.73-12.8 12.8-12.8h486.4Zm204.8 0h-64v64h64v-64ZM371.2 128c7.07 0 12.8 5.73 12.8 12.8v166.4c0 7.07-5.73 12.8-12.8 12.8H204.8c-7.07 0-12.8-5.73-12.8-12.8V256H76.8c-7.07 0-12.8-5.73-12.8-12.8v-38.4c0-7.07 5.73-12.8 12.8-12.8H192v-51.2c0-7.07 5.73-12.8 12.8-12.8h166.4Zm576 64c7.07 0 12.8 5.73 12.8 12.8v38.4c0 7.07-5.73 12.8-12.8 12.8H460.8c-7.07 0-12.8-5.73-12.8-12.8v-38.4c0-7.07 5.73-12.8 12.8-12.8h486.4ZM320 192h-64v64h64v-64Z"/></svg>