<svg viewBox="0 0 1024 1024" focusable="false"><path fill-rule="evenodd" d="M512 128c247.424 0 448 200.577 448 448v371.2c0 7.072-5.728 12.8-12.8 12.8H716.8c-7.072 0-12.8-5.728-12.8-12.8V588.8c0-7.07 5.728-12.8 12.8-12.8H896c0-207.258-164.198-376.164-369.604-383.735L512 192c-207.258 0-376.164 164.196-383.735 369.604L128 576h179.2c7.07 0 12.8 5.73 12.8 12.8v358.4c0 7.072-5.73 12.8-12.8 12.8H76.8c-7.07 0-12.8-5.728-12.8-12.8V576c0-247.423 200.577-448 448-448ZM128 896h128V640H128v256Zm768-256H768v256h128V640Z"/></svg>