<svg viewBox="0 0 1024 1024" focusable="false"><path fill-rule="evenodd" d="M960 576c0 123.557-50.016 235.43-130.912 316.48-2.368 2.368-5.536 3.622-8.883 3.622H203.793c-3.348 0-6.516-1.254-8.881-3.622C114.019 811.43 64 699.557 64 576c0-247.423 200.577-448 448-448 247.424 0 448 200.577 448 448ZM805.216 823.98c54.202-63.97 86.31-144.073 90.349-229.579L896 576c0-212.077-171.923-384-384-384S128 363.923 128 576c0 92.38 32.71 179.44 90.784 247.98l7.2 8.084h571.968l7.264-8.083ZM480 307.2v-38.4c0-7.07 5.73-12.8 12.8-12.8h38.4c7.07 0 12.8 5.73 12.8 12.8v38.4c0 7.07-5.73 12.8-12.8 12.8h-38.4c-7.07 0-12.8-5.73-12.8-12.8Zm-130.11 52.015-19.2-33.255c-3.535-6.122-1.438-13.95 4.684-17.485l33.256-19.2a12.8 12.8 0 0 1 17.485 4.685l19.2 33.255c3.534 6.123 1.437 13.951-4.685 17.486l-33.256 19.2a12.8 12.8 0 0 1-17.485-4.686Zm268.8-32 19.2-33.255c3.534-6.122 11.362-8.22 17.484-4.685l33.256 19.2c6.122 3.535 8.22 11.363 4.685 17.485l-19.2 33.255c-3.535 6.123-11.363 8.22-17.485 4.686l-33.256-19.2a12.802 12.802 0 0 1-4.685-17.486ZM229.955 450.111l33.256 19.2a12.797 12.797 0 0 0 17.485-4.685l19.2-33.256a12.802 12.802 0 0 0-4.685-17.485l-33.256-19.2c-6.122-3.534-13.95-1.437-17.485 4.685l-19.2 33.256a12.8 12.8 0 0 0 4.685 17.485Zm498.831-36.222 33.255-19.2c6.124-3.534 13.952-1.437 17.484 4.685l19.2 33.256a12.785 12.785 0 0 1 1.28 9.712 12.78 12.78 0 0 1-5.964 7.773l-33.255 19.2a12.79 12.79 0 0 1-9.709 1.278 12.794 12.794 0 0 1-7.776-5.963l-19.2-33.256a12.815 12.815 0 0 1-1.28-9.713 12.825 12.825 0 0 1 5.965-7.772ZM560.675 651.972l139.314-139.315c4.997-4.998 4.997-13.103 0-18.101l-27.153-27.154c-4.999-4.998-13.103-4.998-18.102 0L514.12 608.017l-1.276-.017c-26.51 0-48 21.49-48 48s21.49 48 48 48 48-21.49 48-48c0-1.345-.057-2.689-.17-4.028ZM204.8 608h38.4c7.07 0 12.8-5.73 12.8-12.8v-38.4c0-7.07-5.73-12.8-12.8-12.8h-38.4c-7.07 0-12.8 5.73-12.8 12.8v38.4c0 7.07 5.73 12.8 12.8 12.8Zm576-64h38.4c7.072 0 12.8 5.73 12.8 12.8v38.4c0 7.07-5.728 12.8-12.8 12.8h-38.4c-7.072 0-12.8-5.73-12.8-12.8v-38.4c0-7.07 5.728-12.8 12.8-12.8ZM261.956 757.31l33.256-19.2c6.122-3.534 8.219-11.362 4.685-17.484l-19.2-33.256a12.804 12.804 0 0 0-17.485-4.685l-33.256 19.2c-6.122 3.535-8.22 11.363-4.685 17.485l19.2 33.256a12.802 12.802 0 0 0 17.485 4.685Zm498.831-74.62 33.255 19.2c6.124 3.533 8.224 11.362 4.684 17.484l-19.2 33.256c-3.532 6.122-11.36 8.22-17.484 4.685l-33.255-19.2a12.825 12.825 0 0 1-5.965-7.773 12.814 12.814 0 0 1 1.28-9.712l19.2-33.256a12.794 12.794 0 0 1 7.776-5.963 12.79 12.79 0 0 1 9.71 1.278Z"/></svg>