<svg viewBox="0 0 1024 1024" focusable="false"><path d="M512 128a448 448 0 0 1 313.408 768.128H198.592A448 448 0 0 1 512 128zm0 64a384 384 0 0 0-293.248 632l7.232 8.064h571.968l7.296-8.064a382.08 382.08 0 0 0 90.304-229.568L896 576a384 384 0 0 0-384-384z"/><path d="M492.8 256h38.4q12.8 0 12.8 12.8v38.4q0 12.8-12.8 12.8h-38.4q-12.8 0-12.8-12.8v-38.4q0-12.8 12.8-12.8Zm180.032 211.392 27.136 27.136a12.8 12.8 0 0 1 0 18.112l-162.88 162.944a12.8 12.8 0 0 1-18.112 0l-27.136-27.136a12.8 12.8 0 0 1 0-18.112l162.88-162.944a12.8 12.8 0 0 1 18.112 0zm-17.46-178.112 33.256 19.2q11.085 6.4 4.685 17.484l-19.2 33.256q-6.4 11.085-17.485 4.685l-33.256-19.2q-11.085-6.4-4.685-17.485l19.2-33.256q6.4-11.085 17.485-4.685ZM779.52 399.372l19.2 33.256q6.4 11.085-4.684 17.485l-33.256 19.2q-11.085 6.4-17.485-4.685l-19.2-33.256q-6.4-11.085 4.685-17.485l33.256-19.2q11.085-6.4 17.485 4.685ZM832 556.8v38.4q0 12.8-12.8 12.8h-38.4q-12.8 0-12.8-12.8v-38.4q0-12.8 12.8-12.8h38.4q12.8 0 12.8 12.8Zm-33.28 162.572-19.2 33.256q-6.4 11.085-17.484 4.685l-33.256-19.2q-11.085-6.4-4.685-17.485l19.2-33.256q6.4-11.085 17.485-4.685l33.256 19.2q11.085 6.4 4.685 17.485Zm-554.24 33.256-19.2-33.256q-6.4-11.085 4.684-17.485l33.256-19.2q11.085-6.4 17.485 4.685l19.2 33.256q6.4 11.085-4.685 17.485l-33.256 19.2q-11.085 6.4-17.485-4.685ZM192 595.2v-38.4q0-12.8 12.8-12.8h38.4q12.8 0 12.8 12.8v38.4q0 12.8-12.8 12.8h-38.4q-12.8 0-12.8-12.8Zm33.28-162.572 19.2-33.256q6.4-11.085 17.484-4.685l33.256 19.2q11.085 6.4 4.685 17.485l-19.2 33.256q-6.4 11.085-17.485 4.685l-33.256-19.2q-11.085-6.4-4.685-17.485ZM335.372 308.48l33.256-19.2q11.085-6.4 17.485 4.684l19.2 33.256q6.4 11.085-4.685 17.485l-33.256 19.2q-11.085 6.4-17.485-4.685l-19.2-33.256q-6.4-11.085 4.685-17.485Z"/><path d="M512.832 608q48 0 48 48t-48 48q-48 0-48-48t48-48Z"/></svg>