<svg viewBox="0 0 1024 1024" focusable="false"><path fill-rule="evenodd" d="m127.848 768 .378 10.246C137.019 896.243 298.255 961.363 512 961.363c219.812 0 384.001-68.89 384.001-193.363V256l-.377-10.24C886.914 127.84 727.142 64 512 64c-221.33 0-384.152 67.546-384.152 192v512ZM512 385.364c-187.914 0-320.152-55.451-320.152-129.364 0-73.71 130.866-128 320.152-128 189.25 0 320.001 54.273 320.001 128 0 73.93-132.121 129.364-320 129.364ZM831.617 518.88c-7.93 70.464-137.61 122.489-319.617 122.489-187.915 0-320.153-55.452-320.153-129.365l-.034-139.83c67.512 50.384 183.04 77.195 320.187 77.195 137.12 0 252.596-26.808 320.072-77.196l-.032 139.831-.423 6.876Zm.385 249.127-.385 6.874c-7.93 70.464-137.61 122.49-319.617 122.49-187.915 0-320.153-55.456-320.153-129.364l-.034-139.834C259.325 678.557 374.853 705.37 512 705.37c137.12 0 252.596-26.81 320.072-77.198l-.07 139.834Z"/></svg>