<svg viewBox="0 0 1024 1024" focusable="false"><path fill-rule="evenodd" d="M947.2 64c7.07 0 12.8 5.73 12.8 12.8v806.4c0 7.07-5.73 12.8-12.8 12.8H76.8c-7.07 0-12.8-5.73-12.8-12.8V76.8C64 69.73 69.73 64 76.8 64h870.4ZM320 128H128v704h192V128Zm320 0H384v704h256V128Zm256 0H704v704h192V128Zm-76.8 64c7.07 0 12.8 5.73 12.8 12.8v102.4c0 7.07-5.73 12.8-12.8 12.8h-38.4c-7.07 0-12.8-5.73-12.8-12.8V204.8c0-7.07 5.73-12.8 12.8-12.8h38.4Zm-288 0c7.07 0 12.8 5.73 12.8 12.8v102.4c0 7.07-5.73 12.8-12.8 12.8h-38.4c-7.07 0-12.8-5.73-12.8-12.8V204.8c0-7.07 5.73-12.8 12.8-12.8h38.4Zm-288 0c7.07 0 12.8 5.73 12.8 12.8v102.4c0 7.07-5.73 12.8-12.8 12.8h-38.4c-7.07 0-12.8-5.73-12.8-12.8V204.8c0-7.07 5.73-12.8 12.8-12.8h38.4Z"/></svg>