<svg viewBox="0 0 1024 1024" focusable="false"><path d="M947.2 512c7.04 0 12.8 5.76 12.8 12.8v358.4a12.8 12.8 0 0 1-12.8 12.8H76.8A12.8 12.8 0 0 1 64 883.2V524.8c0-7.04 5.76-12.8 12.8-12.8h870.4zM896 576H128v256h768V576z"/><path d="M524.8 640h294.4q12.8 0 12.8 12.8v38.4q0 12.8-12.8 12.8H524.8q-12.8 0-12.8-12.8v-38.4q0-12.8 12.8-12.8ZM947.2 64c7.04 0 12.8 5.76 12.8 12.8v358.4a12.8 12.8 0 0 1-12.8 12.8H76.8A12.8 12.8 0 0 1 64 435.2V76.8C64 69.76 69.76 64 76.8 64h870.4zM896 128H128v256h768V128z"/><path d="M780.8 192h38.4q12.8 0 12.8 12.8v102.4q0 12.8-12.8 12.8h-38.4q-12.8 0-12.8-12.8V204.8q0-12.8 12.8-12.8Zm-128 0h38.4q12.8 0 12.8 12.8v102.4q0 12.8-12.8 12.8h-38.4q-12.8 0-12.8-12.8V204.8q0-12.8 12.8-12.8Z"/></svg>