<svg viewBox="0 0 1024 1024" focusable="false"><path fill-rule="evenodd" d="M64 883.2V76.8C64 69.73 69.73 64 76.8 64h870.4c7.072 0 12.8 5.73 12.8 12.8v358.577c0 7.07-5.562 12.623-12.634 12.623h-38.732c-7.072 0-12.634-5.649-12.634-12.718V128H704.275v307.282c0 7.07-5.562 12.718-12.631 12.718h-38.736c-7.07 0-12.632-5.649-12.632-12.718V128H383.912v704h51.438c7.07 0 12.65 5.562 12.65 12.634v38.732c0 7.072-5.554 12.634-12.623 12.634H76.8c-7.07 0-12.8-5.728-12.8-12.8ZM128 128v704h192.052V128H128Zm64 76.8v102.4c0 7.07 5.73 12.8 12.8 12.8h38.4c7.07 0 12.8-5.73 12.8-12.8V204.8c0-7.07-5.73-12.8-12.8-12.8h-38.4c-7.07 0-12.8 5.73-12.8 12.8Zm288 0v102.4c0 7.07 5.73 12.8 12.8 12.8h38.4c7.07 0 12.8-5.73 12.8-12.8V204.8c0-7.07-5.73-12.8-12.8-12.8h-38.4c-7.07 0-12.8 5.73-12.8 12.8Zm288 0v102.4c0 7.07 5.728 12.8 12.8 12.8h38.4c7.072 0 12.8-5.73 12.8-12.8V204.8c0-7.07-5.728-12.8-12.8-12.8h-38.4c-7.072 0-12.8 5.73-12.8 12.8ZM478.103 658.705c-12.399 0-17.554 15.867-7.523 23.155l137.407 99.842-52.48 161.536c-3.831 11.796 9.665 21.6 19.697 14.31l137.417-99.826 137.414 99.827c10.029 7.29 23.527-2.515 19.693-14.31l-52.48-161.537 137.408-99.842c10.029-7.288 4.877-23.155-7.52-23.155l-169.85-.006-52.492-161.535c-3.834-11.792-20.519-11.792-24.35 0L647.954 658.7l-169.85.006Z"/></svg>