<svg viewBox="0 0 1024 1024" focusable="false"><path d="M435.456 448c7.04 0 12.8 5.76 12.8 12.8v294.4a12.8 12.8 0 0 1-12.8 12.8h-38.4a12.8 12.8 0 0 1-12.8-12.8V460.8c0-7.04 5.76-12.8 12.8-12.8h38.4zm204.8 12.8v294.4a12.8 12.8 0 0 1-12.8 12.8h-38.4a12.8 12.8 0 0 1-12.8-12.8V460.8c0-7.04 5.76-12.8 12.8-12.8h38.4c7.04 0 12.8 5.76 12.8 12.8z"/><path d="M256 332.8V896h512V332.8c0-7.04 5.76-12.8 12.8-12.8h38.4c7.04 0 12.8 5.76 12.8 12.8v614.08a12.8 12.8 0 0 1-12.8 12.8H204.8a12.8 12.8 0 0 1-12.8-12.8V332.8c0-7.04 5.76-12.8 12.8-12.8h38.4c7.04 0 12.8 5.76 12.8 12.8zM64 192h896v64H64z"/><path d="M755.2 64c7.04 0 12.8 5.76 12.8 12.8V256h-63.552V128h-383.68v128H256V76.8c0-7.04 5.76-12.8 12.8-12.8h486.4z"/></svg>