<svg viewBox="0 0 1024 1024" focusable="false"><path fill-rule="evenodd" d="M896 128v371.2c0 7.07 5.728 12.8 12.8 12.8h38.4c7.072 0 12.8-5.73 12.8-12.8V76.8c0-7.07-5.728-12.8-12.8-12.8H76.8C69.73 64 64 69.73 64 76.8v614.4c0 7.072 5.73 12.8 12.8 12.8H384v128h-51.2c-7.07 0-12.8 5.728-12.8 12.8v38.4c0 7.072 5.73 12.8 12.8 12.8h102.4c7.07 0 12.8-5.728 12.8-12.8V652.8c0-7.07-5.73-12.8-12.8-12.8H128v-64h307.2c7.07 0 12.8-5.73 12.8-12.8v-38.4c0-7.07-5.73-12.8-12.8-12.8H128V128h768ZM478.103 658.705c-12.399 0-17.554 15.867-7.523 23.155l137.407 99.842-52.48 161.536c-3.831 11.796 9.665 21.6 19.697 14.31l137.417-99.826 137.414 99.827c10.029 7.29 23.527-2.515 19.693-14.31l-52.48-161.537 137.408-99.842c10.029-7.288 4.877-23.155-7.52-23.155l-169.85-.006-52.492-161.535c-3.834-11.792-20.519-11.792-24.35 0L647.954 658.7l-169.85.006Z"/></svg>