<svg viewBox="0 0 1024 1024" focusable="false"><path d="M332.8 832h358.4q12.8 0 12.8 12.8v38.4q0 12.8-12.8 12.8H332.8q-12.8 0-12.8-12.8v-38.4q0-12.8 12.8-12.8Z"/><path d="M460.8 640h102.4q12.8 0 12.8 12.8v230.4q0 12.8-12.8 12.8H460.8q-12.8 0-12.8-12.8V652.8q0-12.8 12.8-12.8Z"/><path d="M947.2 64c7.04 0 12.8 5.76 12.8 12.8v614.4a12.8 12.8 0 0 1-12.8 12.8H76.8A12.8 12.8 0 0 1 64 691.2V76.8C64 69.76 69.76 64 76.8 64h870.4zM896 128H128v512h768V128z"/><path d="M204.8 192h550.4q12.8 0 12.8 12.8v38.4q0 12.8-12.8 12.8H204.8q-12.8 0-12.8-12.8v-38.4q0-12.8 12.8-12.8Zm0 128h166.4q12.8 0 12.8 12.8v38.4q0 12.8-12.8 12.8H204.8q-12.8 0-12.8-12.8v-38.4q0-12.8 12.8-12.8Z"/></svg>