<svg viewBox="0 0 1024 1024" focusable="false"><path fill-rule="evenodd" d="M947.2 64c6.97 0 12.634 5.566 12.796 12.493l.004.307v614.4c0 6.967-5.563 12.634-12.493 12.796l-.307.004H640v128h51.2c6.967 0 12.634 5.563 12.796 12.493l.004.307v38.4c0 6.97-5.566 12.634-12.493 12.796l-.307.004H332.8c-6.967 0-12.634-5.563-12.796-12.493L320 883.2v-38.4c0-6.97 5.566-12.634 12.493-12.796l.307-.004H384V704H76.8c-6.967 0-12.634-5.566-12.796-12.493L64 691.2V76.8c0-6.967 5.566-12.634 12.493-12.796L76.8 64h870.4ZM576 704H448v128h128V704Zm320-128H128v64h768v-64Zm0-448H128v384h768V128Z"/></svg>