<svg viewBox="0 0 1024 1024" focusable="false"><path fill-rule="evenodd" d="M916.741 210.766c4.999-4.999 4.999-13.103 0-18.102l-45.255-45.255c-4.999-4.999-13.103-4.999-18.102 0L532.073 468.721 210.766 147.414c-4.999-5-13.103-5-18.102 0l-45.255 45.254c-4.999 5-4.999 13.104 0 18.102l321.307 321.307-321.307 321.307c-5 5.001-4.999 13.103 0 18.102l45.255 45.255c4.999 4.999 13.101 5 18.102 0l321.307-321.307 321.311 321.312c5.001 5 13.103 4.999 18.102 0l45.255-45.255c4.999-4.999 5-13.101 0-18.102L595.43 532.077 916.74 210.766Z"/></svg>