<svg viewBox="0 0 1024 1024" focusable="false"><path fill-rule="evenodd" d="m435.382 213.123-38.396.003c-7.07 0-12.802-5.74-12.802-12.808V97.92c0-7.07 5.73-12.8 12.799-12.8l38.402.003c7.07 0 12.794 5.725 12.794 12.794v102.398c0 7.07-5.727 12.808-12.797 12.808Zm-5.223 128.33 27.152 27.154c5 4.999 13.104 4.999 18.103 0L647.382 196.64c24.993-24.994 55.164-37.491 90.511-37.491 35.345 0 65.515 12.497 90.509 37.49 24.994 24.994 37.491 55.164 37.491 90.51 0 35.346-12.497 65.516-37.491 90.51l-171.97 171.968c-4.998 5-4.998 13.103 0 18.102l27.154 27.153c4.998 4.998 13.103 4.998 18.102 0l171.968-171.969c74.983-74.98 74.983-196.547 0-271.529-74.982-74.98-196.548-74.98-271.529 0L430.16 323.353c-5 4.998-5 13.102 0 18.1Zm-131.692 2.263L180.804 226.053c-4.999-4.998-4.999-13.103 0-18.102l27.153-27.152c4.999-5 13.103-5 18.102 0L343.721 298.46c5 4.999 5 13.103 0 18.102l-27.152 27.153c-5 4.998-13.104 4.999-18.102 0Zm-85.341 53.16-.007 38.39c0 7.068-5.727 12.805-12.796 12.805H97.927c-7.07 0-12.806-5.736-12.806-12.806l-.001-38.404c0-7.069 5.733-12.79 12.802-12.79H200.32c7.07 0 12.806 5.735 12.806 12.804Zm108.42 35.087L149.58 603.932c-74.981 74.98-74.981 196.545 0 271.528 74.98 74.982 196.548 74.982 271.529 0l171.968-171.968c4.999-4.998 4.999-13.102 0-18.101l-27.153-27.153c-4.999-5-13.103-5-18.102 0L375.853 830.205c-24.994 24.994-55.164 37.491-90.51 37.491-35.346 0-65.516-12.497-90.51-37.49-24.993-24.995-37.49-55.164-37.49-90.51 0-35.346 12.497-65.516 37.49-90.509l171.969-171.969c4.999-4.998 4.999-13.103 0-18.101l-27.153-27.154c-4.999-4.998-13.103-4.998-18.102 0Zm487.662 156.898v38.396c0 7.07 5.735 12.798 12.8 12.798h10.17l64 .006 28.23-.006c7.066 0 12.8-5.73 12.8-12.8V588.86c0-7.07-5.728-12.8-12.8-12.8l-102.406-.002c-7.066 0-12.794 5.734-12.794 12.804ZM678.606 723.859 796.267 841.52c4.999 4.999 13.108 4.999 18.106 0l27.149-27.148c4.998-5.005 4.998-13.108 0-18.106L723.86 678.604c-5-4.998-13.103-4.998-18.102 0l-27.153 27.153c-4.998 4.999-4.998 13.103 0 18.102Zm-51.235 85.335h-38.395c-7.069 0-12.803 5.722-12.803 12.794v102.4c0 7.065 5.734 12.806 12.803 12.806l38.395-.006c7.07 0 12.804-5.735 12.804-12.8v-102.4c0-7.066-5.734-12.794-12.804-12.794Z"/></svg>