<svg viewBox="0 0 1024 1024" focusable="false"><path d="M579.84 683.648 444.032 819.52c-99.968 99.968-241.792 120.192-316.8 45.248-74.944-75.008-54.72-216.832 45.248-316.8l135.872-135.872 45.312 45.312-137.152 137.024c-74.944 75.008-95.232 176.32-45.248 226.304 48.192 48.192 151.296 29.696 226.112-45.44l137.152-136.96 45.376 45.312zm272.512-544c74.944 75.008 54.72 216.832-45.312 316.8L670.4 593.152l-45.312-45.312L761.28 411.712c75.008-74.944 95.232-176.256 45.248-226.24-48.192-48.192-152.064-23.104-226.112 45.44l-136.192 136-45.376-45.376L535.552 184.96c99.968-100.032 241.792-120.32 316.8-45.312zM353.728 276.224l-45.248 45.248-135.744-135.744 45.248-45.248zm99.904-222.4v128h-64v-128zM86.08 357.376h128v64h-128zm629.696 280.896-45.248 45.248 135.744 135.744 45.248-45.248zm222.4-99.904h-128v64h128zM634.624 905.92v-128h-64v128z"/></svg>