<svg viewBox="0 0 1024 1024" focusable="false"><path d="M140.8 128a12.8 12.8 0 0 0-12.8 12.8v454.4c0 7.04 5.76 12.8 12.8 12.8h150.912a128 128 0 0 1 121.472 87.552l36.48 109.376A133.184 133.184 0 0 0 576 896a96 96 0 0 0 96-96V652.8c0-7.04 5.76-12.8 12.8-12.8H832a110.912 110.912 0 0 0 103.808-149.76l-104.64-279.168A128 128 0 0 0 711.296 128H140.8zM256 544h-64V192h64v352zm320 288c-27.072 0-51.392-15.744-62.72-39.872l-2.944-7.424-36.48-109.44a192 192 0 0 0-153.792-129.152L320 192h391.296A64 64 0 0 1 768 226.304l3.2 7.232L875.904 512.64a46.912 46.912 0 0 1-37.568 62.912L832 576H684.8a76.8 76.8 0 0 0-76.416 68.928L608 652.8V800a32 32 0 0 1-32 32z"/></svg>