<svg viewBox="0 0 1024 1024" focusable="false"><path fill-rule="evenodd" d="M64 179.32V76.8C64 69.73 69.73 64 76.8 64h870.4c7.072 0 12.8 5.73 12.8 12.8v102.52c0 7.07-5.562 12.68-12.634 12.68h-38.732c-7.072 0-12.634-5.563-12.634-12.632V128H128v51.368c0 7.07-5.563 12.632-12.632 12.632H76.632C69.562 192 64 186.39 64 179.32Zm371.39 524.565h-38.4c-7.068 0-12.799-5.73-12.8-12.798l-.06-422.285c0-7.07 5.73-12.802 12.8-12.802h45.437a12.8 12.8 0 0 1 11.77 7.77l121.288 283.814.033-278.504c.001-7.068 5.732-12.798 12.8-12.798h38.4c7.07 0 12.8 5.73 12.8 12.8l-.032 422.12c0 7.068-5.731 12.798-12.8 12.798h-45.503a12.8 12.8 0 0 1-11.77-7.77L448.128 412.544l.06 278.538c.002 7.07-5.73 12.803-12.8 12.803Zm-114.404-159.04V416.007c0-88.366-71.634-160-160-160H76.8c-7.07 0-12.8 5.73-12.8 12.8v423.236c0 7.07 5.73 12.8 12.8 12.8h84.186c88.366 0 160-71.634 160-160ZM704 384.425c0-67.79 52.3-123.172 118.643-128.066l9.568-.352H915.2c7.072 0 12.8 5.73 12.8 12.8v38.4c0 7.07-5.728 12.8-12.8 12.8h-82.989c-32.928 0-60.07 24.787-63.776 56.721l-.435 7.488c0 33.016 24.704 60.08 56.538 63.779l7.462.43c67.482 0 122.765 52.217 127.648 118.448l.352 9.552c0 67.789-52.3 123.172-118.643 128.067l-9.568.352H748.8c-7.072 0-12.8-5.731-12.8-12.8v-38.4c0-7.07 5.728-12.8 12.8-12.8h82.989c32.928 0 60.07-24.788 63.776-56.721l.435-7.488c0-35.556-28.653-64.21-64-64.21-67.482 0-122.765-52.216-127.648-118.447l-.352-9.553ZM256.988 416.01v128.836c0 53.02-42.981 96-96 96l-33.05-.013V320l33.05.009c53.019 0 96 42.98 96 96ZM128 832h768v-51.2c0-7.072 5.728-12.8 12.8-12.8h38.4c7.072 0 12.8 5.728 12.8 12.8v102.4c0 7.072-5.728 12.8-12.8 12.8H76.8c-7.07 0-12.8-5.728-12.8-12.8V780.8c0-7.072 5.73-12.8 12.8-12.8h38.4c7.07 0 12.8 5.728 12.8 12.8V832Z"/></svg>