<?xml version="1.0" standalone="no"?><!DOCTYPE svg PUBLIC "-//W3C//DTD SVG 1.1//EN" "http://www.w3.org/Graphics/SVG/1.1/DTD/svg11.dtd"><svg class="icon" width="200px" height="200.00px" viewBox="0 0 1024 1024" version="1.1" xmlns="http://www.w3.org/2000/svg"><path fill="#333333" d="M535.584 758.173l224.22-224.22c12.496-12.497 12.496-32.758 0-45.255L536.933 265.827c-12.497-12.496-32.758-12.496-45.255 0-12.497 12.497-12.497 32.758 0 45.255L682.87 502.275c4.999 4.999 4.999 13.103 0 18.102L490.33 712.918c-12.497 12.497-12.497 32.758 0 45.255 12.496 12.496 32.758 12.496 45.254 0z m-224 0l224.22-224.22c12.496-12.497 12.496-32.758 0-45.255L312.933 265.827c-12.497-12.496-32.758-12.496-45.255 0-12.497 12.497-12.497 32.758 0 45.255L458.87 502.275c4.999 4.999 4.999 13.103 0 18.102L266.33 712.918c-12.497 12.497-12.497 32.758 0 45.255 12.496 12.496 32.758 12.496 45.254 0z" /></svg>