<?xml version="1.0" standalone="no"?><!DOCTYPE svg PUBLIC "-//W3C//DTD SVG 1.1//EN" "http://www.w3.org/Graphics/SVG/1.1/DTD/svg11.dtd"><svg class="icon" width="200px" height="200.00px" viewBox="0 0 1024 1024" version="1.1" xmlns="http://www.w3.org/2000/svg"><path fill="#333333" d="M489.621 758.173l-224.219-224.22c-12.497-12.497-12.497-32.758 0-45.255l222.871-222.871c12.497-12.496 32.758-12.496 45.255 0 12.496 12.497 12.496 32.758 0 45.255L342.335 502.275c-4.999 4.999-4.999 13.103 0 18.102l192.541 192.541c12.497 12.497 12.497 32.758 0 45.255-12.497 12.496-32.758 12.496-45.255 0z m224 0l-224.219-224.22c-12.497-12.497-12.497-32.758 0-45.255l222.871-222.871c12.497-12.496 32.758-12.496 45.255 0 12.496 12.497 12.496 32.758 0 45.255L566.335 502.275c-4.999 4.999-4.999 13.103 0 18.102l192.541 192.541c12.497 12.497 12.497 32.758 0 45.255-12.497 12.496-32.758 12.496-45.255 0z" /></svg>