<svg viewBox="64 64 896 896"><path d="m856.896 521.024-388.48 388.544a12.8 12.8 0 0 1-18.176 0l-27.136-27.136a12.8 12.8 0 0 1 0-18.112L766.4 521.024a12.8 12.8 0 0 0 0-18.048L423.04 159.68a12.8 12.8 0 0 1 0-18.112l27.136-27.136a12.8 12.8 0 0 1 18.112 0l388.48 388.48a12.8 12.8 0 0 1 0 18.112zm-192 0-388.48 388.544a12.8 12.8 0 0 1-18.176 0l-27.136-27.136a12.8 12.8 0 0 1 0-18.112L574.4 521.024a12.8 12.8 0 0 0 0-18.048L231.04 159.68a12.8 12.8 0 0 1 0-18.112l27.136-27.136a12.8 12.8 0 0 1 18.112 0l388.48 388.48a12.8 12.8 0 0 1 0 18.112z"/></svg>