<?xml version="1.0" standalone="no"?><!DOCTYPE svg PUBLIC "-//W3C//DTD SVG 1.1//EN" "http://www.w3.org/Graphics/SVG/1.1/DTD/svg11.dtd"><svg class="icon" width="200px" height="200.00px" viewBox="0 0 1024 1024" version="1.1" xmlns="http://www.w3.org/2000/svg"><path fill="#333333" d="M266.782 489.092l224.22-224.22c12.496-12.496 32.758-12.496 45.254 0l222.871 222.872c12.497 12.496 12.497 32.758 0 45.254-12.496 12.497-32.758 12.497-45.254 0L522.68 341.806c-4.999-4.999-13.103-4.999-18.102 0l-192.54 192.54c-12.498 12.498-32.759 12.498-45.256 0-12.497-12.496-12.497-32.757 0-45.254z m0 224l224.22-224.22c12.496-12.496 32.758-12.496 45.254 0l222.871 222.872c12.497 12.496 12.497 32.758 0 45.254-12.496 12.497-32.758 12.497-45.254 0L522.68 565.806c-4.999-4.999-13.103-4.999-18.102 0l-192.54 192.54c-12.498 12.498-32.759 12.498-45.256 0-12.497-12.496-12.497-32.757 0-45.254z" /></svg>