<svg viewBox="0 0 1024 1024" focusable="false"><path fill-rule="evenodd" d="M502.936 774.465 249.51 521.038c-4.999-4.999-4.999-13.103 0-18.102L502.936 249.51c4.999-4.999 13.103-4.999 18.102 0l27.153 27.153c4.999 4.999 4.999 13.103 0 18.102L330.968 511.987 548.19 729.21c4.999 5 4.999 13.104 0 18.102l-27.153 27.153c-4.999 4.999-13.103 4.999-18.102 0Zm256 0L505.51 521.038c-4.999-4.999-4.999-13.103 0-18.102L758.936 249.51c4.999-4.999 13.103-4.999 18.102 0l27.153 27.153c4.999 4.999 4.999 13.103 0 18.102L586.968 511.987 804.19 729.21c4.999 5 4.999 13.104 0 18.102l-27.153 27.153c-4.999 4.999-13.103 4.999-18.102 0Z"/></svg>