<svg viewBox="0 0 1024 1024" focusable="false"><path d="M128 780.8v102.4c0 7.04 5.76 12.8 12.8 12.8h742.4a12.8 12.8 0 0 0 12.8-12.8V780.8c0-7.04 5.76-12.8 12.8-12.8h38.4c7.04 0 12.8 5.76 12.8 12.8v166.4a12.8 12.8 0 0 1-12.8 12.8H76.8A12.8 12.8 0 0 1 64 947.2V780.8c0-7.04 5.76-12.8 12.8-12.8h38.4c7.04 0 12.8 5.76 12.8 12.8z"/><path d="M627.2 128c7.04 0 12.8 5.76 12.8 12.8V512h161.088a12.8 12.8 0 0 1 9.088 21.824L520.96 823.04a12.8 12.8 0 0 1-18.048 0L213.76 533.76a12.8 12.8 0 0 1 9.152-21.76L384 511.936V140.8c0-7.04 5.76-12.8 12.8-12.8h230.4zm-51.264 63.936h-128v384l-101.568-.064L512 741.504l165.504-165.568L576 576l-.064-384.064z"/></svg>