<svg viewBox="0 0 1024 1024" focusable="false"><path fill-rule="evenodd" d="M512 64a447.92 447.92 0 0 1 108.855 13.426 447.914 447.914 0 0 1 82.69 29.587 449.718 449.718 0 0 1 19.642 9.886 449.323 449.323 0 0 1 19.13 10.839l18.579 11.763a446.428 446.428 0 0 1 17.978 12.662 450.49 450.49 0 0 1 17.337 13.529 447.983 447.983 0 0 1 32.57 29.524 446.991 446.991 0 0 1 29.53 32.576 449.987 449.987 0 0 1 13.529 17.334 452.297 452.297 0 0 1 12.66 17.979 444.67 444.67 0 0 1 11.762 18.577 449.584 449.584 0 0 1 10.836 19.132 440.259 440.259 0 0 1 9.888 19.641 448.72 448.72 0 0 1 8.915 20.103 451.431 451.431 0 0 1 7.91 20.515 448.495 448.495 0 0 1 6.9 20.88 444.284 444.284 0 0 1 5.862 21.192 444.297 444.297 0 0 1 4.819 21.455 448.469 448.469 0 0 1 3.757 21.665 451.722 451.722 0 0 1 2.694 21.823 453.892 453.892 0 0 1 1.62 21.93 449.611 449.611 0 0 1 0 43.964 453.892 453.892 0 0 1-1.62 21.93 451.722 451.722 0 0 1-2.694 21.823 448.469 448.469 0 0 1-3.757 21.665 444.297 444.297 0 0 1-4.82 21.455 444.284 444.284 0 0 1-5.862 21.192 448.495 448.495 0 0 1-6.899 20.88 451.431 451.431 0 0 1-7.91 20.515 448.48 448.48 0 0 1-8.915 20.102 441.948 441.948 0 0 1-9.888 19.643 451.08 451.08 0 0 1-10.836 19.13 445.017 445.017 0 0 1-11.763 18.579 450.722 450.722 0 0 1-12.659 17.978 447.565 447.565 0 0 1-27.891 33.984 445.11 445.11 0 0 1-15.168 15.923 445.11 445.11 0 0 1-15.923 15.168 447.565 447.565 0 0 1-33.984 27.891 450.722 450.722 0 0 1-17.978 12.66 445.017 445.017 0 0 1-18.58 11.762 451.08 451.08 0 0 1-19.129 10.836 441.948 441.948 0 0 1-19.643 9.888 448.48 448.48 0 0 1-20.102 8.915 451.431 451.431 0 0 1-20.515 7.91 448.495 448.495 0 0 1-20.88 6.9 444.284 444.284 0 0 1-21.192 5.862 444.297 444.297 0 0 1-21.455 4.819 448.469 448.469 0 0 1-21.665 3.757 451.722 451.722 0 0 1-21.823 2.694 453.892 453.892 0 0 1-21.93 1.62 449.611 449.611 0 0 1-43.964 0 453.892 453.892 0 0 1-21.93-1.62 451.722 451.722 0 0 1-21.823-2.694 448.469 448.469 0 0 1-21.665-3.757 444.297 444.297 0 0 1-21.455-4.82 444.284 444.284 0 0 1-21.192-5.862 448.495 448.495 0 0 1-20.88-6.899 451.431 451.431 0 0 1-20.515-7.91 448.72 448.72 0 0 1-20.103-8.915 440.259 440.259 0 0 1-19.64-9.888 449.584 449.584 0 0 1-19.133-10.836 444.67 444.67 0 0 1-18.577-11.763 452.297 452.297 0 0 1-17.979-12.659 449.987 449.987 0 0 1-17.334-13.53 446.991 446.991 0 0 1-32.576-29.53 448.39 448.39 0 0 1-29.524-32.569 450.49 450.49 0 0 1-13.529-17.337 446.428 446.428 0 0 1-12.662-17.978l-11.763-18.58a449.369 449.369 0 0 1-10.839-19.129 447.922 447.922 0 0 1-48.05-145.452 447.94 447.94 0 0 1 0-131.47 447.993 447.993 0 0 1 58.889-164.583l11.763-18.577A447.973 447.973 0 0 1 263.105 139.5l18.577-11.763a447.884 447.884 0 0 1 100.27-44.447 447.914 447.914 0 0 1 108.067-18.75c7.323-.36 14.65-.54 21.982-.54Zm9.424 64.116L512 128a383.817 383.817 0 0 0-37.638 1.849l-18.706 2.307a383.544 383.544 0 0 0-36.96 7.352 383.802 383.802 0 0 0-36.062 10.94l-17.584 6.782-8.663 3.713-8.568 3.925a384.311 384.311 0 0 0-49.158 27.848 384.064 384.064 0 0 0-30.268 22.448l-7.211 6.068-13.966 12.657-13.327 13.327-6.414 6.906a383.817 383.817 0 0 0-34.76 44.54 384.048 384.048 0 0 0-19.373 32.322l-4.34 8.365-4.134 8.47a384.382 384.382 0 0 0-7.638 17.23l-6.783 17.585a383.126 383.126 0 0 0-10.94 36.062 383.666 383.666 0 0 0-7.35 36.96l-2.308 18.706a383.393 383.393 0 0 0-1.386 18.796l-.347 9.418L128 512a383.817 383.817 0 0 0 1.849 37.638l2.307 18.706a383.544 383.544 0 0 0 7.352 36.96 383.802 383.802 0 0 0 10.94 36.062l6.782 17.584 3.713 8.663 3.925 8.568a384.311 384.311 0 0 0 17.764 33.233 380.11 380.11 0 0 0 10.084 15.924 382.888 382.888 0 0 0 10.852 15.41 385.989 385.989 0 0 0 11.596 14.862l6.068 7.21 12.657 13.964 13.327 13.326 6.906 6.415a386.736 386.736 0 0 0 14.271 12.313 384.027 384.027 0 0 0 14.858 11.59 380.24 380.24 0 0 0 15.41 10.855 389.12 389.12 0 0 0 15.923 10.087 383.517 383.517 0 0 0 16.4 9.286l8.365 4.342 8.47 4.132a384.445 384.445 0 0 0 17.23 7.641l17.585 6.784a382.06 382.06 0 0 0 17.897 5.907 382.31 382.31 0 0 0 36.554 9.159 390.475 390.475 0 0 0 18.57 3.225l18.707 2.304c6.254.615 12.52 1.078 18.796 1.39a385.413 385.413 0 0 0 37.684 0 389.845 389.845 0 0 0 18.796-1.39l18.706-2.304a390.475 390.475 0 0 0 18.57-3.225 381.596 381.596 0 0 0 36.555-9.159 382.06 382.06 0 0 0 17.897-5.907l17.584-6.784 8.663-3.715 8.568-3.926a377.303 377.303 0 0 0 16.835-8.474 382.95 382.95 0 0 0 16.398-9.286 385.076 385.076 0 0 0 31.335-20.941 385.42 385.42 0 0 0 14.86-11.59l7.21-6.071 13.965-12.658 13.326-13.326 6.415-6.902c4.22-4.66 8.324-9.417 12.313-14.272a385.42 385.42 0 0 0 11.59-14.861 385.076 385.076 0 0 0 20.94-31.334 382.95 382.95 0 0 0 9.288-16.399l4.342-8.365 4.132-8.47a384.445 384.445 0 0 0 7.641-17.23l6.784-17.585a382.06 382.06 0 0 0 5.907-17.897 382.31 382.31 0 0 0 9.159-36.554 390.475 390.475 0 0 0 3.225-18.57l2.304-18.707a389.845 389.845 0 0 0 1.39-18.796 385.413 385.413 0 0 0 0-37.684 389.845 389.845 0 0 0-1.39-18.796l-2.304-18.706a390.475 390.475 0 0 0-3.225-18.57 381.596 381.596 0 0 0-9.159-36.555 382.06 382.06 0 0 0-5.907-17.897l-6.784-17.584-3.715-8.663-3.926-8.568a377.303 377.303 0 0 0-8.474-16.835 383.517 383.517 0 0 0-9.286-16.4 389.12 389.12 0 0 0-10.087-15.923 380.24 380.24 0 0 0-10.854-15.41 385.53 385.53 0 0 0-11.59-14.858l-6.071-7.211-12.658-13.966-13.326-13.327-6.902-6.414a388.396 388.396 0 0 0-14.272-12.31 385.989 385.989 0 0 0-14.861-11.597 382.888 382.888 0 0 0-15.411-10.852 383.949 383.949 0 0 0-32.321-19.373l-8.366-4.341-8.47-4.134a384.382 384.382 0 0 0-17.23-7.638l-17.585-6.783a383.126 383.126 0 0 0-36.062-10.94 383.666 383.666 0 0 0-36.96-7.35l-18.706-2.308a383.393 383.393 0 0 0-18.796-1.386l-9.418-.347Zm-255.61 261.736c3.998-3.998 9.972-4.66 14.761-2.207l3.32 2.42L512 618.085 736.356 393.66c3.999-4 9.876-4.844 14.627-2.462l3.304 2.392 27.39 27.39c5 5 4.76 13.105-.238 18.104L521.09 699.432c-4 4-10.023 4.916-14.832 2.563l-3.328-2.38-264.45-264.452c-5-4.999-5.055-12.922-.057-17.92l27.39-27.39Z"/></svg>