<svg viewBox="0 0 1024 1024" focusable="false"><path d="M576 768c0 4.202-.41 8.364-1.23 12.486a63.86 63.86 0 0 1-3.642 12.006 63.829 63.829 0 0 1-5.914 11.064 63.878 63.878 0 0 1-7.959 9.699 63.878 63.878 0 0 1-9.699 7.96 63.829 63.829 0 0 1-11.064 5.913 63.827 63.827 0 0 1-12.006 3.642A63.83 63.83 0 0 1 512 832a63.83 63.83 0 0 1-12.486-1.23 63.835 63.835 0 0 1-12.006-3.642 63.839 63.839 0 0 1-11.064-5.914 63.857 63.857 0 0 1-9.699-7.959 63.866 63.866 0 0 1-7.96-9.699 63.833 63.833 0 0 1-5.913-11.064 63.839 63.839 0 0 1-3.642-12.006A63.847 63.847 0 0 1 448 768c0-4.202.41-8.364 1.23-12.486a63.839 63.839 0 0 1 3.642-12.006 63.833 63.833 0 0 1 5.914-11.064 63.866 63.866 0 0 1 7.96-9.699 63.857 63.857 0 0 1 9.698-7.96 63.839 63.839 0 0 1 11.064-5.913 63.868 63.868 0 0 1 12.006-3.643A63.861 63.861 0 0 1 512 704c4.202 0 8.364.41 12.486 1.23a63.86 63.86 0 0 1 12.006 3.642 63.829 63.829 0 0 1 11.064 5.914 63.878 63.878 0 0 1 9.699 7.959 63.878 63.878 0 0 1 7.96 9.699 63.829 63.829 0 0 1 5.913 11.064 63.86 63.86 0 0 1 3.643 12.006A63.862 63.862 0 0 1 576 768Zm0-512c0 4.202-.41 8.364-1.23 12.486a63.86 63.86 0 0 1-3.642 12.006 63.829 63.829 0 0 1-5.914 11.064 63.878 63.878 0 0 1-7.959 9.699 63.878 63.878 0 0 1-9.699 7.96 63.829 63.829 0 0 1-11.064 5.913 63.86 63.86 0 0 1-12.006 3.643A63.862 63.862 0 0 1 512 320c-4.202 0-8.364-.41-12.486-1.23a63.868 63.868 0 0 1-12.006-3.642 63.839 63.839 0 0 1-11.064-5.914 63.857 63.857 0 0 1-9.699-7.959 63.866 63.866 0 0 1-7.96-9.699 63.833 63.833 0 0 1-5.913-11.064 63.839 63.839 0 0 1-3.642-12.006A63.847 63.847 0 0 1 448 256c0-4.202.41-8.364 1.23-12.486a63.847 63.847 0 0 1 3.642-12.006 63.843 63.843 0 0 1 5.914-11.064 63.846 63.846 0 0 1 7.96-9.699 63.846 63.846 0 0 1 9.698-7.96 63.843 63.843 0 0 1 11.064-5.913 63.847 63.847 0 0 1 12.006-3.642A63.846 63.846 0 0 1 512 192c4.202 0 8.364.41 12.486 1.23a63.839 63.839 0 0 1 12.006 3.642 63.833 63.833 0 0 1 11.064 5.914 63.866 63.866 0 0 1 9.699 7.96 63.857 63.857 0 0 1 7.96 9.698 63.839 63.839 0 0 1 5.913 11.064 63.868 63.868 0 0 1 3.643 12.006A63.861 63.861 0 0 1 576 256Zm0 256c0 4.202-.41 8.364-1.23 12.486a63.86 63.86 0 0 1-3.642 12.006 63.829 63.829 0 0 1-5.914 11.064 63.878 63.878 0 0 1-7.959 9.699 63.878 63.878 0 0 1-9.699 7.96 63.829 63.829 0 0 1-11.064 5.913 63.827 63.827 0 0 1-12.006 3.642A63.83 63.83 0 0 1 512 576a63.83 63.83 0 0 1-12.486-1.23 63.835 63.835 0 0 1-12.006-3.642 63.839 63.839 0 0 1-11.064-5.914 63.857 63.857 0 0 1-9.699-7.959 63.866 63.866 0 0 1-7.96-9.699 63.833 63.833 0 0 1-5.913-11.064 63.839 63.839 0 0 1-3.642-12.006A63.847 63.847 0 0 1 448 512c0-4.202.41-8.364 1.23-12.486a63.839 63.839 0 0 1 3.642-12.006 63.833 63.833 0 0 1 5.914-11.064 63.866 63.866 0 0 1 7.96-9.699 63.857 63.857 0 0 1 9.698-7.96 63.839 63.839 0 0 1 11.064-5.913 63.868 63.868 0 0 1 12.006-3.643A63.861 63.861 0 0 1 512 448c4.202 0 8.364.41 12.486 1.23a63.86 63.86 0 0 1 12.006 3.642 63.829 63.829 0 0 1 11.064 5.914 63.878 63.878 0 0 1 9.699 7.959 63.878 63.878 0 0 1 7.96 9.699 63.829 63.829 0 0 1 5.913 11.064 63.86 63.86 0 0 1 3.643 12.006A63.862 63.862 0 0 1 576 512Z"/></svg>