<svg viewBox="64 64 896 896" focusable="false"><defs><style/></defs><path d="M961.991 628.895h.01V849.5c0 31.066-25.184 56.25-56.25 56.25h-787.5C87.185 905.75 62 880.566 62 849.5V628.895h.01a36.879 36.879 0 0 1 5.25-18.1l118.856-198.028c10.175-16.954 28.515-27.33 48.307-27.33h555.149c19.792 0 38.131 10.376 48.307 27.33l118.856 198.027a36.718 36.718 0 0 1 5.255 18.1zm-312.198-4.38c.362 0 .724-.005 1.084-.015h252.416a7.031 7.031 0 0 0 6.028-10.65L801.65 434.458a14.084 14.084 0 0 0-12.077-6.833h-555.15a14.083 14.083 0 0 0-12.076 6.833L114.675 613.85a7.031 7.031 0 0 0 6.029 10.65h253.505c13.108 0 24.435 9.047 27.39 21.739C411.727 697.968 457.307 737 512.002 737c37.814 0 71.271-18.657 91.668-47.268a111.935 111.935 0 0 0 18.56-42.63c2.632-13.134 14.168-22.588 27.564-22.588zM512.001 118.25c11.65 0 21.094 9.444 21.094 21.094v89.648c0 11.65-9.444 21.094-21.094 21.094s-21.094-9.444-21.094-21.094v-89.648c0-11.65 9.444-21.094 21.094-21.094zm266.341 65.892c8.237 8.238 8.237 21.593 0 29.831l-63.391 63.392c-8.238 8.237-21.594 8.237-29.831 0-8.238-8.238-8.238-21.594 0-29.831l63.391-63.392c8.237-8.238 21.593-8.238 29.831 0zm-532.682 0c8.238-8.238 21.594-8.238 29.832 0l63.39 63.392c8.238 8.237 8.238 21.593 0 29.83-8.237 8.238-21.593 8.238-29.831 0l-63.391-63.39c-8.237-8.239-8.237-21.594 0-29.832z"/></svg>