<svg viewBox="0 0 1024 1024" focusable="false"><path fill-rule="evenodd" d="M256 192V76.8c0-7.07 5.73-12.8 12.8-12.8h486.4c7.072 0 12.8 5.73 12.8 12.8V192h179.2c7.072 0 12.8 5.73 12.8 12.8v38.4c0 7.07-5.728 12.8-12.8 12.8H76.8c-7.07 0-12.8-5.73-12.8-12.8v-38.4c0-7.07 5.73-12.8 12.8-12.8H256Zm64.749 0h383.673v-64H320.75v64ZM204.8 959.693h614.4c7.072 0 12.8-5.69 12.8-12.755V332.893c0-7.068-5.562-12.893-12.634-12.893h-38.732c-7.072 0-12.634 5.562-12.634 12.631V896H256V332.631c0-7.069-5.563-12.631-12.632-12.631h-38.736c-7.07 0-12.632 5.825-12.632 12.893v614.045c0 7.065 5.73 12.755 12.8 12.755Z"/></svg>