<svg xmlns="http://www.w3.org/2000/svg" viewBox="0 0 1024 1024"><path d="M1023.99 645h.011v251c0 35.346-28.654 64-64 64h-896c-35.346 0-64-28.654-64-64V645h.012a41.96 41.96 0 015.972-20.594l135.232-225.311C152.795 379.805 173.661 368 196.18 368h631.636c22.519 0 43.385 11.805 54.963 31.095l135.232 225.311A41.777 41.777 0 011023.99 645zm-355.212-4.984c.412 0 .823-.005 1.233-.016h287.193a8 8 0 006.859-12.117L841.557 423.774A16.024 16.024 0 00827.816 416H196.18a16.023 16.023 0 00-13.741 7.774L59.932 627.883A8 8 0 0066.792 640h288.432c14.915 0 27.802 10.293 31.165 24.734C397.911 723.59 449.77 768 512.001 768c43.024 0 81.091-21.227 104.298-53.78 10.172-14.269 17.49-30.715 21.118-48.503 2.994-14.945 16.119-25.701 31.361-25.701zM512.001 64c13.255 0 24 10.745 24 24v102c0 13.255-10.745 24-24 24s-24-10.745-24-24V88c0-13.255 10.745-24 24-24zm303.037 74.971c9.372 9.372 9.372 24.568 0 33.941l-72.125 72.125c-9.373 9.372-24.569 9.372-33.941 0-9.373-9.373-9.373-24.569 0-33.941l72.125-72.125c9.372-9.373 24.568-9.373 33.941 0zm-606.074 0c9.373-9.373 24.569-9.373 33.942 0l72.124 72.125c9.373 9.372 9.373 24.568 0 33.941-9.372 9.372-24.568 9.372-33.941 0l-72.125-72.125c-9.372-9.373-9.372-24.569 0-33.941z"/></svg>