<svg viewBox="0 0 1024 1024" focusable="false"><path d="M512 1024c282.752 0 512-229.248 512-512S794.752 0 512 0 0 229.248 0 512s229.248 512 512 512zm25.6-405.333h-51.2a17.067 17.067 0 0 1-17.067-17.067V251.733c0-9.386 7.68-17.066 17.067-17.066h51.2c9.387 0 17.067 7.68 17.067 17.066V601.6a17.067 17.067 0 0 1-17.067 17.067zm0 170.666h-51.2a17.067 17.067 0 0 1-17.067-17.066v-51.2c0-9.387 7.68-17.067 17.067-17.067h51.2c9.387 0 17.067 7.68 17.067 17.067v51.2a17.067 17.067 0 0 1-17.067 17.066z"/></svg>