<svg viewBox="0 0 1024 1024" focusable="false"><path fill-rule="evenodd" d="M128 880V208c0-8.837 7.163-16 16-16h352c8.836 0 16 7.163 16 16v32c0 8.837-7.164 16-16 16H192v576h304c8.836 0 16 7.162 16 16v32c0 8.838-7.164 16-16 16H144c-8.837 0-16-7.162-16-16Zm520.935-73.877 253.657-253.659c4.998-4.998 4.998-12.872 0-17.87L648.935 280.935c-4.998-4.998-12.868-5.002-17.867-.003l-27.39 27.39c-5 5-4.939 12.927.06 17.926L789.491 512H332.8c-7.07 0-12.8 5.73-12.8 12.8v38.4c0 7.07 5.73 12.8 12.8 12.8h455.75L603.738 760.81c-4.998 4.999-5.06 12.927-.06 17.925l27.39 27.39c4.999 5 12.869 4.996 17.867-.002Z"/></svg>