<svg viewBox="0 0 1024 1024" focusable="false"><path d="m840.768 135.936 45.248 45.248-566.4 568.32a12.8 12.8 0 0 1-18.048 0l-27.136-27.072a12.8 12.8 0 0 1 0-18.112L840.768 136z"/><path d="M896.192 140.8v358.4a12.8 12.8 0 0 1-12.8 12.8h-38.4a12.8 12.8 0 0 1-12.8-12.8l-.064-307.2H524.8a12.8 12.8 0 0 1-12.8-12.8v-38.4c0-7.04 5.76-12.8 12.8-12.8h358.592c7.04 0 12.8 5.76 12.8 12.8zm-520 0v37.888a12.8 12.8 0 0 1-12.8 12.8L140.288 192a12.8 12.8 0 0 0-12.8 12.8v680.32c0 7.04 5.76 12.8 12.8 12.8h691.648L832 652.8c0-7.04 5.76-12.8 12.8-12.8h38.4c7.04 0 12.8 5.76 12.8 12.8v264.384a44.8 44.8 0 0 1-38.72 44.416l-6.08.384-774.912-.384a12.8 12.8 0 0 1-12.8-12.8v-808c0-7.04 5.76-12.8 12.8-12.8h287.104c7.04 0 12.8 5.76 12.8 12.8z"/></svg>