<svg viewBox="0 0 1024 1024" focusable="false"><path fill-rule="evenodd" d="M65.405 506.17a12.8 12.8 0 0 0 0 11.66l5.258 10.276.786 1.53a1153.52 1153.52 0 0 0 10.72 20.308l1.216 2.244 1.219 2.235 1.649 3.005c1.6 2.906 3.207 5.792 4.82 8.658l1.198 2.121a967.365 967.365 0 0 0 4.188 7.33l1.483 2.564 1.358 2.334 2.091 3.562a988.013 988.013 0 0 0 6.02 10.074l2.328 3.821a923.688 923.688 0 0 0 12.395 19.693l2.307 3.546c1.112 1.7 2.227 3.391 3.344 5.074l1.937 2.905a855.68 855.68 0 0 0 3.344 4.953l1.93 2.825 1.402 2.039 1.138 1.643 1.68 2.412c.627.897 1.255 1.791 1.884 2.683l.773 1.093c.82 1.16 1.643 2.314 2.466 3.465l1.183 1.647 1.796 2.486 1.168 1.605 1.336 1.825 2.255 3.058 1.898 2.547 2.232 2.97a757.394 757.394 0 0 0 6.051 7.894l1.824 2.338a765.88 765.88 0 0 0 2.713 3.44l1.686 2.116a690.26 690.26 0 0 0 3.384 4.196l1.287 1.58c1.613 1.973 3.23 3.93 4.853 5.87l1.131 1.348 2.014 2.385 1.27 1.492 1.798 2.096c4.283 4.974 8.6 9.836 12.949 14.585 4.85 5.295 13.105 5.363 18.183.285l27.24-27.24c4.866-4.866 5.014-12.706.338-17.752l-1.525-1.646a566.42 566.42 0 0 1-8.538-9.68 614.785 614.785 0 0 1-16.837-20.413c-11.119-14.077-22.026-29.09-32.722-45.046l-.885-1.324a809.053 809.053 0 0 1-5.678-8.627l-1.413-2.183c-.94-1.46-1.88-2.926-2.818-4.4l-.743-1.172-1.838-2.913a826.268 826.268 0 0 1-3.036-4.87l-1.757-2.85-1.517-2.481-1.523-2.51-1.692-2.809-1.146-1.916-.926-1.555-1.63-2.755-1.501-2.556-.796-1.364-1.186-2.04-1.74-3.014c-1-1.74-1.998-3.488-2.994-5.246l-.64-1.131-1.985-3.53-1.853-3.328-1.862-3.37-1.89-3.454-1.816-3.345-1.094-2.03L134.52 512l-.039-.066c.649-1.223 1.299-2.443 1.949-3.658l1.578-2.936a980.228 980.228 0 0 1 4.752-8.716l2.992-5.388c.117-.209.234-.417.35-.627l2.948-5.223.125-.22 1.624-2.847a973.896 973.896 0 0 1 4.896-8.444l2.982-5.05.34-.57 2.829-4.716.396-.656.747-1.229 2.292-3.754.224-.365 3.059-4.94.141-.226 1.66-2.647a854.987 854.987 0 0 1 4.997-7.846l2.838-4.37C271.989 294.05 382.197 224 509.495 224l15.09.332 1.495.069c46.174 2.242 90.377 13.905 132.635 35.144 5.183 2.605 11.365 1.525 15.332-2.709l27.443-29.292c5.601-5.98 4.245-15.61-2.964-19.511C639.532 176.105 576.506 160 509.494 160c-124.557 0-233.712 55.631-327.075 164.981l-.412.483-2.616 3.09a677.688 677.688 0 0 0-5.873 7.074l-2.082 2.555a717.91 717.91 0 0 0-13.63 17.348l-2.057 2.716-1.9 2.53-1.917 2.575a785.516 785.516 0 0 0-9.517 13.125l-2.069 2.93a826.07 826.07 0 0 0-5.548 7.993l-2.029 2.972-1.777 2.628-1.927 2.873-1.79 2.69-1.975 2.995-1.748 2.672-1.914 2.951-1.73 2.69-2.092 3.28a938.626 938.626 0 0 0-8.914 14.326l-1.708 2.812c-12.805 21.158-25.244 43.539-37.316 67.137l-4.473 8.744Zm748.63-324.768c-5.017-4.76-12.947-4.68-17.862.238L180.71 797.105l-.238.245c-4.76 5.012-4.68 12.941.238 17.856l27.153 27.15.245.242c5.014 4.756 12.939 4.679 17.857-.243l615.469-615.46.237-.245c4.761-5.015 4.678-12.94-.237-17.857l-27.155-27.153-.244-.238Zm60.525 181.815c-15.865-20.561-32.14-39.581-48.819-57.051-4.89-5.125-12.934-5.036-17.946-.026l-27.097 27.1c-4.986 4.988-4.954 13.098-.096 18.213 27.443 28.884 53.907 62.733 79.398 101.606a964.942 964.942 0 0 1 10.439 16.28l1.478 2.37 1.651 2.657a1001.366 1001.366 0 0 1 9.319 15.379l2.406 4.067c1.26 2.14 2.515 4.292 3.77 6.457l1.772 3.078.916 1.595 1.305 2.288 2.592 4.709.051.096a966.67 966.67 0 0 1-15.187 26.206l-1.721 2.855c-1.722 2.847-3.45 5.67-5.178 8.47-.46.738-.915 1.475-1.37 2.21l-.128.205-1.484 2.375-.058.095-.064.1-.224.357-1.74 2.765a869.983 869.983 0 0 1-5.242 8.2l-3.053 4.695C759.277 724.696 643.08 800 511.073 800l-15.052-.328c-46.76-2.062-91.17-13.8-133.26-35.385-5.064-2.597-11.332-1.78-15.356 2.244l-28.587 28.586c-5.862 5.862-4.59 15.731 2.652 19.77C380.068 847.526 443.29 864 511.072 864 642.934 864 759.367 801.645 860 679.082a708.249 708.249 0 0 0 6.611-8.168l1.888-2.369 1.876-2.382 2.003-2.562 1.85-2.38 2.092-2.722 1.818-2.383 2.06-2.72 1.818-2.42 2.298-3.088a861.623 861.623 0 0 0 12.934-17.942l2.119-3.028 1.779-2.567 2.016-2.927c1.85-2.705 3.699-5.433 5.542-8.183l1.895-2.84 1.747-2.638 2.22-3.386a983.907 983.907 0 0 0 12.737-19.994l1.824-2.95 1.715-2.788 1.952-3.204 1.734-2.86 1.92-3.206 1.722-2.887 1.9-3.205 1.652-2.818 2.157-3.695c1.715-2.956 3.426-5.934 5.132-8.933l16.352-29.703a12.811 12.811 0 0 0 .032-12.281l-4.953-9.125a1202.232 1202.232 0 0 0-3.655-6.676l-.364-.664-1.946-3.513a1023.498 1023.498 0 0 0-3.174-5.661l-2.016-3.566c-11.924-20.992-24.128-40.958-36.602-59.89l-1.338-2.027-1.856-2.787a670.634 670.634 0 0 0-3.718-5.526l-2.131-3.131a875.902 875.902 0 0 0-11.827-16.885l-2.72-3.768c-1.07-1.47-2.138-2.93-3.207-4.385l-1.568-2.124-1.165-1.573-1.612-2.153-2.19-2.914a928.998 928.998 0 0 0-2.649-3.477l-2.144-2.791Zm-296.985-31.384c-20.722-7.651-43.125-11.83-66.505-11.83-106.038 0-192 85.961-192 192 0 23.38 4.179 45.783 11.83 66.505 3.057 8.276 13.528 9.98 19.767 3.742l31.578-31.577c3.24-3.24 4.462-7.905 3.526-12.39a128.539 128.539 0 0 1-2.7-26.28c0-70.693 57.307-128 128-128 9.007 0 17.798.93 26.28 2.7 4.485.936 9.15-.287 12.39-3.527l31.576-31.577c6.239-6.238 4.534-16.71-3.742-19.766Zm-131.5 360.893c-8.269-2.974-10.17-13.41-4.05-19.717l30.95-31.886c3.223-3.321 7.963-4.597 12.5-3.676a128.609 128.609 0 0 0 25.594 2.56c70.692 0 128-57.308 128-128a128.6 128.6 0 0 0-2.412-24.856c-.856-4.353.308-8.877 3.387-12.071l31.62-32.805c6.25-6.25 16.799-4.386 19.829 3.916 7.49 20.528 11.576 42.695 11.576 65.815 0 106.039-85.961 192-192 192a192.668 192.668 0 0 1-42.42-4.702 190.65 190.65 0 0 1-22.573-6.578Z"/></svg>