<svg viewBox="0 0 1024 1024" focusable="false"><path d="m949.952 476.16 11.392 20.544 8.32 15.296-19.712 35.84C830.976 756.992 684.736 864 512 864a384.64 384.64 0 0 1-203.776-57.344l46.912-46.912a320.448 320.448 0 0 0 126.912 38.912l14.912 1.024L512 800c146.56 0 273.6-92.8 381.952-283.2l5.312-9.6-2.688 4.736-2.56-4.736c-38.208-67.008-78.656-121.92-121.472-164.992l45.248-45.184c47.232 47.552 91.328 107.328 132.16 179.2zM512 160c73.024 0 141.376 19.136 204.864 57.024L669.824 264a329.6 329.6 0 0 0-127.808-38.656l-14.912-1.024L512 224c-146.304 0-269.952 92.48-372.16 282.56l-7.872 14.976L136.96 512l2.816 5.44c35.392 65.856 73.408 120 113.984 162.56l-45.184 45.312c-45.312-47.424-87.168-106.88-125.44-178.112L72.32 526.592 64.96 512l7.424-14.592C186.496 274.368 333.44 160 512 160zm176.512 276.288A192 192 0 0 1 429.44 685.44l49.6-49.664a128.192 128.192 0 0 0 156.608-156.544l4.928-4.992 3.584-1.28c18.24-7.424 33.664-20.288 44.288-36.608zM512 320c7.936 0 15.68.448 23.36 1.408a94.72 94.72 0 0 0-22.912 53.376L512 384a128 128 0 0 0-123.584 161.408l-49.6 49.664A192 192 0 0 1 512 320zm96 0 5.568.256-69.312 69.312A64 64 0 0 1 608 320zm207.207-138.361 27.153 27.154q9.051 9.05 0 18.102L226.895 842.36q-9.051 9.051-18.102 0l-27.153-27.153q-9.051-9.05 0-18.102L797.105 181.64q9.051-9.051 18.102 0Z"/></svg>