<svg viewBox="0 0 1024 1024" focusable="false"><path fill-rule="evenodd" d="M945.946 291.88c-15.533-8.428-34.957-2.669-43.386 12.864-110.669 203.952-241.343 303.262-392.937 303.262-151.447 0-280.251-99.136-387.441-302.897-8.229-15.641-27.578-21.65-43.219-13.423-15.641 8.228-21.65 27.577-13.423 43.218 21.406 40.69 43.847 77.756 67.319 111.168l-73.566 73.566-3.703 4.432c-8.64 12.472-7.406 29.715 3.703 40.823 12.496 12.497 32.757 12.497 45.255 0l67.537-67.537c33.007 39.493 67.864 72.367 104.556 98.542l-51.17 88.627-2.43 5.24c-5.117 14.281.538 30.62 14.142 38.473 15.306 8.838 34.877 3.59 43.714-11.712l50.398-87.294c46.947 23.994 96.615 37.952 148.978 41.726v100.154l.516 5.753c2.71 14.925 15.775 26.247 31.484 26.247 17.673 0 32-14.324 32-32v-100.57c50.423-4.304 98.48-18.088 144.157-41.225l50.348 87.21 3.321 4.722c9.811 11.571 26.79 14.842 40.39 6.99 15.31-8.84 20.551-28.408 11.713-43.714l-50.957-88.261c37.728-26.541 73.67-60.005 107.814-100.31L920 564.893l4.429 3.702c12.473 8.64 29.715 7.405 40.825-3.703 12.493-12.497 12.493-32.758 0-45.255l-74.604-74.602c23.667-33.04 46.387-69.64 68.16-109.768 8.428-15.533 2.668-34.959-12.864-43.388Z"/></svg>