<svg xmlns="http://www.w3.org/2000/svg" viewBox="0 0 1024 1024"><path d="M479.997 618.669c-59.597 0-107.898-47.763-107.898-106.688 0-58.925 48.3-106.682 107.898-106.682 59.59 0 107.942 47.757 107.942 106.682 0 58.925-48.352 106.688-107.942 106.688m0-277.325c-95.354 0-172.634 76.397-172.634 170.637s77.28 170.643 172.634 170.643c95.398 0 172.678-76.403 172.678-170.643s-77.28-170.637-172.678-170.637m.045 426.643h-.045c-180.704 0-336.224-104.761-408.986-256.006h-.051c72.813-151.238 228.333-256 409.037-256 180.704 0 336.269 104.762 409.082 256h.044c-72.806 151.245-228.326 256.006-409.081 256.006m-.045-576.012c-217.28 0-403.078 132.441-479.968 320.006 76.89 187.571 262.688 320.006 479.968 320.006 217.325 0 403.123-132.39 480.019-320.006-76.896-187.565-262.65-320.006-480.02-320.006"/></svg>