<svg viewBox="0 0 1024 1024" focusable="false"><path d="M512 160c-178.56 0-325.504 114.368-439.616 337.408L64.96 512l7.424 14.592C186.496 749.632 333.44 864 512 864c172.736 0 318.976-107.008 437.952-316.16L969.6 512l-8.32-15.296C840.384 273.984 690.304 160 512 160zm15.104 64.32c140.16 6.208 262.208 99.072 366.848 282.88l2.688 4.8 8.576-15.232C794.368 700.672 663.616 800 512 800l-15.04-.32c-139.712-6.144-258.496-98.752-357.12-282.24l-2.816-5.44-7.68 14.592C233.6 323.008 360.704 224 512 224l15.104.32z"/><path d="M512 320c7.936 0 15.68.448 23.36 1.408a94.72 94.72 0 0 0-22.912 53.376L512 384a128 128 0 1 0 122.88 92.16c22.272-6.464 41.216-20.8 53.632-39.872A192 192 0 1 1 512 320z"/><path d="M544 384a64 64 0 1 0 128 0 64 64 0 1 0-128 0Z"/></svg>