<svg viewBox="0 0 1024 1024" focusable="false"><g fill-rule="evenodd"><path d="M423.953 64a12.8 12.8 0 0 1 9.051 3.749L557.255 192h326.047c7.072 0 12.698 5.83 12.698 12.9v102.3c0 7.07-5.728 12.8-12.8 12.8h-38.4c-7.072 0-12.8-5.73-12.8-12.8V256H128v512h179.2c7.07 0 12.8 5.728 12.8 12.8v38.4c0 7.072-5.73 12.8-12.8 12.8H76.696C69.626 832 64 826.17 64 819.098V76.8C64 69.73 69.73 64 76.8 64h347.153Zm-21.201 64H128v64h338.752l-64-64Z"/><path d="M628.59 343.123c4.696-9.514 18.129-9.514 22.824 0l82.634 167.434 184.774 26.85c10.503 1.525 14.65 14.3 7.053 21.706l-133.702 130.33 31.565 184.029c1.792 10.458-9.076 18.349-18.47 13.414L640.001 800l-165.268 86.886c-9.39 4.935-20.258-2.956-18.465-13.414l31.564-184.03-133.704-130.329c-7.598-7.405-3.447-20.18 7.052-21.706l184.775-26.85Zm11.413 121.455-51.546 104.478-115.238 16.738L556.6 667.1l-19.765 114.723 103.168-54.125 103.101 54.125-19.7-114.723 83.316-81.307-115.172-16.738-51.545-104.478Z"/></g></svg>