<svg viewBox="0 0 1024 1024" focusable="false"><path fill-rule="evenodd" d="M64 128V76.8C64 69.73 69.73 64 76.8 64h347.153a12.8 12.8 0 0 1 9.051 3.749L557.255 192h326.047c7.072 0 12.698 5.83 12.698 12.9v102.3c0 7.07-5.728 12.8-12.8 12.8h-38.4c-7.072 0-12.8-5.73-12.8-12.8V256H128v512h179.2c7.07 0 12.8 5.728 12.8 12.8v38.4c0 7.072-5.73 12.8-12.8 12.8H76.696C69.626 832 64 826.17 64 819.098V128Zm64 64h338.752l-64-64H128v64Zm226.129 367.113 133.704 130.33-31.564 184.029c-1.793 10.458 9.074 18.349 18.465 13.414L640.002 800l165.265 86.886c9.395 4.935 20.263-2.956 18.47-13.414l-31.564-184.03 133.702-130.329c7.597-7.405 3.45-20.18-7.053-21.706l-184.774-26.85-82.634-167.434c-4.695-9.514-18.128-9.514-22.823 0l-82.635 167.434-184.775 26.85c-10.499 1.525-14.65 14.3-7.052 21.706Zm369.276 107.988 19.699 114.723-103.101-54.125-103.168 54.125L556.6 667.101l-83.381-81.307 115.238-16.738 51.546-104.478 51.545 104.478 115.172 16.738-83.315 81.307Z"/></svg>