<svg viewBox="0 0 1024 1024" focusable="false"><path fill-rule="evenodd" d="M896 371.253V261.731c0-3.396-1.35-6.653-3.75-9.053L707.26 67.802a12.8 12.8 0 0 0-9.047-3.746L140.801 64C133.731 64 128 69.73 128 76.8v870.456c0 7.072 5.73 12.8 12.8 12.8h230.4c7.07 0 12.8-5.728 12.8-12.8v-38.4c0-7.065-5.73-12.8-12.8-12.8H192v-768.32l448 .317v179.14c0 7.07 5.73 12.8 12.8 12.8H832v51.26c0 7.07 5.728 12.8 12.8 12.8h38.4c7.072 0 12.8-5.73 12.8-12.8ZM703.743 154.77l101.511 101.452L704 255.993l-.257-101.223ZM672 960.056c159.06 0 288-128.947 288-288.003 0-159.058-128.94-288-288-288-159.058 0-288 128.942-288 288 0 159.056 128.942 288.003 288 288.003ZM256 499.253v-38.4c0-7.069 5.73-12.8 12.8-12.8h102.4c7.07 0 12.8 5.731 12.8 12.8v38.4c0 7.07-5.73 12.8-12.8 12.8H268.8c-7.07 0-12.8-5.73-12.8-12.8Zm416 396.803c123.712 0 224-100.288 224-224.003 0-123.711-100.288-224-224-224s-224 100.289-224 224c0 123.715 100.288 224.003 224 224.003Zm-32-371.203c0-7.069 5.73-12.8 12.8-12.8h38.4c7.07 0 12.8 5.731 12.8 12.8v115.2h115.2c7.072 0 12.8 5.731 12.8 12.8v38.4c0 7.07-5.728 12.803-12.8 12.803H704v115.2c0 7.066-5.73 12.8-12.8 12.8h-38.4c-7.07 0-12.8-5.734-12.8-12.8v-115.2H524.8c-7.07 0-12.8-5.733-12.8-12.803v-38.4c0-7.069 5.73-12.8 12.8-12.8H640v-115.2Zm-384 102.4v-38.4c0-7.069 5.73-12.8 12.8-12.8h38.4c7.07 0 12.8 5.731 12.8 12.8v38.4c0 7.07-5.73 12.8-12.8 12.8h-38.4c-7.07 0-12.8-5.73-12.8-12.8Zm0 128.003v-38.4c0-7.072 5.73-12.8 12.8-12.8h38.4c7.07 0 12.8 5.728 12.8 12.8v38.4c0 7.066-5.73 12.8-12.8 12.8h-38.4c-7.07 0-12.8-5.734-12.8-12.8Z"/></svg>