<svg viewBox="64 64 896 896" focusable="false"><path d="M703.488 64v192l192.512.384V371.2a12.8 12.8 0 0 1-12.8 12.8h-38.4a12.8 12.8 0 0 1-12.8-12.8v-51.264H653.504a12.8 12.8 0 0 1-12.8-12.8V123.52L192 127.616v768.32h177.6c7.04.064 12.8 5.76 12.8 12.864v38.4a12.8 12.8 0 0 1-12.8 12.8H140.8a12.8 12.8 0 0 1-12.8-12.8V76.8c0-7.04 5.76-12.8 12.8-12.8h562.688z"/><path d="M703.488 64 896 256.384l-45.248 45.248L658.24 109.248zM268.8 448h102.4q12.8 0 12.8 12.8v38.4q0 12.8-12.8 12.8H268.8q-12.8 0-12.8-12.8v-38.4q0-12.8 12.8-12.8Zm0 128h38.4q12.8 0 12.8 12.8v38.4q0 12.8-12.8 12.8h-38.4q-12.8 0-12.8-12.8v-38.4q0-12.8 12.8-12.8Zm0 128h38.4q12.8 0 12.8 12.8v38.4q0 12.8-12.8 12.8h-38.4q-12.8 0-12.8-12.8v-38.4q0-12.8 12.8-12.8ZM672 384a288 288 0 1 1 0 576 288 288 0 0 1 0-576zm0 64a224 224 0 1 0 0 448 224 224 0 0 0 0-448z"/><path d="m456.32 500.16 45.248-45.248 387.648 390.08-45.248 45.248z"/></svg>