<svg viewBox="0 0 1024 1024" focusable="false"><path fill-rule="evenodd" d="M140.8 960h294.4c7.07 0 12.8-5.728 12.8-12.8v-38.4c0-7.072-5.729-12.8-12.797-12.8L192 895.936v-768.32L640 128l.676 179.185c.027 7.05 5.75 12.75 12.8 12.75H832v50.916c0 7.07 5.728 12.8 12.8 12.8h38.4c7.072 0 12.8-5.73 12.8-12.8V261.675c0-3.397-1.35-6.654-3.75-9.054L707.262 67.75a12.803 12.803 0 0 0-9.048-3.75H140.8c-7.07 0-12.8 5.73-12.8 12.8v870.4c0 7.072 5.73 12.8 12.8 12.8Zm562.714-805.513 101.772 101.709L703.514 256V154.487ZM256 460.8v38.4c0 7.07 5.73 12.8 12.8 12.8h102.4c7.07 0 12.8-5.73 12.8-12.8v-38.4c0-7.07-5.73-12.8-12.8-12.8H268.8c-7.07 0-12.8 5.73-12.8 12.8Zm192 139.966.347 16.564c5.766 137.57 83.076 262.996 205.151 332.263l13.086 7.072a12.791 12.791 0 0 0 12.288-.057l13.296-7.36 14.353-8.615C824.294 866.676 896 739.182 896 601.726v-103.78a12.802 12.802 0 0 0-10.586-12.607l-210.464-36.95a12.801 12.801 0 0 0-4.412-.003L458.602 485.33A12.8 12.8 0 0 0 448 497.941v102.825Zm384 .96-.34 14.934c-4.934 109.145-63.79 209.452-158.226 269.177l-.922.563-13.357-8.71C567.35 814.42 512 711.352 512 600.766v-59.774l160.832-28.032L832 540.929v60.796ZM256 588.8v38.4c0 7.07 5.73 12.8 12.8 12.8h38.4c7.07 0 12.8-5.73 12.8-12.8v-38.4c0-7.07-5.73-12.8-12.8-12.8h-38.4c-7.07 0-12.8 5.73-12.8 12.8Zm0 128v38.4c0 7.072 5.73 12.8 12.8 12.8h38.4c7.07 0 12.8-5.728 12.8-12.8v-38.4c0-7.072-5.73-12.8-12.8-12.8h-38.4c-7.07 0-12.8 5.728-12.8 12.8Z"/></svg>