<svg viewBox="0 0 1024 1024" focusable="false"><path fill-rule="evenodd" d="M896 947.256V261.731c0-3.396-1.35-6.653-3.75-9.053L707.26 67.802a12.8 12.8 0 0 0-9.047-3.746L140.801 64C133.731 64 128 69.73 128 76.8v870.456c0 7.072 5.73 12.8 12.8 12.8h742.4c7.072 0 12.8-5.728 12.8-12.8ZM256 128.053l-64-.316v768.32h640V319.992H652.8c-7.07 0-12.8-5.73-12.8-12.8v-179.14H320v51.2c0 7.07-5.73 12.8-12.8 12.8h-38.4c-7.07 0-12.8-5.73-12.8-12.8v-51.2Zm447.743 26.717 101.511 101.452L704 255.993l-.257-101.223ZM320 243.253v-38.4c0-7.069 5.73-12.8 12.8-12.8h38.4c7.07 0 12.8 5.731 12.8 12.8v38.4c0 7.07-5.73 12.8-12.8 12.8h-38.4c-7.07 0-12.8-5.73-12.8-12.8Zm-64 64v-38.4c0-7.069 5.73-12.8 12.8-12.8h38.4c7.07 0 12.8 5.731 12.8 12.8v38.4c0 7.07-5.73 12.8-12.8 12.8h-38.4c-7.07 0-12.8-5.73-12.8-12.8Zm64 25.6v38.4c0 7.07 5.73 12.8 12.8 12.8h38.4c7.07 0 12.8-5.73 12.8-12.8v-38.4c0-7.069-5.73-12.8-12.8-12.8h-38.4c-7.07 0-12.8 5.731-12.8 12.8Zm-64 102.4v-38.4c0-7.069 5.73-12.8 12.8-12.8h38.4c7.07 0 12.8 5.731 12.8 12.8v38.4c0 7.07-5.73 12.8-12.8 12.8h-38.4c-7.07 0-12.8-5.73-12.8-12.8Zm64 25.6v38.4c0 7.07 5.73 12.8 12.8 12.8h38.4c7.07 0 12.8-5.73 12.8-12.8v-38.4c0-7.069-5.73-12.8-12.8-12.8h-38.4c-7.07 0-12.8 5.731-12.8 12.8Zm-51.2 51.2h38.4c7.07 0 12.8 5.731 12.8 12.8v51.2h115.2c7.07 0 12.8 5.731 12.8 12.8v166.403c0 7.066-5.73 12.8-12.8 12.8H268.8c-7.07 0-12.8-5.734-12.8-12.8V524.853c0-7.069 5.73-12.8 12.8-12.8ZM320 704.056v-64.003h64v64.003h-64Z"/></svg>