<svg viewBox="0 0 1024 1024" focusable="false"><path fill-rule="evenodd" d="M140.8 960h228.78c7.07 0 12.8-5.728 12.8-12.8v-38.407c0-7.065-5.728-12.793-12.795-12.8L192 895.937v-768.32L640 128l.676 179.185c.027 7.05 5.75 12.75 12.8 12.75H832V371.2c0 7.07 5.728 12.8 12.8 12.8h38.4c7.072 0 12.8-5.73 12.8-12.8V261.675c0-3.397-1.35-6.654-3.75-9.054L707.262 67.75a12.803 12.803 0 0 0-9.048-3.75H140.8c-7.07 0-12.8 5.73-12.8 12.8v870.4c0 7.072 5.73 12.8 12.8 12.8Zm562.714-805.513 101.772 101.709L703.514 256V154.487ZM960 672c0 159.06-128.94 288-288 288-159.058 0-288-128.94-288-288 0-159.058 128.942-288 288-288 159.06 0 288 128.942 288 288ZM256 460.8v38.4c0 7.07 5.73 12.8 12.8 12.8h102.4c7.07 0 12.8-5.73 12.8-12.8v-38.4c0-7.07-5.73-12.8-12.8-12.8H268.8c-7.07 0-12.8 5.73-12.8 12.8ZM896 672c0 123.712-100.288 224-224 224S448 795.712 448 672s100.288-224 224-224 224 100.288 224 224ZM636.085 822.95l209.573-209.577c4.998-5 4.998-13.104 0-18.102l-27.15-27.153c-4.998-4.999-13.106-4.999-18.105 0L627.034 741.49l-81.459-81.46c-4.998-5-13.103-5-18.102 0l-27.152 27.152c-5 5-5 13.104 0 18.103L617.983 822.95c4.999 4.999 13.103 4.999 18.102 0ZM256 588.8v38.4c0 7.07 5.73 12.8 12.8 12.8h38.4c7.07 0 12.8-5.73 12.8-12.8v-38.4c0-7.07-5.73-12.8-12.8-12.8h-38.4c-7.07 0-12.8 5.73-12.8 12.8Zm0 166.4v-38.4c0-7.072 5.73-12.8 12.8-12.8h38.4c7.07 0 12.8 5.728 12.8 12.8v38.4c0 7.072-5.73 12.8-12.8 12.8h-38.4c-7.07 0-12.8-5.728-12.8-12.8Z"/></svg>