<svg viewBox="0 0 1024 1024" focusable="false"><path d="M703.488 64v192l192.512.384V371.2a12.8 12.8 0 0 1-12.8 12.8h-38.4a12.8 12.8 0 0 1-12.8-12.8v-51.264H653.504a12.8 12.8 0 0 1-12.8-12.8V123.52L192 127.616v768.32h177.6c7.04.064 12.8 5.76 12.8 12.864v38.4a12.8 12.8 0 0 1-12.8 12.8H140.8a12.8 12.8 0 0 1-12.8-12.8V76.8c0-7.04 5.76-12.8 12.8-12.8h562.688z"/><path d="M703.488 64 896 256.384l-45.248 45.248L658.24 109.248zM268.8 448h102.4q12.8 0 12.8 12.8v38.4q0 12.8-12.8 12.8H268.8q-12.8 0-12.8-12.8v-38.4q0-12.8 12.8-12.8Zm0 128h38.4q12.8 0 12.8 12.8v38.4q0 12.8-12.8 12.8h-38.4q-12.8 0-12.8-12.8v-38.4q0-12.8 12.8-12.8Zm0 128h38.4q12.8 0 12.8 12.8v38.4q0 12.8-12.8 12.8h-38.4q-12.8 0-12.8-12.8v-38.4q0-12.8 12.8-12.8Zm178.176-211.776 45.632 45.632a224 224 0 0 0 313.6 313.6l45.568 45.568a288 288 0 0 1-404.8-404.8zM672 384a288 288 0 0 1 225.024 467.776l-19.776-19.84V832l-65.408-64.896a12.8 12.8 0 0 1 8.96-21.888h62.912a224 224 0 0 0-345.856-252.672l-45.632-45.568A286.784 286.784 0 0 1 672 384z"/><path d="m459.648 505.216 73.472 72.64a12.8 12.8 0 0 1-8.96 21.888h-99.84l35.392-94.528z"/></svg>