<svg viewBox="0 0 1024 1024" focusable="false"><path d="M703.488 64 896 256.384V947.2a12.8 12.8 0 0 1-12.8 12.8H140.8a12.8 12.8 0 0 1-12.8-12.8V76.8l.448-3.456a12.8 12.8 0 0 1 12.352-9.408L703.488 64zM640 123.52l-448 4.16V896h640V319.936H652.8a12.8 12.8 0 0 1-12.8-12.8V123.52zm63.744 31.168L704 256l101.184.192-101.44-101.44z"/><path d="M268.8 448h486.4q12.8 0 12.8 12.8v38.4q0 12.8-12.8 12.8H268.8q-12.8 0-12.8-12.8v-38.4q0-12.8 12.8-12.8Zm0 192h294.4q12.8 0 12.8 12.8v38.4q0 12.8-12.8 12.8H268.8q-12.8 0-12.8-12.8v-38.4q0-12.8 12.8-12.8Z"/></svg>