<svg viewBox="0 0 1024 1024" focusable="false"><g fill-rule="evenodd"><path d="M698.214 64c3.272 0 6.415 1.257 8.788 3.498l.26.253L892.25 252.62a12.837 12.837 0 0 1 3.75 8.69V371.2c0 6.967-5.563 12.634-12.493 12.796l-.307.004h-38.4c-6.97 0-12.634-5.566-12.796-12.494L832 371.2v-51.264H653.476c-6.946 0-12.604-5.535-12.795-12.441l-.005-.31L640 128l-448-.384v768.32l177.585.058c6.965.006 12.629 5.57 12.792 12.493l.003.307V947.2c0 6.97-5.565 12.634-12.493 12.8H140.8c-6.967 0-12.634-5.563-12.8-12.493V76.8c0-6.967 5.566-12.634 12.494-12.8h557.72Zm5.3 90.487V256l101.772.196-101.772-101.71Z"/><path d="M672 384c159.06 0 288 128.942 288 288 0 159.06-128.94 288-288 288-159.058 0-288-128.94-288-288 0-159.058 128.942-288 288-288Zm0 64c-123.712 0-224 100.288-224 224s100.288 224 224 224 224-100.288 224-224-100.288-224-224-224ZM256 460.8v38.4c0 7.07 5.73 12.8 12.8 12.8h102.4c7.07 0 12.8-5.73 12.8-12.8v-38.4c0-7.07-5.73-12.8-12.8-12.8H268.8c-7.07 0-12.8 5.73-12.8 12.8Z"/><path d="m636.085 822.95 209.573-209.577c4.998-5 4.998-13.104 0-18.102l-27.15-27.153c-4.998-4.999-13.106-4.999-18.105 0L627.034 741.49l-81.459-81.46c-4.998-5-13.103-5-18.102 0l-27.152 27.152c-5 5-5 13.104 0 18.103L617.983 822.95c4.999 4.999 13.103 4.999 18.102 0ZM256 588.8v38.4c0 7.07 5.73 12.8 12.8 12.8h38.4c7.07 0 12.8-5.73 12.8-12.8v-38.4c0-7.07-5.73-12.8-12.8-12.8h-38.4c-7.07 0-12.8 5.73-12.8 12.8ZM256 755.2v-38.4c0-7.072 5.73-12.8 12.8-12.8h38.4c7.07 0 12.8 5.728 12.8 12.8v38.4c0 7.072-5.73 12.8-12.8 12.8h-38.4c-7.07 0-12.8-5.728-12.8-12.8Z"/></g></svg>