<svg viewBox="64 64 896 896" focusable="false"><path d="M371.2 448c7.04 0 12.8 5.76 12.8 12.8v38.4a12.8 12.8 0 0 1-12.8 12.8H268.8a12.8 12.8 0 0 1-12.8-12.8v-38.4c0-7.04 5.76-12.8 12.8-12.8h102.4zm-64 128c7.04 0 12.8 5.76 12.8 12.8v38.4a12.8 12.8 0 0 1-12.8 12.8h-38.4a12.8 12.8 0 0 1-12.8-12.8v-38.4c0-7.04 5.76-12.8 12.8-12.8h38.4zm0 128c7.04 0 12.8 5.76 12.8 12.8v38.4a12.8 12.8 0 0 1-12.8 12.8h-38.4a12.8 12.8 0 0 1-12.8-12.8v-38.4c0-7.04 5.76-12.8 12.8-12.8h38.4zM608 448a224 224 0 0 1 179.392 358.144l94.08 94.08a12.8 12.8 0 0 1 0 18.112l-27.136 27.136a12.8 12.8 0 0 1-18.112 0l-94.08-94.08A224 224 0 1 1 608 448zm0 64a160 160 0 1 0 0 320 160 160 0 0 0 0-320z"/><path d="M703.488 64 896 256.384v255.552h-64V320H652.8a12.8 12.8 0 0 1-12.352-9.408L640 307.2V123.52l-448 4.16V896h256v64H140.8a12.8 12.8 0 0 1-12.352-9.408L128 947.2V76.8l.448-3.456a12.8 12.8 0 0 1 8.96-8.96L140.8 64h562.688zm.256 90.688L704 256l101.184.192-101.44-101.44z"/></svg>