<svg viewBox="0 0 1024 1024" focusable="false"><path fill-rule="evenodd" d="M896 261.731v685.525c0 7.072-5.728 12.8-12.8 12.8H140.8c-7.07 0-12.8-5.728-12.8-12.8V76.8c0-7.07 5.732-12.8 12.801-12.8l557.412.056a12.8 12.8 0 0 1 9.047 3.746l184.99 184.876c2.4 2.4 3.75 5.657 3.75 9.053ZM192 896.056h640V319.993H652.8c-7.07 0-12.8-5.73-12.8-12.8V123.577l-448 4.16v768.32Zm613.254-639.834L703.744 154.77 704 255.993l101.254.23ZM384 400.053c-26.51 0-48 21.49-48 48s21.49 48 48 48 48-21.49 48-48-21.49-48-48-48Zm203.03 66.331 169.684 281.98c5.134 8.53-1.01 19.404-10.967 19.404H385.809l.089-.153h-105.95c-10.23 0-16.327-11.405-10.644-19.91L373.357 591.98c5.069-7.585 16.217-7.585 21.286 0l50.646 75.797L565.062 466.44c4.947-8.317 16.978-8.348 21.968-.056Z"/></svg>