<svg viewBox="0 0 1024 1024" focusable="false"><g fill-rule="evenodd"><path d="m140.801 64 557.413.056a12.8 12.8 0 0 1 8.787 3.494l.26.252L892.25 252.678a12.837 12.837 0 0 1 3.75 8.69v109.885c0 6.967-5.563 12.634-12.493 12.797l-.307.003h-38.4c-6.97 0-12.634-5.566-12.796-12.493l-.004-.307v-51.26H652.8c-6.967 0-12.634-5.566-12.796-12.494l-.004-.306v-179.14l-448-.316v768.32h179.2c6.967 0 12.634 5.569 12.796 12.493l.004.306v38.4c0 6.97-5.566 12.634-12.493 12.8H140.8c-6.967 0-12.634-5.563-12.8-12.493V76.8c0-6.967 5.567-12.634 12.495-12.8h.306Zm562.942 90.77L704 255.993l101.254.23-101.51-101.453Z"/><path d="M672 384.053c159.06 0 288 128.942 288 288 0 159.056-128.94 288.003-288 288.003-159.058 0-288-128.947-288-288.003 0-159.058 128.942-288 288-288Zm0 64c-123.712 0-224 100.289-224 224 0 123.715 100.288 224.003 224 224.003s224-100.288 224-224.003c0-123.711-100.288-224-224-224ZM256 499.253v-38.4c0-7.069 5.73-12.8 12.8-12.8h102.4c7.07 0 12.8 5.731 12.8 12.8v38.4c0 7.07-5.73 12.8-12.8 12.8H268.8c-7.07 0-12.8-5.73-12.8-12.8Z"/><path d="M640 524.853c0-7.069 5.73-12.8 12.8-12.8h38.4c7.07 0 12.8 5.731 12.8 12.8v115.2h115.2c7.072 0 12.8 5.731 12.8 12.8v38.4c0 7.07-5.728 12.803-12.8 12.803H704v115.2c0 7.066-5.73 12.8-12.8 12.8h-38.4c-7.07 0-12.8-5.734-12.8-12.8v-115.2H524.8c-7.07 0-12.8-5.733-12.8-12.803v-38.4c0-7.069 5.73-12.8 12.8-12.8H640v-115.2ZM256 627.253v-38.4c0-7.069 5.73-12.8 12.8-12.8h38.4c7.07 0 12.8 5.731 12.8 12.8v38.4c0 7.07-5.73 12.8-12.8 12.8h-38.4c-7.07 0-12.8-5.73-12.8-12.8ZM256 755.256v-38.4c0-7.072 5.73-12.8 12.8-12.8h38.4c7.07 0 12.8 5.728 12.8 12.8v38.4c0 7.066-5.73 12.8-12.8 12.8h-38.4c-7.07 0-12.8-5.734-12.8-12.8Z"/></g></svg>