<svg viewBox="0 0 1024 1024" focusable="false"><g fill-rule="evenodd"><path d="m140.801 64 557.413.056a12.8 12.8 0 0 1 8.787 3.494l.26.252L892.25 252.678a12.837 12.837 0 0 1 3.75 8.69v237.885c0 6.967-5.563 12.634-12.493 12.797l-.307.003h-38.4c-6.97 0-12.634-5.566-12.796-12.493l-.004-.307v-179.26H652.8c-6.967 0-12.634-5.566-12.796-12.494l-.004-.306v-179.14l-448-.316v768.32h243.2c6.967 0 12.634 5.569 12.796 12.493l.004.306v38.4c0 6.97-5.566 12.634-12.493 12.8H140.8c-6.967 0-12.634-5.563-12.8-12.493V76.8c0-6.967 5.567-12.634 12.495-12.8h.306Zm562.942 90.77L704 255.993l101.254.23-101.51-101.453Z"/><path d="M256 499.253v-38.4c0-7.069 5.73-12.8 12.8-12.8h102.4c7.07 0 12.8 5.731 12.8 12.8v38.4c0 7.07-5.73 12.8-12.8 12.8H268.8c-7.07 0-12.8-5.73-12.8-12.8ZM608 448.053c123.712 0 224 100.289 224 224a223.991 223.991 0 0 1-44.602 134.135l94.061 94.067c4.999 4.998 4.999 13.1 0 18.099l-27.149 27.155c-4.998 4.999-13.107 4.999-18.105 0l-94.062-94.06A224.033 224.033 0 0 1 608 896.055c-123.712 0-224-100.288-224-224.003 0-123.711 100.288-224 224-224Zm0 64c-88.365 0-160 71.635-160 160 0 88.368 71.635 160.003 160 160.003s160-71.635 160-160.003c0-88.365-71.635-160-160-160ZM256 627.253v-38.4c0-7.069 5.73-12.8 12.8-12.8h38.4c7.07 0 12.8 5.731 12.8 12.8v38.4c0 7.07-5.73 12.8-12.8 12.8h-38.4c-7.07 0-12.8-5.73-12.8-12.8ZM256 755.256v-38.4c0-7.072 5.73-12.8 12.8-12.8h38.4c7.07 0 12.8 5.728 12.8 12.8v38.4c0 7.066-5.73 12.8-12.8 12.8h-38.4c-7.07 0-12.8-5.734-12.8-12.8Z"/></g></svg>