<svg viewBox="0 0 1024 1024" focusable="false"><g fill-rule="evenodd"><path d="M698.214 64c3.394 0 6.648 1.352 9.048 3.75L892.25 252.62c2.4 2.401 3.75 5.658 3.75 9.055V371.2c0 7.07-5.728 12.8-12.8 12.8h-38.4c-7.072 0-12.8-5.73-12.8-12.8v-51.264H653.524c-7.069 0-12.8-5.73-12.8-12.8L640 128l-448-.384v768.32l177.585.058c7.067.006 12.795 5.734 12.795 12.8V947.2c0 7.072-5.73 12.8-12.8 12.8H140.8c-7.07 0-12.8-5.728-12.8-12.8V76.8c0-7.07 5.73-12.8 12.8-12.8h557.414Zm5.3 90.487V256l101.772.196-101.772-101.709Z"/><path d="M672 384c159.06 0 288 128.942 288 288 0 159.06-128.94 288-288 288-159.058 0-288-128.94-288-288 0-159.058 128.942-288 288-288Zm0 64c-123.712 0-224 100.288-224 224s100.288 224 224 224 224-100.288 224-224-100.288-224-224-224Z"/><path d="M691.2 768c6.967 0 12.634 5.563 12.796 12.493l.004.307v38.4c0 6.97-5.566 12.634-12.493 12.796l-.307.004h-38.4c-6.967 0-12.634-5.563-12.796-12.493L640 819.2v-38.4c0-6.97 5.566-12.634 12.493-12.796l.307-.004h38.4ZM691.2 512c7.07 0 12.8 5.73 12.8 12.8v166.4c0 7.07-5.73 12.8-12.8 12.8h-38.4c-7.07 0-12.8-5.73-12.8-12.8V524.8c0-7.07 5.73-12.8 12.8-12.8h38.4ZM307.2 704c7.07 0 12.8 5.728 12.8 12.8v38.4c0 7.072-5.73 12.8-12.8 12.8h-38.4c-7.07 0-12.8-5.728-12.8-12.8v-38.4c0-7.072 5.73-12.8 12.8-12.8h38.4ZM307.2 576c7.07 0 12.8 5.73 12.8 12.8v38.4c0 7.07-5.73 12.8-12.8 12.8h-38.4c-7.07 0-12.8-5.73-12.8-12.8v-38.4c0-7.07 5.73-12.8 12.8-12.8h38.4ZM371.2 448c7.07 0 12.8 5.73 12.8 12.8v38.4c0 7.07-5.73 12.8-12.8 12.8H268.8c-7.07 0-12.8-5.73-12.8-12.8v-38.4c0-7.07 5.73-12.8 12.8-12.8h102.4Z"/></g></svg>