<svg viewBox="0 0 1024 1024" focusable="false"><path fill-rule="evenodd" d="M896 499.253V261.731c0-3.396-1.35-6.653-3.75-9.053L707.26 67.802a12.8 12.8 0 0 0-9.047-3.746L140.801 64C133.731 64 128 69.73 128 76.8v870.456c0 7.072 5.73 12.8 12.8 12.8h294.4c7.07 0 12.8-5.728 12.8-12.8v-38.4c0-7.065-5.73-12.8-12.8-12.8H192v-768.32l448 .317v179.14c0 7.07 5.73 12.8 12.8 12.8H832v179.26c0 7.07 5.728 12.8 12.8 12.8h38.4c7.072 0 12.8-5.73 12.8-12.8ZM703.743 154.77l101.511 101.452L704 255.993l-.257-101.223ZM256 499.253v-38.4c0-7.069 5.73-12.8 12.8-12.8h102.4c7.07 0 12.8 5.731 12.8 12.8v38.4c0 7.07-5.73 12.8-12.8 12.8H268.8c-7.07 0-12.8-5.73-12.8-12.8Zm486.143 352.195A224.033 224.033 0 0 1 608 896.056c-123.712 0-224-100.288-224-224.003 0-123.711 100.288-224 224-224s224 100.289 224 224a223.991 223.991 0 0 1-44.602 134.135l94.061 94.067c4.999 4.998 4.999 13.1 0 18.099l-27.149 27.155c-4.998 4.999-13.107 4.999-18.105 0l-94.062-94.06ZM768 672.053c0 88.368-71.635 160.003-160 160.003s-160-71.635-160-160.003c0-88.365 71.635-160 160-160s160 71.635 160 160Zm-512-44.8v-38.4c0-7.069 5.73-12.8 12.8-12.8h38.4c7.07 0 12.8 5.731 12.8 12.8v38.4c0 7.07-5.73 12.8-12.8 12.8h-38.4c-7.07 0-12.8-5.73-12.8-12.8Zm0 128.003v-38.4c0-7.072 5.73-12.8 12.8-12.8h38.4c7.07 0 12.8 5.728 12.8 12.8v38.4c0 7.066-5.73 12.8-12.8 12.8h-38.4c-7.07 0-12.8-5.734-12.8-12.8Z"/></svg>