<svg viewBox="0 0 1024 1024" focusable="false"><path d="M268.8 448h102.4q12.8 0 12.8 12.8v38.4q0 12.8-12.8 12.8H268.8q-12.8 0-12.8-12.8v-38.4q0-12.8 12.8-12.8Zm0 128h38.4q12.8 0 12.8 12.8v38.4q0 12.8-12.8 12.8h-38.4q-12.8 0-12.8-12.8v-38.4q0-12.8 12.8-12.8Zm0 128h38.4q12.8 0 12.8 12.8v38.4q0 12.8-12.8 12.8h-38.4q-12.8 0-12.8-12.8v-38.4q0-12.8 12.8-12.8ZM672 384a288 288 0 1 1 0 576 288 288 0 0 1 0-576zm0 64a224 224 0 1 0 0 448 224 224 0 0 0 0-448z"/><path d="M524.8 640h294.4q12.8 0 12.8 12.8v38.4q0 12.8-12.8 12.8H524.8q-12.8 0-12.8-12.8v-38.4q0-12.8 12.8-12.8Z"/><path d="M704 524.8v294.4q0 12.8-12.8 12.8h-38.4q-12.8 0-12.8-12.8V524.8q0-12.8 12.8-12.8h38.4q12.8 0 12.8 12.8Z"/><path d="M703.488 64 896 256.384v127.552h-64V320H652.8a12.8 12.8 0 0 1-12.352-9.408L640 307.2V123.52l-448 4.16V896h192v64H140.8a12.8 12.8 0 0 1-12.352-9.408L128 947.2V76.8l.448-3.456a12.8 12.8 0 0 1 8.96-8.96L140.8 64h562.688zm.256 90.688L704 256l101.184.192-101.44-101.44z"/></svg>