<svg viewBox="0 0 1024 1024" focusable="false"><path d="M703.488 64 896 256.384V947.2a12.8 12.8 0 0 1-12.8 12.8H140.8a12.8 12.8 0 0 1-12.8-12.8V76.8l.448-3.456a12.8 12.8 0 0 1 12.352-9.408L703.488 64zM640 123.52l-448 4.16V896h640V319.936H652.8a12.8 12.8 0 0 1-12.8-12.8V123.52zm63.744 31.168L704 256l101.184.192-101.44-101.44z"/><path d="M256 64h64v115.2a12.8 12.8 0 0 1-12.8 12.8h-38.4a12.8 12.8 0 0 1-12.8-12.8V64zm76.8 128h38.4q12.8 0 12.8 12.8v38.4q0 12.8-12.8 12.8h-38.4q-12.8 0-12.8-12.8v-38.4q0-12.8 12.8-12.8Zm-64 64h38.4q12.8 0 12.8 12.8v38.4q0 12.8-12.8 12.8h-38.4q-12.8 0-12.8-12.8v-38.4q0-12.8 12.8-12.8Zm64 64h38.4q12.8 0 12.8 12.8v38.4q0 12.8-12.8 12.8h-38.4q-12.8 0-12.8-12.8v-38.4q0-12.8 12.8-12.8Zm0 128h38.4q12.8 0 12.8 12.8v38.4q0 12.8-12.8 12.8h-38.4q-12.8 0-12.8-12.8v-38.4q0-12.8 12.8-12.8Zm-64-64h38.4q12.8 0 12.8 12.8v38.4q0 12.8-12.8 12.8h-38.4q-12.8 0-12.8-12.8v-38.4q0-12.8 12.8-12.8ZM256 512h64v64h-64zm192 76.8v166.4a12.8 12.8 0 0 1-12.8 12.8H268.8a12.8 12.8 0 0 1-12.8-12.8V576h179.2c7.04 0 12.8 5.76 12.8 12.8zM384 640h-64v64h64v-64z"/></svg>