<svg viewBox="0 0 1024 1024" focusable="false"><path fill-rule="evenodd" d="M140.8 960h228.78c7.07 0 12.8-5.728 12.8-12.8v-38.407c0-7.065-5.728-12.793-12.795-12.8L192 895.937v-768.32l448.724-4.096v183.616c0 7.07 5.731 12.8 12.8 12.8H832V371.2c0 7.07 5.728 12.8 12.8 12.8h38.4c7.072 0 12.8-5.73 12.8-12.8V261.675c0-3.397-1.35-6.654-3.75-9.054L707.262 67.75a12.803 12.803 0 0 0-9.048-3.75H140.8c-7.07 0-12.8 5.73-12.8 12.8v870.4c0 7.072 5.73 12.8 12.8 12.8Zm562.714-805.513 101.772 101.709L703.514 256V154.487ZM672 960c159.06 0 288-128.94 288-288 0-159.058-128.94-288-288-288-159.058 0-288 128.942-288 288 0 159.06 128.942 288 288 288ZM256 460.8v38.4c0 7.07 5.73 12.8 12.8 12.8h102.4c7.07 0 12.8-5.73 12.8-12.8v-38.4c0-7.07-5.73-12.8-12.8-12.8H268.8c-7.07 0-12.8 5.73-12.8 12.8Zm282.524 31.31 312.529 314.488A224.021 224.021 0 0 0 896 672c0-123.712-100.288-224-224-224a224.001 224.001 0 0 0-133.476 44.11ZM672 896a224 224 0 0 0 133.683-44.263l-312.58-314.54A224 224 0 0 0 448 672c0 123.712 100.288 224 224 224ZM256 588.8v38.4c0 7.07 5.73 12.8 12.8 12.8h38.4c7.07 0 12.8-5.73 12.8-12.8v-38.4c0-7.07-5.73-12.8-12.8-12.8h-38.4c-7.07 0-12.8 5.73-12.8 12.8Zm0 128v38.4c0 7.072 5.73 12.8 12.8 12.8h38.4c7.07 0 12.8-5.728 12.8-12.8v-38.4c0-7.072-5.73-12.8-12.8-12.8h-38.4c-7.07 0-12.8 5.728-12.8 12.8Z"/></svg>