<svg viewBox="0 0 1024 1024" focusable="false"><path d="M325.76 288a124.8 124.8 0 0 1 124.48 115.456l.32 9.344h-64a60.8 60.8 0 0 0-53.632-60.416L325.76 352H224a96 96 0 0 0-95.552 86.784L128 448v128a96 96 0 0 0 86.784 95.552L224 672h130.56a32 32 0 0 0 31.488-26.24l.512-5.76v-90.112H269.632v-64H450.56V640a96 96 0 0 1-86.72 95.552l-9.28.448H224A160 160 0 0 1 64.32 586.496L64 576V448a160 160 0 0 1 149.504-159.68L224 288h101.76zm183.872 0h64v448h-64zm448 0v64h-256v128h256v64h-256v192h-64V288h320zM896 832v115.2a12.8 12.8 0 0 1-12.8 12.8H140.8a12.8 12.8 0 0 1-12.8-12.8V832h64v64h640v-64h64zM883.2 64c7.04 0 12.8 5.76 12.8 12.8V192h-64v-64H192v64h-64V76.8c0-7.04 5.76-12.8 12.8-12.8h742.4z"/></svg>