<svg viewBox="0 0 1024 1024" focusable="false"><path d="M703.488 64v192l192.512.384V370.88a12.8 12.8 0 0 1-12.8 12.8h-38.4a12.8 12.8 0 0 1-12.8-12.8v-50.944H653.504a12.8 12.8 0 0 1-12.8-12.8V123.52L192 127.616v768.32h243.2c7.04.064 12.8 5.76 12.8 12.864v38.4a12.8 12.8 0 0 1-12.8 12.8H140.8a12.8 12.8 0 0 1-12.8-12.8V76.8c0-7.04 5.76-12.8 12.8-12.8h562.688z"/><path d="M703.488 64 896 256.384l-45.248 45.248L658.24 109.248zM268.8 448h102.4q12.8 0 12.8 12.8v38.4q0 12.8-12.8 12.8H268.8q-12.8 0-12.8-12.8v-38.4q0-12.8 12.8-12.8Zm0 128h38.4q12.8 0 12.8 12.8v38.4q0 12.8-12.8 12.8h-38.4q-12.8 0-12.8-12.8v-38.4q0-12.8 12.8-12.8Zm0 128h38.4q12.8 0 12.8 12.8v38.4q0 12.8-12.8 12.8h-38.4q-12.8 0-12.8-12.8v-38.4q0-12.8 12.8-12.8Zm406.144-255.616 210.496 36.928A12.8 12.8 0 0 1 896 497.92v103.808c0 137.472-71.68 264.96-189.44 338.88l-14.4 8.64L672.768 960l-19.264-10.432C531.392 880.32 454.144 754.88 448.32 617.344l-.32-16.576V497.92a12.8 12.8 0 0 1 10.624-12.608l211.904-36.928a12.8 12.8 0 0 1 4.48 0zm-2.112 64.576L512 540.992v59.776c0 110.592 55.36 213.632 147.2 276.928l13.312 8.704.896-.576c94.464-59.712 153.344-160 158.272-269.184l.32-14.912v-60.8L672.832 512.96z"/></svg>