<svg viewBox="0 0 1024 1024" focusable="false"><path fill-rule="evenodd" d="M140.8 960h228.78c7.07 0 12.8-5.728 12.8-12.8v-38.407c0-7.065-5.728-12.793-12.795-12.8L192 895.937v-768.32L640 128l.724 179.136c0 7.07 5.731 12.8 12.8 12.8H832V371.2c0 7.07 5.728 12.8 12.8 12.8h38.4c7.072 0 12.8-5.73 12.8-12.8V261.675c0-3.397-1.35-6.654-3.75-9.054L707.262 67.75a12.803 12.803 0 0 0-9.048-3.75H140.8c-7.07 0-12.8 5.73-12.8 12.8v870.4c0 7.072 5.73 12.8 12.8 12.8Zm562.714-805.513 101.772 101.709L703.514 256V154.487ZM672 960c159.06 0 288-128.94 288-288 0-159.058-128.94-288-288-288-159.058 0-288 128.942-288 288 0 159.06 128.942 288 288 288ZM256 460.8v38.4c0 7.07 5.73 12.8 12.8 12.8h102.4c7.07 0 12.8-5.73 12.8-12.8v-38.4c0-7.07-5.73-12.8-12.8-12.8H268.8c-7.07 0-12.8 5.73-12.8 12.8ZM672 896c123.712 0 224-100.288 224-224S795.712 448 672 448 448 548.288 448 672s100.288 224 224 224Zm150.95-233.052-140.29-140.29c-4.999-5-13.103-5-18.101 0l-27.154 27.152c-4.998 5-4.998 13.104 0 18.102L709.493 640H526.046c-7.07 0-12.8 5.73-12.8 12.8v38.4c0 7.07 5.73 12.8 12.8 12.8h183.445l-72.086 72.083c-4.998 4.999-4.998 13.107 0 18.106l27.154 27.149c4.998 4.998 13.102 4.998 18.101 0L822.95 681.05c4.999-4.999 4.999-13.104 0-18.102ZM256 588.8v38.4c0 7.07 5.73 12.8 12.8 12.8h38.4c7.07 0 12.8-5.73 12.8-12.8v-38.4c0-7.07-5.73-12.8-12.8-12.8h-38.4c-7.07 0-12.8 5.73-12.8 12.8Zm0 166.4v-38.4c0-7.072 5.73-12.8 12.8-12.8h38.4c7.07 0 12.8 5.728 12.8 12.8v38.4c0 7.072-5.73 12.8-12.8 12.8h-38.4c-7.07 0-12.8-5.728-12.8-12.8Z"/></svg>