<svg viewBox="64 64 896 896" focusable="false"><path d="M703.488 64 896 256.384V947.2a12.8 12.8 0 0 1-12.8 12.8H140.8a12.8 12.8 0 0 1-12.8-12.8V76.8l.448-3.456a12.8 12.8 0 0 1 12.352-9.408L703.488 64zM640 123.52l-448 4.16V896h640V319.936H652.8a12.8 12.8 0 0 1-12.8-12.8V123.52zm63.744 31.168L704 256l101.184.192-101.44-101.44z"/><path d="M582.592 461.952a12.8 12.8 0 0 1 4.48 4.352l169.6 281.984a12.8 12.8 0 0 1-10.88 19.456H385.728l.064-.192H279.936a12.8 12.8 0 0 1-10.624-19.84l104.064-155.776a12.8 12.8 0 0 1 21.248 0l50.624 75.776 119.808-201.344a12.8 12.8 0 0 1 17.536-4.48zM384 400q48 0 48 48t-48 48q-48 0-48-48t48-48Z"/></svg>