<svg viewBox="0 0 1024 1024" focusable="false"><path fill-rule="evenodd" d="M703.488 154.466V256l101.805.203-101.805-101.737ZM698.188 64H140.8c-7.04 0-12.8 5.76-12.8 12.8v870.4c0 7.072 5.73 12.8 12.8 12.8h228.8c7.07 0 12.8-5.728 12.8-12.8v-38.4c0-7.104-5.76-12.8-12.8-12.864H192v-768.32l448.704-4.096v183.616c0 7.07 5.73 12.8 12.8 12.8H832V371.2c0 7.07 5.728 12.8 12.8 12.8h38.4c7.072 0 12.8-5.73 12.8-12.8V261.688c0-3.396-1.35-6.653-3.75-9.054L707.236 67.746A12.799 12.799 0 0 0 698.19 64Zm233.37 483.152C883.578 447.411 782.682 383.99 672 384a286.788 286.788 0 0 0-168.69 54.527c-6.178 4.475-6.365 13.163-.967 18.554l27.672 27.633c4.501 4.495 11.554 5 16.827 1.443 77.882-52.54 180.858-51.015 257.35 4.868 79.469 58.06 111.738 161.192 79.52 254.191H820.8a12.807 12.807 0 0 0-11.795 7.949 12.813 12.813 0 0 0 2.835 13.939L877.248 832v-.064l9.658 9.69c5.395 5.408 14.278 4.985 18.745-1.21 61.504-85.286 71.815-197.824 25.907-293.264ZM371.2 448H268.8c-8.533 0-12.8 4.267-12.8 12.8v38.4c0 8.533 4.267 12.8 12.8 12.8h102.4c8.533 0 12.8-4.267 12.8-12.8v-38.4c0-8.533-4.267-12.8-12.8-12.8Zm116.915 85.363-31.026-31.026c-5.395-5.395-14.345-4.859-18.81 1.327-82.265 113.928-70.409 271.747 29.95 372.106 100.36 100.358 258.18 112.217 372.11 29.952 6.183-4.468 6.72-13.415 1.325-18.81l-27.603-27.603c-4.506-4.506-11.725-4.903-16.999-1.338-88.404 59.693-207.482 48.839-283.646-27.321-61.813-61.818-80.606-151.896-53.584-230.903h64.328a12.8 12.8 0 0 0 8.96-21.888l-45.005-44.496ZM307.2 576h-38.4c-8.533 0-12.8 4.267-12.8 12.8v38.4c0 8.533 4.267 12.8 12.8 12.8h38.4c8.533 0 12.8-4.267 12.8-12.8v-38.4c0-8.533-4.267-12.8-12.8-12.8Zm0 128h-38.4c-8.533 0-12.8 4.267-12.8 12.8v38.4c0 8.533 4.267 12.8 12.8 12.8h38.4c8.533 0 12.8-4.267 12.8-12.8v-38.4c0-8.533-4.267-12.8-12.8-12.8Z"/></svg>