<svg viewBox="0 0 1024 1024" focusable="false"><path fill-rule="evenodd" d="M369.58 960H140.8c-7.07 0-12.8-5.728-12.8-12.8V76.8c0-7.07 5.73-12.8 12.8-12.8h557.414c3.394 0 6.648 1.352 9.048 3.75L892.25 252.62a12.81 12.81 0 0 1 3.75 9.055V371.2c0 7.07-5.728 12.8-12.8 12.8h-38.4c-7.072 0-12.8-5.73-12.8-12.8v-51.264H653.524c-7.069 0-12.8-5.73-12.8-12.8L640 128l-448-.384v768.32l177.585.058c7.067.006 12.795 5.734 12.795 12.8V947.2c0 7.072-5.73 12.8-12.8 12.8Zm435.706-703.804L703.514 154.487V256l101.772.196ZM960 672c0 159.06-128.94 288-288 288-159.058 0-288-128.94-288-288 0-159.058 128.942-288 288-288 159.06 0 288 128.942 288 288ZM256 499.2v-38.4c0-7.07 5.73-12.8 12.8-12.8h102.4c7.07 0 12.8 5.73 12.8 12.8v38.4c0 7.07-5.73 12.8-12.8 12.8H268.8c-7.07 0-12.8-5.73-12.8-12.8ZM896 672c0 123.712-100.288 224-224 224S448 795.712 448 672s100.288-224 224-224 224 100.288 224 224ZM704 524.8v166.4c0 7.07-5.73 12.8-12.8 12.8h-38.4c-7.07 0-12.8-5.73-12.8-12.8V524.8c0-7.07 5.73-12.8 12.8-12.8h38.4c7.07 0 12.8 5.73 12.8 12.8ZM256 627.2v-38.4c0-7.07 5.73-12.8 12.8-12.8h38.4c7.07 0 12.8 5.73 12.8 12.8v38.4c0 7.07-5.73 12.8-12.8 12.8h-38.4c-7.07 0-12.8-5.73-12.8-12.8Zm0 128v-38.4c0-7.072 5.73-12.8 12.8-12.8h38.4c7.07 0 12.8 5.728 12.8 12.8v38.4c0 7.072-5.73 12.8-12.8 12.8h-38.4c-7.07 0-12.8-5.728-12.8-12.8Zm384 25.6v38.4c0 7.072 5.73 12.8 12.8 12.8h38.4c7.07 0 12.8-5.728 12.8-12.8v-38.4c0-7.072-5.73-12.8-12.8-12.8h-38.4c-7.07 0-12.8 5.728-12.8 12.8Z"/></svg>