<svg viewBox="0 0 1024 1024" focusable="false"><g fill-rule="evenodd"><path d="m140.801 64 557.412.056A12.8 12.8 0 0 1 707 67.55l.26.252 184.99 184.876a12.837 12.837 0 0 1 3.75 8.69v685.888c0 6.97-5.563 12.634-12.493 12.8H140.8c-6.967 0-12.634-5.563-12.8-12.493V76.8c0-7.07 5.732-12.8 12.801-12.8ZM192 127.737v768.32h640V319.992H652.8c-7.07 0-12.8-5.73-12.8-12.8v-179.14H320v51.2c0 7.07-5.73 12.8-12.8 12.8h-38.4c-7.07 0-12.8-5.73-12.8-12.8v-51.2l-64-.316Zm511.743 27.033L704 255.993l101.254.23-101.51-101.453Z"/><path d="M320 243.253v-38.4c0-7.069 5.73-12.8 12.8-12.8h38.4c7.07 0 12.8 5.731 12.8 12.8v38.4c0 7.07-5.73 12.8-12.8 12.8h-38.4c-7.07 0-12.8-5.73-12.8-12.8ZM256 307.253v-38.4c0-7.069 5.73-12.8 12.8-12.8h38.4c7.07 0 12.8 5.731 12.8 12.8v38.4c0 7.07-5.73 12.8-12.8 12.8h-38.4c-7.07 0-12.8-5.73-12.8-12.8ZM320 332.853v38.4c0 7.07 5.73 12.8 12.8 12.8h38.4c7.07 0 12.8-5.73 12.8-12.8v-38.4c0-7.069-5.73-12.8-12.8-12.8h-38.4c-7.07 0-12.8 5.731-12.8 12.8ZM256 435.253v-38.4c0-7.069 5.73-12.8 12.8-12.8h38.4c7.07 0 12.8 5.731 12.8 12.8v38.4c0 7.07-5.73 12.8-12.8 12.8h-38.4c-7.07 0-12.8-5.73-12.8-12.8ZM320 460.853v38.4c0 7.07 5.73 12.8 12.8 12.8h38.4c7.07 0 12.8-5.73 12.8-12.8v-38.4c0-7.069-5.73-12.8-12.8-12.8h-38.4c-7.07 0-12.8 5.731-12.8 12.8ZM268.8 512.053h38.4c7.07 0 12.8 5.731 12.8 12.8v51.2h115.2c7.07 0 12.8 5.731 12.8 12.8v166.403c0 7.066-5.73 12.8-12.8 12.8H268.8c-7.07 0-12.8-5.734-12.8-12.8V524.853c0-7.069 5.73-12.8 12.8-12.8Z"/><path d="M320 704.05631 320 640.05311 384 640.05311 384 704.05631z"/></g></svg>