<svg viewBox="0 0 1024 1024" focusable="false"><g fill-rule="evenodd"><path d="M698.189 64a12.8 12.8 0 0 1 8.787 3.493l.26.253L892.25 252.634a12.838 12.838 0 0 1 3.75 8.691V371.2c0 6.967-5.563 12.634-12.493 12.796l-.307.004h-38.4c-6.97 0-12.634-5.566-12.796-12.493L832 371.2v-51.264H653.504c-6.967 0-12.634-5.566-12.796-12.493l-.004-.307V123.52L192 127.616v768.32h177.6c6.936.063 12.63 5.594 12.796 12.552l.004.312v38.4c0 6.97-5.566 12.634-12.493 12.8H140.8c-6.967 0-12.634-5.563-12.8-12.493V76.8c0-6.938 5.594-12.633 12.495-12.8h557.694Zm5.299 90.466V256l101.805.203-101.805-101.737Z"/><path d="M931.558 547.152C883.578 447.411 782.682 383.99 672 384a286.788 286.788 0 0 0-168.69 54.527c-6.178 4.475-6.365 13.163-.967 18.554l27.672 27.633c4.501 4.495 11.554 5 16.827 1.443 77.882-52.54 180.858-51.015 257.35 4.868 79.469 58.06 111.738 161.192 79.52 254.191H820.8a12.807 12.807 0 0 0-11.795 7.949 12.813 12.813 0 0 0 2.835 13.939L877.248 832v-.064l9.658 9.69c5.395 5.408 14.278 4.985 18.745-1.21 61.504-85.286 71.815-197.824 25.907-293.264ZM371.2 448H268.8c-8.533 0-12.8 4.267-12.8 12.8v38.4c0 8.533 4.267 12.8 12.8 12.8h102.4c8.533 0 12.8-4.267 12.8-12.8v-38.4c0-8.533-4.267-12.8-12.8-12.8ZM488.115 533.363l-31.026-31.026c-5.395-5.395-14.345-4.859-18.81 1.327-82.265 113.928-70.409 271.747 29.95 372.106 100.36 100.358 258.18 112.217 372.11 29.952 6.183-4.468 6.72-13.415 1.325-18.81l-27.603-27.603c-4.506-4.506-11.725-4.903-16.999-1.338-88.404 59.693-207.482 48.839-283.646-27.321-61.813-61.818-80.606-151.896-53.584-230.903h64.328a12.8 12.8 0 0 0 8.96-21.888l-45.005-44.496ZM307.2 576h-38.4c-8.533 0-12.8 4.267-12.8 12.8v38.4c0 8.533 4.267 12.8 12.8 12.8h38.4c8.533 0 12.8-4.267 12.8-12.8v-38.4c0-8.533-4.267-12.8-12.8-12.8ZM307.2 704h-38.4c-8.533 0-12.8 4.267-12.8 12.8v38.4c0 8.533 4.267 12.8 12.8 12.8h38.4c8.533 0 12.8-4.267 12.8-12.8v-38.4c0-8.533-4.267-12.8-12.8-12.8Z"/></g></svg>