<svg viewBox="0 0 1024 1024" focusable="false"><g fill-rule="evenodd"><path d="M698.214 64c3.272 0 6.415 1.257 8.788 3.498l.26.253L892.25 252.62a12.837 12.837 0 0 1 3.75 8.69V371.2c0 6.967-5.563 12.634-12.493 12.796l-.307.004h-38.4c-6.97 0-12.634-5.566-12.796-12.494L832 371.2v-51.264H653.524c-6.967 0-12.633-5.566-12.796-12.494l-.004-.306V123.52L192 127.616v768.32l177.585.058c6.965.006 12.629 5.57 12.792 12.493l.003.307V947.2c0 6.97-5.565 12.634-12.493 12.8H140.8c-6.967 0-12.634-5.563-12.8-12.493V76.8c0-6.967 5.566-12.634 12.494-12.8h557.72Zm5.3 90.487V256l101.772.196-101.772-101.71Z"/><path d="M672 384c159.06 0 288 128.942 288 288 0 159.06-128.94 288-288 288-159.058 0-288-128.94-288-288 0-159.058 128.942-288 288-288ZM493.103 537.197A224 224 0 0 0 448 672c0 123.712 100.288 224 224 224a224 224 0 0 0 132.521-43.404l1.162-.859-312.58-314.54ZM672 448a224.001 224.001 0 0 0-132.315 43.255l-1.16.856 312.528 314.487.87-1.167A224.021 224.021 0 0 0 896 672c0-123.712-100.288-224-224-224ZM307.2 704c6.967 0 12.634 5.563 12.796 12.493l.004.307v38.4c0 6.97-5.566 12.634-12.493 12.796l-.307.004h-38.4c-6.967 0-12.634-5.563-12.796-12.493L256 755.2v-38.4c0-6.97 5.566-12.634 12.493-12.797l.307-.003h38.4ZM307.2 576c6.967 0 12.634 5.566 12.796 12.493l.004.307v38.4c0 6.967-5.566 12.634-12.493 12.796l-.307.004h-38.4c-6.967 0-12.634-5.566-12.796-12.494L256 627.2v-38.4c0-6.967 5.566-12.634 12.493-12.797l.307-.003h38.4ZM371.2 448c6.967 0 12.634 5.566 12.796 12.493l.004.307v38.4c0 6.967-5.566 12.634-12.493 12.796l-.307.004H268.8c-6.967 0-12.634-5.566-12.796-12.494L256 499.2v-38.4c0-6.967 5.566-12.634 12.493-12.797l.307-.003h102.4Z"/></g></svg>