<svg viewBox="64 64 896 896"><path d="M896 513.92v64H704v-64zm0 128v64H704v-64zm0 128v64H704v-64z"/><path d="M787.2 64H173.056a44.8 44.8 0 0 0-44.8 44.8v139.392l.64 7.552a44.8 44.8 0 0 0 14.272 25.792l175.552 157.12v373.44a44.8 44.8 0 0 0 14.4 32.832L453.312 956.48a44.8 44.8 0 0 0 30.464 11.968H595.2l6.08-.448A44.8 44.8 0 0 0 640 923.648l-.064-484.864 177.024-157.12A44.8 44.8 0 0 0 832 248.128V108.8A44.8 44.8 0 0 0 787.2 64zM768 128v111.424L591.04 396.672l-4.48 4.544A44.8 44.8 0 0 0 576 430.208l-.064 474.176h-84.608L382.72 803.712V430.144l-.64-7.552a44.8 44.8 0 0 0-14.208-25.856l-175.616-157.12V128H768z"/></svg>