<svg viewBox="0 0 1024 1024" focusable="false"><path fill-rule="evenodd" d="M320 140.8v38.4c0 7.07-5.73 12.8-12.8 12.8H192v115.2c0 7.07-5.73 12.8-12.8 12.8h-38.4c-7.07 0-12.8-5.73-12.8-12.8V140.8c0-7.07 5.73-12.8 12.8-12.8h166.4c7.07 0 12.8 5.73 12.8 12.8M883.2 320h-38.4c-7.072 0-12.8-5.73-12.8-12.8V192H716.8c-7.07 0-12.8-5.73-12.8-12.8v-38.4c0-7.07 5.73-12.8 12.8-12.8h166.4c7.072 0 12.8 5.73 12.8 12.8v166.4c0 7.07-5.728 12.8-12.8 12.8m-256 256H396.8c-7.07 0-12.8-5.73-12.8-12.8V460.8c0-7.07 5.73-12.8 12.8-12.8h230.4c7.07 0 12.8 5.73 12.8 12.8v102.4c0 7.07-5.73 12.8-12.8 12.8M140.8 704h38.4c7.07 0 12.8 5.73 12.8 12.8V832h115.2c7.07 0 12.8 5.728 12.8 12.8v38.4c0 7.072-5.73 12.8-12.8 12.8H140.8c-7.07 0-12.8-5.728-12.8-12.8V716.8c0-7.07 5.73-12.8 12.8-12.8M704 883.2v-38.4c0-7.072 5.73-12.8 12.8-12.8H832V716.8c0-7.07 5.728-12.8 12.8-12.8h38.4c7.072 0 12.8 5.73 12.8 12.8v166.4c0 7.072-5.728 12.8-12.8 12.8H716.8c-7.07 0-12.8-5.728-12.8-12.8"/></svg>