<svg viewBox="64 64 896 896" focusable="false"><path d="M883.2 192c7.04 0 12.8 5.76 12.8 12.8V320h-64v-64H128v512l192-.064V832H76.8A12.8 12.8 0 0 1 64 819.2V192h819.2z"/><path d="M672 384a288 288 0 1 1 0 576 288 288 0 0 1 0-576zm0 64a224 224 0 1 0 0 448 224 224 0 0 0 0-448zm19.2 64c7.04 0 12.8 5.76 12.8 12.8V640h115.2c7.04 0 12.8 5.76 12.8 12.8v38.4a12.8 12.8 0 0 1-12.8 12.8H704v115.2a12.8 12.8 0 0 1-12.8 12.8h-38.4a12.8 12.8 0 0 1-12.8-12.8V704H524.8a12.8 12.8 0 0 1-12.8-12.8v-38.4c0-7.04 5.76-12.8 12.8-12.8H640V524.8c0-7.04 5.76-12.8 12.8-12.8h38.4zm-69.952-256-192-192H128a64 64 0 0 0-64 64v128h557.248zM402.752 128l64 64H128v-64h274.752z"/></svg>