<svg viewBox="0 0 1024 1024" focusable="false"><path fill-rule="evenodd" d="M64 128V76.8C64 69.73 69.73 64 76.8 64h347.153a12.8 12.8 0 0 1 9.051 3.749L557.255 192h326.047c7.072 0 12.698 5.83 12.698 12.9v102.3c0 7.07-5.728 12.8-12.8 12.8h-38.4c-7.072 0-12.8-5.73-12.8-12.8V256H128v512h179.2c7.07 0 12.8 5.728 12.8 12.8v38.4c0 7.072-5.73 12.8-12.8 12.8H76.696C69.626 832 64 826.17 64 819.098V128Zm64 64h338.752l-64-64H128v64Zm544 768c159.06 0 288-128.94 288-288 0-159.058-128.94-288-288-288-159.058 0-288 128.942-288 288 0 159.06 128.942 288 288 288Zm0-64c123.712 0 224-100.288 224-224S795.712 448 672 448 448 548.288 448 672s100.288 224 224 224Zm-19.2-384c-7.07 0-12.8 5.73-12.8 12.8V640H524.8c-7.07 0-12.8 5.73-12.8 12.8v38.4c0 7.07 5.73 12.8 12.8 12.8H640v115.2c0 7.072 5.73 12.8 12.8 12.8h38.4c7.07 0 12.8-5.728 12.8-12.8V704h115.2c7.072 0 12.8-5.73 12.8-12.8v-38.4c0-7.07-5.728-12.8-12.8-12.8H704V524.8c0-7.07-5.73-12.8-12.8-12.8h-38.4Z"/></svg>