<svg viewBox="64 64 896 896"><path d="m621.248 288-192-192H128a64 64 0 0 0-64 64v128h557.248zM402.752 160l64 64H128v-64h274.752z"/><path d="M883.2 224c7.04 0 12.8 5.76 12.8 12.8V352h-64v-64H128v351.936L67.456 912.448a12.8 12.8 0 0 0-.192 1.344l-.128 1.408c0 7.04 5.76 12.8 12.8 12.8H76.8A12.8 12.8 0 0 1 64 915.2V224h819.2z"/><path d="M944 352c7.104 0 12.8 5.76 12.8 12.8v1.408L834.24 917.952A12.8 12.8 0 0 1 821.76 928H80a12.8 12.8 0 0 1-12.8-12.8v-1.408l122.56-551.744A12.8 12.8 0 0 1 202.24 352H944zm-63.808 64H243.328l-99.584 448h636.864l99.584-448z"/></svg>