<svg viewBox="0 0 1024 1024" focusable="false"><path fill-rule="evenodd" d="m903.437 500.652-352.445-352.44c-4.998-4.999-4.999-12.866 0-17.865l27.39-27.39c4.998-5 12.85-5.014 17.849-.016l388.793 388.794c4.998 4.998 4.998 12.835 0 17.834L596.231 898.362c-4.999 4.998-12.85 4.985-17.85-.013l-27.39-27.392c-4.998-4.999-4.997-12.864.001-17.863l352.445-352.442ZM76.8 703.966l307.136.03.064 191.23c0 3.577 1.493 6.982 4.118 9.408 5.195 4.793 13.293 4.473 18.087-.724l353.782-383.262c4.525-4.903 4.525-12.46 0-17.364L406.205 120.022a12.8 12.8 0 0 0-9.405-4.118c-7.07 0-12.8 5.73-12.8 12.8l-.064 191.292-307.136-.03c-7.07 0-12.8 5.73-12.8 12.8v358.4c0 7.07 5.73 12.8 12.8 12.8Zm371.132-444.292 232.96 252.288-232.96 252.352-.015-124.31-319.92.022v-256l319.92-.022.015-124.33Z"/></svg>