<svg viewBox="0 0 1024 1024" focusable="false"><path d="M64 332.8c0-7.04 5.76-12.8 12.8-12.8h307.136L384 128.768a12.8 12.8 0 0 1 22.208-8.704L760 503.296a12.8 12.8 0 0 1 0 17.408L406.208 903.936A12.8 12.8 0 0 1 384 895.232L383.936 704H76.8A12.8 12.8 0 0 1 64 691.2V332.8zm64 51.2v256h319.936v124.352L680.896 512l-232.96-252.288V384h-320z"/><path d="m984.896 509.76-388.48 388.48a12.8 12.8 0 0 1-18.176 0l-27.136-27.136a12.8 12.8 0 0 1 0-18.112L894.4 509.76a12.8 12.8 0 0 0 0-18.112L551.04 148.352a12.8 12.8 0 0 1 0-18.112l27.136-27.136a12.8 12.8 0 0 1 18.112 0l388.48 388.48a12.8 12.8 0 0 1 0 18.176z"/></svg>