<svg viewBox="0 0 1024 1024" focusable="false"><path fill-rule="evenodd" d="M64 204.8v38.4c0 7.07 5.73 12.8 12.8 12.8h166.4c7.07 0 12.8-5.73 12.8-12.8V76.8c0-7.07-5.73-12.8-12.8-12.8h-38.4c-7.07 0-12.8 5.73-12.8 12.8V192H76.8c-7.07 0-12.8 5.73-12.8 12.8ZM819.2 64h-38.4c-7.072 0-12.8 5.73-12.8 12.8v166.4c0 7.07 5.728 12.8 12.8 12.8h166.4c7.072 0 12.8-5.73 12.8-12.8v-38.4c0-7.07-5.728-12.8-12.8-12.8H832V76.8c0-7.07-5.728-12.8-12.8-12.8ZM268.8 768h486.4c7.066 0 12.8-5.728 12.8-12.8V268.797c0-7.07-5.734-12.797-12.8-12.797H268.8c-7.068 0-12.8 5.727-12.8 12.797V755.2c0 7.072 5.732 12.8 12.8 12.8ZM320 320h384v384H320V320ZM76.8 768h166.4c7.07 0 12.8 5.728 12.8 12.8v166.4c0 7.072-5.73 12.8-12.8 12.8h-38.4c-7.07 0-12.8-5.728-12.8-12.8V832H76.8c-7.07 0-12.8-5.728-12.8-12.8v-38.4c0-7.072 5.73-12.8 12.8-12.8ZM960 819.2v-38.4c0-7.072-5.728-12.8-12.8-12.8H780.8c-7.072 0-12.8 5.728-12.8 12.8v166.4c0 7.072 5.728 12.8 12.8 12.8h38.4c7.072 0 12.8-5.728 12.8-12.8V832h115.2c7.072 0 12.8-5.728 12.8-12.8Z"/></svg>