<svg viewBox="0 0 1024 1024" focusable="false"><path fill-rule="evenodd" d="M256 115.2V76.8c0-7.07-5.73-12.8-12.8-12.8H76.8C69.73 64 64 69.73 64 76.8v166.4c0 7.07 5.73 12.8 12.8 12.8h38.4c7.07 0 12.8-5.73 12.8-12.8V128h115.2c7.07 0 12.8-5.73 12.8-12.8ZM947.2 256h-38.4c-7.072 0-12.8-5.73-12.8-12.8V128H780.8c-7.072 0-12.8-5.73-12.8-12.8V76.8c0-7.07 5.728-12.8 12.8-12.8h166.4c7.072 0 12.8 5.73 12.8 12.8v166.4c0 7.07-5.728 12.8-12.8 12.8Zm-128 576H204.8c-7.07 0-12.8-5.728-12.8-12.8V204.8c0-7.07 5.73-12.8 12.8-12.8h614.4c7.072 0 12.8 5.73 12.8 12.8v614.4c0 7.072-5.728 12.8-12.8 12.8ZM768 256H256v512h512V256ZM115.2 768H76.8c-7.07 0-12.8 5.728-12.8 12.8v166.4c0 7.072 5.73 12.8 12.8 12.8h166.4c7.07 0 12.8-5.728 12.8-12.8v-38.4c0-7.072-5.73-12.8-12.8-12.8H128V780.8c0-7.072-5.73-12.8-12.8-12.8ZM768 947.2v-38.4c0-7.072 5.728-12.8 12.8-12.8H896V780.8c0-7.072 5.728-12.8 12.8-12.8h38.4c7.072 0 12.8 5.728 12.8 12.8v166.4c0 7.072-5.728 12.8-12.8 12.8H780.8c-7.072 0-12.8-5.728-12.8-12.8Z"/></svg>