<svg viewBox="0 0 1024 1024" focusable="false"><path fill-rule="evenodd" d="M128 179.2V76.8c0-7.07 5.73-12.8 12.8-12.8h742.4c7.072 0 12.8 5.73 12.8 12.8v102.4c0 7.07-5.728 12.8-12.8 12.8h-38.4c-7.072 0-12.8-5.73-12.8-12.8V128H192v51.2c0 7.07-5.73 12.8-12.8 12.8h-38.4c-7.07 0-12.8-5.73-12.8-12.8ZM64 448c0-84.83 66.019-154.243 149.48-159.66L224 288h101.808c65.784 0 119.678 50.904 124.442 115.471.186 5.087-3.887 9.313-8.977 9.313h-41.881c-7.07 0-12.65-5.697-14.11-12.614-5.332-25.26-26.35-44.737-52.385-47.761l-7.089-.409H224c-49.9 0-90.909 38.073-95.56 86.755L128 448v128c0 49.9 38.073 90.909 86.755 95.56L224 672h130.592c15.71 0 28.775-11.32 31.484-26.248l.516-5.752-.055-90.112-104.124.029c-7.07.002-12.804-5.73-12.804-12.8V498.72c0-7.069 5.731-12.8 12.8-12.8h155.383c7.069 0 12.8 5.731 12.8 12.8V640c0 49.9-38.073 90.906-86.755 95.558l-9.245.442H224c-84.83 0-154.242-66.019-159.66-149.48L64 576V448Zm496.81-160h-38.4c-7.07 0-12.8 5.73-12.8 12.8v422.4c0 7.072 5.73 12.8 12.8 12.8h38.4c7.068 0 12.8-5.728 12.8-12.8V300.8c0-7.07-5.732-12.8-12.8-12.8Zm89.6 0h294.396c7.072 0 12.8 5.73 12.8 12.8v38.4c0 7.07-5.728 12.8-12.8 12.8H701.61v128h243.196c7.072 0 12.8 5.73 12.8 12.8v38.4c0 7.07-5.728 12.8-12.8 12.8H701.61v179.2c0 7.072-5.732 12.8-12.8 12.8h-38.4c-7.07 0-12.8-5.728-12.8-12.8V300.8c0-7.07 5.73-12.8 12.8-12.8ZM140.8 960h742.4c7.072 0 12.8-5.728 12.8-12.8V844.8c0-7.072-5.728-12.8-12.8-12.8h-38.4c-7.072 0-12.8 5.728-12.8 12.8V896H192v-51.2c0-7.072-5.73-12.8-12.8-12.8h-38.4c-7.07 0-12.8 5.728-12.8 12.8v102.4c0 7.072 5.73 12.8 12.8 12.8Z"/></svg>