<svg viewBox="64 64 896 896" focusable="false"><path d="M512 64c136.96 0 259.584 61.44 341.76 158.336l1.472-.896 7.168 11.392A445.888 445.888 0 0 1 958.848 480H960v64h-1.152a446.016 446.016 0 0 1-103.04 255.296l-.576.704A448 448 0 0 1 65.088 544H64v-64h1.152A448 448 0 0 1 512 64zm-32 639.872c-54.08 2.944-107.84 12.608-160 29.184v111.552a381.44 381.44 0 0 0 160 50.048V703.872zm64-.256v191.04a381.632 381.632 0 0 0 160.128-50.112v-113.28A645.376 645.376 0 0 0 544 703.616zm224 51.008v43.584c8.64-7.68 16.96-15.872 24.832-24.32l5.12-5.568a624.565 624.565 0 0 0-29.888-13.696zM227.84 770.24c8.96 9.792 18.304 19.136 28.16 27.904V757.12c-9.472 4.096-18.816 8.512-28.16 13.12zM256 544H129.28c5.312 64 26.24 123.456 59.008 174.656A705.305 705.305 0 0 1 256 687.872V544zm638.72 0H768v141.632a705.985 705.985 0 0 1 69.12 30.72c31.936-50.56 52.352-109.312 57.6-172.288zM480 544H320v122.24a709.248 709.248 0 0 1 160-26.432V544zm224 0H544v95.552c53.952 2.176 107.648 10.56 160 25.024V544zM189.44 303.488l-6.72 10.88A381.632 381.632 0 0 0 129.344 480H256V333.632c-22.528-8.832-44.736-18.88-66.56-30.08zm354.56 78.4V480h160l.064-123.2a712.87 712.87 0 0 1-160 25.088zM320 355.2V480h160v-98.368A709.312 709.312 0 0 1 320 355.2zm515.84-49.6c-22.144 11.328-44.8 21.312-67.84 30.08V480h126.72a381.696 381.696 0 0 0-58.88-174.4zM544 129.344v188.48a645.312 645.312 0 0 0 160-27.648l.064-110.72a381.632 381.632 0 0 0-160-50.112zm-64 0a381.632 381.632 0 0 0-160 50.048v108.992a646.519 646.519 0 0 0 160 29.184V129.28zm288.064 96.512v40.96c9.472-4.096 18.88-8.384 28.224-12.928-8.96-9.792-18.304-19.2-28.224-28.032zM229.44 251.968c8.832 4.288 17.664 8.448 26.56 12.352v-38.528a394.187 394.187 0 0 0-26.56 26.176z"/></svg>