<svg viewBox="0 0 1024 1024" focusable="false"><path d="M907.84 713.024a12.8 12.8 0 0 0 0-18.048l-27.136-27.2a12.8 12.8 0 0 0-18.112 0l-126.72 126.72-126.72-126.72a12.8 12.8 0 0 0-18.048 0l-27.2 27.2a12.8 12.8 0 0 0 0 18.048l162.944 162.944a12.8 12.8 0 0 0 18.112 0l162.88-162.944zm0-402.048a12.8 12.8 0 0 1 0 18.048l-27.136 27.2a12.8 12.8 0 0 1-18.112 0l-126.72-126.72-126.72 126.72a12.8 12.8 0 0 1-18.048 0L563.84 328.96a12.8 12.8 0 0 1 0-18.048l162.944-162.944a12.8 12.8 0 0 1 18.112 0l162.88 162.944zM140.8 192h294.4q12.8 0 12.8 12.8v230.4q0 12.8-12.8 12.8H140.8q-12.8 0-12.8-12.8V204.8q0-12.8 12.8-12.8Zm0 384h294.4q12.8 0 12.8 12.8v230.4q0 12.8-12.8 12.8H140.8q-12.8 0-12.8-12.8V588.8q0-12.8 12.8-12.8Z"/></svg>