<svg viewBox="64 64 896 896" focusable="false"><path d="M354.368 63.424A288.512 288.512 0 0 0 66.624 334.08l-1.152 17.344a596.288 596.288 0 0 0 399.36 592.384L512 960.256l47.552-16.64 17.088-6.208A604.16 604.16 0 0 0 964.8 361.344l.192-7.872a288.128 288.128 0 0 0-288-288.64l-16.64.448a286.336 286.336 0 0 0-137.6 44.288l-6.144 4.096-6.4-4.416a286.848 286.848 0 0 0-155.776-45.824zm0 64c52.48 0 102.144 18.048 141.888 50.624l20.096 16.512 20.288-16.32a224 224 0 0 1 364.352 174.528l-.192 8.512a540.48 540.48 0 0 1-346.56 516.16l-16.192 5.888L512 892.352l-26.112-9.024a532.16 532.16 0 0 1-356.48-528.384l1.088-16.896a224.512 224.512 0 0 1 223.872-210.56z"/><path d="M320 192a32 32 0 0 1 0 64 64 64 0 0 0-64 64 32 32 0 0 1-64 0 128 128 0 0 1 128-128z"/></svg>