<svg viewBox="0 0 1024 1024" focusable="false"><path fill-rule="evenodd" d="M191.984 447.781v435.201c0 7.066 5.73 12.8 12.8 12.8h614.397c7.072 0 12.8-5.734 12.8-12.8v-435.2h93.401c11.885 0 17.35-14.786 8.333-22.52l-413.4-354.34a12.8 12.8 0 0 0-16.661 0L90.255 425.262c-9.022 7.734-3.553 22.52 8.33 22.52h93.399Zm448 384.001h128.003v-448h19.008L511.985 148.07l-275.07 235.712h19.072v448h127.998V588.586c0-7.07 5.73-12.8 12.8-12.8h230.4c7.07 0 12.8 5.73 12.8 12.8v243.196Zm-64 0h-128V639.786h128v191.996Z"/></svg>