<svg viewBox="0 0 1024 1024" focusable="false"><path d="m520.32 135.168 413.44 354.304A12.8 12.8 0 0 1 925.44 512H844.8a12.8 12.8 0 0 0-12.8 12.8v422.4a12.8 12.8 0 0 1-12.8 12.8H204.8a12.8 12.8 0 0 1-12.8-12.8V524.8a12.8 12.8 0 0 0-12.8-12.8H98.56a12.8 12.8 0 0 1-8.32-22.528l413.44-354.304a12.8 12.8 0 0 1 16.64 0zm-8.32 77.12L236.928 448H256v448h512V448h19.008L512 212.288z"/><path d="M640 652.8v294.4a12.8 12.8 0 0 1-12.8 12.8H396.8a12.8 12.8 0 0 1-12.8-12.8V652.8c0-7.04 5.76-12.8 12.8-12.8h230.4c7.04 0 12.8 5.76 12.8 12.8zM576 704H448v192h128V704z"/></svg>