<svg viewBox="0 0 1024 1024" focusable="false"><path fill-rule="evenodd" d="m520.055 70.705.26.217 413.4 354.34c8.928 7.657 3.66 22.224-7.978 22.515l-.355.004h-93.401v435.201c0 6.964-5.563 12.634-12.494 12.8H204.784c-6.967 0-12.634-5.569-12.796-12.493l-.004-.307v-435.2H98.586c-11.765 0-17.243-14.491-8.597-22.285l.266-.234L503.654 70.922a12.8 12.8 0 0 1 16.401-.217Zm-8.07 77.365L236.915 383.782h19.072v448h127.998V588.586c0-7.07 5.73-12.8 12.8-12.8h230.4c7.07 0 12.8 5.73 12.8 12.8v243.196h128.003v-448h19.008L511.985 148.07Zm63.999 491.716h-128v191.996h128V639.786Z"/></svg>