<svg viewBox="0 0 1024 1024" focusable="false"><path d="M690.368 128c7.04 0 12.8 5.76 12.8 12.8v37.888a12.8 12.8 0 0 1-12.8 12.8l-550.08.512a12.8 12.8 0 0 0-12.8 12.8v680.384c0 7.04 5.76 12.8 12.8 12.8h691.648l.064-563.52c0-7.04 5.76-12.8 12.8-12.8h38.4c7.04 0 12.8 5.76 12.8 12.8v582.72a44.8 44.8 0 0 1-38.72 44.416l-6.08.384-774.912-.384a12.8 12.8 0 0 1-12.8-12.8v-808c0-7.04 5.76-12.8 12.8-12.8h614.08zm160.96 16.832 27.136 27.2a12.8 12.8 0 0 1 0 18.112l-513.28 513.792L627.2 704c7.04 0 12.8 5.76 12.8 12.8v38.4a12.8 12.8 0 0 1-12.8 12.8H268.8a12.8 12.8 0 0 1-12.8-12.8V396.8c0-7.04 5.76-12.8 12.8-12.8h38.4c7.04 0 12.8 5.76 12.8 12.8v261.888l513.216-513.856a12.8 12.8 0 0 1 18.112 0z"/></svg>