<svg viewBox="0 0 1024 1024" focusable="false"><path d="M512 960c247.424 0 448-200.576 448-448S759.424 64 512 64 64 264.576 64 512s200.576 448 448 448Zm0-64c-212.077 0-384-171.923-384-384s171.923-384 384-384 384 171.923 384 384-171.923 384-384 384Zm19.2-576c6.967 0 12.634-5.566 12.796-12.493L544 268.8c0-6.967-5.566-12.634-12.493-12.796L492.8 256c-6.967 0-12.634 5.566-12.796 12.493L480 307.2c0 6.967 5.566 12.634 12.493 12.796L531.2 320Zm0 448c6.967 0 12.634-5.566 12.796-12.493L544 396.8c0-6.967-5.566-12.634-12.493-12.8H492.8c-6.967 0-12.634 5.566-12.796 12.493L480 755.2c0 6.967 5.566 12.634 12.493 12.8H531.2Z"/></svg>