<svg viewBox="0 0 1024 1024" focusable="false"><path d="M512 64c247.424 0 448 200.576 448 448S759.424 960 512 960 64 759.424 64 512 264.576 64 512 64Zm0 64c-212.077 0-384 171.923-384 384s171.923 384 384 384 384-171.923 384-384-171.923-384-384-384Zm19.2 576c6.967 0 12.634 5.566 12.796 12.493L544 755.2c0 6.967-5.566 12.634-12.493 12.796L492.8 768c-6.967 0-12.634-5.566-12.796-12.493L480 716.8c0-6.967 5.566-12.634 12.493-12.796L531.2 704Zm0-448c6.967 0 12.634 5.566 12.796 12.493L544 627.2c0 6.967-5.566 12.634-12.493 12.8H492.8c-6.967 0-12.634-5.566-12.796-12.493L480 268.8c0-6.967 5.566-12.634 12.493-12.8H531.2Z"/></svg>