<svg viewBox="0 0 1024 1024" focusable="false"><path d="M518.656 66.304H507.2L138.24 133.12a12.8 12.8 0 0 0-10.496 12.608V334.4c0 259.456 141.888 498.048 369.792 622.016l15.616 8.512 33.28-18.88a707.2 707.2 0 0 0 349.504-609.92V145.664a12.8 12.8 0 0 0-10.496-12.544L518.72 66.24zm-5.824 63.936 319.04 58.176v147.648l-.32 20.736a643.008 643.008 0 0 1-299.52 523.008L512.64 891.52l-2.176-1.28A644.032 644.032 0 0 1 191.68 334.4l-.064-145.92 321.216-58.24z"/><path d="m261.76 420.224 28.096-27.008a12.8 12.8 0 0 1 17.92.128l164.8 164.864a12.8 12.8 0 0 0 18.112 0l251.648-251.52a12.8 12.8 0 0 1 18.112 0l27.136 27.136a12.8 12.8 0 0 1 0 18.112L490.368 649.152a12.8 12.8 0 0 1-18.112 0L261.632 438.528a12.8 12.8 0 0 1 .128-18.304z"/></svg>