<svg viewBox="0 0 1024 1024" focusable="false"><path fill-rule="evenodd" d="M64 76.8v806.4c0 7.072 5.73 12.8 12.8 12.8h870.4c7.072 0 12.8-5.728 12.8-12.8V76.8c0-7.07-5.728-12.8-12.8-12.8H76.8C69.73 64 64 69.73 64 76.8ZM128 832V128h768v704H128Zm192-512h-51.2c-7.07 0-12.8-5.73-12.8-12.8v-38.4c0-7.07 5.73-12.8 12.8-12.8h166.4c7.07 0 12.8 5.73 12.8 12.8v38.4c0 7.07-5.73 12.8-12.8 12.8H384v320h51.2c7.07 0 12.8 5.728 12.8 12.8v38.4c0 7.072-5.73 12.8-12.8 12.8H268.8c-7.07 0-12.8-5.728-12.8-12.8v-38.4c0-7.072 5.73-12.8 12.8-12.8H320V320Zm204.8-64c-7.07 0-12.8 5.73-12.8 12.8v422.4c0 7.072 5.73 12.8 12.8 12.8h38.4c7.07 0 12.8-5.728 12.8-12.8V512h64c70.694 0 128-57.308 128-128 0-70.692-57.306-128-128-128H524.8ZM640 320c35.347 0 64 28.654 64 64 0 35.346-28.653 64-64 64h-64V320h64Z"/></svg>