<svg viewBox="0 0 1024 1024" focusable="false"><path fill-rule="evenodd" d="m896.006 140.792.48 806.402c0 7.072-5.728 12.806-12.8 12.806H532.61c-7.07 0-12.8-5.728-12.8-12.8v-37.907c0-7.06 5.717-12.787 12.779-12.8L832.512 896V190.016H128.044l-.042 309.186C128 506.27 122.27 512 115.202 512H76.8c-7.07 0-12.8-5.73-12.8-12.8V140.8c0-7.07 5.73-12.8 12.8-12.8h806.406c7.066 0 12.8 5.726 12.8 12.792M269.292 448h260.079L146.874 832.32c-4.978 4.998-4.97 13.088.02 18.074l27.15 27.161c5.008 5.011 13.13 5.005 18.126-.019L576.625 491.25l.037 263.952c.001 7.068 5.732 12.798 12.8 12.798h38.402c7.07 0 12.8-5.73 12.8-12.8V396.8c0-7.07-5.73-12.8-12.8-12.8H269.292c-7.07 0-12.8 5.73-12.8 12.8v38.4c0 7.07 5.73 12.8 12.8 12.8"/></svg>