<svg viewBox="0 0 1024 1024" focusable="false"><path d="M512 512a227.556 227.556 0 1 1-321.82 321.82A227.556 227.556 0 0 1 512 512zm-40.22 40.22A170.667 170.667 0 1 0 230.4 793.6a170.667 170.667 0 0 0 241.38-241.38z"/><path d="M431.56 592.44a113.778 113.778 0 1 1-160.94 160.94 113.778 113.778 0 0 1 160.94-160.94zm-40.221 40.221a56.889 56.889 0 1 0-80.498 80.498 56.889 56.889 0 0 0 80.555-80.555zm422.343-462.563 40.22 40.22-362.04 362.041-40.221-40.22z"/><path d="m813.682 250.539-40.22 40.22L612.58 129.82 652.8 89.6zm-80.384 80.44L693.02 371.2 532.14 210.318l40.22-40.22zM652.8 411.42l-40.22 40.22-120.72-120.66 40.278-40.22z"/></svg>