<svg viewBox="0 0 1024 1024" focusable="false"><path fill-rule="evenodd" d="M883.2 384H140.8c-7.07 0-12.8-5.73-12.8-12.8V204.8c0-7.07 5.73-12.8 12.8-12.8h742.4c7.072 0 12.8 5.73 12.8 12.8v166.4c0 7.07-5.728 12.8-12.8 12.8ZM192 256v64h640v-64H192Zm691.2 384H140.8c-7.07 0-12.8-5.73-12.8-12.8V460.8c0-7.07 5.73-12.8 12.8-12.8h742.4c7.072 0 12.8 5.73 12.8 12.8v166.4c0 7.07-5.728 12.8-12.8 12.8ZM192 512v64h640v-64H192Zm691.2 384H140.8c-7.07 0-12.8-5.728-12.8-12.8V716.8c0-7.07 5.73-12.8 12.8-12.8h742.4c7.072 0 12.8 5.73 12.8 12.8v166.4c0 7.072-5.728 12.8-12.8 12.8ZM192 768v64h640v-64H192Z"/></svg>