<svg viewBox="0 0 1024 1024" focusable="false"><path fill-rule="evenodd" d="M960 512c0 247.424-200.576 448-448 448-247.423 0-448-200.576-448-448C64 264.577 264.577 64 512 64c247.424 0 448 200.577 448 448Zm-64 0c0 212.077-171.923 384-384 384S128 724.077 128 512s171.923-384 384-384 384 171.923 384 384Zm-485.081 1.867L635.343 738.22c5 4.998 5.069 12.934.07 17.933l-27.39 27.392c-5 4.998-13.105 4.761-18.104-.237L329.57 522.957c-4.999-4.999-5.182-13.16-.183-18.159L593.84 240.346c4.998-4.999 12.922-5.055 17.92-.056l27.39 27.39c5 4.998 4.784 13.083-.213 18.082L410.919 513.867Z"/></svg>