<svg viewBox="0 0 1024 1024" focusable="false"><path d="M140.8 896a12.8 12.8 0 0 1-12.8-12.8V428.8c0-7.04 5.76-12.8 12.8-12.8h150.912a128 128 0 0 0 121.472-87.552l36.48-109.376A133.184 133.184 0 0 1 576 128a96 96 0 0 1 96 96v147.2c0 7.04 5.76 12.8 12.8 12.8H832a110.912 110.912 0 0 1 103.808 149.76l-104.64 279.168A128 128 0 0 1 711.296 896H140.8zM256 480h-64v352h64V480zm320-288c-27.072 0-51.392 15.744-62.72 39.872l-2.944 7.424-36.48 109.44a192 192 0 0 1-153.792 129.152L320 832h391.296A64 64 0 0 0 768 797.696l3.2-7.232L875.904 511.36a46.912 46.912 0 0 0-37.568-62.912L832 448H684.8a76.8 76.8 0 0 1-76.416-68.928L608 371.2V224a32 32 0 0 0-32-32z"/></svg>