<svg viewBox="0 0 1024 1024" focusable="false"><path d="M115.2 128c7.04 0 12.8 5.76 12.8 12.8V832h819.2c7.04 0 12.8 5.76 12.8 12.8v38.4a12.8 12.8 0 0 1-12.8 12.8H76.8A12.8 12.8 0 0 1 64 883.2V140.8c0-7.04 5.76-12.8 12.8-12.8h38.4z"/><path d="M952.704 185.024 583.872 553.152a12.8 12.8 0 0 1-18.24-.192L456.64 439.296a12.8 12.8 0 0 0-18.304-.128l-183.68 185.088a12.8 12.8 0 0 1-18.048.128l-27.264-27.072a12.8 12.8 0 0 1-.064-18.112l229.888-231.68a12.8 12.8 0 0 1 18.304.128l109.12 113.856a12.8 12.8 0 0 0 18.24.192L907.2 140.032a12.8 12.8 0 0 1 17.984-.064l27.456 26.88a12.8 12.8 0 0 1 .064 18.176zM908.8 384h38.4q12.8 0 12.8 12.8v358.4q0 12.8-12.8 12.8h-38.4q-12.8 0-12.8-12.8V396.8q0-12.8 12.8-12.8Z"/><path d="M204.8 704h742.4q12.8 0 12.8 12.8v38.4q0 12.8-12.8 12.8H204.8q-12.8 0-12.8-12.8v-38.4q0-12.8 12.8-12.8Z"/></svg>