<svg viewBox="0 0 1024 1024" focusable="false"><path fill-rule="evenodd" d="M64 883.2V140.8c0-7.07 5.73-12.8 12.8-12.8h38.4c7.07 0 12.8 5.73 12.8 12.8V832h819.2c7.072 0 12.8 5.728 12.8 12.8v38.4c0 7.072-5.728 12.8-12.8 12.8H76.8c-7.07 0-12.8-5.728-12.8-12.8Zm511.615-412.287L457.64 347.817c-4.98-5.195-13.46-5.402-18.529-.294L209.249 579.232c-4.978 5.019-5.046 12.986-.027 17.964l27.5 27.28c5.019 4.98 12.498 5.337 17.476.317l193.353-194.968 118.26 123.317c4.962 5.174 12.98 5.105 18.054.04l368.788-368.099c5.043-5.03 4.851-13.461-.23-18.449l-27.233-26.716c-5.01-4.914-13.132-4.742-18.099.214l-331.476 330.78ZM947.2 768H204.8c-7.07 0-12.8-5.73-12.8-12.8v-38.4c0-7.07 5.73-12.8 12.8-12.8H896V396.8c0-7.07 5.728-12.8 12.8-12.8h38.4c7.072 0 12.8 5.73 12.8 12.8v358.4c0 7.07-5.728 12.8-12.8 12.8Z"/></svg>