<svg viewBox="0 0 1024 1024" focusable="false"><path fill-rule="evenodd" d="M412.746 592.975c-66.156-75.417-63.255-190.282 8.703-262.24l181.06-181.06c74.98-74.98 196.55-74.98 271.526 0 74.983 74.981 74.983 196.549 0 271.53L747.328 547.911c-4.998 5-13.1 5-18.1 0l-27.154-27.152c-4.998-5-4.998-13.104 0-18.103L828.781 375.95c49.99-49.987 49.99-131.032 0-181.018-49.984-49.988-131.03-49.988-181.018 0l-181.012 181.01c-46.941 46.942-49.802 121.27-8.582 171.55 4.482 5.467 4.53 13.522-.47 18.52l-27.2 27.2c-4.998 5-13.091 5.077-17.753-.237Zm-263.07 280.497c-74.981-74.982-74.981-196.548 0-271.529l126.681-126.682c5-4.999 13.103-4.999 18.102 0l27.153 27.153c4.999 4.998 4.999 13.103 0 18.102l-126.68 126.68c-49.987 49.987-49.987 131.031 0 181.022 49.987 49.984 131.032 49.984 181.019 0L556.93 647.236c46.94-46.939 49.802-121.264 8.586-171.543-4.481-5.466-4.53-13.522.468-18.521l27.196-27.202c4.998-5 13.09-5.08 17.753.235 66.156 75.418 63.256 190.283-8.703 262.24L421.204 873.472c-74.98 74.982-196.548 74.982-271.529 0Z"/></svg>