<svg viewBox="64 64 896 896" focusable="false"><path d="M602.496 421.504a192 192 0 0 1 8.64 262.272l-8.64 9.216L421.44 874.048a192 192 0 0 1-280.128-262.336l8.64-9.216 135.68-135.68 45.312 45.248L195.2 647.744a128 128 0 0 0-6.528 174.08l6.528 6.976a128 128 0 0 0 172.864 7.488l8.128-7.488 180.992-180.992a128 128 0 0 0 7.488-172.864l-7.488-8.128 45.312-45.312zm271.488-271.552a192 192 0 0 1 8.64 262.336l-8.64 9.216-135.68 135.744-45.248-45.184 135.68-135.808a128 128 0 0 0 6.528-174.08l-6.528-6.976a128 128 0 0 0-172.8-7.488l-8.192 7.488-180.992 181.12a128 128 0 0 0-7.488 172.8l7.488 8.192-45.248 45.248 1.6 1.664-1.664-1.6a192 192 0 0 1-8.64-262.336l8.64-9.216 181.056-181.056a192 192 0 0 1 271.488 0z"/></svg>