<svg viewBox="0 0 1024 1024" focusable="false"><path fill-rule="evenodd" d="M332.636 256h358.728c7.069 0 12.636-5.151 12.636-12.22V76.22c0-7.069-5.567-12.22-12.636-12.22H332.636C325.567 64 320 69.151 320 76.22v167.56c0 7.069 5.567 12.22 12.636 12.22Zm447.998-64H832v704H192V192h51.368c7.07 0 12.632-5.563 12.632-12.632v-38.736c0-7.07-5.634-12.632-12.703-12.632H140.703c-7.069 0-12.703 5.627-12.703 12.696v806.606c0 7.072 5.849 12.698 12.918 12.698h742.167c7.065 0 12.915-5.626 12.915-12.698V140.696c0-7.07-5.632-12.696-12.704-12.696H780.704c-7.072 0-12.704 5.563-12.704 12.632v38.736c0 7.07 5.562 12.632 12.634 12.632ZM384 192v-64h256v64H384ZM256 435.2v-38.4c0-7.07 5.73-12.8 12.8-12.8h486.4c7.07 0 12.8 5.73 12.8 12.8v38.4c0 7.07-5.73 12.8-12.8 12.8H268.8c-7.07 0-12.8-5.73-12.8-12.8Zm0 128v-38.4c0-7.07 5.73-12.8 12.8-12.8h486.4c7.07 0 12.8 5.73 12.8 12.8v38.4c0 7.07-5.73 12.8-12.8 12.8H268.8c-7.07 0-12.8-5.73-12.8-12.8Zm0 128v-38.4c0-7.07 5.73-12.8 12.8-12.8h294.4c7.07 0 12.8 5.73 12.8 12.8v38.4c0 7.07-5.73 12.8-12.8 12.8H268.8c-7.07 0-12.8-5.73-12.8-12.8Z"/></svg>