<svg viewBox="64 64 896 896" focusable="false"><path d="M492.8 64h38.4Q544 64 544 76.8v166.4q0 12.8-12.8 12.8h-38.4q-12.8 0-12.8-12.8V76.8Q480 64 492.8 64Zm226.572 50.43 33.256 19.2q11.085 6.4 4.685 17.485l-83.2 144.106q-6.4 11.085-17.485 4.685l-33.256-19.2q-11.085-6.4-4.685-17.485l83.2-144.106q6.4-11.085 17.485-4.685ZM890.37 271.372l19.2 33.256q6.4 11.085-4.685 17.485l-144.106 83.2q-11.085 6.4-17.485-4.685l-19.2-33.256q-6.4-11.085 4.685-17.485l144.106-83.2q11.085-6.4 17.485 4.685ZM960 492.8v38.4q0 12.8-12.8 12.8H780.8q-12.8 0-12.8-12.8v-38.4q0-12.8 12.8-12.8h166.4q12.8 0 12.8 12.8Zm-50.43 226.572-19.2 33.256q-6.4 11.085-17.485 4.685l-144.106-83.2q-11.085-6.4-4.685-17.485l19.2-33.256q6.4-11.085 17.485-4.685l144.106 83.2q11.085 6.4 4.685 17.485ZM752.628 890.37l-33.256 19.2q-11.085 6.4-17.485-4.685l-83.2-144.106q-6.4-11.085 4.685-17.485l33.256-19.2q11.085-6.4 17.485 4.685l83.2 144.106q6.4 11.085-4.685 17.485ZM531.2 960h-38.4q-12.8 0-12.8-12.8V780.8q0-12.8 12.8-12.8h38.4q12.8 0 12.8 12.8v166.4q0 12.8-12.8 12.8Zm-226.572-50.43-33.256-19.2q-11.085-6.4-4.685-17.485l83.2-144.106q6.4-11.085 17.485-4.685l33.256 19.2q11.085 6.4 4.685 17.485l-83.2 144.106q-6.4 11.085-17.485 4.685ZM133.63 752.628l-19.2-33.256q-6.4-11.085 4.685-17.485l144.106-83.2q11.085-6.4 17.485 4.685l19.2 33.256q6.4 11.085-4.685 17.485l-144.106 83.2q-11.085 6.4-17.485-4.685ZM64 531.2v-38.4Q64 480 76.8 480h166.4q12.8 0 12.8 12.8v38.4q0 12.8-12.8 12.8H76.8Q64 544 64 531.2Zm50.43-226.572 19.2-33.256q6.4-11.085 17.485-4.685l144.106 83.2q11.085 6.4 4.685 17.485l-19.2 33.256q-6.4 11.085-17.485 4.685l-144.106-83.2q-11.085-6.4-4.685-17.485ZM271.372 133.63l33.256-19.2q11.085-6.4 17.485 4.685l83.2 144.106q6.4 11.085-4.685 17.485l-33.256 19.2q-11.085 6.4-17.485-4.685l-83.2-144.106q-6.4-11.085 4.685-17.485Z"/></svg>