<?xml version="1.0" standalone="no"?><!DOCTYPE svg PUBLIC "-//W3C//DTD SVG 1.1//EN" "http://www.w3.org/Graphics/SVG/1.1/DTD/svg11.dtd"><svg t="1608296485362" class="icon" viewBox="0 0 1024 1024" version="1.1" xmlns="http://www.w3.org/2000/svg" p-id="5578" xmlns:xlink="http://www.w3.org/1999/xlink" width="200" height="200"><defs><style type="text/css"></style></defs><path d="M384 170.666c0-70.688 57.312-128 128-128s128 57.312 128 128-57.312 128-128 128-128-57.312-128-128z m271.52 112.48c0-70.688 57.312-128 128-128s128 57.312 128 128-57.312 128-128 128-128-57.312-128-128zM832 554.666c0-35.36 28.64-64 64-64s64 28.64 64 64-28.64 64-64 64-64-28.64-64-64z m-112.48 271.52c0-35.36 28.64-64 64-64s64 28.64 64 64-28.64 64-64 64-64-28.64-64-64zM448 938.666c0-35.36 28.64-64 64-64s64 28.64 64 64-28.64 64-64 64-64-28.64-64-64z m-271.52-112.48c0-35.36 28.64-64 64-64s64 28.64 64 64-28.64 64-64 64-64-28.64-64-64z m-32-543.04c0-53.024 42.976-96 96-96s96 42.976 96 96-42.976 96-96 96-96-42.976-96-96zM56 554.666c0-39.776 32.224-72 72-72s72 32.224 72 72-32.224 72-72 72-72-32.224-72-72z" p-id="5579"></path></svg>