<svg viewBox="0 0 1024 1024" focusable="false"><path d="M512 64a384 384 0 0 1 286.208 640l-277.76 248.512a12.8 12.8 0 0 1-16.896 0L225.792 704A384 384 0 0 1 512 64zm0 64a320 320 0 0 0-249.344 520.576l10.816 12.736 12.736 14.272L511.872 874.56l200.576-177.088c4.992-4.032 9.792-8.192 15.104-12.992l8.384-7.808 4.032-3.648 10.56-11.712a318.336 318.336 0 0 0 81.024-196.288L832 448a320 320 0 0 0-320-320z"/><path d="M512 256a128 128 0 1 1 0 256 128 128 0 0 1 0-256zm0 64a64 64 0 1 0 0 128 64 64 0 0 0 0-128z"/></svg>