<svg viewBox="0 0 1024 1024" focusable="false"><path fill-rule="evenodd" d="M768 283.428V384h115.2c7.072 0 12.8 5.73 12.8 12.8v550.4c0 7.072-5.728 12.8-12.8 12.8H140.8c-7.07 0-12.8-5.728-12.8-12.8V396.8c0-7.07 5.73-12.8 12.8-12.8H256V283.428C256 162.241 370.615 64 512 64s256 98.241 256 219.428Zm-64-1.828V384H320V281.6l.326-9.025C326.166 191.945 409.748 128 512 128l11.281.26C624.07 132.932 704 199.8 704 281.6ZM192 448h640v448H192V448Zm448 134.4v51.2c0 3.535-5.73 6.4-12.8 6.4H396.8c-7.07 0-12.8-2.865-12.8-6.4v-51.2c0-3.535 5.73-6.4 12.8-6.4h230.4c7.07 0 12.8 2.865 12.8 6.4Z"/></svg>