<svg viewBox="64 64 896 896" focusable="false"><path d="M512 64c141.44 0 256 98.24 256 219.456V384h115.2c7.04 0 12.8 5.76 12.8 12.8v550.4a12.8 12.8 0 0 1-12.8 12.8H140.8a12.8 12.8 0 0 1-12.8-12.8V396.8c0-7.04 5.76-12.8 12.8-12.8H256V283.456C256 162.24 370.56 64 512 64zm320 384H192v448h640V448zM627.2 576c7.04 0 12.8 5.76 12.8 12.8v102.4a12.8 12.8 0 0 1-12.8 12.8H396.8a12.8 12.8 0 0 1-12.8-12.8V588.8c0-7.04 5.76-12.8 12.8-12.8h230.4zM512 128c-102.272 0-185.856 64-191.68 144.576L320 281.6V384h384V281.6c0-81.792-79.936-148.672-180.736-153.344L512 128z"/></svg>