<svg viewBox="0 0 1024 1024" focusable="false"><g fill-rule="evenodd"><path d="M512 64c141.385 0 256 98.241 256 219.428V384h115.2c7.072 0 12.8 5.73 12.8 12.8v550.4c0 7.072-5.728 12.8-12.8 12.8H140.8c-7.07 0-12.8-5.728-12.8-12.8V396.8c0-7.07 5.73-12.8 12.8-12.8H256V283.428C256 162.241 370.615 64 512 64Zm320 384H192v448h640V448ZM512 128c-101.229 0-184.16 62.672-191.476 142.16l-.198 2.415L320 281.6V384h384V281.6c0-80.983-78.34-147.329-177.701-153.18l-3.018-.16L512 128Z"/><path d="M640 582.4v51.2c0 3.535-5.73 6.4-12.8 6.4H396.8c-7.07 0-12.8-2.865-12.8-6.4v-51.2c0-3.535 5.73-6.4 12.8-6.4h230.4c7.07 0 12.8 2.865 12.8 6.4Z"/></g></svg>