<svg viewBox="0 0 1024 1024" focusable="false"><path fill-rule="evenodd" d="M512 960c247.424 0 448-200.576 448-448 0-247.423-200.576-448-448-448-166.228 0-318.179 91.962-395.628 237.798C111.964 310.1 118.067 320 127.467 320h44.59c4.572 0 8.749-2.39 11.11-6.305C252.56 198.606 377.254 128 512 128c212.077 0 384 171.923 384 384S724.077 896 512 896c-134.746 0-259.44-70.605-328.833-185.696-2.361-3.917-6.538-6.304-11.11-6.304h-44.59c-9.4 0-15.503 9.9-11.095 18.202C193.822 868.038 345.772 960 512 960Zm-44.419-298.74 220.733-137.213c8.056-5.008 8.056-16.305 0-21.313L467.58 365.522c-8.526-5.3-19.514 1.09-19.514 11.13V480H76.8c-7.07 0-12.8 5.73-12.8 12.8v38.4c0 7.07 5.73 12.8 12.8 12.8h371.267v106.13c0 10.039 10.988 16.43 19.514 11.13Z"/></svg>