<svg viewBox="0 0 1024 1024" focusable="false"><path fill-rule="evenodd" d="M511.922 960c247.425 0 448.001-200.576 448.001-448 0-247.423-200.576-448-448.001-448-166.228 0-318.179 91.962-395.628 237.798C111.886 310.1 117.99 320 127.39 320h44.59c4.572 0 8.749-2.39 11.11-6.305C252.483 198.606 377.176 128 511.922 128 724 128 895.923 299.923 895.923 512S724 896 511.922 896c-134.746 0-259.44-70.605-328.833-185.696-2.361-3.917-6.538-6.304-11.11-6.304h-44.59c-9.4 0-15.503 9.9-11.095 18.202C193.744 868.038 345.694 960 511.922 960ZM290.388 365.548 70.042 502.52c-8.056 5.008-8.056 16.733 0 21.742l220.346 136.971c8.526 5.3 19.558-.831 19.558-10.87V544h381.176c7.069 0 12.8-5.73 12.8-12.8v-38.4c0-7.07-5.731-12.8-12.8-12.8H309.946V376.42c0-10.04-11.032-16.172-19.558-10.872Z"/></svg>