<svg viewBox="0 0 1024 1024" focusable="false"><path d="M896 140.8v294.4a12.8 12.8 0 0 1-12.8 12.8H140.8a12.8 12.8 0 0 1-12.8-12.8V140.8c0-7.04 5.76-12.8 12.8-12.8h742.4c7.04 0 12.8 5.76 12.8 12.8zM819.2 192H204.8a12.8 12.8 0 0 0-12.8 12.8v166.4c0 7.04 5.76 12.8 12.8 12.8h614.4a12.8 12.8 0 0 0 12.8-12.8V204.8a12.8 12.8 0 0 0-12.8-12.8zM896 524.8v294.4a12.8 12.8 0 0 1-12.8 12.8H140.8a12.8 12.8 0 0 1-12.8-12.8V524.8c0-7.04 5.76-12.8 12.8-12.8h742.4c7.04 0 12.8 5.76 12.8 12.8zM819.2 576H204.8a12.8 12.8 0 0 0-12.8 12.8v166.4c0 7.04 5.76 12.8 12.8 12.8h614.4a12.8 12.8 0 0 0 12.8-12.8V588.8a12.8 12.8 0 0 0-12.8-12.8z"/></svg>