<?xml version="1.0" standalone="no"?><!DOCTYPE svg PUBLIC "-//W3C//DTD SVG 1.1//EN" "http://www.w3.org/Graphics/SVG/1.1/DTD/svg11.dtd"><svg class="icon" width="200px" height="200.00px" viewBox="0 0 1024 1024" version="1.1" xmlns="http://www.w3.org/2000/svg"><path fill="#333333" d="M96 192h832c17.673 0 32 14.327 32 32 0 17.673-14.327 32-32 32H96c-17.673 0-32-14.327-32-32 0-17.673 14.327-32 32-32z m0 640h832c17.673 0 32 14.327 32 32 0 17.673-14.327 32-32 32H96c-17.673 0-32-14.327-32-32 0-17.673 14.327-32 32-32z m0-320h448c17.673 0 32 14.327 32 32 0 17.673-14.327 32-32 32H96c-17.673 0-32-14.327-32-32 0-17.673 14.327-32 32-32z m683.8 41.833a12.753 12.753 0 0 1-1.639-1.639c-4.526-5.43-3.792-13.502 1.639-18.027l159.206-132.672c2.3-1.917 5.2-2.966 8.194-2.966 7.069 0 12.8 5.73 12.8 12.8v265.343a12.8 12.8 0 0 1-2.967 8.194c-4.525 5.431-12.597 6.164-18.027 1.639L779.8 553.833z" /></svg>