<svg viewBox="64 64 896 896" focusable="false"><path d="M896 140.8v38.4a12.8 12.8 0 0 1-12.8 12.8H140.8a12.8 12.8 0 0 1-12.8-12.8v-38.4c0-7.04 5.76-12.8 12.8-12.8h742.4c7.04 0 12.8 5.76 12.8 12.8zm0 128v38.4a12.8 12.8 0 0 1-12.8 12.8H140.8a12.8 12.8 0 0 1-12.8-12.8v-38.4c0-7.04 5.76-12.8 12.8-12.8h742.4c7.04 0 12.8 5.76 12.8 12.8zm0 128v38.4a12.8 12.8 0 0 1-12.8 12.8H140.8a12.8 12.8 0 0 1-12.8-12.8v-38.4c0-7.04 5.76-12.8 12.8-12.8h742.4c7.04 0 12.8 5.76 12.8 12.8zm0 128v38.4a12.8 12.8 0 0 1-12.8 12.8H140.8a12.8 12.8 0 0 1-12.8-12.8v-38.4c0-7.04 5.76-12.8 12.8-12.8h742.4c7.04 0 12.8 5.76 12.8 12.8zm0 128v38.4a12.8 12.8 0 0 1-12.8 12.8H140.8a12.8 12.8 0 0 1-12.8-12.8v-38.4c0-7.04 5.76-12.8 12.8-12.8h742.4c7.04 0 12.8 5.76 12.8 12.8zm0 128v38.4a12.8 12.8 0 0 1-12.8 12.8H140.8a12.8 12.8 0 0 1-12.8-12.8v-38.4c0-7.04 5.76-12.8 12.8-12.8h742.4c7.04 0 12.8 5.76 12.8 12.8z"/></svg>