<svg viewBox="0 0 1024 1024" focusable="false"><path d="M888.32 768c4.224 0 7.68 3.2 7.68 7.104v49.792c.064 3.84-3.328 7.04-7.68 7.104H135.68c-4.352-.064-7.744-3.264-7.68-7.104v-49.792c0-3.904 3.456-7.104 7.68-7.104h752.64zM896 392.576v238.848c0 7.168-7.872 11.264-13.248 6.784l-143.68-119.36a8.832 8.832 0 0 1 0-13.44l143.68-119.552c5.376-4.48 13.248-.448 13.248 6.72zM631.68 576c4.608 0 8.32 3.2 8.32 7.104v49.792c.064 3.84-3.584 7.04-8.32 7.104H136.32c-4.736-.064-8.384-3.264-8.32-7.104V583.04c0-3.84 3.712-7.104 8.32-7.104h495.36zm0-192c4.608 0 8.32 3.2 8.32 7.104v49.792c.064 3.84-3.584 7.04-8.32 7.104H136.32c-4.736-.064-8.384-3.264-8.32-7.104V391.04c0-3.84 3.712-7.104 8.32-7.104h495.36zm256.64-192c4.224 0 7.68 3.2 7.68 7.104v49.792c.064 3.84-3.328 7.04-7.68 7.104H135.68c-4.352-.064-7.744-3.264-7.68-7.104V199.04c0-3.84 3.456-7.04 7.68-7.04h752.64z"/></svg>