<?xml version="1.0" standalone="no"?><!DOCTYPE svg PUBLIC "-//W3C//DTD SVG 1.1//EN" "http://www.w3.org/Graphics/SVG/1.1/DTD/svg11.dtd"><svg class="icon" width="200px" height="200.00px" viewBox="0 0 1024 1024" version="1.1" xmlns="http://www.w3.org/2000/svg"><path fill="#333333" d="M96 192h832c17.673 0 32 14.327 32 32 0 17.673-14.327 32-32 32H96c-17.673 0-32-14.327-32-32 0-17.673 14.327-32 32-32z m0 640h832c17.673 0 32 14.327 32 32 0 17.673-14.327 32-32 32H96c-17.673 0-32-14.327-32-32 0-17.673 14.327-32 32-32z m0-320h448c17.673 0 32 14.327 32 32 0 17.673-14.327 32-32 32H96c-17.673 0-32-14.327-32-32 0-17.673 14.327-32 32-32z m852.2 41.833L788.994 686.505c-5.43 4.525-13.502 3.792-18.027-1.639a12.8 12.8 0 0 1-2.967-8.194V411.328c0-7.069 5.731-12.8 12.8-12.8a12.8 12.8 0 0 1 8.194 2.967L948.2 534.167c5.431 4.525 6.165 12.597 1.639 18.027a12.753 12.753 0 0 1-1.639 1.639z" /></svg>