<svg viewBox="0 0 1024 1024" focusable="false"><g fill-rule="evenodd"><path d="M512 64c247.424 0 448 200.577 448 448 0 247.424-200.576 448-448 448-247.423 0-448-200.576-448-448C64 264.577 264.577 64 512 64Zm0 64c-212.077 0-384 171.923-384 384s171.923 384 384 384 384-171.923 384-384-171.923-384-384-384Z"/><path d="M753.926 545.414H267.238c-7.069 0-12.656-5.563-12.656-12.632v-38.736c0-7.07 5.587-12.632 12.656-12.632h486.688c7.066 0 12.653 5.563 12.653 12.632v38.736c0 7.069-5.587 12.632-12.653 12.632Z"/></g></svg>