<svg viewBox="0 0 1024 1024" focusable="false"><path fill-rule="evenodd" d="M499.2 960h-38.4c-7.07 0-12.8-5.728-12.8-12.8V76.8c0-7.07 5.73-12.8 12.8-12.8h38.4c7.07 0 12.8 5.73 12.8 12.8v870.4c0 7.072-5.73 12.8-12.8 12.8ZM374.305 827.411l-294.4 73.6C71.824 903.027 64 896.921 64 888.59V135.41c0-8.327 7.826-14.437 15.904-12.417l294.4 73.6A12.8 12.8 0 0 1 384 209.009v605.98a12.806 12.806 0 0 1-9.695 12.422Zm211.39 0 294.401 73.6c8.077 2.016 15.904-4.09 15.904-12.422v-753.18c0-8.327-7.827-14.437-15.904-12.417l-294.4 73.6A12.8 12.8 0 0 0 576 209.009v605.98a12.806 12.806 0 0 0 9.695 12.422Zm-265.758-52.435V248.961l-192-48v622.015l192-48Zm320.126 0V248.961l192.001-48v622.015l-192.001-48Z"/></svg>