<svg viewBox="0 0 1024 1024" focusable="false"><path d="M512 76.8v870.4a12.8 12.8 0 0 1-12.8 12.8h-38.4a12.8 12.8 0 0 1-12.8-12.8V76.8c0-7.04 5.76-12.8 12.8-12.8h38.4c7.04 0 12.8 5.76 12.8 12.8zM64 135.424v753.152a12.8 12.8 0 0 0 15.936 12.416l294.4-73.6A12.8 12.8 0 0 0 384 814.976V209.024a12.8 12.8 0 0 0-9.664-12.416l-294.4-73.6A12.8 12.8 0 0 0 64 135.424zm63.936 65.536 192 48v526.016l-192 48V200.96zM896 135.424v753.152a12.8 12.8 0 0 1-15.936 12.416l-294.4-73.6A12.8 12.8 0 0 1 576 814.976V209.024a12.8 12.8 0 0 1 9.664-12.416l294.4-73.6A12.8 12.8 0 0 1 896 135.424zm-63.936 65.536-192 48v526.016l192 48V200.96z"/></svg>