<svg viewBox="0 0 1024 1024" focusable="false"><g fill-rule="evenodd"><path d="M448 96c212.077 0 384 171.923 384 384 0 82.976-26.88 163.72-76.608 230.142l154.182 154.184c4.999 4.999 4.999 13.101 0 18.1L882.42 909.58c-4.998 4.998-13.1 4.998-18.099 0L712.82 758.08A384.012 384.012 0 0 1 448 864C235.923 864 64 692.077 64 480S235.923 96 448 96Zm0 64c-176.73 0-320 143.27-320 320s143.27 320 320 320 320-143.27 320-320-143.27-320-320-320Z"/><path d="M470.628 547.885 343.914 421.172c-4.998-4.999-4.998-13.104 0-18.102l162.918-162.918c4.998-4.998 13.103-4.998 18.102 0l27.152 27.154c5 4.998 5 13.103 0 18.101L425.373 412.121l126.713 126.714c5 4.998 5 13.103 0 18.101L389.17 719.853c-4.999 5-13.103 5-18.101 0l-27.154-27.152c-4.998-4.999-4.998-13.104 0-18.102l126.714-126.714Z"/></g></svg>