<svg viewBox="0 0 1024 1024" focusable="false"><path d="M448 96a384 384 0 1 0 0 768 384 384 0 0 0 0-768zm0 64a320 320 0 1 1 0 640 320 320 0 0 1 0-640z"/><path d="M726.656 681.344 909.568 864.32a12.8 12.8 0 0 1 0 18.112l-27.136 27.136a12.8 12.8 0 0 1-18.112 0L681.344 726.656l45.312-45.312zM552.064 285.44 434.432 403.008a12.8 12.8 0 0 0 0 18.112l117.632 117.632a12.8 12.8 0 0 1 0 18.112l-162.88 162.944a12.8 12.8 0 0 1-18.112 0l-27.136-27.2a12.8 12.8 0 0 1 0-18.048l117.632-117.696a12.8 12.8 0 0 0 0-18.112L343.936 421.184a12.8 12.8 0 0 1 0-18.112l162.88-162.944a12.8 12.8 0 0 1 18.112 0l27.136 27.2a12.8 12.8 0 0 1 0 18.048z"/></svg>