<svg viewBox="0 0 1024 1024" focusable="false"><path fill-rule="evenodd" d="M890.24 768c3.168 0 5.761 3.186 5.761 7.111v49.778c.05 3.843-2.523 7.018-5.761 7.111H325.76c-3.241-.093-5.813-3.268-5.761-7.111v-49.778c0-3.925 2.594-7.111 5.762-7.111H890.24Zm-640 0c3.168 0 5.76 3.186 5.76 7.111v49.778c.051 3.843-2.522 7.018-5.76 7.111H133.76c-3.241-.093-5.813-3.268-5.761-7.111v-49.778c0-3.925 2.594-7.111 5.762-7.111H250.24Zm640-256c3.168 0 5.761 3.186 5.761 7.111v49.778c.05 3.843-2.523 7.018-5.761 7.111H325.76c-3.241-.093-5.813-3.268-5.761-7.111v-49.778c0-3.925 2.594-7.111 5.762-7.111H890.24Zm-640 0c3.168 0 5.76 3.186 5.76 7.111v49.778c.051 3.843-2.522 7.018-5.76 7.111H133.76c-3.241-.093-5.813-3.268-5.761-7.111v-49.778c0-3.925 2.594-7.111 5.762-7.111H250.24Zm640-256c3.168 0 5.761 3.186 5.761 7.111v49.778c.05 3.843-2.523 7.018-5.761 7.111H325.76c-3.241-.093-5.813-3.268-5.761-7.111V263.11c0-3.925 2.594-7.111 5.762-7.111H890.24Zm-640 0c3.168 0 5.76 3.186 5.76 7.111v49.778c.051 3.843-2.522 7.018-5.76 7.111H133.76c-3.241-.093-5.813-3.268-5.761-7.111V263.11c0-3.925 2.594-7.111 5.762-7.111H250.24Z"/></svg>