<svg viewBox="0 0 1024 1024" focusable="false"><path fill-rule="evenodd" d="M896 371.254V261.733a12.8 12.8 0 0 0-3.752-9.054L707.262 67.804a12.8 12.8 0 0 0-9.047-3.747L140.8 64.001c-5.891 0-10.853 3.978-12.344 9.395L128 76.8v870.458c0 7.069 5.73 12.8 12.8 12.8h230.4c7.07 0 12.8-5.731 12.8-12.8v-38.4c0-7.07-5.73-12.8-12.8-12.8H192.001v-768.32l448-4.16v183.616c0 7.07 5.731 12.8 12.8 12.8H832v51.26c0 7.07 5.73 12.8 12.8 12.8h38.4c7.07 0 12.8-5.73 12.8-12.8ZM703.743 154.771l101.511 101.452L704 255.994l-.257-101.223ZM672 384.054c159.06 0 288 128.942 288 288 0 159.056-128.94 288.004-288 288.004-159.058 0-288-128.948-288-288.004 0-159.058 128.942-288 288-288Zm-416 115.2v-38.4c0-7.068 5.73-12.8 12.8-12.8h102.4c7.07 0 12.8 5.732 12.8 12.8v38.4c0 7.07-5.73 12.8-12.8 12.8H268.8c-7.07 0-12.8-5.73-12.8-12.8Zm416-51.2c123.712 0 224 100.289 224 224 0 123.716-100.288 224.004-224 224.004S448 795.77 448 672.054c0-123.711 100.288-224 224-224Zm-150.949 210.12 140.29-140.29c4-3.999 9.986-4.799 14.78-2.4l3.322 2.4 27.153 27.153c4.998 5 4.998 13.104 0 18.102l-76.915 76.915H819.2c7.07 0 12.8 5.731 12.8 12.8v38.404c0 7.069-5.73 12.8-12.8 12.8H639.34l67.256 67.256c4.998 4.999 4.998 13.103 0 18.102l-27.153 27.152c-3.999 4-9.985 4.799-14.78 2.4l-3.322-2.4-140.29-140.291c-4.999-5-4.999-13.104 0-18.102ZM256 627.255v-38.4c0-7.068 5.73-12.8 12.8-12.8h38.4c7.07 0 12.8 5.732 12.8 12.8v38.4c0 7.07-5.73 12.8-12.8 12.8h-38.4c-7.07 0-12.8-5.73-12.8-12.8Zm0 128.004v-38.4c0-7.072 5.73-12.8 12.8-12.8h38.4c7.07 0 12.8 5.728 12.8 12.8v38.4c0 7.065-5.73 12.8-12.8 12.8h-38.4c-7.07 0-12.8-5.735-12.8-12.8Z"/></svg>