<svg viewBox="0 0 1024 1024" focusable="false"><g fill-rule="evenodd"><path d="m140.8 64.001 557.415.056A12.8 12.8 0 0 1 707 67.551l.26.253 184.987 184.875a12.829 12.829 0 0 1 3.752 8.69v109.885c0 6.967-5.566 12.634-12.493 12.797l-.307.003h-38.4c-6.967 0-12.634-5.565-12.796-12.493l-.004-.307v-51.26H652.801c-6.967 0-12.633-5.566-12.796-12.493l-.004-.307V123.578l-448 4.16v768.32H371.2c6.967 0 12.634 5.565 12.796 12.493l.004.307v38.4c0 6.966-5.566 12.633-12.493 12.8H140.8c-6.967 0-12.634-5.566-12.8-12.494V76.8l.456-3.404c1.464-5.319 6.274-9.25 12.024-9.395h.32Zm562.943 90.77L704 255.994l101.254.23-101.51-101.453Z"/><path d="M672 384.054c159.06 0 288 128.942 288 288 0 159.056-128.94 288.004-288 288.004-159.058 0-288-128.948-288-288.004 0-159.058 128.942-288 288-288Zm0 64c-123.712 0-224 100.289-224 224 0 123.716 100.288 224.004 224 224.004S896 795.77 896 672.054c0-123.711-100.288-224-224-224ZM256 499.254v-38.4c0-7.068 5.73-12.8 12.8-12.8h102.4c7.07 0 12.8 5.732 12.8 12.8v38.4c0 7.07-5.73 12.8-12.8 12.8H268.8c-7.07 0-12.8-5.73-12.8-12.8Z"/><path d="m521.051 658.175 140.29-140.29c4-4 9.986-4.8 14.78-2.4l3.322 2.4 27.153 27.152c4.998 5 4.998 13.104 0 18.102l-76.915 76.915H819.2c7.07 0 12.8 5.731 12.8 12.8v38.404c0 7.069-5.73 12.8-12.8 12.8H639.34l67.256 67.256c4.998 4.999 4.998 13.103 0 18.102l-27.153 27.152c-3.999 4-9.985 4.799-14.78 2.4l-3.322-2.4-140.29-140.291c-4.999-5-4.999-13.104 0-18.102ZM256 627.254v-38.4c0-7.068 5.73-12.8 12.8-12.8h38.4c7.07 0 12.8 5.732 12.8 12.8v38.4c0 7.07-5.73 12.8-12.8 12.8h-38.4c-7.07 0-12.8-5.73-12.8-12.8ZM256 755.258v-38.4c0-7.072 5.73-12.8 12.8-12.8h38.4c7.07 0 12.8 5.728 12.8 12.8v38.4c0 7.065-5.73 12.8-12.8 12.8h-38.4c-7.07 0-12.8-5.735-12.8-12.8Z"/></g></svg>