<svg viewBox="0 0 1024 1024" focusable="false"><path fill-rule="evenodd" d="M384 243.27V76.8c0-7.07 5.73-12.8 12.8-12.8h232.868c7.07 0 12.8 5.73 12.8 12.8v166.47c0 7.07-5.73 12.8-12.8 12.8H396.8c-7.07 0-12.8-5.73-12.8-12.8ZM140.8 64.07h166.4c7.07 0 12.8 5.731 12.8 12.8v38.4c0 7.07-5.73 12.8-12.8 12.8H192v768h179.2c7.07 0 12.8 5.728 12.8 12.8v38.4c0 7.072-5.73 12.8-12.8 12.8H140.8c-7.07 0-12.8-5.728-12.8-12.8V76.87c0-7.069 5.73-12.8 12.8-12.8Zm742.4 256h-38.4c-7.072 0-12.8-5.73-12.8-12.8v-179.2H716.8c-7.07 0-12.8-5.73-12.8-12.8v-38.4c0-7.069 5.73-12.8 12.8-12.8h166.4c7.072 0 12.8 5.731 12.8 12.8v230.4c0 7.07-5.728 12.8-12.8 12.8ZM448 192.01h130.432v-64.065H448v64.065Zm224 192.06c159.06 0 288 128.942 288 288 0 159.06-128.94 288-288 288-159.058 0-288-128.94-288-288 0-159.058 128.942-288 288-288Zm0 64c123.712 0 224 100.288 224 224s-100.288 224-224 224-224-100.288-224-224 100.288-224 224-224ZM520.362 681.123l140.29 140.291c4.999 4.999 13.104 4.999 18.102 0l27.153-27.155c4.999-4.998 4.999-13.1 0-18.099l-72.087-72.09H819.2c7.072 0 12.8-5.73 12.8-12.8v-38.4c0-7.069-5.728-12.8-12.8-12.8H633.822l72.085-72.085c4.999-4.998 4.999-13.102 0-18.101l-27.153-27.153c-4.998-5-13.103-5-18.102 0l-140.29 140.29c-4.999 4.998-4.999 13.103 0 18.102Z"/></svg>