<svg viewBox="64 64 896 896" focusable="false"><path d="M384 672a288 288 0 1 1 576 0 288 288 0 0 1-576 0zm64 0a224 224 0 1 0 448 0 224 224 0 0 0-448 0z"/><path d="M576 691.2v-38.4c0-7.04 5.76-12.8 12.8-12.8h230.4c7.04 0 12.8 5.76 12.8 12.8v38.4a12.8 12.8 0 0 1-12.8 12.8H588.8a12.8 12.8 0 0 1-12.8-12.8z"/><path d="m705.92 567.936-95.04 95.04a12.8 12.8 0 0 0 0 18.048l95.04 95.04a12.8 12.8 0 0 1 0 18.112l-27.136 27.136a12.8 12.8 0 0 1-18.112 0L520.32 681.024a12.8 12.8 0 0 1 0-18.048l140.288-140.288a12.8 12.8 0 0 1 18.112 0l27.136 27.136a12.8 12.8 0 0 1 0 18.112zM172.672 63.872H320v64H192V896h190.4v64H172.8a44.8 44.8 0 0 1-44.416-38.72L128 915.2V108.672c0-24.576 19.776-44.544 44.672-44.8zm457.024.064H396.8a12.8 12.8 0 0 0-12.8 12.8V243.2c0 7.04 5.76 12.8 12.8 12.8h232.896a12.8 12.8 0 0 0 12.8-12.8V76.736a12.8 12.8 0 0 0-12.8-12.8zm-51.264 76.736v38.464a12.8 12.8 0 0 1-12.8 12.8H460.8a12.8 12.8 0 0 1-12.8-12.8v-38.464c0-7.04 5.76-12.8 12.8-12.8h104.832c7.04 0 12.8 5.76 12.8 12.8zM851.2 64a44.8 44.8 0 0 1 44.416 38.72l.384 6.08V320h-64V127.936H706.24V64H851.2z"/></svg>