<svg viewBox="0 0 1024 1024" focusable="false"><path fill-rule="evenodd" d="m309.325 255.809 27.15 27.15c5 5 13.107 4.998 18.105-.003l94.112-94.17-.237 261.9-261.782 1.859 96.923-96.868c5.001-4.999 5.002-13.105.003-18.105l-27.15-27.15c-5-4.999-13.104-4.999-18.103 0L75.43 473.34c-4.999 4.998-4.999 13.102 0 18.101l162.917 162.917c5 5 13.104 5 18.103 0l27.155-27.155c4.998-4.998 4.999-13.1.002-18.099l-92.534-92.59 257.325-1.829-.233 257.718-93.584-93.52c-4.999-4.996-13.101-4.994-18.099.003l-27.156 27.156c-4.998 4.998-4.998 13.1 0 18.105L472.243 887.06c4.999 4.999 13.103 4.999 18.102 0l162.917-162.912c5-5.005 5-13.107 0-18.105l-27.156-27.156c-4.997-4.997-13.1-4.998-18.098-.002l-96.482 96.418.235-261.066 262.972-1.868-96.705 95.623c-5.026 4.97-5.072 13.074-.103 18.101l26.998 27.309c4.97 5.027 13.074 5.074 18.104.104l163.93-162.06c5.043-4.99 5.069-13.135.051-18.154L723.104 309.387c-4.998-5-13.105-5-18.103 0l-27.15 27.15c-5 5-4.999 13.107.003 18.104l93.813 93.749-259.847 1.846.237-263.282 95.95 96.002c4.998 5.001 13.105 5.002 18.105.003l27.15-27.15c5-5 5-13.104 0-18.103L490.345 74.79c-5-4.999-13.103-4.999-18.102 0L309.325 237.706c-4.998 5-4.998 13.104 0 18.103Z"/></svg>