<svg viewBox="64 64 896 896" focusable="false"><path d="m786.24 338.304 163.84 163.904a12.8 12.8 0 0 1 0 18.176L786.176 682.432a12.8 12.8 0 0 1-18.112-.064l-27.008-27.328a12.8 12.8 0 0 1 .128-18.112l118.144-116.864a12.8 12.8 0 0 0 .064-18.176l-118.4-118.336a12.8 12.8 0 0 1 0-18.048l27.136-27.2a12.8 12.8 0 0 1 18.112 0zM686.08 785.472 523.2 948.48a12.8 12.8 0 0 1-18.112 0L342.144 785.536a12.8 12.8 0 0 1 0-18.048l27.136-27.2a12.8 12.8 0 0 1 18.112 0l117.696 117.568a12.8 12.8 0 0 0 18.112 0l117.632-117.568a12.8 12.8 0 0 1 18.112 0l27.136 27.2a12.8 12.8 0 0 1 0 18.048zM283.52 387.584 165.76 505.216a12.8 12.8 0 0 0 0 18.112l117.696 117.76a12.8 12.8 0 0 1 0 18.048l-27.2 27.136a12.8 12.8 0 0 1-18.112 0L75.328 523.392a12.8 12.8 0 0 1 0-18.112l162.88-162.944a12.8 12.8 0 0 1 18.112 0l27.2 27.2a12.8 12.8 0 0 1 0 18.048zM686.08 255.68l-27.136 27.136a12.8 12.8 0 0 1-18.112 0L523.136 165.12a12.8 12.8 0 0 0-18.048 0L387.392 282.88a12.8 12.8 0 0 1-18.112 0l-27.136-27.136a12.8 12.8 0 0 1 0-18.112l162.944-162.88a12.8 12.8 0 0 1 18.112 0l162.88 162.88a12.8 12.8 0 0 1 0 18.112z"/><path d="M480.64 128H544l-.64 768H480z"/><path d="M874.56 476.992v64l-730.752 4.736v-64z"/></svg>