<svg viewBox="0 0 1024 1024" focusable="false"><g fill-rule="evenodd"><path d="M672 384c159.06 0 288 128.942 288 288 0 159.06-128.94 288-288 288-159.058 0-288-128.94-288-288 0-159.058 128.942-288 288-288Zm0 64c-123.712 0-224 100.288-224 224s100.288 224 224 224 224-100.288 224-224-100.288-224-224-224Z"/><path d="M423.953 64a12.8 12.8 0 0 1 8.79 3.496l.261.253L557.255 192h326.047c6.97 0 12.535 5.663 12.698 12.593V307.2c0 6.967-5.563 12.634-12.493 12.796l-.307.004h-38.4c-6.97 0-12.634-5.566-12.796-12.493L832 307.2V256H128v512h179.2c6.967 0 12.634 5.563 12.796 12.493l.004.307v38.4c0 6.97-5.566 12.634-12.493 12.8H76.697c-6.968 0-12.534-5.663-12.697-12.596V76.8c0-6.967 5.566-12.634 12.493-12.8h347.46Zm-21.201 64H128v64h338.752l-64-64Z"/><path d="M659.183 522.538c4.92-4.918 12.85-4.763 17.866.008l.24.234 140.049 140.046c4.917 4.919 4.997 13.078.238 18.101l-.238.245-140.05 140.044c-4.919 4.92-12.85 5.233-17.865.477l-.24-.234-27.394-27.392c-4.918-4.924-4.993-12.623-.232-17.63l.238-.245 72.2-72.192H524.736c-6.965 0-12.57-5.4-12.733-12.321l-.004-.311v-38.736c0-6.965 5.502-12.468 12.426-12.628l.311-.004H704l-72.204-72.205c-4.92-4.918-5.004-12.618-.244-17.626l.238-.244 27.394-27.387Z"/></g></svg>