<svg viewBox="0 0 1024 1024" focusable="false"><path fill-rule="evenodd" d="M64 76.8v742.298C64 826.17 69.627 832 76.696 832H307.2c7.07 0 12.8-5.728 12.8-12.8v-38.4c0-7.072-5.73-12.8-12.8-12.8H128V256h704v51.2c0 7.07 5.728 12.8 12.8 12.8h38.4c7.072 0 12.8-5.73 12.8-12.8V204.9c0-7.07-5.626-12.9-12.698-12.9H557.255L433.005 67.749A12.8 12.8 0 0 0 423.952 64H76.8C69.73 64 64 69.73 64 76.8ZM466.752 192H128v-64h274.752l64 64ZM384 672c0 159.06 128.942 288 288 288 159.06 0 288-128.94 288-288 0-159.058-128.94-288-288-288-159.058 0-288 128.942-288 288Zm64 0c0 123.712 100.288 224 224 224s224-100.288 224-224-100.288-224-224-224-224 100.288-224 224Zm369.338-9.174L677.289 522.78c-4.998-4.998-13.107-5.24-18.106-.242l-27.394 27.387c-5 5-4.994 12.871.006 17.87L703.999 640H524.737c-7.07 0-12.737 5.563-12.737 12.632v38.736c0 7.07 5.668 12.632 12.737 12.632h179.257l-72.2 72.192c-5 4.998-5.004 12.87-.005 17.875l27.394 27.392c4.998 4.999 13.107 4.755 18.105-.243l140.05-140.044c4.998-5 4.998-13.347 0-18.346Z"/></svg>