<svg viewBox="0 0 1024 1024" focusable="false"><path fill-rule="evenodd" d="M512.192 64.098a447.92 447.92 0 0 1 108.855 13.426 447.914 447.914 0 0 1 82.69 29.587l9.88 4.822 9.76 5.064A447.84 447.84 0 0 1 796.4 165.79a447.409 447.409 0 0 1 32.576 29.525 447.733 447.733 0 0 1 43.052 49.91 447.973 447.973 0 0 1 12.662 17.978l11.764 18.578a447.884 447.884 0 0 1 44.447 100.27 447.914 447.914 0 0 1 18.751 108.066 447.919 447.919 0 0 1-8.069 109.382 447.88 447.88 0 0 1-25.493 84.042 447.922 447.922 0 0 1-29.636 58.875l-11.764 18.579a446.428 446.428 0 0 1-12.662 17.977A450.49 450.49 0 0 1 858.5 796.31a447.982 447.982 0 0 1-29.524 32.57 446.99 446.99 0 0 1-32.576 29.53 449.986 449.986 0 0 1-17.335 13.529 452.296 452.296 0 0 1-17.978 12.659 444.67 444.67 0 0 1-18.577 11.763l-9.5 5.535-9.632 5.3a440.259 440.259 0 0 1-19.641 9.888A448.719 448.719 0 0 1 683.634 926a451.431 451.431 0 0 1-20.516 7.91 448.494 448.494 0 0 1-20.879 6.9 444.284 444.284 0 0 1-21.192 5.862 444.297 444.297 0 0 1-21.455 4.819 448.468 448.468 0 0 1-21.665 3.757 451.721 451.721 0 0 1-21.824 2.694 453.89 453.89 0 0 1-21.93 1.62 449.611 449.611 0 0 1-43.963 0 453.89 453.89 0 0 1-21.93-1.62 451.721 451.721 0 0 1-21.823-2.694 448.468 448.468 0 0 1-21.666-3.757 444.297 444.297 0 0 1-21.454-4.82 444.284 444.284 0 0 1-21.193-5.862 448.494 448.494 0 0 1-20.879-6.899A451.431 451.431 0 0 1 340.75 926a448.479 448.479 0 0 1-20.103-8.916l-9.88-4.82-9.763-5.068a451.08 451.08 0 0 1-19.13-10.835 445.016 445.016 0 0 1-18.578-11.763 450.72 450.72 0 0 1-17.978-12.66 447.563 447.563 0 0 1-33.984-27.891 445.11 445.11 0 0 1-15.923-15.167 445.11 445.11 0 0 1-15.168-15.924 447.563 447.563 0 0 1-27.891-33.984 450.722 450.722 0 0 1-12.66-17.977 445.016 445.016 0 0 1-11.763-18.58 451.08 451.08 0 0 1-10.835-19.129 441.948 441.948 0 0 1-9.888-19.643 448.48 448.48 0 0 1-8.915-20.102 451.431 451.431 0 0 1-7.91-20.515 448.495 448.495 0 0 1-6.9-20.88 444.284 444.284 0 0 1-5.862-21.192 444.297 444.297 0 0 1-4.82-21.455 448.469 448.469 0 0 1-3.756-21.665 451.722 451.722 0 0 1-2.695-21.824 453.891 453.891 0 0 1-1.619-21.93 449.611 449.611 0 0 1 0-43.963c.363-7.324.903-14.633 1.62-21.93.72-7.296 1.619-14.57 2.694-21.823a448.469 448.469 0 0 1 3.757-21.666 444.297 444.297 0 0 1 4.819-21.454 444.285 444.285 0 0 1 5.862-21.193 448.495 448.495 0 0 1 6.9-20.879 451.431 451.431 0 0 1 7.91-20.515 448.72 448.72 0 0 1 8.915-20.103 440.26 440.26 0 0 1 9.888-19.641 449.584 449.584 0 0 1 10.835-19.132 444.671 444.671 0 0 1 11.763-18.578 452.297 452.297 0 0 1 12.66-17.978 449.988 449.988 0 0 1 13.53-17.334 446.991 446.991 0 0 1 29.529-32.576 448.391 448.391 0 0 1 32.57-29.525 450.49 450.49 0 0 1 17.337-13.528 446.429 446.429 0 0 1 36.557-24.426l9.5-5.536 9.63-5.302a447.922 447.922 0 0 1 145.452-48.05 447.94 447.94 0 0 1 65.735-4.85Zm-71.518 762.058a587.133 587.133 0 0 1-72.69 23.585l-26.91 6.122 6.937 3.364a384.445 384.445 0 0 0 17.23 7.642 391.306 391.306 0 0 0 17.585 6.784 382.06 382.06 0 0 0 17.896 5.907 382.308 382.308 0 0 0 36.555 9.159 390.473 390.473 0 0 0 18.57 3.225 382.65 382.65 0 0 0 18.706 2.304c6.254.615 12.52 1.078 18.796 1.389a385.413 385.413 0 0 0 37.685 0 389.844 389.844 0 0 0 18.796-1.389 382.52 382.52 0 0 0 18.706-2.304 390.473 390.473 0 0 0 18.57-3.225 381.596 381.596 0 0 0 36.555-9.159l8.985-2.843 11.77-4.171-2.063-.803a589.254 589.254 0 0 1-74.409-35.904c-27.458 20.912-65.294 26.242-98.738 10.647-11.004-5.132-20.579-12.084-28.532-20.33Zm342.308-307.599a95.314 95.314 0 0 1-30.295 13.25c-35.62 75.77-87.331 143.51-151.659 197.987a95.26 95.26 0 0 1 2.055 52.35 506.242 506.242 0 0 0 30.715 16.016l24.097 10.72 63.255 25.384 4.38-2.883a380.238 380.238 0 0 0 15.41-10.854c5.048-3.742 10-7.606 14.859-11.59a386.735 386.735 0 0 0 14.271-12.314 381.378 381.378 0 0 0 13.65-12.999l6.583-6.742 6.414-6.903a387.188 387.188 0 0 0 12.31-14.272 385.989 385.989 0 0 0 11.597-14.86l5.52-7.639 5.332-7.773a383.949 383.949 0 0 0 19.373-32.321l4.34-8.365 4.135-8.47a384.382 384.382 0 0 0 7.638-17.23l6.782-17.585 2.352-6.934-44.403-61.265a522.277 522.277 0 0 0-48.711-54.708ZM237.695 403.983c-36.473 13.64-71.969 31.642-105.739 54.098l-1.915 16.378a389.845 389.845 0 0 0-1.389 18.797 385.413 385.413 0 0 0 0 37.684 389.72 389.72 0 0 0 1.39 18.796l2.303 18.706a390.475 390.475 0 0 0 3.226 18.57 381.596 381.596 0 0 0 9.158 36.555 382.06 382.06 0 0 0 5.907 17.897l6.784 17.584 3.716 8.662 3.926 8.569a377.303 377.303 0 0 0 8.474 16.835 382.95 382.95 0 0 0 9.286 16.398l4.947 8.026 5.14 7.897a379.086 379.086 0 0 0 10.854 15.412 385.42 385.42 0 0 0 11.59 14.86l6.07 7.21 6.244 7.062a380.849 380.849 0 0 0 12.998 13.645 380.85 380.85 0 0 0 13.645 12.999l11.064 9.648 68.778-14.361 12.813-2.888a522.437 522.437 0 0 0 67.276-21.255c-1.233-12.99.246-26.34 4.663-39.261l4.144-10.185c-69.72-78.103-117.08-173.594-137.423-275.676l-7.348-2.964c-17.316-8.075-31.092-20.657-40.582-35.698Zm175.256-32.839c-1.358 7.517-3.744 14.912-7.097 22.103-11.273 24.173-31.33 41.447-54.597 49.792 19.016 84.858 59.252 164.191 117.085 229.954 25.05-12.058 54.964-13.129 82.007-.518a96.855 96.855 0 0 1 11.558 6.378c50.9-43.419 92.798-96.373 123.536-155.425-36.175-18.914-55.54-58.084-50.653-96.897l1.421-8.304-8.258-3.79c-67.826-29.494-141.238-44.221-215.002-43.293Zm394.99-104.053a580.406 580.406 0 0 1-6.782 106.97c22.435 24.656 30.873 60.02 20.59 92.947a587.59 587.59 0 0 1 59.037 65.13l13.5 18.176a389.196 389.196 0 0 0 1.443-19.374l.347-9.418.116-9.424a383.817 383.817 0 0 0-1.85-37.639l-2.306-18.706a383.544 383.544 0 0 0-7.352-36.96 383.802 383.802 0 0 0-10.94-36.061l-6.782-17.585-3.714-8.662-3.924-8.568a384.312 384.312 0 0 0-17.765-33.235l-4.943-8.023-5.14-7.9a384.066 384.066 0 0 0-10.852-15.41l-5.707-7.5-6.977-8.758Zm-518.993-67.533-5.505 4.108a385.989 385.989 0 0 0-14.86 11.596 388.397 388.397 0 0 0-14.273 12.31l-13.645 12.997-6.584 6.745-6.414 6.905a386.738 386.738 0 0 0-12.314 14.272 384.028 384.028 0 0 0-11.59 14.858l-5.523 7.638-5.332 7.772a389.12 389.12 0 0 0-10.086 15.923 383.517 383.517 0 0 0-9.286 16.4l-4.343 8.365-8.057 17.038-5.953 13.989a581.37 581.37 0 0 1 68.416-29.513c1.138-9.74 3.867-19.471 8.243-28.857 9.848-21.118 26.4-36.97 45.94-46.204a581.502 581.502 0 0 1 11.166-66.342Zm223.244-71.46a383.817 383.817 0 0 0-56.345 4.156 383.544 383.544 0 0 0-36.96 7.352 383.803 383.803 0 0 0-18.165 5.027l-8.984 2.846-8.912 3.066a384.21 384.21 0 0 0-14.656 5.584.572.572 0 0 0-.147.076l-.616 1.757c-11.727 33.652-19.789 67.754-24.385 101.853l7.832 2.346 8.565 3.509c19.56 9.12 34.601 23.992 44.052 41.662 91.85-2.524 183.46 16.613 266.827 56.037 19.655-15.65 45.05-23.125 70.394-20.3 5.409-46.17 4.574-93.85-3.144-141.907l-12.017-8.349a384.048 384.048 0 0 0-15.924-10.083l-16.399-9.29-16.835-8.474a384.382 384.382 0 0 0-34.816-14.42 383.128 383.128 0 0 0-36.061-10.94 383.667 383.667 0 0 0-36.96-7.352 384.113 384.113 0 0 0-56.344-4.156Z"/></svg>