<svg viewBox="0 0 1024 1024" focusable="false"><path d="M896 140.8v166.4a12.8 12.8 0 0 1-12.8 12.8H140.8a12.8 12.8 0 0 1-12.8-12.8V140.8c0-7.04 5.76-12.8 12.8-12.8h742.4c7.04 0 12.8 5.76 12.8 12.8zM819.2 192H204.8a12.8 12.8 0 0 0-12.8 12.8v38.4c0 7.04 5.76 12.8 12.8 12.8h614.4a12.8 12.8 0 0 0 12.8-12.8v-38.4a12.8 12.8 0 0 0-12.8-12.8zM896 396.8v166.4a12.8 12.8 0 0 1-12.8 12.8H140.8a12.8 12.8 0 0 1-12.8-12.8V396.8c0-7.04 5.76-12.8 12.8-12.8h742.4c7.04 0 12.8 5.76 12.8 12.8zM819.2 448H204.8a12.8 12.8 0 0 0-12.8 12.8v38.4c0 7.04 5.76 12.8 12.8 12.8h614.4a12.8 12.8 0 0 0 12.8-12.8v-38.4a12.8 12.8 0 0 0-12.8-12.8zM896 652.8v166.4a12.8 12.8 0 0 1-12.8 12.8H140.8a12.8 12.8 0 0 1-12.8-12.8V652.8c0-7.04 5.76-12.8 12.8-12.8h742.4c7.04 0 12.8 5.76 12.8 12.8zM819.2 704H204.8a12.8 12.8 0 0 0-12.8 12.8v38.4c0 7.04 5.76 12.8 12.8 12.8h614.4a12.8 12.8 0 0 0 12.8-12.8v-38.4a12.8 12.8 0 0 0-12.8-12.8z"/></svg>