<svg viewBox="0 0 1024 1024" focusable="false"><path d="M593.536 64c7.04 0 12.8 5.76 12.8 12.8v131.072A288.128 288.128 0 0 1 799.872 480v178.752l151.424 151.424A12.8 12.8 0 0 1 942.272 832H668.8a159.808 159.808 0 0 1-313.216 0H80.32a12.8 12.8 0 0 1-8.896-22.016l152.448-147.136V480c0-124.8 79.36-231.04 190.4-271.04V76.8c0-7.04 5.76-12.8 12.8-12.8h166.4zm9.472 768H421.952a96 96 0 0 0 181.056 0zm-91.136-576a224 224 0 0 0-224 224v210.112L207.104 768h611.52l-82.752-82.752V480a224 224 0 0 0-224-224zm32.384-128h-64.128v65.728c6.016-.64 12.096-1.152 18.176-1.408l13.568-.32c10.624 0 21.12.576 31.424 1.664l.96-65.664z"/></svg>