<svg viewBox="0 0 1024 1024" focusable="false"><path d="M812.373 178.802a228.693 228.693 0 0 1 7.851 315.164l-7.85 8.25-361.018 361.016a170.78 170.78 0 0 1-248.433-234.268l6.826-7.282 361.586-361.53a113.323 113.323 0 0 1 165.945 154l-5.746 6.143-313.23 313.23a11.378 11.378 0 0 1-16.043 0l-24.177-24.177a11.378 11.378 0 0 1 0-16.043l313.23-313.23a56.434 56.434 0 0 0-74.923-84.196l-4.892 4.437-361.53 361.53a113.892 113.892 0 0 0 154.852 166.911l6.258-5.802 361.017-361.017a171.804 171.804 0 0 0-235.634-249.856l-7.338 6.94-312.662 312.662a11.378 11.378 0 0 1-16.1 0l-24.12-24.121a11.378 11.378 0 0 1 0-16.1l312.661-312.661a228.693 228.693 0 0 1 323.413 0z"/></svg>