<svg viewBox="0 0 1024 1024" focusable="false"><path d="M883.2 64c7.04 0 12.8 5.76 12.8 12.8v678.4a12.8 12.8 0 0 1-12.8 12.8H332.8a12.8 12.8 0 0 1-12.8-12.8V76.8c0-7.04 5.76-12.8 12.8-12.8h550.4zM832 128H384v576h448V128z"/><path d="M460.8 256h294.4q12.8 0 12.8 12.8v38.4q0 12.8-12.8 12.8H460.8q-12.8 0-12.8-12.8v-38.4q0-12.8 12.8-12.8ZM256 256v-64H128v192h64V224l-32 32h96zM128 448v192h64V448h-64zm64 320h-64v192h128.128v-64H160l32 32V768zm128.128 192h256v-64h-256v64zm320-64v64H704v-96h-64v64h32v-32h-31.872zM460.8 448h294.4q12.8 0 12.8 12.8v38.4q0 12.8-12.8 12.8H460.8q-12.8 0-12.8-12.8v-38.4q0-12.8 12.8-12.8Z"/></svg>