<svg viewBox="0 0 1024 1024" focusable="false"><path fill-rule="evenodd" d="M319.95 755.2V76.8c0-7.07 5.73-12.8 12.8-12.8h550.399c7.072 0 12.8 5.73 12.8 12.8v678.4c0 7.072-5.728 12.8-12.8 12.8h-550.4c-7.069 0-12.8-5.728-12.8-12.8Zm64-627.2v576h447.999V128h-448ZM192 256v115.25c0 7.068-5.73 12.8-12.8 12.8h-38.4c-7.07 0-12.8-5.732-12.8-12.8V204.8c0-7.07 5.73-12.8 12.8-12.8h102.35c7.07 0 12.8 5.73 12.8 12.8v38.4c0 7.07-5.73 12.8-12.8 12.8H192Zm255.95 12.8v38.4c0 7.07 5.73 12.8 12.8 12.8h294.4c7.068 0 12.8-5.73 12.8-12.8v-38.4c0-7.07-5.732-12.8-12.8-12.8h-294.4c-7.07 0-12.8 5.73-12.8 12.8Zm0 192v38.4c0 7.07 5.73 12.8 12.8 12.8h294.4c7.068 0 12.8-5.73 12.8-12.8v-38.4c0-7.07-5.732-12.8-12.8-12.8h-294.4c-7.07 0-12.8 5.73-12.8 12.8Zm-255.95.047v166.4c0 7.07-5.73 12.8-12.8 12.8h-38.4c-7.07 0-12.8-5.73-12.8-12.8v-166.4c0-7.07 5.73-12.8 12.8-12.8h38.4c7.07 0 12.8 5.73 12.8 12.8ZM243.25 896H192V780.845c0-7.066-5.73-12.8-12.8-12.8h-38.4c-7.07 0-12.8 5.734-12.8 12.8V947.2c0 7.066 5.73 12.8 12.8 12.8h102.45c7.068 0 12.8-5.734 12.8-12.8v-38.4c0-7.072-5.732-12.8-12.8-12.8Zm396.748 32c-.027 0-.049-.02 0 0l-.049-51.2c0-7.072 5.731-12.8 12.8-12.8h38.4c7.07 0 12.8 5.728 12.8 12.8v70.4c0 7.072-5.73 12.8-12.8 12.8h-38.302c-7.07 0-12.8-5.728-12.8-12.8l-.049-19.2c.05.02.028 0 0 0Zm-63.947-19.2v38.4c0 7.072-5.731 12.8-12.8 12.8h-230.4c-7.07 0-12.8-5.728-12.8-12.8v-38.4c0-7.072 5.73-12.8 12.8-12.8h230.4c7.069 0 12.8 5.728 12.8 12.8Z"/></svg>