<svg viewBox="64 64 896 896" focusable="false"><path d="m986.88 341.76-11.776 20.672a1612.608 1612.608 0 0 1-591.936 595.456l-28.544 16.192L73.536 692.992a12.8 12.8 0 0 1 0-18.112L236.416 512a12.8 12.8 0 0 1 18.112 0l140.096 140.096a1447.936 1447.936 0 0 0 271.36-271.808L526.08 240.512a12.8 12.8 0 0 1 0-18.112L687.552 60.928a12.8 12.8 0 0 1 18.112 0l281.28 280.832zm-79.936 10.432-85.12-85.12L696.64 142.336l-88.96 89.024 143.104 143.296-33.92 44.48a1511.936 1511.936 0 0 1-251.712 258.88l-31.616 24.896-44.544 34.048-143.488-143.616-90.496 90.56L365.184 894.08l14.08-8.32a1548.608 1548.608 0 0 0 523.648-526.72l4.032-6.848z"/></svg>