<svg viewBox="0 0 1024 1024" focusable="false"><path fill-rule="evenodd" d="m660.174 387.125-139.822-139.82c-4.999-5-4.999-13.104 0-18.102L681.805 67.749c4.996-4.996 13.095-5 18.095-.007l274.32 273.894a12.804 12.804 0 0 1 2.074 15.408l-6.982 12.22A1612.601 1612.601 0 0 1 377.42 964.698l-20.125 11.385a12.81 12.81 0 0 1-15.354-2.093L67.75 699.798c-4.999-4.998-4.999-13.103 0-18.101L230.665 518.78c5-4.999 13.105-4.998 18.103.001L388.852 658.9a1447.895 1447.895 0 0 0 271.322-271.774ZM359.43 900.91l14.106-8.333a1548.56 1548.56 0 0 0 523.635-526.759l4.02-6.795-85.185-85.184-125.12-124.672-89.024 89.024 143.136 143.247-33.932 44.497a1512.034 1512.034 0 0 1-251.678 258.898l-31.64 24.89-44.52 34.073-143.478-143.62-90.496 90.56L359.43 900.908Z"/></svg>