<svg viewBox="64 64 896 896" focusable="false"><path d="M480 128c53.44 0 104.512 10.048 151.424 28.416L520.128 487.744a12.8 12.8 0 0 0 16.192 16.192l331.84-109.76A416 416 0 1 1 480 128zm0 64a352 352 0 1 0 347.648 296.256l-2.368-12.48-390.4 129.152a12.8 12.8 0 0 1-16.128-16.192l130.816-389.824-13.184-2.432a353.472 353.472 0 0 0-37.44-3.968L480 192z"/><path d="M714.24 89.984c16.448 6.592 28.992 12.096 37.632 16.576A385.536 385.536 0 0 1 926.4 290.624c2.624 5.888 5.952 14.08 9.856 24.704a12.8 12.8 0 0 1-7.936 16.64l-35.968 11.968-287.36 95.808a12.8 12.8 0 0 1-16.192-16.192l97.792-293.44 10.752-32.256a12.8 12.8 0 0 1 16.96-7.872z"/></svg>