<svg viewBox="0 0 1024 1024" focusable="false"><path fill-rule="evenodd" d="m892.32 344.051-287.044 95.683c-10.007 3.336-19.864-6.006-16.527-16.012l97.86-293.498 10.846-32.527c2.312-6.933 9.495-10.596 16.241-7.787 11.405 4.602 28.211 11.6 38.157 16.731 77.005 39.738 138.835 104.76 174.521 184.087 2.906 6.457 6.836 16.64 9.856 24.716 2.586 6.702-.883 14.265-7.699 16.537l-36.211 12.07ZM480 960.098c229.754 0 416-186.252 416-416.002 0-48.558-8.32-95.173-23.648-138.518-2.278-6.431-9.44-9.592-15.917-7.449L512 512.096l115.482-343.885c2.173-6.472-.806-13.579-7.233-15.88-43.818-15.689-91.036-24.234-140.249-24.234-229.75 0-416 186.249-416 416 0 229.749 186.25 416.001 416 416.001Zm56.356-763.524 13.212 2.434-130.843 389.794c-3.356 10 6.142 19.538 16.156 16.226L825.28 475.872l2.336 12.477A354.887 354.887 0 0 1 832 544.096c0 194.402-157.596 352.002-352 352.002s-352-157.6-352-352.002c0-194.403 157.596-352 352-352l18.973.502a353.5 353.5 0 0 1 37.383 3.976Z"/></svg>