<svg viewBox="0 0 1024 1024" focusable="false"><path fill-rule="evenodd" d="M505.295 283.335a12.8 12.8 0 0 0-14.093-2.714L245.741 385.82l-.343.147-45.637 19.559c-8.323 3.567-10.412 14.413-4.009 20.816l190.284 190.283-171.973 171.973c-4.998 4.999-4.998 13.103 0 18.102l27.153 27.152c4.999 4.999 13.104 4.999 18.103 0L431.29 661.88l190.273 190.27c6.403 6.406 17.248 4.32 20.816-4.006l19.558-45.637.147-.342 105.198-245.462a12.799 12.799 0 0 0-2.715-14.093l-39.126-39.127 126.711-126.714c4.998-4.999 4.998-13.103 0-18.101L689.238 195.749c-4.999-4.999-13.103-4.999-18.102 0L544.423 322.463l-39.128-39.128Zm108.05 470.088 81.458-190.07-59.871-59.871 135.764-135.764-90.509-90.51-135.764 135.764-59.871-59.87-190.07 81.458 318.862 318.863Z"/></svg>