<svg viewBox="0 0 1024 1024" focusable="false"><path fill-rule="evenodd" d="m688.994 195.511.244.238 162.915 162.918c4.918 4.917 4.997 12.842.238 17.857l-.238.244-126.711 126.714 39.126 39.127a12.799 12.799 0 0 1 2.842 13.785l-.127.308-124.903 291.44c-3.528 8.233-14.17 10.366-20.599 4.22l-.217-.213-190.273-190.27-171.972 171.972c-4.919 4.918-12.843 4.997-17.858.238l-.245-.238-27.153-27.152c-4.918-4.918-4.997-12.842-.238-17.858l.238-.244 171.973-171.973-190.284-190.283c-6.331-6.331-4.36-17.006 3.73-20.693l.28-.123 291.44-124.904a12.801 12.801 0 0 1 13.855 2.482l.238.232 39.128 39.128 126.713-126.714c4.918-4.918 12.843-4.997 17.858-.238Zm-8.807 81.696L544.423 412.972l-59.871-59.87-190.07 81.458 318.862 318.863 81.459-190.07-59.871-59.871 135.764-135.764-90.509-90.51Z"/></svg>