<svg viewBox="0 0 1024 1024" focusable="false"><g fill-rule="evenodd"><path d="M512 64c247.424 0 448 200.577 448 448 0 247.424-200.576 448-448 448-247.423 0-448-200.576-448-448C64 264.577 264.577 64 512 64Zm0 64c-212.077 0-384 171.923-384 384s171.923 384 384 384 384-171.923 384-384-171.923-384-384-384Z"/><path d="M361.92 275.844 737.893 500.94c8.276 4.954 8.25 17.247 0 22.243L361.92 750.803c-8.53 5.165-19.522-.454-19.522-10.425V286.399c0-9.943 10.99-15.663 19.522-10.555Zm44.493 101.164v272L632.27 512.24 406.413 377.008Z"/></g></svg>