<svg viewBox="0 0 1024 1024" focusable="false"><path fill-rule="evenodd" d="M960 512c0 247.424-200.576 448-448 448-247.423 0-448-200.576-448-448C64 264.577 264.577 64 512 64c247.424 0 448 200.577 448 448Zm-64 0c0 212.077-171.923 384-384 384S128 724.077 128 512s171.923-384 384-384 384 171.923 384 384Zm-158.106 11.183L361.92 750.803c-8.53 5.165-19.522-.454-19.522-10.425V286.399c0-9.943 10.99-15.663 19.522-10.555L737.894 500.94c8.276 4.954 8.25 17.247 0 22.243Zm-331.48 125.825L632.268 512.24 406.413 377.008v272Z"/></svg>