<svg viewBox="0 0 1024 1024" focusable="false"><g fill-rule="evenodd"><path d="M512 64c247.424 0 448 200.577 448 448 0 247.424-200.576 448-448 448-247.423 0-448-200.576-448-448C64 264.577 264.577 64 512 64Zm0 64c-212.077 0-384 171.923-384 384s171.923 384 384 384 384-171.923 384-384-171.923-384-384-384Z"/><path d="M544 755.437V544h211.52c7.072 0 12.589-5.563 12.589-12.632v-38.736c0-7.07-5.517-12.632-12.589-12.632H544V268.377c0-7.07-5.563-12.666-12.632-12.666h-38.736c-7.07 0-12.632 5.597-12.632 12.666V480H271.528c-7.07 0-12.587 5.563-12.587 12.632v38.736c0 7.07 5.518 12.632 12.587 12.632H480v211.437c0 7.065 5.563 12.665 12.632 12.665h38.736c7.07 0 12.632-5.6 12.632-12.665Z"/></g></svg>