<svg viewBox="0 0 1024 1024" focusable="false"><path d="M896 140.8v742.4a12.8 12.8 0 0 1-12.8 12.8H140.8a12.8 12.8 0 0 1-12.8-12.8V140.8c0-7.04 5.76-12.8 12.8-12.8h742.4c7.04 0 12.8 5.76 12.8 12.8zM832 192H192v640h640V192z"/><path d="M531.2 255.68c7.04 0 12.8 5.76 12.8 12.8V480l211.328.064c7.04 0 12.8 5.76 12.8 12.8v38.4a12.8 12.8 0 0 1-12.8 12.8H544v211.328a12.8 12.8 0 0 1-12.8 12.8h-38.4a12.8 12.8 0 0 1-12.8-12.8V543.936L271.744 544a12.8 12.8 0 0 1-12.8-12.8v-38.4c0-7.04 5.76-12.8 12.8-12.8H480V268.416c0-7.04 5.76-12.8 12.8-12.8h38.4z"/></svg>