<svg viewBox="0 0 1024 1024" focusable="false"><path fill-rule="evenodd" d="M64 756.364V139.636C64 133.21 69.73 128 76.8 128h870.4c7.072 0 12.8 5.21 12.8 11.636v616.728c0 6.426-5.728 11.636-12.8 11.636H716.8c-7.072 0-12.8-5.73-12.8-12.8v-38.4c0-7.07 5.728-12.8 12.8-12.8H896V192H128v512h179.2c7.07 0 12.8 5.73 12.8 12.8v38.4c0 7.07-5.73 12.8-12.8 12.8H76.8c-7.07 0-12.8-5.21-12.8-11.636Zm265.261 185.114a12.809 12.809 0 0 0-1.35 5.722c0 7.072 5.73 12.8 12.8 12.8h342.577c1.988 0 3.947-.46 5.725-1.35 6.323-3.162 8.886-10.848 5.724-17.172l-171.29-342.58a12.798 12.798 0 0 0-5.723-5.724c-6.323-3.161-14.012-.598-17.174 5.725l-171.289 342.58ZM423.488 896 512 719.04 600.448 896h-176.96Z"/></svg>