<svg viewBox="0 0 1024 1024" focusable="false"><path d="M448 76.8v358.4a12.8 12.8 0 0 1-12.8 12.8H76.8A12.8 12.8 0 0 1 64 435.2V76.8C64 69.76 69.76 64 76.8 64h358.4c7.04 0 12.8 5.76 12.8 12.8zM384 128H128v256h256V128zm64 396.8v358.4a12.8 12.8 0 0 1-12.8 12.8H76.8A12.8 12.8 0 0 1 64 883.2V524.8c0-7.04 5.76-12.8 12.8-12.8h358.4c7.04 0 12.8 5.76 12.8 12.8zM384 576H128v256h256V576zM896 76.8v358.4a12.8 12.8 0 0 1-12.8 12.8H524.8a12.8 12.8 0 0 1-12.8-12.8V76.8c0-7.04 5.76-12.8 12.8-12.8h358.4c7.04 0 12.8 5.76 12.8 12.8zM832 128H576v256h256V128z"/><path d="M236.8 224h38.4q12.8 0 12.8 12.8v38.4q0 12.8-12.8 12.8h-38.4q-12.8 0-12.8-12.8v-38.4q0-12.8 12.8-12.8Zm0 448h38.4q12.8 0 12.8 12.8v38.4q0 12.8-12.8 12.8h-38.4q-12.8 0-12.8-12.8v-38.4q0-12.8 12.8-12.8Zm448-448h38.4q12.8 0 12.8 12.8v38.4q0 12.8-12.8 12.8h-38.4q-12.8 0-12.8-12.8v-38.4q0-12.8 12.8-12.8ZM704 524.8v102.4a12.8 12.8 0 0 0 12.736 12.8h103.04a12.8 12.8 0 0 0 12.8-12.8V524.8c0-7.04 5.76-12.8 12.8-12.8h38.4c7.04 0 12.8 5.76 12.8 12.8v166.4a12.8 12.8 0 0 1-12.8 12.8H652.8a12.8 12.8 0 0 1-12.8-12.8V588.8a12.8 12.8 0 0 0-12.864-12.8h-37.312a12.8 12.8 0 0 0-12.8 12.8v294.4a12.8 12.8 0 0 1-12.8 12.8h-38.4a12.8 12.8 0 0 1-12.8-12.8V524.8c0-7.04 5.76-12.8 12.8-12.8H691.2c7.04 0 12.8 5.76 12.8 12.8zM845.376 768h38.4q12.8 0 12.8 12.8v102.4q0 12.8-12.8 12.8h-38.4q-12.8 0-12.8-12.8V780.8q0-12.8 12.8-12.8Z"/><path d="M653.376 768h38.4q12.8 0 12.8 12.8v102.4q0 12.8-12.8 12.8h-38.4q-12.8 0-12.8-12.8V780.8q0-12.8 12.8-12.8Z"/></svg>