<svg viewBox="0 0 1024 1024" focusable="false"><path fill-rule="evenodd" d="M229.567 416h39.498c6.843 0 12.442-5.45 12.626-12.29C288.07 285.713 385.77 192 505.359 192c123.712 0 224 100.288 224 224s-100.288 224-224 224h-19.5c-7.07 0-12.8 5.73-12.8 12.8v102.4c0 7.07 5.73 12.8 12.8 12.8h38.4c7.069 0 12.8-5.73 12.8-12.8v-52.925c144.143-15.78 256.3-137.93 256.3-286.275 0-159.058-128.942-288-288-288-154.969 0-281.35 122.398-287.746 275.795a97.31 97.31 0 0 0-.003.081c-.276 6.716 5.236 12.124 11.957 12.124Zm276.335 432.928c-26.51 0-48 21.491-48 48s21.49 48 48 48 48-21.491 48-48-21.49-48-48-48Z"/></svg>