<svg viewBox="0 0 1024 1024" focusable="false"><path d="M512 64c247.424 0 448 200.576 448 448S759.424 960 512 960 64 759.424 64 512 264.576 64 512 64zm.853 656.939a48 48 0 1 0 0 96 48 48 0 0 0 0-96zM512 192a192.021 192.021 0 0 0-191.019 172.48 144.576 144.576 0 0 0-.469 6.72 12.8 12.8 0 0 0 12.8 12.8h38.57a12.8 12.8 0 0 0 12.758-11.819c.213-2.773.448-5.077.725-6.933A128.021 128.021 0 0 1 640 384a128 128 0 0 1-128 128h-32v115.2a12.8 12.8 0 0 0 12.8 12.8h38.4a12.8 12.8 0 0 0 12.8-12.8v-53.867A192 192 0 0 0 512 192z"/></svg>