<svg viewBox="0 0 1024 1024" focusable="false"><path d="m519.936 70.208 435.2 342.336a12.8 12.8 0 0 1 4.48 13.44L816.32 950.592A12.8 12.8 0 0 1 803.968 960H221.632a12.8 12.8 0 0 1-12.352-9.408L66.24 425.92a12.8 12.8 0 0 1 4.416-13.44L504.064 70.272a12.8 12.8 0 0 1 15.872 0zm129.152 732.928h-272l-75.2 92.8h422.4l-75.2-92.8zM148.352 483.84l102.016 374.016 78.848-97.408L266.88 531.84l-118.528-48zm728.96.384-118.464 47.872-62.272 227.968 78.848 97.28 101.888-373.12zM516.992 640h-7.808l-80.256 99.136h168.32l-80.256-99.2zM341.44 561.92l37.44 137.28 74.496-92.032-112-45.248zm342.784.384-111.36 44.992 74.048 91.52 37.312-136.512zM544 397.44v139.904l10.624 8.32 117.504-47.488L544 397.44zm-64 .768L353.728 497.92l116.48 47.04 9.792-7.744V398.208zm64-227.584v145.408l196.48 154.56 122.176-49.408-318.72-250.56zm-64 .128L163.2 420.928l122.24 49.408L480 316.736V170.752z"/></svg>