<svg viewBox="0 0 1024 1024" focusable="false"><path fill-rule="evenodd" d="M700.864 105.519A446.09 446.09 0 0 0 512.234 64C224.8 64 11.709 330.794 75.286 611.068c63.557 280.299 370.88 429.093 630.174 305.099 254.432-121.664 333.46-444.213 167.898-669.262-4.845-6.586-14.663-6.798-19.84-.469l-25.248 30.886c-3.693 4.517-3.834 10.965-.506 15.756 149.664 215.338 43.584 515.934-210.546 588.183-257.328 73.159-508.733-132.646-487.84-399.353 20.638-263.456 294.482-426.836 535.18-322.5 5.359 2.323 11.478.826 15.174-3.694l25.319-30.958c5.17-6.324 3.225-15.795-4.186-19.237Zm87.725 42.963 29.568 24.512c5.408 4.514 6.15 12.553 1.664 17.984L572.253 489.78a63.993 63.993 0 0 1 3.981 22.22c0 35.346-28.653 64-64 64-35.346 0-64-28.654-64-64 0-35.345 28.654-64 64-64 3.611 0 7.215.306 10.774.914L770.541 150.21c4.518-5.452 12.601-6.198 18.048-1.728ZM486.525 766.676C637.297 781.895 768.218 663.538 768.237 512c0-37.808-8.23-73.812-23.002-106.206-3.77-8.257-14.694-9.134-20.435-2.107l-28.305 34.625c-2.894 3.54-3.66 8.309-2.203 12.642 36.914 109.76-31.47 227.931-146.355 249.67-117.304 22.198-226.21-66.909-227.681-186.285C318.814 397.425 421.105 306.997 536 321.444c4.538.57 9.06-1.127 11.956-4.666l28.288-34.566c5.748-7.024 2.52-17.616-6.32-19.673-138.958-32.34-279.543 56.082-308.531 198.302-30.265 148.485 74.361 290.616 225.132 305.835Z"/></svg>