<svg viewBox="0 0 1024 1024" focusable="false"><path fill-rule="evenodd" d="M518.153 66.739 953.414 409.04a12.794 12.794 0 0 1 4.436 13.434L814.566 947.078a12.809 12.809 0 0 1-12.345 9.428H219.876a12.802 12.802 0 0 1-12.349-9.434L64.452 422.453a12.8 12.8 0 0 1 4.416-13.413l433.44-342.285a12.8 12.8 0 0 1 15.845-.016ZM647.356 799.66H375.288L300.1 892.506h422.44l-75.184-92.845ZM146.572 480.453l102.005 373.985 78.91-97.446-62.355-228.637-118.56-47.902Zm728.948.392-118.451 47.857-62.243 227.88 78.806 97.319L875.52 480.845ZM515.235 636.503h-7.826l-80.28 99.139h168.385l-80.28-99.139Zm-175.593-78.044 37.455 137.27 74.522-92.028-111.977-45.242Zm342.807.39-111.323 44.978 74.041 91.433 37.282-136.41ZM542.224 393.927v139.9l10.614 8.363 117.524-47.482-128.138-100.78Zm-64 .802-126.273 99.678 116.483 47.062 9.79-7.747V394.728Zm64-227.584V312.51l196.534 154.562 122.125-49.342-318.659-250.587Zm-64 .105L161.412 417.423l122.312 49.417 194.5-153.596V167.25Z"/></svg>