<svg viewBox="0 0 1024 1024" focusable="false"><path fill-rule="evenodd" d="M802.22 956.506H219.877a12.802 12.802 0 0 1-12.349-9.434L64.452 422.453a12.8 12.8 0 0 1 4.416-13.413l433.44-342.285a12.8 12.8 0 0 1 15.845-.016L953.414 409.04a12.794 12.794 0 0 1 4.436 13.434L814.566 947.078a12.809 12.809 0 0 1-12.345 9.428ZM478.225 167.249 161.412 417.423l122.312 49.417 194.5-153.596V167.25Zm64 226.677v139.9l10.614 8.363 117.524-47.482-128.138-100.78ZM682.449 558.85l-111.323 44.977 74.041 91.433 37.282-136.41Zm12.377 197.732 62.243-227.88 118.451-47.857L773.632 853.9l-78.806-97.319Zm-47.47 43.079H375.288L300.1 892.506h422.44l-75.184-92.845Zm-51.842-64.02H427.13l80.28-99.138h7.825l80.28 99.139ZM377.097 695.73l74.522-92.028-111.977-45.242 37.455 137.27ZM265.132 528.355l-118.56-47.902 102.005 373.985 78.91-97.446-62.355-228.637Zm86.82-33.95 116.482 47.063 9.79-7.747V394.728l-126.273 99.678Zm508.931-76.674-122.125 49.342L542.224 312.51V167.144l318.66 250.587Z"/></svg>