<svg viewBox="0 0 1024 1024" focusable="false"><path fill-rule="evenodd" d="M960 512c0 247.424-200.576 448-448 448-247.423 0-448-200.576-448-448C64 264.577 264.577 64 512 64c247.424 0 448 200.577 448 448Zm-64 0c0 212.077-171.923 384-384 384S128 724.077 128 512s171.923-384 384-384 384 171.923 384 384Zm-287.736-.077L383.841 287.567c-5-5-5.07-12.933-.07-17.932l27.39-27.39c4.999-4.999 13.105-4.76 18.104.238l260.348 260.349c4.999 4.998 5.181 13.16.183 18.16L425.343 785.44c-4.998 5.005-12.921 5.056-17.92.058l-27.39-27.386c-4.998-4.998-4.784-13.088.213-18.086l228.018-228.103Z"/></svg>