<svg viewBox="0 0 1024 1024" focusable="false"><g fill-rule="evenodd"><path d="M512 64c247.424 0 448 200.577 448 448 0 247.424-200.576 448-448 448-247.423 0-448-200.576-448-448C64 264.577 264.577 64 512 64Zm0 64c-212.077 0-384 171.923-384 384s171.923 384 384 384 384-171.923 384-384-171.923-384-384-384Z"/><path d="M608.264 511.923 383.841 287.567c-5-5-5.07-12.933-.07-17.932l27.39-27.39c4.999-4.999 13.105-4.76 18.104.238l260.348 260.349c4.999 4.998 5.181 13.16.183 18.16L425.343 785.44c-4.998 5.005-12.921 5.056-17.92.058l-27.39-27.386c-4.998-4.998-4.784-13.088.213-18.086l228.018-228.103Z"/></g></svg>