<svg viewBox="0 0 1024 1024" focusable="false"><path fill-rule="evenodd" d="M831.552 525.863c-9.114-181.382-155.515-326.579-337.395-333.773l-1.61-.032C485.578 191.92 480 186.23 480 179.26V76.74c0-7.12 5.85-12.892 12.969-12.737 2.595.061 4.802.127 6.621.2 250.868 10.07 452.173 212.677 460.16 464.072l.047 2.532c.107 7.148-5.653 13.003-12.802 13.003H844.64c-7.008 0-12.678-5.715-12.89-12.719a267 267 0 0 0-.198-5.228ZM480 961.397c-229.75 0-416-186.253-416-416.002 0-187.971 125.681-350.633 303.114-400.496l2.71-.706c6.932-1.806 13.998 2.43 15.672 9.396l8.955 37.25c1.637 6.814-2.352 13.602-9.113 15.442-1.823.496-3.4.94-4.73 1.33C232.56 251.035 128 387.702 128 545.394c0 194.402 157.596 352.002 352 352.002 158.05 0 295.02-105.043 338.106-253.711l.646-2.415c1.792-6.728 8.634-10.787 15.398-9.136l37.447 9.138c6.918 1.688 11.168 8.678 9.299 15.545a227.127 227.127 0 0 1-.845 3.02C829.664 836.488 667.384 961.398 480 961.398Z"/></svg>