<svg viewBox="0 0 1024 1024" focusable="false"><path d="m385.472 153.792 8.96 37.312a12.8 12.8 0 0 1-9.024 15.36A352.192 352.192 0 0 0 128 545.6a352 352 0 0 0 690.112 98.304l.64-2.432a12.8 12.8 0 0 1 15.36-9.152l37.376 9.088a12.8 12.8 0 0 1 9.344 15.872A416.192 416.192 0 0 1 480 961.6a416 416 0 0 1-112.896-816.512l2.688-.704a12.8 12.8 0 0 1 15.68 9.408zm107.584-89.6 6.528.192a480 480 0 0 1 460.16 464.064v2.56a12.8 12.8 0 0 1-12.8 12.992h-102.4a12.8 12.8 0 0 1-12.8-12.416 352 352 0 0 0-337.6-339.264l-1.6-.064a12.8 12.8 0 0 1-12.544-12.8v-102.4a12.8 12.8 0 0 1 13.056-12.8z"/></svg>