<svg viewBox="0 0 1024 1024" focusable="false"><path d="M832 268.8v614.4a12.8 12.8 0 0 1-12.8 12.8H204.8a12.8 12.8 0 0 1-12.8-12.8V268.8c0-7.04 5.76-12.8 12.8-12.8h614.4c7.04 0 12.8 5.76 12.8 12.8zM768 320H256v512h512V320z"/><path d="M396.8 448h38.4q12.8 0 12.8 12.8v102.4q0 12.8-12.8 12.8h-38.4q-12.8 0-12.8-12.8V460.8q0-12.8 12.8-12.8Zm192 0h38.4q12.8 0 12.8 12.8v102.4q0 12.8-12.8 12.8h-38.4q-12.8 0-12.8-12.8V460.8q0-12.8 12.8-12.8Zm-345.6-64c7.04 0 12.8 5.76 12.8 12.8v358.4a12.8 12.8 0 0 1-12.8 12.8H76.8A12.8 12.8 0 0 1 64 755.2V396.8c0-7.04 5.76-12.8 12.8-12.8h166.4zM192 448h-64v256h64V448zm755.2-64c7.04 0 12.8 5.76 12.8 12.8v358.4a12.8 12.8 0 0 1-12.8 12.8H780.8a12.8 12.8 0 0 1-12.8-12.8V396.8c0-7.04 5.76-12.8 12.8-12.8h166.4zM896 448h-64v256h64V448zM332.8 128h358.4q12.8 0 12.8 12.8v38.4q0 12.8-12.8 12.8H332.8q-12.8 0-12.8-12.8v-38.4q0-12.8 12.8-12.8Z"/></svg>