<svg viewBox="0 0 1024 1024" focusable="false"><path fill-rule="evenodd" d="M320 179.2v-38.4c0-7.07 5.73-12.8 12.8-12.8h358.4c7.07 0 12.8 5.73 12.8 12.8v38.4c0 7.07-5.73 12.8-12.8 12.8H332.8c-7.07 0-12.8-5.73-12.8-12.8ZM204.8 896h614.4c7.072 0 12.8-5.728 12.8-12.8V768h115.2c7.072 0 12.8-5.73 12.8-12.8V396.8c0-7.07-5.728-12.8-12.8-12.8H832V268.8c0-7.07-5.728-12.8-12.8-12.8H204.8c-7.07 0-12.8 5.73-12.8 12.8V384H76.8c-7.07 0-12.8 5.73-12.8 12.8v358.4c0 7.07 5.73 12.8 12.8 12.8H192v115.2c0 7.072 5.73 12.8 12.8 12.8ZM768 832V320H256v512h512ZM192 704V448h-64v256h64Zm192-140.8V460.8c0-7.07 5.73-12.8 12.8-12.8h38.4c7.07 0 12.8 5.73 12.8 12.8v102.4c0 7.07-5.73 12.8-12.8 12.8h-38.4c-7.07 0-12.8-5.73-12.8-12.8Zm192 0V460.8c0-7.07 5.73-12.8 12.8-12.8h38.4c7.07 0 12.8 5.73 12.8 12.8v102.4c0 7.07-5.73 12.8-12.8 12.8h-38.4c-7.07 0-12.8-5.73-12.8-12.8ZM896 704h-64V448h64v256Z"/></svg>