<svg viewBox="0 0 1024 1024" focusable="false"><g fill-rule="evenodd"><path d="M320 179.2v-38.4c0-7.07 5.73-12.8 12.8-12.8h358.4c7.07 0 12.8 5.73 12.8 12.8v38.4c0 7.07-5.73 12.8-12.8 12.8H332.8c-7.07 0-12.8-5.73-12.8-12.8ZM819.2 256c6.97 0 12.634 5.566 12.796 12.493l.004.307V384h115.2c6.97 0 12.634 5.566 12.8 12.493V755.2c0 6.967-5.563 12.634-12.493 12.796l-.307.004H832v115.2c0 6.97-5.563 12.634-12.493 12.8H204.8c-6.967 0-12.634-5.563-12.796-12.493L192 883.2V768H76.8c-6.967 0-12.634-5.566-12.8-12.493V396.8c0-6.967 5.566-12.634 12.493-12.796L76.8 384H192V268.8c0-6.967 5.566-12.634 12.493-12.8H819.2ZM768 320H256v512h512V320ZM192 448h-64v256h64V448Zm704 0h-64v256h64V448Z"/><path d="M384 563.2V460.8c0-7.07 5.73-12.8 12.8-12.8h38.4c7.07 0 12.8 5.73 12.8 12.8v102.4c0 7.07-5.73 12.8-12.8 12.8h-38.4c-7.07 0-12.8-5.73-12.8-12.8ZM576 563.2V460.8c0-7.07 5.73-12.8 12.8-12.8h38.4c7.07 0 12.8 5.73 12.8 12.8v102.4c0 7.07-5.73 12.8-12.8 12.8h-38.4c-7.07 0-12.8-5.73-12.8-12.8Z"/></g></svg>