<svg viewBox="0 0 1024 1024" focusable="false"><path fill-rule="evenodd" d="M561.76 319.456H339.349c-114.231 6.21-205.69 98.006-211.365 212.378l-.004.074c-.306 6.251-5.308 11.213-11.567 11.213h-39.61c-7.185 0-12.962-5.913-12.8-13.096l.015-.461c6.85-147.817 125.13-266.53 272.767-274.063V94.746c0-11.4 13.78-17.113 21.846-9.057L570.805 297.6c8.07 8.062 2.362 21.857-9.045 21.857Zm385.443 640.416H268.805c-7.07 0-12.8-5.734-12.8-12.8V396.671c0-7.07 5.73-12.8 12.8-12.8h678.398c7.072 0 12.8 5.73 12.8 12.8v550.401c0 7.066-5.728 12.8-12.8 12.8Zm-51.2-64V447.871H320.005v448.001h575.998Z"/></svg>