<svg viewBox="0 0 1024 1024" focusable="false"><path fill-rule="evenodd" d="M462.19 319.456h222.412c114.233 6.21 205.69 98.006 211.366 212.378v.074c.307 6.251 5.312 11.213 11.571 11.213h39.61c7.18 0 12.96-5.913 12.797-13.096l-.016-.461c-6.848-147.817-125.127-266.53-272.765-274.063V94.746c0-11.4-13.78-17.113-21.845-9.057L453.146 297.6c-8.071 8.062-2.363 21.857 9.045 21.857ZM76.8 959.872h678.4c7.072 0 12.8-5.734 12.8-12.8V396.671c0-7.07-5.728-12.8-12.8-12.8H76.8c-7.07 0-12.8 5.73-12.8 12.8v550.401c0 7.066 5.73 12.8 12.8 12.8Zm51.2-64V447.871h576v448.001H128Z"/></svg>