<svg viewBox="64 64 896 896" focusable="false"><path d="M512 64a446.08 446.08 0 0 1 202.88 48.448l-41.664 50.944a384 384 0 1 0 148.544 121.6l41.6-50.88A448 448 0 1 1 512 64zm256 448a256 256 0 1 1-179.968-244.48l-44.992 54.976a192 192 0 1 0 148.544 121.536l44.992-55.04C756.608 425.536 768 467.52 768 512z"/><path d="M448 512a64 64 0 1 0 128 0 64 64 0 1 0-128 0Z"/><path d="m788.352 148.48 29.568 24.512a12.8 12.8 0 0 1 1.664 17.984L536.64 532.48l-49.28-40.832 282.944-341.44a12.8 12.8 0 0 1 18.048-1.664z"/></svg>