<svg viewBox="0 0 1024 1024" focusable="false"><path fill-rule="evenodd" d="M64 76.8v294.4c0 7.07 5.73 12.8 12.8 12.8h38.4c7.07 0 12.8-5.73 12.8-12.8V128h704v243.2c0 7.07 5.728 12.8 12.8 12.8h38.4c7.072 0 12.8-5.73 12.8-12.8V76.8c0-7.07-5.728-12.8-12.8-12.8H76.8C69.73 64 64 69.73 64 76.8Zm0 384v38.4c0 7.07 5.73 12.8 12.8 12.8h806.4c7.072 0 12.8-5.73 12.8-12.8v-38.4c0-7.07-5.728-12.8-12.8-12.8H76.8c-7.07 0-12.8 5.73-12.8 12.8ZM883.2 896H76.8c-7.07 0-12.8-5.728-12.8-12.8V588.8c0-7.07 5.73-12.8 12.8-12.8h38.4c7.07 0 12.8 5.73 12.8 12.8V832h704V588.8c0-7.07 5.728-12.8 12.8-12.8h38.4c7.072 0 12.8 5.73 12.8 12.8v294.4c0 7.072-5.728 12.8-12.8 12.8Z"/></svg>