<svg viewBox="0 0 1024 1024" focusable="false"><path d="m518.656 66.304 366.72 66.88a12.8 12.8 0 0 1 10.496 12.544v190.336c0 43.008-3.84 85.376-11.456 126.848a287.616 287.616 0 0 0-53.056-100.736l.192-5.376.32-20.736V188.416l-319.04-58.176-321.216 58.24V334.4c0 229.248 121.856 440.64 318.848 555.84l2.176 1.28 19.392-11.712c23.36-14.72 45.504-30.72 66.496-48.064A287.36 287.36 0 0 0 710.4 813.312a704.128 704.128 0 0 1-164.032 132.736l-33.28 18.88-15.616-8.512A708.032 708.032 0 0 1 127.68 334.4V145.728a12.8 12.8 0 0 1 10.496-12.608L507.2 66.304h11.456z"/><path d="M608 320a224 224 0 0 1 179.392 358.144l94.08 94.08a12.8 12.8 0 0 1 0 18.112l-27.136 27.136a12.8 12.8 0 0 1-18.112 0l-94.08-94.08A224 224 0 1 1 608 320zm0 64a160 160 0 1 0 0 320 160 160 0 0 0 0-320z"/></svg>