<svg viewBox="0 0 1024 1024" focusable="false"><path fill-rule="evenodd" d="M546.696 943.75a708.559 708.559 0 0 0 126.706-94.816c9.83-9.241-.62-26.195-13.899-23.795a287.688 287.688 0 0 1-55.986 4.544c-3.12-.051-6.107.96-8.529 2.925a642.555 642.555 0 0 1-62.605 44.954l-19.418 11.68-2.185-1.248C313.782 772.755 192 561.354 192 332.122l-.06-145.922 321.216-58.24 319.041 58.176.026 147.667-.333 20.695-.019.596c-.102 3.12.858 6.079 2.79 8.533a288.341 288.341 0 0 1 30.042 46.89c6.15 12.014 26.323 10.003 27.718-3.42a708.78 708.78 0 0 0 3.802-73.294v-201.01L518.977 64h-11.445L128 132.764v199.358c0 259.424 141.877 498.073 369.782 622.01l15.606 8.486 33.308-18.868Zm61.632-178.028a224.021 224.021 0 0 0 134.14-44.602l94.063 94.06c4.999 5 13.107 5 18.106 0l27.149-27.148c5.004-4.998 5.004-13.107 0-18.106l-94.061-94.064a224.019 224.019 0 0 0 44.601-134.14c0-123.711-100.286-224-223.998-224-123.712 0-224 100.289-224 224 0 123.712 100.288 224 224 224Zm0-64c88.366 0 159.998-71.634 159.998-160 0-88.365-71.632-160-159.998-160-88.366 0-160 71.635-160 160 0 88.366 71.634 160 160 160Z"/></svg>