<svg viewBox="0 0 1024 1024" focusable="false"><path fill-rule="evenodd" d="M896.224 333.57c0 250.686-132.99 482.467-349.528 609.415L519.57 958.34a12.815 12.815 0 0 1-12.425.108l-9.364-5.09C269.877 829.53 128 591.087 128 331.89V143.384a12.792 12.792 0 0 1 10.518-12.584l367.879-66.595a12.853 12.853 0 0 1 2.29-.205h9.136c.768 0 1.534.075 2.29.213l365.609 66.608a12.794 12.794 0 0 1 10.502 12.581V333.57ZM192 331.887c0 229.033 121.784 440.25 318.78 555.39l2.186 1.246 19.419-11.67c180.29-113.623 292.658-309.481 299.506-522.608l.333-20.678-.026-147.538-319.04-58.125-321.216 58.19.058 145.793ZM531.526 256h-38.4c-7.069 0-12.8 5.726-12.8 12.789v294.144c0 7.063 5.731 12.789 12.8 12.789h38.4c7.07 0 12.8-5.726 12.8-12.789V268.79c0-7.063-5.73-12.789-12.8-12.789m0 447.944h-38.4c-7.069 0-12.8-5.726-12.8-12.788V652.79c0-7.063 5.731-12.789 12.8-12.789h38.4c7.07 0 12.8 5.726 12.8 12.789v38.367c0 7.062-5.73 12.788-12.8 12.788"/></svg>