<svg viewBox="0 0 1024 1024" focusable="false"><path fill-rule="evenodd" d="M64 128v768c0 35.347 28.654 64 64 64h768c35.347 0 64-28.653 64-64V128c0-35.346-28.653-64-64-64H128c-35.346 0-64 28.654-64 64Zm832 768H128V128h768v768ZM774.598 440.294l-253.661 253.66c-4.998 4.998-12.872 4.998-17.87 0l-253.659-253.66c-4.999-4.998-5.002-12.868-.003-17.867l27.39-27.39c4.999-4.999 12.927-4.938 17.926.06l208.288 208.289a12.66 12.66 0 0 0 17.986 0L729.28 395.098c4.998-5 12.928-5.06 17.926-.061l27.392 27.39c4.999 4.999 4.999 12.869 0 17.867Z"/></svg>