<svg viewBox="0 0 1024 1024" focusable="false"><path d="M922.624 80.256a44.608 44.608 0 0 1 57.408 49.344l-1.536 6.656-262.4 830.976a33.152 33.152 0 0 1-51.456 16.512l-3.648-3.072-252.16-252.16 45.056-45.056 216.576 216.576 236.288-748.16-750.208 234.176L322.56 552.064l-45.056 45.12L75.712 395.392a33.152 33.152 0 0 1 9.856-53.568l3.712-1.536L922.624 80.256z"/><path d="M961.088 102.208a35.072 35.072 0 0 0-49.024-7.68l-644.16 468.8v259.136a38.272 38.272 0 0 0 66.88 25.408l624.128-701.824a35.072 35.072 0 0 0 2.176-43.904zM734.4 302.592 331.648 755.52V595.776L734.4 302.592z"/></svg>