<svg viewBox="0 0 1024 1024" focusable="false"><path fill-rule="evenodd" d="M76.8 448h870.4c7.072 0 12.8-5.73 12.8-12.8V76.8c0-7.07-5.728-12.8-12.8-12.8H76.8C69.73 64 64 69.73 64 76.8v358.4c0 7.07 5.73 12.8 12.8 12.8ZM896 128v256H128V128h768ZM652.8 320h38.4c7.072 0 12.8-5.73 12.8-12.8V204.8c0-7.07-5.728-12.8-12.8-12.8h-38.4c-7.072 0-12.8 5.73-12.8 12.8v102.4c0 7.07 5.728 12.8 12.8 12.8ZM832 204.8v102.4c0 7.07-5.728 12.8-12.8 12.8h-38.4c-7.072 0-12.8-5.73-12.8-12.8V204.8c0-7.07 5.728-12.8 12.8-12.8h38.4c7.072 0 12.8 5.73 12.8 12.8ZM478.103 660.143c-12.399 0-17.554 15.866-7.523 23.155l137.407 99.838-52.48 161.542c-3.831 11.79 9.665 21.594 19.697 14.31l137.417-99.833 137.414 99.834c10.029 7.283 23.527-2.522 19.693-14.31l-52.48-161.543 137.408-99.838c10.029-7.289 4.877-23.155-7.52-23.155l-169.85-.007-52.492-161.534c-3.834-11.792-20.519-11.792-24.35 0l-52.491 161.534-169.85.007ZM128 576v256h307.2c7.07 0 12.8 5.728 12.8 12.8v38.4c0 7.072-5.73 12.8-12.8 12.8H76.8c-7.07 0-12.8-5.728-12.8-12.8V524.8c0-7.07 5.73-12.8 12.8-12.8h358.4c7.07 0 12.8 5.73 12.8 12.8v38.4c0 7.07-5.73 12.8-12.8 12.8H128Z"/></svg>