<svg viewBox="0 0 1024 1024" focusable="false"><path fill-rule="evenodd" d="M307.567 478.298h-38.4c-7.07 0-12.8-5.73-12.8-12.8v-145.26c0-.774.004-1.547.01-2.32H192V829.92h640V317.918h-63.213l.058 2.32v145.26c0 7.07-5.732 12.8-12.801 12.8h-38.4c-7.07 0-12.8-5.73-12.8-12.8v-145.26c0-.774-.005-1.547-.014-2.32H320.434l-.067 2.32v145.26c0 7.07-5.73 12.8-12.8 12.8Zm-42.534-224.38C294.257 144.55 394.024 64 512.605 64c118.582 0 218.35 80.55 247.573 189.918H883.2c7.072 0 12.8 5.73 12.8 12.8V881.12c0 7.066-5.728 12.8-12.8 12.8H140.8c-7.07 0-12.8-5.734-12.8-12.8V266.718c0-7.07 5.73-12.8 12.8-12.8h124.233Zm428.064 0C666.084 180.426 595.467 128 512.605 128s-153.479 52.426-180.491 125.918h360.983Z"/></svg>