<svg viewBox="0 0 1024 1024" focusable="false"><path d="M896 268.8v614.4a12.8 12.8 0 0 1-12.8 12.8H140.8a12.8 12.8 0 0 1-12.8-12.8V268.8c0-7.04 5.76-12.8 12.8-12.8h742.4c7.04 0 12.8 5.76 12.8 12.8zM832 320H192v512h640V320z"/><path d="M512.64 66.112a256.256 256.256 0 0 1 255.872 243.392l.32 12.8v145.28a12.8 12.8 0 0 1-12.8 12.8h-38.4a12.8 12.8 0 0 1-12.8-12.8v-145.28a192.256 192.256 0 0 0-384.128-11.264l-.32 11.264v145.28a12.8 12.8 0 0 1-12.8 12.8h-38.4a12.8 12.8 0 0 1-12.8-12.8v-145.28A256.256 256.256 0 0 1 512.576 66.112z"/></svg>