<svg viewBox="0 0 1024 1024" focusable="false"><path d="M307.84 960h-38.208a12.8 12.8 0 0 1-12.8-12.8V127.04a12.8 12.8 0 0 1 4.288-9.536L299.264 83.2a12.8 12.8 0 0 1 21.376 9.536V947.2a12.8 12.8 0 0 1-12.8 12.8z"/><path d="m299.264 83.2-167.04 150.464A12.8 12.8 0 0 0 140.8 256h179.84V92.8a12.8 12.8 0 0 0-21.376-9.6zM834.752 576c7.04 0 12.8 5.76 12.8 12.8v38.4l-.192 2.24a12.8 12.8 0 0 1-3.392 12.16L589.504 896h245.248c7.04 0 12.8 5.76 12.8 12.8v38.4a12.8 12.8 0 0 1-12.8 12.8H509.184a12.8 12.8 0 0 1-12.8-12.8v-38.4l.192-2.048a12.8 12.8 0 0 1 3.456-11.712L755.008 640H509.184a12.8 12.8 0 0 1-12.8-12.8v-38.4c0-7.04 5.76-12.8 12.8-12.8h325.568zM675.712 57.792c3.136-.064 5.76.64 8.192 2.176a12.8 12.8 0 0 1 3.968 4.288l207.296 359.04a12.8 12.8 0 0 1-4.672 17.408l-33.152 19.2a12.8 12.8 0 0 1-17.536-4.864l-60.16-107.2h-210.24L508.16 455.168a12.8 12.8 0 0 1-17.536 4.736l-33.216-19.2a12.8 12.8 0 0 1-4.672-17.472l207.68-359.808a12.8 12.8 0 0 1 15.296-5.632zm68.032 226.048-68.16-121.472L606.08 283.84h137.664z"/></svg>