<svg viewBox="0 0 1024 1024" focusable="false"><g fill-rule="evenodd"><path d="M576 90.904v842.734c0 10.733-12.415 16.704-20.796 9.997L512 909.075 256 704.272H76.8c-7.07 0-12.8-5.73-12.8-12.8v-358.4c0-7.07 5.73-12.8 12.8-12.8H256L555.204 80.909c8.38-6.705 20.796-.738 20.796 9.995Zm-64 106.528-233.55 186.84H128v256h150.45L512 827.11V197.432ZM779.194 168.74c4.345-5.583 12.358-6.635 17.81-2.133C896.55 248.777 960 373.117 960 512.275c0 139.159-63.45 263.501-162.995 345.67-5.37 4.43-13.22 3.481-17.608-1.882l-.203-.255-23.47-30.176c-4.306-5.536-3.295-13.53 2.049-18.067a426.884 426.884 0 0 0 25.753-23.763C858.51 708.822 896 618.314 896 512.275c0-106.038-37.491-196.548-112.474-271.529a428.284 428.284 0 0 0-25.753-23.763c-5.26-4.466-6.322-12.277-2.25-17.8l.202-.265 23.469-30.178Z"/><path d="M661.312 320.303c4.342-5.583 12.45-6.58 17.806-1.96C733.548 365.288 768 434.758 768 512.275c0 77.517-34.451 146.987-88.882 193.932-5.273 4.549-13.215 3.653-17.603-1.705l-.203-.254-23.566-30.3c-4.305-5.535-3.415-13.403 1.794-18.097a218.132 218.132 0 0 0 8.224-7.811C685.254 610.55 704 565.295 704 512.275c0-53.02-18.745-98.274-56.236-135.764a218.821 218.821 0 0 0-8.224-7.811c-5.125-4.62-6.07-12.31-1.998-17.829l.204-.27 23.566-30.298Z"/></g></svg>