<svg viewBox="0 0 1024 1024" focusable="false"><path fill-rule="evenodd" d="m637.746 673.949 23.566 30.299c4.342 5.583 12.45 6.579 17.806 1.96C733.548 659.261 768 589.791 768 512.274s-34.451-146.987-88.882-193.932c-5.355-4.62-13.464-3.623-17.806 1.96l-23.566 30.299c-4.305 5.535-3.415 13.403 1.794 18.098a218.821 218.821 0 0 1 8.224 7.81C685.254 414.002 704 459.257 704 512.276c0 53.02-18.745 98.274-56.236 135.765a218.132 218.132 0 0 1-8.224 7.81c-5.21 4.695-6.1 12.563-1.794 18.099Zm117.979 151.683 23.469 30.176c4.345 5.587 12.358 6.637 17.81 2.138C896.55 775.776 960 651.434 960 512.276c0-139.16-63.45-263.498-162.995-345.669-5.453-4.502-13.466-3.45-17.811 2.133l-23.47 30.178c-4.306 5.535-3.295 13.527 2.049 18.065a428.284 428.284 0 0 1 25.753 23.763C858.51 315.726 896 406.236 896 512.276c0 106.038-37.491 196.547-112.474 271.526a426.884 426.884 0 0 1-25.753 23.763c-5.344 4.537-6.355 12.531-2.048 18.067ZM76.8 320.272H256l256-204.8 3.992-3.194 39.212-31.37c8.38-6.704 20.796-.737 20.796 9.996v842.734c0 10.733-12.415 16.704-20.796 9.997l-39.212-31.366-3.992-3.194-256-204.803H76.8c-7.07 0-12.8-5.73-12.8-12.8v-358.4c0-7.07 5.73-12.8 12.8-12.8Zm201.65 64L512 197.432V827.11L278.45 640.272H128v-256h150.45Z"/></svg>