<svg viewBox="0 0 1024 1024" focusable="false"><path d="M652.181 340.395 523.243 78.955a12.8 12.8 0 0 0-22.955 0L371.2 340.395a12.8 12.8 0 0 1-9.621 6.997L73.024 389.376A12.8 12.8 0 0 0 65.92 411.2l208.81 203.499a12.8 12.8 0 0 1 3.691 11.306L229.12 913.493a12.8 12.8 0 0 0 18.56 13.504l258.09-135.744a12.8 12.8 0 0 1 11.905 0l258.133 135.744a12.8 12.8 0 0 0 18.56-13.504l-49.323-287.381a12.8 12.8 0 0 1 3.691-11.328l208.853-203.563a12.8 12.8 0 0 0-7.104-21.824l-288.682-41.984a12.8 12.8 0 0 1-9.643-6.997z"/></svg>