<svg viewBox="0 0 1024 1024" focusable="false"><path d="M652.16 340.416 523.264 78.976a12.8 12.8 0 0 0-23.04 0l-128.896 261.44a12.8 12.8 0 0 1-9.664 7.04l-288.64 41.92a12.8 12.8 0 0 0-7.04 21.824l208.832 203.52a12.8 12.8 0 0 1 3.648 11.328l-49.28 287.424a12.8 12.8 0 0 0 18.56 13.44l258.112-135.68a12.8 12.8 0 0 1 11.904 0l258.112 135.68a12.8 12.8 0 0 0 18.56-13.44l-49.28-287.36a12.8 12.8 0 0 1 3.648-11.328l208.832-203.52a12.8 12.8 0 0 0-7.04-21.888l-288.64-41.984a12.8 12.8 0 0 1-9.728-7.04zm-241.408 64.576L511.744 200.32 612.8 404.992l225.792 32.768L675.2 597.12l38.592 224.96-202.048-106.24-202.048 106.176 38.656-224.896-163.456-159.36 225.856-32.768z"/></svg>