<svg viewBox="0 0 1024 1024" focusable="false"><path fill-rule="evenodd" d="M664.88 317.392 552.158 88.983a44.801 44.801 0 0 0-20.346-20.347c-22.188-10.95-49.051-1.84-60.002 20.347L359.024 317.392l-252.048 36.66a44.8 44.8 0 0 0-25.639 13.063l-4.652 5.613c-12.372 17.666-10.484 42.195 5.462 57.739l182.35 177.741L221.5 859.354a44.804 44.804 0 0 0 4.502 28.422l3.51 5.632c12.885 17.632 37.081 23.642 56.991 13.178l225.48-118.605 225.481 118.605a44.828 44.828 0 0 0 28.423 4.499l5.92-1.434c21.05-6.617 34.496-27.942 30.662-50.297l-43.059-251.146 182.413-177.741a44.8 44.8 0 0 0 13.062-25.64l.47-6.074c.209-22.066-15.92-41.44-38.364-44.702L664.88 317.392Zm-510.2 94.403 223.59-32.489a44.8 44.8 0 0 0 33.732-24.507l99.99-202.588 99.99 202.588 3.158 5.41a44.805 44.805 0 0 0 30.574 19.097l223.527 32.49-161.73 157.703-4.169 4.674a44.802 44.802 0 0 0-8.715 34.98l38.166 222.61L532.84 726.701l-6.713-2.861a44.777 44.777 0 0 0-34.981 2.86L291.128 831.764l38.23-222.61.624-6.233a44.801 44.801 0 0 0-13.509-33.421L154.68 411.795Z"/></svg>