<svg viewBox="64 64 896 896"><path d="M471.808 73.088 359.04 301.504l-252.032 36.672a44.8 44.8 0 0 0-25.6 13.056l-4.736 5.632a44.8 44.8 0 0 0 5.504 57.728L264.512 592.32l-43.008 251.136a44.8 44.8 0 0 0 4.48 28.416l3.52 5.632a44.8 44.8 0 0 0 56.96 13.184L512 772.096l225.472 118.592a44.8 44.8 0 0 0 28.416 4.48l5.952-1.408a44.8 44.8 0 0 0 30.656-50.304L759.424 592.32l182.4-177.728a44.8 44.8 0 0 0 13.056-25.6l.512-6.144a44.8 44.8 0 0 0-38.4-44.672L664.96 301.44 552.192 73.088a44.8 44.8 0 0 0-80.384 0zM512 136.32l99.968 202.56 3.2 5.44a44.8 44.8 0 0 0 30.528 19.072l223.552 32.512L707.52 553.6l-4.16 4.672a44.8 44.8 0 0 0-8.704 35.008L732.8 815.872 532.864 710.784l-6.72-2.816a44.8 44.8 0 0 0-35.008 2.816L291.2 815.872l38.208-222.592.64-6.272a44.8 44.8 0 0 0-13.504-33.408L154.688 395.904l223.616-32.512a44.8 44.8 0 0 0 33.728-24.512L512 136.32z"/></svg>