<svg viewBox="0 0 1024 1024" focusable="false"><path fill-rule="evenodd" d="M128 76.8v852.18c0 3.404 1.494 6.668 4.152 9.074 5.513 4.986 14.428 4.96 19.912-.05l317.953-290.66 3.716-2.442c5.281-2.386 11.864-1.569 16.251 2.441l317.952 290.66c2.643 2.413 6.234 3.776 9.984 3.776 7.776 0 14.08-5.734 14.08-12.8V76.8c0-7.07-6.304-12.8-14.08-12.8H142.08C134.304 64 128 69.73 128 76.8Zm413.263 525.414-6.997-5.616c-33.852-24.343-83.624-22.588-115.389 5.49L192 804.8V128h576v676.864l-226.737-202.65ZM460.8 192h38.4c7.07 0 12.8 5.73 12.8 12.8V320h115.2c7.07 0 12.8 5.73 12.8 12.8v38.4c0 7.07-5.73 12.8-12.8 12.8H512v115.2c0 7.07-5.73 12.8-12.8 12.8h-38.4c-7.07 0-12.8-5.73-12.8-12.8V384H332.8c-7.07 0-12.8-5.73-12.8-12.8v-38.4c0-7.07 5.73-12.8 12.8-12.8H448V204.8c0-7.07 5.73-12.8 12.8-12.8Z"/></svg>