<svg viewBox="64 64 896 896" focusable="false"><path d="M964.736 335.744v40.704a12.8 12.8 0 0 1-12.8 12.8H98.816a12.8 12.8 0 0 1-9.152-21.632l39.296-40.768a12.8 12.8 0 0 1 9.216-3.904h813.76c7.04 0 12.8 5.76 12.8 12.8zM942.784 665.92l-42.048 41.92h-819.2a12.8 12.8 0 0 1-12.8-12.8v-38.144c0-7.04 5.76-12.8 12.8-12.8H933.76a12.8 12.8 0 0 1 9.024 21.824z"/><path d="M87.104 368.128 238.4 192.768a12.8 12.8 0 0 1 22.464 8.384v188.16H96.832a12.8 12.8 0 0 1-9.728-21.184zm858.368 297.344-150.4 167.04a12.8 12.8 0 0 1-22.4-8.576v-179.84H936a12.8 12.8 0 0 1 9.472 21.376z"/></svg>