<svg viewBox="0 0 1024 1024" focusable="false"><path fill-rule="evenodd" d="M371.233 64c7.045 0 12.756 5.73 12.756 12.8v854.447c0 7.069-5.71 12.8-12.756 12.8a12.732 12.732 0 0 1-8.537-3.289L196.21 790.311c-5.235-4.73-5.657-12.824-.942-18.077a12.737 12.737 0 0 1 9.479-4.234h115.67V76.8c0-7.07 5.712-12.8 12.757-12.8h38.06Zm281.513 0c3.153 0 6.194 1.172 8.537 3.289l166.486 150.446c5.236 4.731 5.658 12.825.943 18.078a12.737 12.737 0 0 1-9.48 4.234h-115.67v691.2c0 7.069-5.711 12.8-12.757 12.8h-38.06c-7.044 0-12.756-5.731-12.756-12.8V76.8c0-7.07 5.712-12.8 12.757-12.8Z"/></svg>