<svg viewBox="64 64 896 896" focusable="false"><path d="m815.218 220.217 37.319 266.581a11.378 11.378 0 0 1-3.186 9.614L378.652 967.054a11.378 11.378 0 0 1-16.1 0L56.947 661.447a11.378 11.378 0 0 1 0-16.1l470.642-470.641a11.378 11.378 0 0 1 9.67-3.243l268.402 39.083a11.378 11.378 0 0 1 9.615 9.67zm-51.542 41.7-212.024-30.891-422.287 422.286 241.266 241.323 422.457-422.457-29.412-210.262z"/><path d="M683.349 298.496q42.667 0 42.667 42.667 0 42.666-42.667 42.666-42.666 0-42.666-42.666 0-42.667 42.666-42.667Z"/></svg>