<svg viewBox="0 0 1024 1024" focusable="false"><path fill-rule="evenodd" d="M67.656 615.21 411.7 959.25c4.998 4.998 13.082 4.812 18.081-.186L959.22 429.628c2.835-2.84 4.154-6.873 3.597-10.85l-41.959-299.943c-.787-5.636-5.12-9.934-10.752-10.754L608.173 64.138c-3.999-.582-8.034.697-10.892 3.554L67.844 597.129c-4.999 4.999-5.186 13.083-.188 18.081Zm352.998 262.44L149.215 606.212l475.086-475.085 238.54 34.71 33.082 236.547-475.27 475.266Zm351.813-670.666c-26.509 0-48 21.49-48 48s21.491 48 48 48 48-21.49 48-48-21.491-48-48-48Z"/></svg>