<svg viewBox="0 0 1084 1024" focusable="false"><path d="m759.085 195.283 39.454 282.202a12.047 12.047 0 0 1-3.373 10.24L379.844 902.927a12.047 12.047 0 0 1-17.047 0L39.213 579.403a12.047 12.047 0 0 1 0-17.046l415.262-415.262a12.047 12.047 0 0 1 10.24-3.434l284.19 41.382a12.047 12.047 0 0 1 10.18 10.24zm-54.633 44.092-224.497-32.647L115.832 570.85 371.29 826.308l364.303-364.303-31.141-222.63z"/><path d="M589.643 292.503a45.176 45.176 0 1 1 63.85 63.849 45.176 45.176 0 0 1-63.85-63.85zm288.467 1.144 39.514 282.202a12.047 12.047 0 0 1-3.433 10.24L557.78 942.441a12.047 12.047 0 0 1-17.047 0l-120.29-120.29 42.767-42.405 86.016 86.076L854.618 560.43l-31.081-222.69-96.557-14.035-8.012-62.042 148.962 21.685a12.047 12.047 0 0 1 10.24 10.24z"/></svg>