<svg viewBox="0 0 1024 1024" focusable="false"><path fill-rule="evenodd" d="m42.04 552.559 344.043 344.045c4.999 4.999 13.115 4.775 18.114-.224l64.363-64.365 106.555 106.56c5 4.999 12.908 4.986 17.907-.019l378.729-378.725c2.841-2.84 4.243-6.965 3.686-10.943l-41.952-299.943c-.787-5.636-5.12-9.934-10.752-10.753l-104.755-15.246-10.983-78.517c-.787-5.635-5.12-9.934-10.752-10.753L494.311 89.732a12.982 12.982 0 0 0-10.977 3.64L42.261 534.445c-4.999 4.998-5.22 13.115-.22 18.114Zm785.167-263.633 21.747 155.447c.557 3.976-.845 8.096-3.687 10.935L513.815 786.76 584.053 857l324.504-324.504-33.082-236.548-48.268-7.023ZM395.016 815.03 123.578 543.594l386.866-386.867 238.535 34.71 33.082 236.548L395.016 815.03ZM694.61 247.587c-18.238-18.237-49.138-18.237-67.884.508-18.236 18.237-18.236 49.138.51 67.883 18.236 18.236 49.136 18.236 67.88-.51 18.24-18.235 18.24-49.136-.506-67.881Z"/></svg>