<svg viewBox="0 0 1024 1024" focusable="false"><g fill-rule="evenodd"><path d="m493.947 89.684.364.048 301.932 43.944c5.528.804 9.804 4.96 10.705 10.441l.047.312 10.983 78.517 104.755 15.246c5.528.804 9.804 4.96 10.705 10.442l.047.311 41.952 299.943c.54 3.857-.762 7.854-3.432 10.681l-.254.262-378.729 378.725c-4.918 4.924-12.654 5.016-17.663.257l-.244-.238-106.555-106.56-64.363 64.365c-4.92 4.92-12.858 5.214-17.874.458l-.24-.234L42.04 552.56c-4.92-4.92-4.784-12.859-.014-17.874l.234-.24L483.334 93.372c2.77-2.77 6.73-4.138 10.613-3.688Zm333.26 199.242 21.747 155.447c.557 3.976-.845 8.096-3.687 10.935L513.815 786.76l70.238 70.24 324.504-324.504-33.082-236.548-48.268-7.023ZM510.444 156.727 123.578 543.594 395.016 815.03 782.06 427.985l-33.082-236.548-238.535-34.71Z"/><path d="M694.611 247.587c-18.238-18.237-49.138-18.237-67.884.508-18.236 18.237-18.236 49.138.51 67.883 18.236 18.236 49.136 18.236 67.88-.51 18.24-18.235 18.24-49.136-.506-67.881Z"/></g></svg>