<svg viewBox="0 0 1024 1024" focusable="false"><path d="M416 256a192 192 0 1 1 0 384 192 192 0 0 1 0-384zm0 64a128 128 0 1 0 0 256 128 128 0 0 0 0-256z"/><path d="M608 64a192 192 0 0 1 115.2 345.6 323.2 323.2 0 0 1 211.712 303.488v5.248l-.64 12.992a44.8 44.8 0 0 1-38.4 41.792l-6.336.448-57.6-.064v-64l38.912.064-.256-9.472a257.984 257.984 0 0 0-38.528-123.712L832 576a261.504 261.504 0 0 0-128-105.408v-129.92A128 128 0 1 0 497.088 192h-70.08A192.064 192.064 0 0 1 608 64zM419.456 581.568A323.456 323.456 0 0 0 96 905.088l.256 11.008.32 6.656a44.8 44.8 0 0 0 44.736 42.304l556.224.512a44.8 44.8 0 0 0 44.8-42.24l.512-12.992.064-5.248a323.456 323.456 0 0 0-323.456-323.52zm12.992 64.32a259.52 259.52 0 0 1 246.144 246.208l.256 9.472-518.784-.512-.064 4.032a259.456 259.456 0 0 1 259.456-259.52l12.992.32z"/></svg>