<svg viewBox="0 0 1024 1024" focusable="false"><g fill-rule="evenodd"><path d="M800 256a191.992 191.992 0 0 1-76.623 153.467c123.497 45.538 211.56 164.279 211.56 303.589 0 1.626-.019 3.38-.07 5.274l-.563 13.004c-1.357 23.706-20.973 42.221-44.755 42.24l-44.762-.038c-7.065-.006-12.787-5.734-12.787-12.8v-38.394c0-7.078 5.74-12.806 12.813-12.8l26.035.026-.224-9.462C868.397 654.8 854.547 612.55 832 576.274V576h-.173c-28.243-45.318-70.08-81.29-119.806-102.212-4.892-2.058-8.021-6.724-8.021-12.031V345.502c0-3.118 1.143-6.094 3.116-8.508A128 128 0 0 0 736 256c0-70.692-57.308-128-128-128-43.244 0-83.38 21.816-106.952 57.676-2.512 3.822-6.716 6.324-11.29 6.324h-44.675c-8.835 0-14.965-8.806-11.249-16.82C465.032 107.882 532.736 64 608 64c106.038 0 192 85.962 192 192Z"/><path d="M416 256c106.038 0 192 85.962 192 192a192 192 0 0 1-76.623 153.467c123.497 45.538 211.56 164.28 211.56 303.589 0 1.626-.019 3.38-.07 5.274l-.563 13.004c-1.357 23.706-20.972 42.221-44.756 42.24l-556.259-.499c-23.77-.025-43.39-18.605-44.69-42.31a502.627 502.627 0 0 1-.331-6.701L96 905.056c0-137.574 85.887-255.092 206.966-301.855A192.001 192.001 0 0 1 224 448c0-106.038 85.962-192 192-192Zm3.47 389.586c-143.302 0-259.47 116.168-259.47 259.47l.064-4 518.784.512-.227-9.466C672.084 759.11 565.414 652.44 432.42 645.903ZM416 320c-70.692 0-128 57.308-128 128 0 70.692 57.308 128 128 128 70.692 0 128-57.308 128-128 0-70.692-57.308-128-128-128Z"/></g></svg>