<svg viewBox="0 0 1024 1024" focusable="false"><path d="M646.464 64.576H296.832a12.8 12.8 0 0 0-12.48 10.048L176.32 560.768a12.8 12.8 0 0 0 12.48 15.616h128.448a12.8 12.8 0 0 1 12.736 14.464l-49.472 357.376a12.8 12.8 0 0 0 21.76 10.816l553.216-552.832a12.8 12.8 0 0 0-9.024-21.824l-238.016-.064a12.8 12.8 0 0 1-12.48-15.552l63.04-288.64a12.8 12.8 0 0 0-12.544-15.552zm-298.368 63.936h218.88a12.8 12.8 0 0 1 12.544 15.552l-62.976 288.768a12.8 12.8 0 0 0 12.544 15.552H691.84a12.8 12.8 0 0 1 9.024 21.76l-309.12 308.992a12.8 12.8 0 0 1-21.76-10.816l33.472-241.408a12.8 12.8 0 0 0-12.672-14.528h-122.24A12.8 12.8 0 0 1 256 496.704l79.616-358.208a12.8 12.8 0 0 1 12.48-10.048z"/></svg>