<svg viewBox="0 0 1024 1024" focusable="false"><path fill-rule="evenodd" d="m302.227 958.464 553.267-552.815c8.07-8.062 2.362-21.853-9.043-21.855l-253.862-.047L659.002 79.53c1.743-7.981-4.336-15.53-12.505-15.53h-349.65a12.8 12.8 0 0 0-12.495 10.023L176.31 560.216c-1.777 7.995 4.309 15.579 12.5 15.576l143.17-.045-51.48 371.907c-1.682 12.154 13.047 19.482 21.727 10.81Zm62.523-152.96 38.712-279.155c1.067-7.693-4.907-14.556-12.674-14.558l-138.23-.046 85.312-383.808h245.056l-66.352 304.33c-1.74 7.981 4.34 15.529 12.51 15.527l193.682-.049L364.75 805.504Z"/></svg>