<svg viewBox="0 0 1024 1024" focusable="false"><path d="M925.68 214.657c2.535 4.344 4.662 7.92 6.2 10.816a320.128 320.128 0 0 1-429.83 435.532L229.163 933.892a12.8 12.8 0 0 1-18.102 0L93.4 816.229a12.8 12.8 0 0 1 0-18.102l272.886-272.886a320.128 320.128 0 0 1 446.303-423.586 12.8 12.8 0 0 1 2.444 20.003L568.53 368.161c-4.978 4.978-4.978 13.124 0 18.102l72.408 72.408a12.8 12.8 0 0 0 18.102 0l237.54-237.362 9.051-9.05a12.8 12.8 0 0 1 20.048 2.307zm-26.79 102.095-1.494-5.748-247.363 247.182-181.02-181.02 247.273-247.272-5.702-1.538a256.32 256.32 0 0 0-232.157 58.922l-9.458 8.915a256.128 256.128 0 0 0-51.817 287.594l5.792 11.948 21.723 41.634-269.855 269.674 45.3 45.3 269.855-269.764L531.6 604.3a256.128 256.128 0 0 0 367.2-287.55z"/></svg>