<svg viewBox="0 0 16 16" focusable="false"><path fill-rule="evenodd" d="M2.8 3c.11 0 .2.09.2.2V4h1.8c.11 0 .2.09.2.2v.6a.2.2 0 0 1-.2.2H3v3h1.8c.11 0 .2.09.2.2v.6a.2.2 0 0 1-.2.2H3v3h1.8c.11 0 .2.09.2.2v.6a.2.2 0 0 1-.2.2H2.2a.2.2 0 0 1-.2-.2V3.2c0-.11.09-.2.2-.2h.6Zm11 9c.11 0 .2.09.2.2v.6a.2.2 0 0 1-.2.2H6.2a.2.2 0 0 1-.2-.2v-.6c0-.11.09-.2.2-.2h7.6Zm0-4c.11 0 .2.09.2.2v.6a.2.2 0 0 1-.2.2H6.2a.2.2 0 0 1-.2-.2v-.6c0-.11.09-.2.2-.2h7.6Zm0-4c.11 0 .2.09.2.2v.6a.2.2 0 0 1-.2.2H6.2a.2.2 0 0 1-.2-.2v-.6c0-.11.09-.2.2-.2h7.6Z"/></svg>