<svg viewBox="0 0 1024 1024" focusable="false"><path d="M179.2 192c7.04 0 12.8 5.76 12.8 12.8V256h115.2c7.04 0 12.8 5.76 12.8 12.8v38.4a12.8 12.8 0 0 1-12.8 12.8H192v192h115.2c7.04 0 12.8 5.76 12.8 12.8v38.4a12.8 12.8 0 0 1-12.8 12.8H192v192h115.2c7.04 0 12.8 5.76 12.8 12.8v38.4a12.8 12.8 0 0 1-12.8 12.8H140.8a12.8 12.8 0 0 1-12.8-12.8V204.8c0-7.04 5.76-12.8 12.8-12.8h38.4zm704 576c7.04 0 12.8 5.76 12.8 12.8v38.4a12.8 12.8 0 0 1-12.8 12.8H396.8a12.8 12.8 0 0 1-12.8-12.8v-38.4c0-7.04 5.76-12.8 12.8-12.8h486.4zm0-256c7.04 0 12.8 5.76 12.8 12.8v38.4a12.8 12.8 0 0 1-12.8 12.8H396.8a12.8 12.8 0 0 1-12.8-12.8v-38.4c0-7.04 5.76-12.8 12.8-12.8h486.4zm0-256c7.04 0 12.8 5.76 12.8 12.8v38.4a12.8 12.8 0 0 1-12.8 12.8H396.8a12.8 12.8 0 0 1-12.8-12.8v-38.4c0-7.04 5.76-12.8 12.8-12.8h486.4z"/></svg>