<svg viewBox="64 64 896 896" focusable="false"><path d="m344 744.512-24.448 24.448a15.68 15.68 0 0 1-22.528 0L68.8 540.8a15.68 15.68 0 0 1 0-22.592l228.16-228.16a15.68 15.68 0 0 1 22.528 0l24.448 24.448a15.68 15.68 0 0 1 0 22.528L151.552 529.536 344 721.984a15.68 15.68 0 0 1 0 22.528zm289.472-522.56-182.72 632.256a15.552 15.552 0 0 1-19.072 10.752l-30.4-8.32a15.872 15.872 0 0 1-10.752-19.584L573.184 204.8a15.552 15.552 0 0 1 19.072-10.752l30.4 8.32c8.32 2.496 13.184 11.264 10.816 19.648zM955.2 540.8 726.976 768.96a15.68 15.68 0 0 1-22.528 0L680 744.512a15.68 15.68 0 0 1 0-22.528l192.448-192.512L680 337.024a15.68 15.68 0 0 1 0-22.528l24.448-24.512a15.68 15.68 0 0 1 22.528 0L955.2 518.208a15.68 15.68 0 0 1 0 22.528z"/></svg>