<svg viewBox="0 0 1024 1024" focusable="false"><path fill-rule="evenodd" d="M763.34 241.542C740.53 140.39 636.674 64 512 64c-141.385 0-256 98.241-256 219.428V384H140.8c-7.07 0-12.8 5.73-12.8 12.8v550.4c0 7.072 5.73 12.8 12.8 12.8h742.4c7.072 0 12.8-5.728 12.8-12.8V396.8c0-7.07-5.728-12.8-12.8-12.8H320V281.6l.326-9.025C326.166 191.945 409.748 128 512 128l11.281.26c85.737 3.975 156.38 52.954 175.568 117.848 1.717 5.808 6.834 9.892 12.89 9.892h39.483c7.803 0 13.835-6.847 12.119-14.458ZM192 448h640v448H192V448Zm448 185.6v-51.2c0-3.535-5.73-6.4-12.8-6.4H396.8c-7.07 0-12.8 2.865-12.8 6.4v51.2c0 3.535 5.73 6.4 12.8 6.4h230.4c7.07 0 12.8-2.865 12.8-6.4Z"/></svg>