<svg viewBox="0 0 1024 1024" focusable="false"><path fill-rule="evenodd" d="M960 512c0 247.424-200.576 448-448 448-247.423 0-448-200.576-448-448C64 264.577 264.577 64 512 64c247.424 0 448 200.577 448 448Zm-64 0c0 212.077-171.923 384-384 384S128 724.077 128 512s171.923-384 384-384 384 171.923 384 384ZM511.92 409.556 287.565 633.98c-5 5-12.933 5.068-17.932.07l-27.39-27.391c-4.999-4.999-4.76-13.104.238-18.103l260.35-260.349c4.997-4.999 13.16-5.181 18.158-.182L785.44 592.477c4.998 4.998 5.056 12.921.058 17.92l-27.392 27.39c-4.999 4.999-13.082 4.784-18.08-.213L511.92 409.556Z"/></svg>