<svg viewBox="64 64 896 896" focusable="false"><path d="M128 780.8V896h768V780.8c0-7.04 5.76-12.8 12.8-12.8h38.4c7.04 0 12.8 5.76 12.8 12.8v166.4a12.8 12.8 0 0 1-12.8 12.8H76.8A12.8 12.8 0 0 1 64 947.2V780.8c0-7.04 5.76-12.8 12.8-12.8h38.4c7.04 0 12.8 5.76 12.8 12.8z"/><path d="M396.8 826.688a12.8 12.8 0 0 1-12.8-12.8v-371.2H222.912a12.8 12.8 0 0 1-9.088-21.824L503.04 131.776a12.8 12.8 0 0 1 18.048 0L810.24 420.864a12.8 12.8 0 0 1-9.088 21.824L640 442.752v371.2a12.8 12.8 0 0 1-12.8 12.8H396.8zm51.264-63.936h128v-384l101.568.064L512 213.184 346.496 378.752H448l.064 384z"/></svg>