<svg viewBox="0 0 1024 1024" focusable="false"><path fill-rule="evenodd" d="m348.552 453.89-29.673 25.057c-5.4 4.561-13.582 3.801-17.876-1.814-35.05-45.826-54.464-102.01-54.464-161.111C246.539 169.412 365.39 50.56 512 50.56c142.168 0 258.233 111.757 265.142 252.212v.136c.175 7.19-5.604 13.114-12.797 13.114h-38.084c-7.068 0-12.755-5.678-13.195-12.733C706.497 197.957 618.988 114.56 512 114.56c-111.264 0-201.462 90.198-201.462 201.462 0 43.425 13.753 84.66 38.724 118.787l1.092 1.388c4.263 5.42 3.466 13.244-1.803 17.694ZM672 960.02c159.06 0 288-128.942 288-287.999 0-159.058-128.94-288-288-288-159.058 0-288 128.942-288 288 0 159.057 128.942 287.998 288 287.998Zm0-64c123.712 0 224-100.289 224-223.999 0-123.712-100.288-224-224-224s-224 100.288-224 224c0 123.71 100.288 223.998 224 223.998Zm-32-192v115.2c0 7.071 5.73 12.8 12.8 12.8h38.4c7.07 0 12.8-5.729 12.8-12.8v-115.2h115.2c7.072 0 12.8-5.729 12.8-12.8v-38.4c0-7.07-5.728-12.8-12.8-12.8H704v-115.2c0-7.07-5.73-12.8-12.8-12.8h-38.4c-7.07 0-12.8 5.73-12.8 12.8v115.2H524.8c-7.07 0-12.8 5.73-12.8 12.8v38.398c0 7.072 5.73 12.8 12.8 12.8H640ZM96.254 907.852 96 896.019c0-146.163 76.043-279.04 197.555-354.097l2.98-1.76c6.172-3.647 14.134-1.515 17.658 4.728l18.752 33.218c3.474 6.156 1.208 13.99-4.818 17.686-98.95 60.696-162.471 166.516-167.768 284.232L160 900.883l211.233.25c7.068.006 12.79 5.74 12.784 12.813l-.034 38.4c-.007 7.072-5.743 12.793-12.812 12.787l-229.484-.205c-23.692-.026-43.279-18.483-44.678-42.1l-.755-14.975Z"/></svg>