<svg viewBox="64 64 896 896" focusable="false"><path d="M512 64a448 448 0 1 1 0 896 448 448 0 0 1 0-896zm0 64a384 384 0 1 0 0 768 384 384 0 0 0 0-768z"/><path d="M512 192a192 192 0 1 1 0 384 192 192 0 0 1 0-384zm0 64a128 128 0 1 0 0 256 128 128 0 0 0 0-256z"/><path d="M512 544c156.928 0 295.68 87.68 366.592 223.744l-18.816 25.216-29.312 16.896A352 352 0 0 0 512 608a351.936 351.936 0 0 0-309.952 184.96l-7.04 13.76-45.952-38.976c3.648-7.552-4.096-3.84 0-11.136A415.872 415.872 0 0 1 512 544z"/></svg>