<svg viewBox="0 0 1024 1024" focusable="false"><path fill-rule="evenodd" d="m318.88 478.947 29.672-25.056c5.27-4.45 6.066-12.274 1.803-17.694l-1.092-1.388c-24.971-34.127-38.724-75.362-38.724-118.787 0-111.264 90.198-201.462 201.462-201.462 106.987 0 194.497 83.397 201.066 188.729.44 7.055 6.127 12.733 13.195 12.733h38.084c7.193 0 12.972-5.924 12.797-13.114v-.136C770.233 162.317 654.17 50.56 512.001 50.56c-146.61 0-265.462 118.851-265.462 265.462 0 59.102 19.415 115.285 54.464 161.11 4.294 5.616 12.475 6.376 17.876 1.815ZM960 672.021c0 159.057-128.94 287.998-288 287.998-159.058 0-288-128.94-288-287.998s128.942-288 288-288c159.06 0 288 128.942 288 288ZM786.982 864.256A223.993 223.993 0 0 1 672 896.019c-123.712 0-224-100.288-224-223.998a224 224 0 0 1 31.762-114.98l307.22 307.215Zm49.895-40.608L520.372 507.142A224 224 0 0 1 672 448.022c123.712 0 224 100.287 224 224 0 56.164-21.1 110.282-59.123 151.626ZM96 896.019l.254 11.834.755 14.976c1.4 23.616 20.986 42.073 44.678 42.099l229.484.205c7.069.006 12.805-5.715 12.812-12.787l.034-38.4c.007-7.072-5.716-12.807-12.784-12.813L160 900.883l.359-20.857c5.297-117.716 68.819-223.536 167.768-284.232 6.026-3.696 8.292-11.53 4.818-17.686l-18.752-33.218c-3.524-6.243-11.486-8.375-17.657-4.729l-2.981 1.76C172.043 616.98 96 749.857 96 896.02Z"/></svg>