<svg viewBox="0 0 1024 1024" focusable="false"><path d="M512 50.56a265.472 265.472 0 0 1 265.152 252.16l.32 13.248h-64a201.472 201.472 0 1 0-364.16 118.848l8.704 11.072-48.896 41.28A265.472 265.472 0 0 1 512 50.56zM307.776 533.504l31.488 55.68A351.808 351.808 0 0 0 160.384 880L160 900.864l224 .256v64l-242.304-.192a44.8 44.8 0 0 1-44.672-42.112l-.768-14.976L96 896a415.744 415.744 0 0 1 197.568-354.112l14.208-8.384zM672 384a288 288 0 1 1 0 576 288 288 0 0 1 0-576zm0 64a224 224 0 1 0 0 448 224 224 0 0 0 0-448z"/><path d="m468.352 545.6 45.248-45.248L875.648 862.4 830.4 907.648z"/></svg>