<svg viewBox="0 0 1024 1024" focusable="false"><path fill-rule="evenodd" d="M512 64c247.424 0 448 200.577 448 448 0 247.424-200.576 448-448 448-247.423 0-448-200.576-448-448C64 264.577 264.577 64 512 64Zm0 64c-212.077 0-384 171.923-384 384s171.923 384 384 384 384-171.923 384-384-171.923-384-384-384ZM377.541 320a12.8 12.8 0 0 1 10.748 5.85l1.4 2.923L510.044 711.25h4l124.032-382.516a12.796 12.796 0 0 1 8.929-8.327l3.208-.407h41.668c7.576 0 13.199 6.426 12.79 13.509l-.726 3.57-147.88 422.397a12.804 12.804 0 0 1-8.902 8.128l-3.162.396H480.02c-4.31 0-8.252-2.158-10.596-5.615l-1.44-2.823L320 337.164c-2.592-7.153 1.58-14.654 8.415-16.651l3.62-.513h45.506Z"/></svg>