<svg viewBox="0 0 1024 1024" focusable="false"><path d="m488.96 276.032 162.88 162.944a12.8 12.8 0 0 1 0 18.048l-27.136 27.2a12.8 12.8 0 0 1-18.112 0L512 389.568V883.2a12.8 12.8 0 0 1-12.8 12.8h-38.4a12.8 12.8 0 0 1-12.8-12.8V389.312l-94.784 94.912a12.8 12.8 0 0 1-18.112 0L307.84 456.96a12.8 12.8 0 0 1 0-18.048l162.944-162.944a12.8 12.8 0 0 1 18.112 0zM819.2 128c7.04 0 12.8 5.76 12.8 12.8v38.4a12.8 12.8 0 0 1-12.8 12.8H140.8a12.8 12.8 0 0 1-12.8-12.8v-38.4c0-7.04 5.76-12.8 12.8-12.8h678.4z"/></svg>