<svg viewBox="0 0 1024 1024" focusable="false"><path d="M470.84 596.02c3.999-4 9.985-4.799 14.78-2.4l3.322 2.4 162.917 162.917c4 4 4.799 9.986 2.4 14.78l-2.4 3.322-27.153 27.153c-3.999 3.999-9.985 4.799-14.78 2.4l-3.322-2.4L512 709.568V947.2c0 7.07-5.73 12.8-12.8 12.8h-38.4c-7.07 0-12.8-5.73-12.8-12.8V709.312l-94.823 94.88c-3.999 3.999-9.986 4.799-14.78 2.4l-3.322-2.4-27.153-27.153c-3.999-3.999-4.799-9.986-2.4-14.78l2.4-3.322L470.84 596.02zM819.2 448c7.07 0 12.8 5.73 12.8 12.8v38.4c0 7.07-5.73 12.8-12.8 12.8H140.8c-7.07 0-12.8-5.73-12.8-12.8v-38.4c0-7.07 5.73-12.8 12.8-12.8h678.4zM499.2 0c5.891 0 10.853 3.98 12.343 9.397L512 12.8v237.504l94.59-94.53c4.998-5 13.103-5 18.101 0l27.153 27.152c4.999 4.999 4.999 13.104 0 18.102L488.927 363.945c-4.999 5-13.103 5-18.102 0L307.908 201.028c-5-4.999-5-13.103 0-18.102l27.152-27.153c5-4.999 13.104-4.999 18.102 0L448 250.56V12.8c0-5.891 3.98-10.853 9.397-12.343L460.8 0h38.4z"/></svg>