<svg viewBox="0 0 1024 1024" focusable="false"><path fill-rule="evenodd" d="M128 883.2v-38.4c0-1.697.325-3.33.974-4.898a12.678 12.678 0 0 1 2.775-4.153 12.68 12.68 0 0 1 4.153-2.775A12.679 12.679 0 0 1 140.8 832h678.4c1.698 0 3.33.325 4.896.974 1.57.65 2.955 1.575 4.154 2.775a12.624 12.624 0 0 1 2.777 4.153c.649 1.568.973 3.2.973 4.898v38.4c0 1.697-.324 3.33-.973 4.898a12.624 12.624 0 0 1-2.777 4.153 12.649 12.649 0 0 1-4.154 2.775c-1.566.65-3.198.974-4.896.974H140.8c-1.697 0-3.33-.325-4.898-.974a12.678 12.678 0 0 1-4.153-2.775 12.678 12.678 0 0 1-2.775-4.153A12.679 12.679 0 0 1 128 883.2Zm523.592-298.073L488.675 748.044c-4.999 4.999-13.104 4.999-18.102 0L307.655 585.127c-4.998-4.999-4.998-13.103 0-18.102l27.153-27.153c4.999-4.999 13.104-4.999 18.102 0l95.09 95.09V140.8c0-7.072 5.73-12.8 12.8-12.8h38.4c7.07 0 12.8 5.728 12.8 12.8v493.41l94.337-94.338c4.999-4.999 13.104-4.999 18.102 0l27.153 27.153c4.999 4.999 4.999 13.103 0 18.102Z"/></svg>