<svg viewBox="0 0 1024 1024" focusable="false"><path fill-rule="evenodd" d="M320 716.8v166.4c0 7.07-5.73 12.8-12.8 12.8H140.8c-7.07 0-12.8-5.73-12.8-12.8V716.8c0-7.07 5.73-12.8 12.8-12.8h166.4c7.07 0 12.8 5.73 12.8 12.8Zm288 0v166.4c0 7.07-5.73 12.8-12.8 12.8H428.8c-7.07 0-12.8-5.73-12.8-12.8V716.8c0-7.07 5.73-12.8 12.8-12.8h166.4c7.07 0 12.8 5.73 12.8 12.8Zm288 0v166.4c0 7.07-5.73 12.8-12.8 12.8H716.8c-7.07 0-12.8-5.73-12.8-12.8V716.8c0-7.07 5.73-12.8 12.8-12.8h166.4c7.07 0 12.8 5.73 12.8 12.8ZM256 768h-64v64h64v-64Zm288 0h-64v64h64v-64Zm288 0h-64v64h64v-64ZM320 428.8v166.4c0 7.07-5.73 12.8-12.8 12.8H140.8c-7.07 0-12.8-5.73-12.8-12.8V428.8c0-7.07 5.73-12.8 12.8-12.8h166.4c7.07 0 12.8 5.73 12.8 12.8Zm288 0v166.4c0 7.07-5.73 12.8-12.8 12.8H428.8c-7.07 0-12.8-5.73-12.8-12.8V428.8c0-7.07 5.73-12.8 12.8-12.8h166.4c7.07 0 12.8 5.73 12.8 12.8Zm288 0v166.4c0 7.07-5.73 12.8-12.8 12.8H716.8c-7.07 0-12.8-5.73-12.8-12.8V428.8c0-7.07 5.73-12.8 12.8-12.8h166.4c7.07 0 12.8 5.73 12.8 12.8ZM256 480h-64v64h64v-64Zm288 0h-64v64h64v-64Zm288 0h-64v64h64v-64ZM320 140.8v166.4c0 7.07-5.73 12.8-12.8 12.8H140.8c-7.07 0-12.8-5.73-12.8-12.8V140.8c0-7.07 5.73-12.8 12.8-12.8h166.4c7.07 0 12.8 5.73 12.8 12.8Zm288 0v166.4c0 7.07-5.73 12.8-12.8 12.8H428.8c-7.07 0-12.8-5.73-12.8-12.8V140.8c0-7.07 5.73-12.8 12.8-12.8h166.4c7.07 0 12.8 5.73 12.8 12.8Zm288 0v166.4c0 7.07-5.73 12.8-12.8 12.8H716.8c-7.07 0-12.8-5.73-12.8-12.8V140.8c0-7.07 5.73-12.8 12.8-12.8h166.4c7.07 0 12.8 5.73 12.8 12.8ZM256 192h-64v64h64v-64Zm288 0h-64v64h64v-64Zm288 0h-64v64h64v-64Z"/></svg>