<svg viewBox="0 0 1024 1024" focusable="false"><path fill-rule="evenodd" d="M384 76.8v166.47c0 7.07 5.73 12.8 12.8 12.8h232.868c7.07 0 12.8-5.73 12.8-12.8V76.8c0-7.07-5.73-12.8-12.8-12.8H396.8c-7.07 0-12.8 5.73-12.8 12.8Zm-76.8-12.73H140.8c-7.07 0-12.8 5.731-12.8 12.8v870.4c0 7.072 5.73 12.8 12.8 12.8h742.4c7.072 0 12.8-5.728 12.8-12.8V76.87c0-7.069-5.728-12.8-12.8-12.8H716.8c-7.07 0-12.8 5.731-12.8 12.8v38.4c0 7.07 5.73 12.8 12.8 12.8H832v768H192v-768h115.2c7.07 0 12.8-5.73 12.8-12.8v-38.4c0-7.069-5.73-12.8-12.8-12.8Zm271.232 127.94H448v-64.065h130.432v64.065Zm181.994 178.72 27.152 27.154c4.998 5 4.998 13.104 0 18.102L490.354 713.21c-5 5.004-13.103 5.004-18.102 0L261.623 502.584c-5.063-5.063-4.988-13.294.166-18.265l28.038-27.039c5.024-4.845 13.002-4.772 17.937.163l173.89 173.889 260.671-260.603c5-4.998 13.103-4.997 18.1.001Z"/></svg>