<svg viewBox="0 0 1024 1024" focusable="false"><path d="m261.76 484.224 28.096-27.008a12.8 12.8 0 0 1 17.92.128l164.8 164.864a12.8 12.8 0 0 0 18.112 0l251.648-251.52a12.8 12.8 0 0 1 18.112 0l27.136 27.136a12.8 12.8 0 0 1 0 18.112L490.368 713.152a12.8 12.8 0 0 1-18.112 0L261.632 502.528a12.8 12.8 0 0 1 .128-18.304z"/><path d="M172.672 63.872H320v64H192V896h640V127.936H706.24V64H851.2a44.8 44.8 0 0 1 44.416 38.72l.384 6.08v806.4a44.8 44.8 0 0 1-38.72 44.416l-6.08.384H172.8a44.8 44.8 0 0 1-44.416-38.72L128 915.2V108.672c0-24.576 19.776-44.544 44.672-44.8z"/><path d="M629.696 63.936H396.8a12.8 12.8 0 0 0-12.8 12.8V243.2c0 7.04 5.76 12.8 12.8 12.8h232.896a12.8 12.8 0 0 0 12.8-12.8V76.736a12.8 12.8 0 0 0-12.8-12.8zm-51.264 76.736v38.464a12.8 12.8 0 0 1-12.8 12.8H460.8a12.8 12.8 0 0 1-12.8-12.8v-38.464c0-7.04 5.76-12.8 12.8-12.8h104.832c7.04 0 12.8 5.76 12.8 12.8z"/></svg>