<svg viewBox="64 64 896 896" focusable="false"><path d="M468.32 861.952a64 64 0 1 0 90.51-90.51 64 64 0 1 0-90.51 90.51ZM343.824 624.953a256 256 0 0 1 343.077.316 12.48 12.48 0 0 1 .226 17.786l-27.47 27.47a12.8 12.8 0 0 1-17.65.452 192 192 0 0 0-254.422.543 11.648 11.648 0 0 1-16.156-.226l-27.967-27.968a12.8 12.8 0 0 1 .362-18.464zm-273.43-269.99 4.526-4.345c246.503-232.293 632.345-232.022 878.441.95l3.53 3.44a12.8 12.8 0 0 1 .136 18.237l-27.153 27.153a12.8 12.8 0 0 1-17.921.181l-3.485-3.394a576 576 0 0 0-789.877.272l-3.168 3.077a12.8 12.8 0 0 1-17.966-.136l-27.153-27.153a12.8 12.8 0 0 1 .135-18.237z"/><path d="m206.702 490.274 4.842-4.48a448 448 0 0 1 608.225 2.896l1.72 1.72a12.8 12.8 0 0 1 .135 18.238L794.471 535.8a12.8 12.8 0 0 1-17.875.226l-3.711-3.53a384 384 0 0 0-519.933 2.218l-1.358 1.267a12.8 12.8 0 0 1-17.92-.181l-27.153-27.153a12.8 12.8 0 0 1 .226-18.328z"/></svg>