<svg viewBox="0 0 1024 1024" focusable="false"><path fill-rule="evenodd" d="M905.952 348.559c-221.652-208.85-568.368-208.745-789.893.312l-3.134 3.044c-5.018 4.876-13.022 4.818-17.97-.13L67.74 324.57c-5.025-5.025-4.987-13.212.12-18.152a494.062 494.062 0 0 1 4.574-4.377c246.506-232.36 632.302-232.054 878.446.918l3.54 3.444c5.113 4.977 5.17 13.177.12 18.225l-27.09 27.095c-4.973 4.972-12.986 5.014-18.048.132a497.281 497.281 0 0 0-3.45-3.296Zm-655.529 137.5c146.31-135.909 372.792-136.636 519.958-2.18 1.037.945 2.248 2.076 3.635 3.393 5.094 4.822 13.088 4.788 18.048-.171l27.098-27.1c5.062-5.059 4.992-13.282-.154-18.254l-1.715-1.659C646.43 280.392 381.06 279.416 209.04 437.158a359.277 359.277 0 0 0-4.997 4.689c-5.154 4.916-5.13 13.061-.093 18.098l27.219 27.22c4.934 4.933 12.91 5.006 17.934.164l1.319-1.27Zm134.68 136.948c71.377-63.559 178.802-64.633 251.398-3.225.818.691 1.748 1.505 2.791 2.44 5.185 4.65 13.072 4.593 17.996-.332l27.355-27.354c4.954-4.955 4.855-13.019-.22-17.85-96.07-87.07-242.294-88.209-339.677-3.42a188.162 188.162 0 0 0-3.76 3.381c-5.266 4.846-5.196 13-.135 18.06l28.064 28.066c4.444 4.444 11.617 4.548 16.188.234ZM575.08 768.09a63.999 63.999 0 0 0-18.745-45.252c-24.994-24.994-65.516-24.994-90.51 0-24.993 24.993-24.993 65.514 0 90.506 24.994 24.998 65.516 24.998 90.51 0a63.987 63.987 0 0 0 18.745-45.254Z"/></svg>