<?xml version="1.0" encoding="UTF-8"?>
<svg width="512px" height="512px" viewBox="0 0 512 512" version="1.1" xmlns="http://www.w3.org/2000/svg" xmlns:xlink="http://www.w3.org/1999/xlink">
    <!-- Generator: Sketch 58 (84663) - https://sketch.com -->
    <title>512</title>
    <desc>Created with Sketch.</desc>
    <defs>
        <linearGradient x1="50%" y1="0%" x2="50%" y2="99.6278505%" id="linearGradient-1">
            <stop stop-color="#00ACFF" offset="0%"></stop>
            <stop stop-color="#3366FF" offset="100%"></stop>
        </linearGradient>
        <linearGradient x1="50%" y1="0%" x2="50%" y2="100%" id="linearGradient-2">
            <stop stop-color="#1DB83F" offset="0%"></stop>
            <stop stop-color="#72D13D" offset="100%"></stop>
        </linearGradient>
    </defs>
    <g id="512" stroke="none" stroke-width="1" fill="none" fill-rule="evenodd">
        <path d="M177.86925,248.928682 L280.519206,335.062222 C240.759005,382.446584 170.114378,388.627188 122.730016,348.866987 L112.992597,340.69559 C85.2484432,317.235718 57.3417755,293.819487 29.2725938,270.446898 L36.9860451,261.254365 C55.3935456,239.31716 81.2150028,227.271118 107.71087,225.705873 L113.396423,225.530798 C136.160274,225.475402 159.065932,233.150824 177.86925,248.928682 Z" id="路径" fill="#204ED9"></path>
        <path d="M381.752393,180.538036 L389.326662,180.911973 L394.804224,181.450829 L402.064517,182.517166 L407.565147,183.597666 L413.746338,185.100288 L420.677642,187.16162 L426.35066,189.158375 L432.85026,191.80803 L435.72704,193.11056 L435.72704,193.11056 L441.415592,195.934524 L447.220513,199.178418 L453.772795,203.320793 L458.613984,206.742765 L463.286086,210.36851 L468.754148,215.063064 L473.893195,219.980346 L478.132521,224.462322 L480.354481,226.985873 L480.354481,226.985873 L484.832012,232.488802 L488.521876,237.509824 L289.189813,377.083637 C270.290351,390.317183 248.534221,397.241112 226.673973,397.993601 L220.115527,398.034343 C193.89127,397.457843 167.913449,388.014367 146.938466,369.942683 L131.072326,356.135448 L131.072326,356.135448 L110.546015,338.587576 L302.553939,204.573853 C309.83874,199.489359 317.453855,195.231425 325.287905,191.780328 L333.189511,188.59792 C337.293324,187.096313 341.444772,185.807126 345.629031,184.727526 L351.928172,183.264961 L358.576746,182.06628 L365.543721,181.17942 L372.201691,180.677369 C375.386733,180.517103 378.572426,180.471035 381.752393,180.538036 Z" id="路径" fill="url(#linearGradient-1)"></path>
        <path d="M205.555408,129.877903 L254.582253,171.016311 C234.702152,194.708492 199.379839,197.798794 175.687658,177.918693 L131.25708,140.637012 L135.113806,136.040745 C152.863895,114.887012 184.401675,112.127814 205.555408,129.877903 Z" id="路径" fill="#03782A"></path>
        <path d="M288.258025,104.513762 L293.065232,104.888165 L297.510166,105.58836 L302.305117,106.73969 L305.914249,107.892415 L310.065836,109.545339 L310.065836,109.545339 L312.802621,110.841789 L317.230045,113.325634 L318.8168,114.343922 L321.166231,115.989826 L323.237315,117.590331 L324.872307,118.963257 L327.090897,120.998723 L328.846559,122.767853 L328.846559,122.767853 L330.539127,124.624798 L332.368909,126.824928 L334.476105,129.653782 L252.653243,186.946767 C243.955124,193.037256 234.047127,196.454707 224.002425,197.253327 L218.973651,197.434651 C205.559706,197.337559 192.220708,192.600825 181.500478,183.352934 L169.509998,173.009252 L252.282726,115.13281 C254.680485,113.456247 257.159485,111.982573 259.699342,110.708187 L263.805805,108.841196 L263.805805,108.841196 L266.282439,107.892863 L271.071051,106.410166 L271.071051,106.410166 L275.930386,105.348837 L279.187488,104.874327 L280.865634,104.701914 C283.329355,104.484369 285.798539,104.422545 288.258025,104.513762 Z" id="路径" fill="url(#linearGradient-2)"></path>
    </g>
</svg>